<?xml version="1.0" encoding="UTF-8" standalone="no"?>
<!-- Created with Inkscape (http://www.inkscape.org/) -->

<svg
   version="1.1"
   id="svg1"
   width="736"
   height="736"
   viewBox="0 0 736 736"
   sodipodi:docname="Cute Raccoon Coffee Funny Trash Panda.jpg"
   xmlns:inkscape="http://www.inkscape.org/namespaces/inkscape"
   xmlns:sodipodi="http://sodipodi.sourceforge.net/DTD/sodipodi-0.dtd"
   xmlns="http://www.w3.org/2000/svg"
   xmlns:svg="http://www.w3.org/2000/svg">
  <defs
     id="defs1" />
  <sodipodi:namedview
     id="namedview1"
     pagecolor="#505050"
     bordercolor="#eeeeee"
     borderopacity="1"
     inkscape:showpageshadow="0"
     inkscape:pageopacity="0"
     inkscape:pagecheckerboard="0"
     inkscape:deskcolor="#505050"
     showgrid="false">
    <inkscape:page
       x="0"
       y="0"
       width="736"
       height="736"
       id="page2"
       margin="0"
       bleed="0" />
  </sodipodi:namedview>
  <g
     inkscape:groupmode="layer"
     inkscape:label="Image"
     id="g1">
    <path
       style="fill:#131313"
       d="m 380.5,636.79542 c -2.75,-0.46754 -6.98769,-0.61107 -9.41709,-0.31897 -3.13556,0.37701 -4.90096,0.0932 -6.08487,-0.97822 -1.34643,-1.21851 -2.28104,-1.29554 -4.85056,-0.3998 -1.85099,0.64526 -4.32609,0.78072 -5.91513,0.32374 -4.11026,-1.18207 -10.64362,-1.22473 -11.40375,-0.0745 -0.44626,0.67531 -2.12286,0.57771 -5,-0.29105 -2.38073,-0.71886 -7.4786,-1.47793 -11.3286,-1.68681 -14.05645,-0.76264 -18.17564,-1.13211 -20.36336,-1.82646 -1.30579,-0.41444 -2.83753,-0.20657 -3.68979,0.50074 -0.90022,0.74712 -3.32932,1.02947 -6.35524,0.73871 -2.69394,-0.25885 -5.64017,-0.0553 -6.5472,0.45226 -1.05051,0.5879 -2.11688,0.5347 -2.93775,-0.14656 -2.30656,-1.91427 -27.85477,-3.28928 -30.51924,-1.64255 -0.61959,0.38293 -2.71128,0.17321 -4.64821,-0.46603 -1.93693,-0.63925 -4.22266,-0.89328 -5.0794,-0.56452 C 244.48051,631.13658 232,628.96252 232,627.914 c 0,-0.40716 -1.66379,0.069 -3.69731,1.05811 -2.3159,1.12647 -4.27743,1.48805 -5.25,0.96778 -0.85398,-0.45684 -3.23472,-1.09957 -5.29054,-1.42829 -2.20087,-0.35191 -4.15594,-1.37889 -4.75463,-2.49756 -1.1615,-2.17027 -7.0996,-2.32196 -9.18689,-0.23467 -1.71149,1.71149 -7.94656,1.52115 -10.5794,-0.32296 -1.74722,-1.2238 -2.98454,-1.33545 -5.9725,-0.53895 -2.23286,0.59522 -5.26434,0.66325 -7.43867,0.16695 -2.01847,-0.46072 -4.74584,-0.632 -6.06082,-0.38063 -2.7322,0.52229 -5.09598,-1.68874 -4.22683,-3.9537 0.63215,-1.64737 12.96924,-3.35724 16.38987,-2.27157 1.04467,0.33156 2.18883,0.13454 2.54258,-0.43783 0.35375,-0.57238 2.31078,-1.04068 4.34897,-1.04068 2.03818,0 5.48508,-0.95364 7.65977,-2.11921 2.17469,-1.16556 6.01084,-2.23018 8.52477,-2.36583 2.51394,-0.13564 5.54497,-0.55581 6.73563,-0.93371 1.32548,-0.42069 3.08584,-0.0836 4.54024,0.86934 1.30648,0.85603 2.66723,1.26461 3.02389,0.90795 0.35666,-0.35667 4.82074,-0.75112 9.92017,-0.87656 5.09944,-0.12544 12.56362,-0.96021 16.58708,-1.85503 7.96056,-1.77044 15.89742,-2.09514 18.03921,-0.73798 0.74837,0.47421 2.5385,0.47793 4,0.008 1.45498,-0.46752 4.44541,-1.14332 6.64541,-1.50178 2.2,-0.35847 3.4375,-0.8566 2.75,-1.10697 -0.6875,-0.25036 -1.25,-1.06238 -1.25,-1.80449 0,-0.7421 -0.9,-1.63492 -2,-1.98405 -2.02513,-0.64275 -2.84149,-3.5 -1,-3.5 1.43197,0 1.23329,-2.07475 -0.37549,-3.92126 C 273.00144,591.9203 266.915,578.26916 266.55765,573.5 266.37294,571.03487 262.54626,560.3451 261.33881,558.92126 260.60246,558.05295 260,556.79705 260,556.13036 c 0,-0.66669 -0.89432,-4.00626 -1.98737,-7.42126 -1.09305,-3.41501 -1.93233,-8.2341 -1.86507,-10.7091 0.23309,-8.57687 -0.72944,-16.79127 -2.17108,-18.52834 -1.10264,-1.3286 -1.45189,-4.91656 -1.46252,-15.0252 -0.008,-7.30389 -0.34059,-13.60642 -0.73979,-14.00563 -0.39921,-0.39921 -1.31708,-0.23515 -2.0397,0.36458 -1.66994,1.38593 -23.59225,2.23372 -24.38983,0.94322 -0.32296,-0.52257 -1.91443,-0.68467 -3.53659,-0.36024 -4.52357,0.90471 -8.5425,-1.72583 -10.9721,-7.18166 -1.15281,-2.5887 -2.44606,-5.42178 -2.87391,-6.29573 -0.42784,-0.87395 -1.09197,-4.10273 -1.47583,-7.17507 -0.83315,-6.66829 -3.39964,-10.04674 -6.95441,-9.15456 -4.30288,1.07996 -9.11548,-3.3635 -14.06872,-12.9896 C 183.00839,443.82133 181,438.79881 181,437.4306 181,434.66897 186.54922,423 187.86252,423 c 0.45855,0 1.66091,-1.83435 2.6719,-4.07633 1.76918,-3.92334 1.7711,-4.20089 0.0511,-7.39476 -1.10188,-2.04607 -1.52505,-4.14401 -1.10367,-5.47165 0.37587,-1.18428 0.18067,-2.759 -0.43379,-3.49937 -0.61445,-0.74038 -1.38869,-3.75628 -1.72053,-6.70201 -0.81897,-7.26998 -1.4276,-8.15354 -6.686,-9.70616 -3.03231,-0.89533 -5.40211,-2.45814 -7.09698,-4.68023 -4.43144,-5.80992 -3.00423,-11.5159 3.98552,-15.93408 4.44277,-2.80825 5.74401,-4.58725 4.96313,-6.78541 -0.24423,-0.6875 0.58908,-3.275 1.85179,-5.75 2.49057,-4.88168 6.07614,-6.83842 12.72353,-6.94356 1.96267,-0.031 5.78767,-0.68964 8.5,-1.46355 6.92883,-1.977 16.30583,-2.93235 17.73437,-1.80682 1.24133,0.97803 14.25884,-1.22032 16.19088,-2.73426 0.55344,-0.43367 2.46954,-0.81766 4.258,-0.85332 5.15256,-0.10272 7.24764,-1.11811 7.2544,-3.51588 0.003,-1.22377 2.20863,-4.57289 5.01966,-7.62361 2.75744,-2.99255 4.87495,-5.85672 4.70558,-6.36482 -0.39433,-1.183 -9.58393,-4.69229 -12.29026,-4.69337 -1.13238,-4.4e-4 -2.93238,-0.6615 -4,-1.46901 -1.11325,-0.84201 -4.16523,-1.48176 -7.15595,-1.5 -4.17955,-0.0255 -5.42826,-0.43064 -6.29,-2.04081 -0.79803,-1.49113 -1.70043,-1.85209 -3.50066,-1.40026 -1.64874,0.41381 -3.28029,-0.0636 -5.09485,-1.49099 C 220.93151,307.94488 218.69253,307 217.42416,307 c -1.26837,0 -2.6032,-0.48068 -2.96629,-1.06817 -0.3631,-0.5875 -1.29018,-0.82642 -2.0602,-0.53094 -0.77001,0.29548 -3.03729,-0.57384 -5.03839,-1.93182 C 205.35059,302.10593 202.27611,301 200.49531,301 c -1.77408,0 -4.30025,-0.84533 -5.61373,-1.87851 -4.33449,-3.40951 -9.82753,-6.07946 -11.32521,-5.50475 -4.37719,1.67969 -13.39135,-5.41058 -12.09029,-9.50985 0.82215,-2.59037 7.65539,-9.72248 10.03392,-10.47277 1.1,-0.34699 4.13581,-2.65661 6.74625,-5.1325 2.61044,-2.47589 5.3532,-4.50162 6.09502,-4.50162 0.74181,0 2.206,-0.95164 3.25374,-2.11476 1.04775,-1.16312 2.88301,-2.48888 4.07838,-2.94612 1.19536,-0.45725 2.32036,-1.86811 2.5,-3.13524 0.1963,-1.38467 1.12457,-2.43044 2.32661,-2.62109 1.1,-0.17446 2.9,-1.73202 4,-3.46125 1.29623,-2.03772 3.12517,-3.37339 5.19756,-3.79577 4.07387,-0.83033 13.07417,-8.31205 13.49126,-11.21496 0.22718,-1.58114 0.92666,-2.14844 2.45589,-1.99183 1.40332,0.14372 2.31643,-0.46237 2.65665,-1.76337 0.28512,-1.09029 2.13395,-2.65737 4.10852,-3.4824 2.30543,-0.96327 3.59012,-2.16919 3.59012,-3.37 0,-1.06695 0.91461,-2.10912 2.12988,-2.42692 1.37125,-0.35859 1.92672,-1.0864 1.55951,-2.04334 -0.36328,-0.9467 0.76954,-2.49563 3.12012,-4.26618 2.02977,-1.52891 5.49049,-4.44417 7.69049,-6.47837 11.10248,-10.26574 16.6017,-14.8918 17.74131,-14.92436 0.69228,-0.0198 2.56588,-1.10476 4.16356,-2.41105 2.79416,-2.28458 2.86227,-2.54044 1.78733,-6.71404 -2.25124,-8.74069 -2.49155,-12.78685 -0.79804,-13.43671 1.12654,-0.43229 1.31336,-1.08023 0.66226,-2.29682 -1.38205,-2.58238 -0.80517,-22.75673 0.69358,-24.25544 0.6875,-0.68749 1.25,-2.47784 1.25,-3.97855 0,-1.50072 0.56775,-3.32322 1.26166,-4.05 0.69392,-0.72679 1.79511,-2.52786 2.4471,-4.00238 1.87588,-4.24244 6.37015,-6.94914 12.20887,-7.35287 4.20346,-0.29065 5.57938,0.0308 7.2402,1.69165 1.47836,1.47836 2.83417,1.89377 4.85912,1.48878 1.81713,-0.36343 3.23564,-0.0472 4.01828,0.89583 0.66531,0.80166 1.79923,1.45756 2.51983,1.45756 0.72059,0 1.59581,0.9 1.94494,2 0.34913,1.1 0.98874,2 1.42136,2 0.43263,0 1.9595,1.08701 3.39305,2.41558 1.43355,1.32858 3.41349,3.01608 4.39987,3.75 0.98637,0.73393 2.91018,2.99974 4.27513,5.03514 1.36495,2.03539 3.49386,3.95474 4.73093,4.26522 1.31995,0.33129 2.51232,1.61288 2.88607,3.10203 0.5624,2.24077 1.00271,2.46055 3.76523,1.87941 1.7206,-0.36195 3.55586,-1.06068 4.07836,-1.55273 0.5225,-0.49206 3.36458,-0.89465 6.31574,-0.89465 2.95116,0 6.32442,-0.51307 7.49613,-1.14015 1.17172,-0.62708 6.65464,-1.2569 12.18426,-1.39959 5.52963,-0.14268 11.62887,-0.59411 13.55387,-1.00316 3.91502,-0.83193 6.12064,-0.85221 17.20506,-0.15819 5.54719,0.34732 8.69362,1.09338 11.23485,2.66395 3.3036,2.04174 7.56009,2.11193 7.56009,0.12467 0,-0.42774 2.88615,-2.89664 6.41367,-5.48645 3.52752,-2.58981 6.66339,-5.35952 6.96861,-6.15491 0.30522,-0.79539 1.40839,-1.44617 2.45148,-1.44617 1.04309,0 3.04069,-0.9 4.43911,-2 1.39842,-1.1 3.87901,-2 5.51241,-2 1.63341,0 3.49366,-0.63118 4.1339,-1.40262 0.64024,-0.77144 3.28284,-1.65586 5.87244,-1.96538 6.46688,-0.77295 8.27012,-1.0936 11.48097,-2.04158 1.52492,-0.45021 5.64582,-0.51088 9.15755,-0.1348 5.84387,0.62582 6.48782,0.93209 7.59873,3.61407 0.66757,1.61167 1.82262,2.93031 2.56677,2.93031 1.89997,0 4.40436,5.2599 4.40436,9.25034 0,1.84231 0.53654,3.8862 1.19231,4.54197 0.67002,0.67002 1.10325,3.38592 0.98901,6.2 -0.31153,7.67363 -0.32936,8.9833 -0.22477,16.50769 0.0535,3.85 -0.38474,9.25 -0.9739,12 -0.58915,2.75 -1.11104,5.675 -1.15974,6.5 -0.0487,0.825 -0.77657,2.29086 -1.61748,3.25747 -0.85555,0.98343 -1.47276,3.40579 -1.40139,5.5 0.11346,3.32978 1.03607,4.59726 8.36546,11.49253 4.53086,4.2625 8.80542,7.75 9.49903,7.75 0.69361,0 1.761,0.93406 2.37198,2.07569 0.61098,1.14164 1.97682,2.94164 3.03518,4 C 515.13406,226.13406 516,227.45 516,228 c 0,0.55 0.68614,1 1.52475,1 0.83861,0 1.9175,1.033 2.39752,2.29557 0.48003,1.26256 2.88014,3.94044 5.33358,5.95085 2.45344,2.01041 5.02244,5.01121 5.70889,6.66845 0.68644,1.65723 2.7752,3.91417 4.64167,5.01541 2.67237,1.57674 3.39359,2.64701 3.39359,5.03599 0,1.66855 0.43532,3.03373 0.96739,3.03373 0.53206,0 5.68061,4.8375 11.44121,10.75 15.51258,15.92163 15.88052,16.25 18.2078,16.25 2.05868,0 7.3836,5.67275 7.3836,7.86589 0,0.54963 0.86239,1.27305 1.91642,1.60758 2.42821,0.77069 4.06912,5.33332 2.97844,8.28171 -0.45673,1.23465 -1.18241,2.27138 -1.61264,2.30384 -0.43022,0.0325 -2.47021,0.18817 -4.53332,0.34601 -2.0631,0.15784 -4.64216,1.09338 -5.73124,2.07899 -1.61728,1.46362 -2.25754,1.56179 -3.4939,0.5357 -1.22672,-1.01809 -1.9646,-0.96089 -3.89148,0.30165 -1.30776,0.85688 -3.23355,1.33415 -4.27954,1.06062 -1.04599,-0.27353 -3.24077,0.20085 -4.87727,1.05418 -1.63651,0.85333 -4.41141,1.55428 -6.16645,1.55767 -1.75504,0.003 -3.49975,0.50576 -3.87713,1.11637 -0.40064,0.64825 -2.08199,0.8837 -4.0407,0.56585 -1.845,-0.29941 -3.57275,-0.1913 -3.83945,0.24022 -0.2667,0.43153 -3.94117,1.07676 -8.16548,1.43384 -4.22432,0.35709 -8.17685,1.03805 -8.78342,1.51326 -0.60656,0.4752 -1.77784,0.91567 -2.60284,0.97882 -0.825,0.0632 -4.875,0.68699 -9,1.38631 -7.15175,1.21245 -7.51515,1.40394 -7.8263,4.12389 -0.22327,1.95171 0.28758,3.28239 1.61782,4.21413 1.06927,0.74895 2.21966,2.73937 2.55642,4.42316 0.65223,3.26114 1.1258,3.78355 12.98541,14.32453 4.21666,3.74782 7.66665,7.62463 7.66665,8.61514 0,0.99051 0.9,2.94509 2,4.34351 3.46107,4.40004 2.70871,5.6152 -3.25,5.24914 -6.37785,-0.39181 -8.49503,-1.17708 -9.81296,-3.63966 C 512.38296,358.84706 511.14972,358 510.19649,358 c -0.95324,0 -3.90882,-1.79787 -6.56797,-3.99526 -2.65916,-2.1974 -5.16659,-3.79023 -5.57207,-3.53963 -0.89596,0.55373 -0.64157,6.38251 0.38131,8.737 0.40671,0.93617 0.4358,2.19345 0.0647,2.79398 -0.37115,0.60052 0.0577,2.20978 0.95294,3.57613 0.89527,1.36635 1.36536,2.90885 1.04464,3.42778 -0.32072,0.51893 0.14937,2.06143 1.04464,3.42778 0.89526,1.36635 1.36011,2.91732 1.033,3.4466 -0.74884,1.21165 1.73551,10.89672 3.83816,14.9628 0.87131,1.68492 1.5842,3.70575 1.5842,4.49072 0,0.78496 0.675,1.98741 1.5,2.6721 1.59831,1.32648 2.16141,10 0.64922,10 -0.46792,0 -2.30202,-0.50591 -4.07576,-1.12424 -4.86732,-1.69675 -5.40159,-0.47043 -5.36906,12.32372 0.0235,9.24839 -0.26192,11.48936 -1.58787,12.46645 -1.47577,1.0875 -1.46304,1.25073 0.1462,1.87453 1.79251,0.69483 4.73727,-1.00625 4.73727,-2.73656 0,-1.20389 9.89567,-10.34679 15.4816,-14.3039 2.32917,-1.65 7.02201,-5.3625 10.42854,-8.25 3.79522,-3.21697 7.1417,-5.25 8.64178,-5.25 C 540.26478,403 541,402.4459 541,401.15499 541,398.68701 544.11105,396 546.9685,396 c 1.27106,0 2.81062,-0.60169 3.42126,-1.33709 1.44928,-1.7454 11.20576,-4.75535 13.08123,-4.03567 0.80017,0.30706 4.28404,-0.14688 7.74193,-1.00874 6.89651,-1.71892 9.43403,-1.90989 18.08059,-1.36071 5.386,0.34208 6.10428,0.69229 10.21182,4.97888 4.98411,5.20137 6.29559,8.8031 4.72273,12.97008 -0.5925,1.56973 -0.82639,5.28495 -0.51974,8.25606 0.30664,2.9711 0.21197,6.21992 -0.21039,7.2196 -0.7277,1.72237 -0.96314,3.58637 -1.81841,14.39643 -0.19925,2.51837 -1.10865,6.075 -2.02089,7.90364 -0.91225,1.82864 -1.65863,4.83676 -1.65863,6.68473 0,1.84796 -0.42282,4.14132 -0.9396,5.09636 -0.51678,0.95504 -1.18685,2.92016 -1.48906,4.36694 -0.31387,1.50261 -1.41171,2.85599 -2.5604,3.15638 -1.55575,0.40684 -2.01094,1.36019 -2.01094,4.21176 0,2.1717 -0.82162,4.73041 -2,6.22848 -1.1,1.39842 -2,3.17273 -2,3.94291 0,1.46296 -2.56805,5.882 -4.73703,8.15139 -0.69464,0.72678 -1.26297,2.41428 -1.26297,3.75 0,1.33571 -0.45,2.42857 -1,2.42857 -0.55,0 -1,0.6199 -1,1.37756 0,0.75765 -0.675,1.93775 -1.5,2.62244 -0.825,0.68469 -1.5,1.94186 -1.5,2.7937 0,0.85185 -0.61628,2.25925 -1.36951,3.12756 -0.75323,0.86831 -1.7991,2.91633 -2.32414,4.55116 -0.52505,1.63483 -1.85828,3.20983 -2.96274,3.5 -2.44893,0.6434 -7.90095,6.7331 -9.2834,10.3692 C 559.41707,522.03323 558.2996,523 556.98745,523 555.03474,523 546,531.23802 546,533.01853 546,534.03438 540.24593,537 538.27493,537 c -0.77978,0 -2.06602,0.64823 -2.85831,1.44052 -0.79228,0.79228 -3.57264,1.74106 -6.17857,2.1084 -2.60593,0.36733 -5.77831,1.32266 -7.04975,2.12296 -1.27143,0.80029 -3.30105,1.32543 -4.51026,1.16697 -1.2092,-0.15846 -3.25098,0.44904 -4.53727,1.35 -1.85063,1.29623 -2.95657,1.42272 -5.29913,0.6061 -2.54142,-0.88594 -3.31182,-0.70186 -5.44337,1.30062 -2.14518,2.01529 -2.76073,2.15916 -4.52471,1.05754 -1.18924,-0.7427 -3.23473,-1.01306 -4.89899,-0.64752 -1.5715,0.34515 -3.73716,0.15665 -4.81258,-0.41889 -1.64651,-0.88119 -2.36645,-0.50742 -4.55865,2.3667 -1.43184,1.87724 -2.60334,4.54162 -2.60334,5.92086 0,1.37924 -0.45,2.78582 -1,3.12574 -0.55,0.33992 -1,1.51306 -1,2.60698 0,1.09392 -1.15176,2.97987 -2.55946,4.19099 -1.98608,1.70871 -2.57279,3.17109 -2.61893,6.52766 -0.0489,3.55546 -0.48341,4.51878 -2.44054,5.41051 -1.30959,0.59669 -2.38586,1.57516 -2.39172,2.17438 -0.006,0.59921 -1.58085,2.61518 -3.5,4.47992 -1.91914,1.86475 -3.50366,4.33975 -3.52115,5.5 C 461.92735,592.1 459.72592,595 457.70991,595 c -2.35596,0 -6.41067,8.66551 -5.05806,10.80984 1.06671,1.69109 7.86839,2.48307 17.84815,2.0782 12.57323,-0.51007 29.82707,0.31874 33.5,1.60923 1.92847,0.67757 7.31658,1.14504 12,1.04111 4.675,-0.10374 9.07583,0.24884 9.77961,0.78352 0.84096,0.63888 2.14608,0.57736 3.80715,-0.17948 1.67406,-0.76275 3.13185,-0.8282 4.31719,-0.19382 1.19249,0.6382 2.16031,0.58714 2.90047,-0.15302 0.81442,-0.81442 1.46954,-0.8131 2.45523,0.005 0.73943,0.61367 2.33271,0.85733 3.54062,0.54145 1.26784,-0.33155 3.28787,0.14097 4.77875,1.11784 1.42041,0.93068 3.1883,1.45971 3.92866,1.17561 0.74035,-0.2841 1.93366,0.19143 2.65181,1.05674 1.15767,1.39492 1.36948,1.30315 1.86819,-0.80944 0.42952,-1.81945 1.26103,-2.40139 3.5174,-2.46168 1.62521,-0.0434 3.40492,-0.22974 3.95492,-0.41404 0.55,-0.18429 2.125,-0.0548 3.5,0.28772 1.375,0.34254 9.025,0.85796 17,1.14537 7.975,0.28741 16.3,1.03041 18.5,1.65109 2.2,0.62069 5.8,1.19159 8,1.26867 2.8266,0.099 4,0.58016 4,1.64014 0,1.08718 -1.19793,1.52949 -4.35271,1.60717 -2.47959,0.061 -4.713,0.69014 -5.18996,1.46187 -0.4823,0.78039 -2.87648,1.44162 -5.6473,1.5597 -2.64551,0.11274 -7.06003,0.44751 -9.81003,0.74393 -11.78525,1.27032 -19.54602,1.71868 -27.8134,1.60687 -5.03462,-0.0681 -9.37246,0.34478 -10.11732,0.96296 -0.95954,0.79635 -1.64272,0.67394 -2.58669,-0.46348 -1.14383,-1.37822 -1.52582,-1.31731 -3.52664,0.56236 -1.9269,1.81024 -2.53347,1.92716 -4.29397,0.8277 -1.72367,-1.07644 -2.34779,-1.0109 -3.91969,0.41165 -1.24582,1.12745 -2.20309,1.35847 -2.86913,0.69243 -0.66605,-0.66605 -3.48078,-0.52872 -8.43635,0.41159 -4.09024,0.77612 -7.81722,1.17898 -8.28216,0.89524 -0.46495,-0.28374 -1.92308,0.0609 -3.24029,0.76584 -2.02879,1.08578 -2.67369,1.02946 -4.2183,-0.3684 -1.00285,-0.90757 -2.24472,-1.29813 -2.75971,-0.86792 -0.51499,0.43022 -2.65592,1.36479 -4.75761,2.07685 -3.3718,1.14235 -4.04813,1.08933 -5.75,-0.45085 -1.82758,-1.65394 -2.02884,-1.65489 -3.83731,-0.0182 -1.58856,1.43763 -2.53694,1.55374 -5.65616,0.69248 -2.06117,-0.56912 -4.21267,-0.74731 -4.78112,-0.39599 -1.2624,0.7802 -6.32703,1.3778 -13.65415,1.61112 -3.025,0.0963 -6.02189,0.51409 -6.65976,0.92837 -0.63786,0.41429 -1.76286,0.53484 -2.5,0.26789 -0.73713,-0.26694 -5.16524,0.0691 -9.84024,0.74676 -8.80744,1.27667 -23.77126,1.37767 -30.18045,0.20369 -2.08359,-0.38165 -7.94093,0.0242 -13.5,0.93535 -5.40075,0.88523 -11.89338,1.7649 -14.42806,1.95483 -2.53468,0.18992 -5.00968,0.55646 -5.5,0.81452 -0.49032,0.25805 -3.14149,0.0867 -5.89149,-0.38086 z M 427.24543,613.25 c 0.85547,-0.9625 2.26042,-3.325 3.1221,-5.25 2.42433,-5.41591 6.44716,-12.26744 7.63311,-13.00039 0.58862,-0.36379 1.34725,-2.42503 1.68584,-4.58053 0.33859,-2.15549 1.8682,-5.3637 3.39913,-7.12934 1.53093,-1.76565 3.98072,-5.25315 5.44397,-7.75 1.46326,-2.49686 3.2927,-4.53974 4.06544,-4.53974 0.77274,0 1.40498,-0.87344 1.40498,-1.94098 0,-1.06754 0.47635,-2.23538 1.05855,-2.5952 0.59729,-0.36915 0.78829,-1.88466 0.43834,-3.478 -0.41455,-1.8874 0.0634,-4.16384 1.44145,-6.86496 1.13391,-2.22265 2.06166,-4.77624 2.06166,-5.67464 0,-0.8984 0.94348,-1.88018 2.09662,-2.18174 1.69433,-0.44308 1.98843,-1.08923 1.53276,-3.3676 -0.31013,-1.55064 -0.18486,-3.05357 0.27837,-3.33987 1.05828,-0.65405 1.11671,-5.55701 0.0662,-5.55701 -0.42682,0 -0.73064,-1.60121 -0.67516,-3.55825 0.0918,-3.2373 0.31691,-3.50403 2.49617,-2.95707 2.30624,0.57883 2.36991,0.45084 1.71226,-3.44175 C 465.94748,522.72964 466.11078,522 467.4121,522 c 1.81476,0 2.11938,-1.5535 0.50077,-2.55385 -0.78285,-0.48382 -0.78285,-0.97617 0,-1.75902 0.59792,-0.59792 1.08713,-1.9057 1.08713,-2.90618 0,-1.43917 0.52015,-1.6885 2.49068,-1.19393 1.79158,0.44966 2.66832,0.16221 3.12354,-1.02408 0.85656,-2.23215 -0.23735,-3.12061 -2.02032,-1.64087 -1.16799,0.96934 -1.63848,0.8497 -2.38903,-0.6075 C 469.04524,508.06313 469.70439,506 471.58333,506 472.52641,506 473,504.86895 473,502.61663 c 0,-2.59638 0.48861,-3.51114 2.10062,-3.93269 1.43481,-0.37521 1.83891,-0.96685 1.27495,-1.86663 -0.45411,-0.72452 -0.69532,-2.10939 -0.53603,-3.07748 0.15929,-0.96809 -0.63944,-2.94128 -1.77496,-4.38486 -2.71935,-3.45709 -2.68202,-5.32919 0.0918,-4.60383 1.56071,0.40814 1.94248,0.21782 1.38205,-0.68897 -0.42587,-0.68908 -0.20341,-2.31963 0.49437,-3.62343 0.97922,-1.8297 0.99902,-2.69548 0.0868,-3.79467 -0.92993,-1.1205 -0.73196,-2.1867 0.92862,-5.00117 1.16079,-1.96739 1.82164,-4.04451 1.46855,-4.61582 -0.35309,-0.57131 -0.0841,-2.58149 0.59772,-4.46708 0.94212,-2.60538 0.96155,-3.76349 0.0809,-4.82458 -1.67127,-2.01376 -1.25124,-15.69122 0.56761,-18.48338 1.15793,-1.77756 1.31396,-4.07936 0.74567,-11 -0.83083,-10.11776 -0.93852,-26.06263 -0.19081,-28.25204 1.06863,-3.12912 1.56535,-10.71959 0.75851,-11.59093 -1.18716,-1.28207 -1.96785,-11.3581 -0.92974,-11.99969 0.47233,-0.29191 0.3717,-1.44088 -0.22362,-2.55326 -0.82537,-1.54221 -0.73768,-2.41832 0.36925,-3.68931 1.98244,-2.27626 1.93614,-7.8597 -0.0961,-11.58648 -1.28699,-2.36013 -1.68164,-5.69114 -1.68794,-14.24695 -0.005,-6.14165 -0.38541,-11.54165 -0.84642,-12 -0.461,-0.45836 -1.45318,-2.30221 -2.20484,-4.09744 -0.75167,-1.79523 -2.07863,-3.53726 -2.9488,-3.87118 -0.87018,-0.33392 -2.26904,-1.93544 -3.10858,-3.55893 -2.10394,-4.06856 -1.03629,-8.33064 2.4085,-9.61484 1.48055,-0.55193 3.59191,-1.35138 4.69191,-1.77654 3.07878,-1.18998 5.61578,-1.54394 10.27169,-1.43311 2.38616,0.0568 5.24312,-0.57874 6.4725,-1.43983 1.21045,-0.84783 3.15069,-1.54151 4.31165,-1.54151 1.16095,0 2.40373,-0.2929 2.76172,-0.6509 0.358,-0.35799 2.7955,-0.73195 5.41667,-0.83101 5.93483,-0.2243 18.09442,-2.24892 20.76577,-3.45759 3.22516,-1.45924 7.79733,-2.37511 10.68722,-2.14081 1.47797,0.11983 3.72797,-0.35568 5,-1.05669 1.27203,-0.701 4.32722,-1.41889 6.7893,-1.5953 6.34509,-0.45463 6.83338,-1.53291 2.64644,-5.84406 C 549.63033,287.3719 548,285.09878 548,284.37228 c 0,-0.72651 -1.35,-2.01903 -3,-2.87228 -1.65,-0.85325 -3,-1.91641 -3,-2.36259 0,-0.75643 -5.55824,-6.95319 -13.57762,-15.13741 -1.88623,-1.925 -3.4279,-3.96533 -3.42594,-4.53407 0.004,-1.10197 -1.93339,-3.11919 -14.37171,-14.96549 C 506.29333,240.3752 502.39443,237 501.96051,237 c -0.43393,0 -2.1734,-2.25 -3.86549,-5 -1.69209,-2.75 -3.53069,-5 -4.08578,-5 C 493.45416,227 493,226.37162 493,225.60359 c 0,-0.76802 -1.575,-2.77927 -3.5,-4.46945 -1.925,-1.69017 -3.5,-3.49276 -3.5,-4.00576 0,-0.513 -1.34546,-1.40176 -2.98992,-1.97502 C 479.03557,213.76784 475,209.6165 475,206.91349 c 0,-1.19758 0.85658,-3.58054 1.90352,-5.29546 3.21056,-5.25903 4.5174,-10.96301 3.11296,-13.58723 -0.98354,-1.83776 -0.93638,-2.53948 0.25043,-3.72628 1.17134,-1.17134 1.36529,-3.68401 0.97516,-12.63334 -0.27201,-6.23965 -0.0344,-12.80011 0.53828,-14.86112 1.02223,-3.67901 0.25124,-7.61046 -2.3787,-12.12947 -1.37315,-2.35948 -7.59551,-2.8763 -12.74702,-1.05873 -2.14835,0.75797 -5.36941,1.37814 -7.15791,1.37814 -1.78851,0 -3.81203,0.675 -4.49672,1.5 -0.68469,0.825 -1.79565,1.5 -2.46881,1.5 -2.35086,0 -18.93194,9.74272 -20.53119,12.06373 -0.275,0.39911 -2.72593,3.24804 -5.4465,6.33096 -5.76166,6.52904 -8.66034,7.23317 -11.01685,2.67618 -1.45342,-2.8106 -5.04017,-4.90068 -6.28086,-3.65999 -0.32642,0.32641 -1.44751,-0.17939 -2.49131,-1.12402 -1.56416,-1.41554 -3.60027,-1.67464 -11.58115,-1.47372 -5.32583,0.13409 -11.12982,0.76559 -12.89775,1.40335 -2.49901,0.90148 -3.74241,0.87698 -5.58677,-0.11009 -1.96247,-1.05028 -3.01051,-1.003 -6.06595,0.27364 -2.03147,0.8488 -5.90387,1.74859 -8.60533,1.99953 -2.70145,0.25094 -5.6767,0.88435 -6.61166,1.40758 -0.93497,0.52323 -2.50762,0.74011 -3.4948,0.48196 -0.98717,-0.25815 -5.08575,1.08133 -9.10796,2.97663 -4.02221,1.8953 -9.96854,4.01283 -13.21406,4.70563 -3.63807,0.77659 -6.81919,2.17786 -8.29546,3.65413 -1.31697,1.31697 -3.09208,2.3945 -3.94467,2.3945 -0.8526,0 -2.77209,0.87008 -4.26554,1.93351 -1.49346,1.06343 -3.96141,2.24625 -5.48435,2.62848 -1.52294,0.38224 -3.21257,1.64966 -3.75472,2.81649 -1.07083,2.30467 -5.96641,5.64908 -12.64818,8.64059 -2.33014,1.04324 -4.48168,2.53543 -4.78121,3.31599 -0.29953,0.78056 -3.33017,3.22357 -6.73476,5.42893 -3.40459,2.20535 -8.83876,6.53564 -12.07593,9.62287 -3.23718,3.08723 -6.27468,5.61314 -6.75,5.61314 -0.47533,0 -0.86423,0.44496 -0.86423,0.9888 0,1.02855 1.45006,1.16121 9,0.82335 2.475,-0.11076 11.61623,-0.18021 20.31385,-0.15434 14.21973,0.0423 16.08463,0.249 18.5,2.05059 4.08459,3.04663 3.92724,5.14011 -0.70804,9.42017 -2.25819,2.08515 -4.10581,4.41449 -4.10581,5.17632 0,0.76182 -0.9,2.19962 -2,3.19511 -1.1,0.99549 -2,2.327 -2,2.95891 0,0.63191 -1.6875,2.79178 -3.75,4.7997 -12.40569,12.0774 -15.58248,15.60159 -16.89324,18.7406 -1.72765,4.13739 -7.02717,9.34309 -7.96564,7.82461 -0.37965,-0.61428 -1.6222,0.0243 -3.05593,1.57049 -1.32887,1.43313 -3.33944,2.60569 -4.46793,2.60569 -1.12849,0 -3.14063,0.85647 -4.47142,1.90327 -1.33079,1.0468 -3.26348,1.6826 -4.29487,1.41288 -1.03139,-0.26971 -2.1776,-10e-4 -2.54713,0.59673 -1.90954,3.08971 -18.41249,-1.24133 -21.25391,-5.57789 C 229.45846,279.05075 227.95635,278 226.96191,278 c -0.99443,0 -3.30518,-1.35364 -5.13499,-3.00809 -7.86155,-7.10813 -7.67202,-7.0013 -10.50834,-5.92293 -1.46611,0.55741 -3.6713,2.00742 -4.90042,3.22225 -1.22912,1.21482 -4.30102,3.98715 -6.82646,6.16071 -5.29152,4.55427 -5.69058,6.19961 -1.8417,7.59345 1.5125,0.54773 3.65,1.4027 4.75,1.89992 1.1,0.49722 3.125,1.15034 4.5,1.45136 10.46774,2.2917 13.8755,3.2526 15.09698,4.25696 0.77166,0.63449 3.97706,1.47216 7.1231,1.86148 3.14604,0.38932 6.23453,1.32774 6.86331,2.08536 0.62877,0.75763 1.52953,1.13876 2.00167,0.84696 0.47215,-0.2918 1.99288,0.21276 3.37941,1.12125 1.56752,1.02707 3.45519,1.41732 4.99111,1.03182 1.96432,-0.49301 2.91872,-0.0132 4.66067,2.34286 1.65389,2.23701 2.59485,2.74644 3.84101,2.07951 0.96328,-0.51553 2.25263,-0.50551 3.09662,0.0241 0.79537,0.49906 2.23362,0.66234 3.19612,0.36283 3.11007,-0.96778 5.75,0.53106 5.75,3.2646 0,1.93452 0.38758,2.39087 1.62675,1.91536 0.89471,-0.34334 2.13221,-0.2096 2.75,0.29719 0.61779,0.50679 2.23323,1.07705 3.58988,1.26725 4.21371,0.59076 4.77595,5.32144 1.7507,14.73036 l -2.5546,7.94515 2.16863,6.26313 c 2.14846,6.20485 3.80897,7.94727 10.3215,10.83065 3.96699,1.75636 6.68794,8.97004 4.91816,13.03884 -1.48582,3.41596 -4.64148,6.62486 -7.35186,7.47588 -1.91683,0.60187 -2.19536,1.22251 -1.74529,3.88898 0.97443,5.77301 1.73733,29.73749 1.97924,62.17283 0.13126,17.6 0.55936,33.41966 0.95132,35.1548 0.43152,1.91024 0.29507,3.41289 -0.34588,3.80902 -0.5822,0.35982 -1.05855,1.53891 -1.05855,2.6202 0,1.37685 -0.88367,2.14271 -2.94888,2.55576 -1.62189,0.32437 -3.71663,1.43812 -4.65499,2.475 -0.93836,1.03687 -2.76136,1.88522 -4.05112,1.88522 -2.66252,0 -2.84175,1.13198 -1.26362,7.98102 0.72102,3.1292 0.71364,4.5873 -0.0245,4.83333 -1.74733,0.58245 -1.19308,3.04242 0.94306,4.18565 2.09481,1.12111 2.7693,4 0.93714,4 -0.58457,0 -0.9333,0.7875 -0.77496,1.75 0.15835,0.9625 -0.10154,2.37175 -0.57754,3.13168 -0.57406,0.9165 -0.31495,1.68974 0.76962,2.2967 1.29516,0.7248 1.5842,2.26354 1.3904,7.4019 -0.18086,4.79527 0.13425,6.72181 1.20837,7.3878 0.89662,0.55592 1.52078,2.74493 1.62996,5.71642 0.16176,4.40263 1.8512,14.47443 4.1835,24.94044 0.50557,2.26872 1.85817,5.44357 3.00577,7.05522 1.3992,1.96501 1.7941,3.40344 1.1988,4.36666 -1.00298,1.62286 4.42139,7.3438 7.02894,7.41324 1.03699,0.0276 1.4331,0.95299 1.28326,2.99795 -0.24186,3.3007 2.18855,6.6819 4.23773,5.89556 0.93018,-0.35694 1.17271,0.10172 0.80245,1.51758 -0.29603,1.13205 0.30478,3.26697 1.359,4.829 2.44519,3.62301 4.00999,7.10236 4.77665,10.62089 0.67532,3.09938 2.83156,3.16049 3.39074,0.0961 0.19241,-1.05442 1.14647,-2.81713 2.12015,-3.91713 0.97367,-1.1 1.80501,-2.675 1.84742,-3.5 0.0424,-0.825 1.17487,-6.9 2.51658,-13.5 2.64154,-12.99405 4.83858,-26.22189 5.14885,-31 0.18641,-2.87086 0.48461,-3.05723 6.92757,-4.32952 3.70302,-0.73123 7.48806,-1.02706 8.41118,-0.65739 1.74985,0.70072 5.91291,1.10837 20.17842,1.97588 4.675,0.28429 10.70203,0.90403 13.3934,1.37719 3.69261,0.64919 5.86119,0.48013 8.83734,-0.68893 3.20453,-1.25878 4.31723,-1.31611 5.93496,-0.30582 1.41711,0.885 2.35954,0.93757 3.2695,0.18237 1.37314,-1.13961 7.2665,-0.39777 9.26244,1.16592 0.74889,0.58671 1.85126,0.5725 2.94204,-0.0379 1.23134,-0.68909 2.41028,-0.53992 4.00838,0.5072 1.2452,0.81588 2.63829,1.25209 3.09578,0.96935 1.71126,-1.05762 5.61844,12.8719 4.28092,15.26192 -0.49651,0.88721 -0.23486,2.35567 0.66421,3.72782 0.81588,1.2452 1.18089,2.75349 0.81114,3.35177 -0.36976,0.59828 -0.13321,1.73734 0.52568,2.53124 0.65888,0.7939 0.92076,2.16583 0.58196,3.04874 -0.40679,1.06007 0.0282,1.77374 1.28084,2.10131 1.95,0.50993 3.11141,4.0592 3.11141,9.5085 0,2.62433 2.60878,10.34283 5.08568,15.04681 0.50287,0.95504 0.91432,2.56754 0.91432,3.58333 0,3.46661 1.87429,4.09803 4.24543,1.43024 z M 433,491 c -0.825,-0.53316 -2.7825,-0.97627 -4.35,-0.98469 -3.28415,-0.0176 -9.63079,-5.69795 -9.6818,-8.66531 -0.0175,-1.0175 -0.6925,-2.72351 -1.5,-3.79113 -0.80751,-1.06762 -1.4682,-3.28219 -1.4682,-4.92126 0,-1.63907 -0.64994,-3.6983 -1.44431,-4.57608 -1.51515,-1.67421 -1.96007,-7.47765 -1.15471,-15.06153 0.26284,-2.475 0.97233,-10.8 1.57667,-18.5 0.60433,-7.7 1.53159,-15.30465 2.06057,-16.89922 0.52898,-1.59458 0.96856,-4.29458 0.97684,-6 0.0155,-3.20082 1.75206,-8.968 3.49304,-11.60078 0.54554,-0.825 1.4419,-2.85 1.9919,-4.5 0.66667,-2 1.66667,-3 3,-3 1.88586,0 1.9905,0.6112 1.83361,10.7102 -0.0915,5.89061 -0.42362,11.12642 -0.73802,11.63513 -0.3144,0.50871 -0.1084,2.25379 0.45779,3.87795 0.71389,2.04787 0.69914,4.30532 -0.0481,7.36487 -1.12751,4.61643 -2.25243,14.98357 -1.99783,18.41185 0.0817,1.1 0.26649,5.825 0.41066,10.5 0.14418,4.675 0.33409,8.8604 0.42203,9.30089 0.0879,0.44049 1.66486,-0.34701 3.50427,-1.75 4.32523,-3.29902 6.10398,-3.21603 8.7847,0.40984 C 441.6723,466.40061 443,466.07108 443,462 c 0,-1.58508 0.45,-3.16008 1,-3.5 0.55,-0.33992 1,-1.84135 1,-3.33651 0,-1.49516 0.61032,-3.60611 1.35627,-4.69098 1.27945,-1.8608 2.23813,-7.17347 4.68677,-25.97251 2.21897,-17.03577 3.66505,-25.09401 4.92499,-27.44433 l 1.31034,-2.44432 2.31496,2.90324 c 3.03994,3.81245 3.89882,11.13043 2.86732,24.43063 -0.45022,5.80513 -0.78293,13.24385 -0.73935,16.53048 0.0636,4.7986 -0.29577,6.23837 -1.82455,7.30917 -1.53121,1.0725 -1.69348,1.72642 -0.8292,3.34136 0.82274,1.53729 0.69761,2.58324 -0.5339,4.46275 -1.12802,1.72158 -1.32393,2.96335 -0.65586,4.15712 0.60482,1.08076 0.6016,2.35816 -0.009,3.49874 -0.5288,0.98807 -0.72059,2.18621 -0.42621,2.66252 0.29437,0.47631 -0.10807,1.39992 -0.89432,2.05245 -0.78625,0.65253 -1.18095,1.83425 -0.87711,2.62604 0.30384,0.79179 0.0986,1.99639 -0.45617,2.67688 -0.55473,0.6805 -1.55345,3.07349 -2.21938,5.31776 -0.86922,2.92942 -2.12852,4.57473 -4.46417,5.83256 -1.78936,0.96363 -5.00349,3.50011 -7.1425,5.63661 C 437.38451,492.04957 435.5969,492.67825 433,491 Z M 422,297.5 c -1.375,-0.78602 -4.075,-1.44561 -6,-1.46574 -8.14519,-0.0852 -26.17995,-5.1135 -27.84191,-7.76264 -0.36195,-0.57694 -2.34857,-1.51362 -4.41472,-2.08152 -2.06615,-0.5679 -5.44115,-2.35792 -7.5,-3.97781 -2.05885,-1.61989 -4.7549,-3.26036 -5.99122,-3.64548 C 367.80255,277.80374 362,270.08543 362,267.59015 c 0,-0.85223 -1.8,-2.46779 -4,-3.59015 -2.2,-1.12236 -4,-2.5346 -4,-3.13831 0,-0.60371 -1.35,-2.63523 -3,-4.51447 -1.65,-1.87925 -3,-4.00941 -3,-4.7337 0,-0.72429 -1.29248,-2.66935 -2.87219,-4.32236 -1.5797,-1.65301 -3.62329,-5.26683 -4.5413,-8.03071 -0.91801,-2.76388 -2.53605,-5.8098 -3.59564,-6.76871 -2.4033,-2.17496 -1.28386,-4.75632 2.72091,-6.27427 2.51046,-0.95155 14.86542,-2.36599 22.88183,-2.6196 1.70148,-0.0538 3.72648,-0.61967 4.5,-1.25741 0.87595,-0.72221 5.93236,-1.19931 13.40639,-1.26497 6.6,-0.058 12.9,-0.20376 14,-0.32396 5.42219,-0.59252 27.67169,2.70122 36.24417,5.36546 1.78429,0.55454 3.68749,0.73426 4.22933,0.39939 0.54184,-0.33488 1.95839,-0.088 3.14788,0.54858 1.18949,0.6366 5.03863,1.97989 8.55363,2.98509 3.515,1.0052 7.76061,2.98016 9.43468,4.38879 1.67407,1.40864 3.66858,2.56116 4.43224,2.56116 0.76366,0 2.92604,1.35 4.80529,3 1.87924,1.65 3.96123,3 4.62663,3 0.66541,0 2.406,0.91739 3.86799,2.03865 7.52632,5.77224 13.72771,9.96135 14.74639,9.96135 0.62813,0 2.28622,0.9 3.68464,2 1.39842,1.1 3.20452,2 4.01354,2 0.80902,0 2.03031,1.35041 2.71396,3.0009 1.46615,3.53958 -0.15023,6.45468 -3.1448,5.67158 -0.98127,-0.25661 -2.97461,0.55639 -4.42964,1.80665 -1.45503,1.25027 -4.44015,2.8655 -6.6336,3.58941 -2.45721,0.81095 -4.31449,2.17465 -4.83836,3.55254 -0.96449,2.5368 -7.5737,7.37892 -10.0718,7.37892 -1.86218,0 -4.98933,1.51845 -9.39624,4.56253 -3.23782,2.23653 -14.21679,4.9406 -24.34701,5.99656 -4.22539,0.44045 -6.99527,1.29726 -8.25,2.55199 -2.23255,2.23255 -2.61916,2.25808 -5.88892,0.38892 z m -13.34886,-43.88266 c 0.0831,-0.0645 0.30812,-1.91734 0.5,-4.11734 l 0.34886,-4 -4.3239,-0.31111 C 400.37495,244.84344 398,246.20195 398,249.2937 c 0,3.68321 2.89625,5.81326 6.91755,5.08752 1.97035,-0.3556 3.65046,-0.69934 3.73359,-0.76388 z m -105.89883,22.0184 c -5.24372,-4.4232 -5.85715,-8.36766 -1.97672,-12.71061 2.78922,-3.12168 3.41122,-3.3412 9.97471,-3.52033 3.85,-0.10507 8.4359,-0.50642 10.1909,-0.89188 6.6156,-1.45304 11.09346,2.72371 11.02553,10.28413 -0.0636,7.07515 -3.81935,9.04576 -18.4335,9.67183 -6.6635,0.28546 -7.27401,0.12502 -10.78092,-2.83314 z M 452.59196,191.5 c -0.90094,-1.375 -2.32151,-2.5 -3.15683,-2.5 -0.83531,0 -2.5117,-0.92507 -3.72531,-2.05571 -2.74517,-2.55752 -2.76765,-9.37453 -0.0449,-13.60782 4.37427,-6.801 12.04426,-12.34846 17.0354,-12.32116 5.72926,0.0313 6.55099,2.19387 5.21549,13.72557 -1.41847,12.24812 -2.72921,16.11126 -6.04895,17.82796 -4.17831,2.16069 -7.40229,1.78915 -9.27492,-1.06884 z M 359,604.89782 c 15.675,-0.0892 30.65654,0.0455 33.2923,0.29933 2.97121,0.28611 5.44124,-0.0168 6.5,-0.79714 1.60129,-1.18019 1.60349,-1.46554 0.0353,-4.57931 -0.91982,-1.82639 -1.96064,-5.1207 -2.31292,-7.3207 -1.02361,-6.3924 -4.32047,-16.7298 -6.42764,-20.15401 l -1.94089,-3.15401 -10.32308,-0.39264 c -5.86644,-0.22313 -10.89583,0.0316 -11.64977,0.59011 -0.90552,0.67076 -2.33411,0.47401 -4.5,-0.61974 -1.74531,-0.88137 -6.3233,-1.86753 -10.1733,-2.19146 -3.85,-0.32393 -7.9,-0.8331 -9,-1.13149 -3.64447,-0.98862 -5.80033,1.73652 -6.05827,7.65801 -0.26313,6.04069 -2.35606,15.26307 -4.21645,18.57949 C 331.55138,592.8856 331,594.9863 331,596.35247 331,599.82759 330.01988,602 328.45203,602 c -0.7337,0 -1.61211,0.45 -1.95203,1 -0.95884,1.55144 0.48214,3.13843 2.33416,2.57066 0.91621,-0.28088 14.49084,-0.58365 30.16584,-0.67284 z m 146.04106,-87.20173 c 3.31552,-2.92364 3.64082,-8.19788 1.10315,-17.88641 -2.03445,-7.76728 -6.94245,-17.90909 -8.99856,-18.59446 -0.81367,-0.27123 -1.18092,0.70954 -1.10046,2.93885 0.0664,1.84026 -0.19406,4.35843 -0.57884,5.59593 -0.39017,1.25481 -0.27573,2.25 0.25873,2.25 1.57449,0 3.65705,8.1458 2.2974,8.98611 -0.74388,0.45974 -0.23863,1.29747 1.44972,2.40372 1.42534,0.93392 2.33135,2.11901 2.01336,2.63353 -0.31799,0.51453 -0.0365,2.74352 0.6256,4.95333 1.03439,3.45247 0.97054,4.27555 -0.45369,5.84931 -3.39133,3.74737 -0.6723,4.44657 3.38359,0.87009 z M 534.41064,506.5 c -0.47449,-1.89052 -0.23534,-2.5 0.98095,-2.5 0.88463,0 1.60841,0.64844 1.60841,1.44098 0,2.22334 2.15391,3.03539 3.18137,1.19942 0.5049,-0.90222 1.4624,-1.6404 2.12777,-1.6404 0.66537,0 1.77183,-0.9 2.45879,-2 1.65521,-2.65041 2.89433,-2.52268 4.45681,0.4594 0.93397,1.78255 1.68687,2.21326 2.73572,1.56504 1.14035,-0.70478 1.21253,-1.38511 0.34047,-3.2094 -1.44813,-3.02941 -1.10503,-8.39465 0.51516,-8.05576 3.27617,0.68526 2.5168,-6.43959 -1.03945,-9.75275 -1.93044,-1.79847 -2.06005,-2.41734 -1.06078,-5.06472 0.98863,-2.61917 0.88487,-3.17421 -0.78874,-4.2194 C 548.8672,474.06048 548,472.81137 548,471.94661 c 0,-2.73827 -4.87893,-11.81145 -6.94634,-12.91789 -1.09215,-0.5845 -2.46836,-2.85508 -3.05824,-5.04573 C 537.20261,451.03871 536.4058,450 534.94002,450 c -1.14057,0 -2.46305,-1.05382 -3.11322,-2.48078 -0.62167,-1.36443 -1.96202,-2.74475 -2.97856,-3.06739 C 527.83171,444.1292 527,442.9474 527,441.82562 c 0,-1.40068 -0.46913,-1.85957 -1.4976,-1.46492 -0.82367,0.31608 -3.03506,-0.33244 -4.91418,-1.44115 l -3.41659,-2.01584 -3.25318,4.04815 C 512.1292,443.17833 510.07906,445 509.36257,445 c -0.71648,0 -2.30079,1.35 -3.52069,3 -1.352,1.82868 -3.12067,3 -4.52994,3 -2.36819,0 -3.10016,1.39482 -1.31194,2.5 0.55,0.33992 1,1.84772 1,3.35068 0,2.82549 4.94484,8.97907 8.92857,11.11109 1.13928,0.60973 2.07143,1.56915 2.07143,2.13205 0,0.5629 1.30089,2.68457 2.89087,4.71482 1.58998,2.03025 3.44801,5.49136 4.12897,7.69136 1.0744,3.47114 2.62674,7.01083 4.87222,11.10973 0.33437,0.61036 1.46062,2.31835 2.5028,3.79555 1.04217,1.4772 1.94217,4.33283 2,6.34584 0.0864,3.00912 0.54974,3.78358 2.60514,4.35477 3.94466,1.09622 4.07359,1.03551 3.41064,-1.60589 z M 251.5,478.5405 c 11.57158,-1.35912 19.81368,-3.98155 20.67976,-6.57979 0.47131,-1.41393 -0.82787,-19.0821 -1.69269,-23.01957 -0.62006,-2.82312 -0.91586,-3.00811 -3.82952,-2.39494 -1.73665,0.36548 -3.58505,1.0671 -4.10755,1.55915 -0.5225,0.49206 -2.18344,0.89465 -3.69098,0.89465 -1.50754,0 -3.04529,0.49238 -3.41722,1.09417 -0.37193,0.60179 -1.8562,0.86861 -3.29837,0.59292 -1.44218,-0.27569 -3.32404,-0.12561 -4.18192,0.33351 -2.41668,1.29337 -19.33486,2.90948 -20.4858,1.95691 -1.41294,-1.16942 -9.54369,0.0361 -10.10475,1.49818 -0.25099,0.65404 -0.0169,2.95208 0.52012,5.10674 0.53705,2.15466 1.70183,6.84064 2.5884,10.41328 0.88657,3.57265 2.06077,6.94765 2.60934,7.5 1.30167,1.31068 11.83523,3.40982 14.41118,2.87188 1.1,-0.22971 7.4,-1.0519 14,-1.82709 z m 323.31194,-7.50001 c 1.20343,-1.62773 2.18974,-3.76523 2.1918,-4.75 0.002,-0.98477 0.93677,-3.32095 2.07714,-5.19151 1.14037,-1.87055 1.8669,-4.19068 1.6145,-5.15584 -0.25239,-0.96515 0.36272,-3.0073 1.36692,-4.53811 2.82655,-4.30883 3.48997,-10.13729 1.41487,-12.43026 -0.94585,-1.04515 -1.45428,-2.59204 -1.12984,-3.43752 0.32445,-0.84549 0.13178,-1.53725 -0.42815,-1.53725 -0.55993,0 -0.9915,-2.1375 -0.95905,-4.75 0.0324,-2.6125 -0.0905,-5.81245 -0.27321,-7.11099 -0.3715,-2.64032 -3.07067,-4.58947 -5.21563,-3.76637 -1.95052,0.74849 -2.89761,-1.15403 -1.4455,-2.90371 1.58321,-1.90766 0.40807,-5.30279 -1.25857,-3.63615 -2.62584,2.62584 -11.46026,0.65186 -14.73344,-3.29207 -1.13401,-1.36641 -1.54749,-1.39469 -2.92716,-0.20025 -0.88364,0.76501 -2.84949,1.68628 -4.36855,2.04728 -1.51906,0.36099 -3.99406,2.0571 -5.5,3.76912 -1.50594,1.71203 -4.10679,3.69396 -5.77967,4.4043 -1.67288,0.71034 -3.6872,2.49783 -4.47625,3.9722 -1.34897,2.52057 -1.2685,2.82358 1.34736,5.07365 1.53011,1.31615 3.45082,2.39299 4.26825,2.39299 0.81744,0 4.95484,3.00779 9.19424,6.68397 5.79125,5.02188 8.01533,7.67531 8.94389,10.67053 0.67973,2.1926 2.05897,4.92231 3.06496,6.06603 1.00599,1.14371 2.67102,4.10447 3.70007,6.57947 1.02904,2.475 2.75166,5.22548 3.82803,6.11217 1.40353,1.15618 1.78034,2.31625 1.33226,4.10154 -0.59373,2.36562 -0.0994,3.78629 1.3174,3.78629 0.3549,0 1.6299,-1.33178 2.83333,-2.95951 z M 238.5,416.07629 c 3.63559,-1.68263 7.87598,-2.2183 18.98506,-2.3983 l 10.98506,-0.17799 1.42009,-2.95986 c 2.13209,-4.44386 1.74803,-30.57297 -0.47349,-32.21331 -2.09417,-1.5463 -8.24786,-0.53887 -11.34007,1.85649 -1.49694,1.1596 -3.79067,1.80612 -6,1.6912 -1.96716,-0.10232 -5.60165,0.17158 -8.07665,0.60867 -4.11555,0.72681 -9.89358,1.16651 -23.5,1.78831 -2.75,0.12568 -5.61282,0.62365 -6.36181,1.10662 -0.749,0.48297 -4.1993,0.93297 -7.66733,1 -3.46803,0.067 -6.60495,0.42161 -6.97093,0.78796 -1.03274,1.03376 5.77023,27.10408 7.53262,28.86647 1.30199,1.30199 3.91325,1.51529 15.51645,1.26741 7.67305,-0.16391 14.851,-0.71457 15.951,-1.22367 z m -32.23091,-43.30745 c 6.727,-0.0492 12.68091,-0.35273 13.23091,-0.67442 0.55,-0.32169 6.4,-1.32955 13,-2.2397 14.89655,-2.05425 28.36223,-4.57713 31,-5.80805 1.1,-0.51332 3.9125,-1.22336 6.25,-1.57788 2.68922,-0.40787 4.25,-1.16317 4.25,-2.05669 0,-0.77665 -0.67928,-1.4121 -1.5095,-1.4121 -0.83023,0 -2.74273,-1.8081 -4.25,-4.018 -2.67707,-3.92502 -2.84465,-4.00308 -7.2405,-3.37296 -12.9325,1.8538 -18.34137,2.45569 -27,3.00448 -5.225,0.33117 -10.01946,1.02298 -10.65435,1.53736 -0.63489,0.51438 -2.32823,0.64061 -3.76298,0.28051 -1.43475,-0.3601 -3.1653,-0.1942 -3.84566,0.36865 -0.68035,0.56286 -2.36201,1.0302 -3.73701,1.03853 -2.64724,0.016 -14.09097,0.79319 -15.08948,1.02473 -0.86015,0.19946 -2.91052,4.97296 -2.91052,6.77602 0,0.84987 -0.91337,2.70638 -2.02971,4.12557 -1.52063,1.93318 -1.72072,2.77132 -0.79774,3.34175 0.67758,0.41877 1.59954,0.53422 2.0488,0.25656 0.44926,-0.27766 6.32074,-0.54512 13.04774,-0.59436 z m 54.90217,-122.42383 c 2.30125,-2.0826 2.31247,-3.59727 0.0419,-5.65214 -2.00264,-1.81236 -5.64129,-1.33807 -8.46312,1.10315 -1.76716,1.5288 -2.31117,4.30947 -1.08333,5.53731 1.30501,1.30502 7.70596,0.63942 9.50459,-0.98832 z M 300,172.59094 c 0.39406,-3.85523 1.08499,-5.3267 3.26089,-6.9447 2.74755,-2.04308 2.78803,-2.04378 8.37591,-0.1444 5.59771,1.90271 5.62619,1.90214 9.23911,-0.18581 4.20619,-2.4308 5.29135,-5.81078 2.18239,-6.79753 -1.13207,-0.3593 -2.0583,-1.07034 -2.0583,-1.58008 0,-2.00881 -8.75031,-9.63098 -13,-11.32397 -2.475,-0.98598 -5.11994,-2.30537 -5.87765,-2.93196 -1.08475,-0.89704 -1.96365,-0.43733 -4.13389,2.16227 -3.39494,4.06659 -4.16999,8.55506 -3.43277,19.87997 0.77495,11.90439 1.16274,13.47511 3.23004,13.08303 1.25292,-0.23763 1.84883,-1.64158 2.21427,-5.21682 z M 641.95167,630.08383 C 638.51159,628.70031 635,625.63713 635,624.01985 c 0,-3.04805 3.78345,-6.75305 7.73245,-7.57213 5.07903,-1.05346 14.83664,-0.53236 18.44556,0.98508 1.61532,0.67919 3.54078,2.39878 4.2788,3.82131 1.21368,2.33937 1.11975,2.79507 -0.98345,4.77092 -1.27892,1.20148 -2.83124,1.87182 -3.4496,1.48965 -0.61837,-0.38217 -2.56418,-0.0312 -4.32403,0.77991 -3.52244,1.6235 -12.46313,2.70818 -14.74806,1.78924 z"
       id="path1" />
  </g>
</svg>
