<?xml version="1.0" encoding="UTF-8" standalone="no"?>
<!-- Created with Inkscape (http://www.inkscape.org/) -->

<svg
   version="1.1"
   id="svg1"
   width="721.33331"
   height="721.33331"
   viewBox="0 0 721.33331 721.33331"
   sodipodi:docname="Racoon _3.jpg"
   xmlns:inkscape="http://www.inkscape.org/namespaces/inkscape"
   xmlns:sodipodi="http://sodipodi.sourceforge.net/DTD/sodipodi-0.dtd"
   xmlns="http://www.w3.org/2000/svg"
   xmlns:svg="http://www.w3.org/2000/svg">
  <defs
     id="defs1" />
  <sodipodi:namedview
     id="namedview1"
     pagecolor="#505050"
     bordercolor="#eeeeee"
     borderopacity="1"
     inkscape:showpageshadow="0"
     inkscape:pageopacity="0"
     inkscape:pagecheckerboard="0"
     inkscape:deskcolor="#505050">
    <inkscape:page
       x="0"
       y="0"
       width="721.33331"
       height="721.33331"
       id="page2"
       margin="0"
       bleed="0" />
  </sodipodi:namedview>
  <g
     inkscape:groupmode="layer"
     inkscape:label="Image"
     id="g1">
    <path
       style="fill:#000000;fill-opacity:1"
       d="m 311.80191,606.58528 c -1.42935,-0.26816 -3.00308,-1.12958 -3.4972,-1.91426 l -0.89837,-1.42669 -1.88754,1.56651 c -1.7778,1.47545 -24.1063,1.42643 -30.9101,-0.0679 -2.59441,-0.5698 -4.61394,-3.5886 -2.51672,-3.762 0.61111,-0.0505 2.91111,-0.35046 5.11111,-0.66653 2.2,-0.31606 13.46246,-0.78718 25.02769,-1.04693 11.56523,-0.25975 21.34586,-0.79044 21.73473,-1.17931 0.96491,-0.96491 -7.46332,-3.81825 -8.81352,-2.98378 -0.59296,0.36647 -3.34139,-2.09572 -6.10762,-5.47155 l -5.02952,-6.13785 0.12134,-4.28067 0.12134,-4.28066 -3.52722,-1.55923 c -1.94267,-0.85878 -11.43148,-1.72027 -21.12222,-1.91771 l -17.595,-0.35848 -0.61351,-2.34605 c -0.33742,-1.29033 -0.0697,-2.34605 0.595,-2.34605 0.66468,0 1.20851,-0.8239 1.20851,-1.8309 v -1.8309 l -6.05021,-0.12144 c -3.32762,-0.0668 -6.62762,-0.4783 -7.33333,-0.91446 -0.70572,-0.43615 -2.03312,-0.32665 -2.94979,0.24336 -1.96078,1.21924 -27.51868,0.71025 -29.58495,-0.5892 -1.81832,-1.14351 -6.26458,-0.42635 -8.44557,1.36223 l -1.69719,1.39183 0.76674,-1.9981 0.76674,-1.9981 -4.78613,0.14284 c -2.63237,0.0786 -5.21367,0.80438 -5.73622,1.61293 -0.52255,0.80855 -6.65009,1.80805 -13.61675,2.22111 -7.40013,0.43876 -14.29224,1.60201 -16.57637,2.79775 l -3.90969,2.04674 -1.42364,-2.79452 c -0.94189,-1.84888 -3.00278,-2.95266 -6.0903,-3.26187 -3.05732,-0.30618 -4.03299,-0.061 -2.82918,0.71094 1.01062,0.64806 1.42521,1.84537 0.92131,2.66069 -1.36145,2.20287 -3.14579,1.79739 -4.00513,-0.91014 l -0.75936,-2.39255 -8.84982,-0.32675 c -4.86739,-0.17971 -9.98877,-0.9363 -11.38084,-1.68131 -1.39207,-0.74502 -3.67769,-0.99064 -5.07914,-0.54584 -2.64239,0.83866 -8.56377,-3.67063 -6.94534,-5.28906 0.46765,-0.46765 0.26765,-1.26765 -0.44445,-1.77777 -1.50023,-1.07473 -6.5602,-9.91813 -8.73185,-15.26084 -0.81972,-2.01667 -1.98982,-3.66667 -2.60023,-3.66667 -0.6104,0 -0.64416,-1.65 -0.075,-3.66666 0.96858,-3.43204 0.72666,-9.66723 -0.51328,-13.22898 l -0.54389,-1.56231 -18.857035,0.38864 -18.857051,0.38864 -0.730234,-1.90295 c -0.401628,-1.04663 -1.575521,-1.5786 -2.608649,-1.18215 -2.400447,0.92114 -3.945204,-2.93316 -1.968012,-4.91035 1.812565,-1.81257 4.67755,-2.57505 10.857207,-2.88952 2.566666,-0.13061 8.692081,-0.72404 13.612029,-1.31873 5.8593,-0.70823 10.40699,-0.57173 13.18206,0.39567 l 4.236675,1.47691 2.62147,-2.9941 c 1.44182,-1.64676 3.30989,-3.89486 4.15128,-4.99578 3.19587,-4.18163 18.19648,-6.40285 18.19648,-2.69445 0,0.54615 1.44698,0.71639 3.21551,0.37832 l 3.21551,-0.61469 2.27117,3.46625 c 1.24914,1.90643 3.25216,3.47498 4.45116,3.48565 1.19899,0.0107 4.72389,0.90562 7.83312,1.98877 l 5.65313,1.96937 5.6802,-1.8425 c 7.92448,-2.5705 13.48845,-3.94945 14.76417,-3.65911 0.59619,0.13569 3.8963,-1.16584 7.3336,-2.8923 3.4373,-1.72646 6.99951,-2.88905 7.91603,-2.58355 0.91652,0.30551 1.66641,4.4e-4 1.66641,-0.67792 0,-0.67837 2.55,-1.99452 5.66666,-2.92479 3.11667,-0.93027 8.16883,-3.15421 11.22702,-4.94211 l 5.56035,-3.25071 0.88068,-5.21271 c 0.95127,-5.63053 -0.15346,-11.13392 -2.00524,-9.98946 -0.62987,0.38928 -1.54736,0.0571 -2.03888,-0.7382 -0.49151,-0.79529 -1.7885,-1.1026 -2.88218,-0.68291 -1.26182,0.4842 -2.24389,-0.21348 -2.68731,-1.90911 -0.38433,-1.46969 -1.73582,-2.67216 -3.00329,-2.67216 -1.26748,0 -3.3905,-1.2 -4.71781,-2.66667 -1.32732,-1.46667 -2.95413,-2.66667 -3.61515,-2.66667 -1.73277,0 -9.05152,-8.28798 -9.05152,-10.25023 0,-0.91077 -1.2,-2.29816 -2.66667,-3.0831 -1.46666,-0.78494 -2.66666,-2.30605 -2.66666,-3.38025 0,-1.07419 -0.6,-1.95308 -1.33334,-1.95308 -0.73333,0 -1.33333,-0.82654 -1.33333,-1.83674 0,-1.01021 -0.89339,-2.57819 -1.98532,-3.48441 -1.09192,-0.90622 -1.66418,-2.16729 -1.27167,-2.80237 0.3925,-0.63509 0.14165,-2.22349 -0.55746,-3.52979 -0.69911,-1.30629 -0.94636,-4.07386 -0.54945,-6.15015 l 0.72165,-3.77508 1.28023,1.78927 1.28024,1.78927 -0.81657,-2.50527 c -0.89004,-2.73064 1.77816,-11.49473 3.49953,-11.49473 0.58601,0 1.06549,-0.83496 1.06549,-1.85546 0,-2.38187 6.80847,-4.43925 16,-4.83487 1.09999,-0.0473 4.69999,0.49903 8,1.21416 l 6,1.30024 2.30368,-2.91203 c 1.26703,-1.60163 2.31703,-4.02136 2.33334,-5.3772 0.0163,-1.35584 0.9978,-4.50541 2.18112,-6.99905 1.1833,-2.49364 1.88937,-6.31968 1.56903,-8.5023 -0.32034,-2.18262 0.0615,-4.2009 0.84853,-4.48507 0.78703,-0.28417 0.9642,-1.01559 0.3937,-1.62536 -0.57049,-0.60978 -4.33378,0.50807 -8.36287,2.48412 -4.02909,1.97605 -8.4825,3.59282 -9.89648,3.59282 -1.41399,0 -3.05069,0.75 -3.63713,1.66666 -0.58644,0.91667 -5.56626,3.10318 -11.06626,4.85891 -13.13559,4.19319 -14.23292,4.60097 -21.65337,8.04676 -3.47603,1.61414 -6.96384,2.53692 -7.75069,2.05062 -0.78685,-0.4863 -2.59651,0.17092 -4.02146,1.46048 -1.42495,1.28957 -2.98194,1.95355 -3.45997,1.47552 -0.47803,-0.47803 -1.72008,-0.16294 -2.76011,0.70021 l -1.89097,1.56937 -1.02057,-1.65132 c -0.56131,-0.90822 -1.56558,-1.55475 -2.23171,-1.43673 -2.00866,0.35593 -7.21117,-1.64334 -7.21117,-2.77111 0,-0.57915 -1.08987,-0.768 -2.42192,-0.41966 l -2.42192,0.63335 -3.75942,-5.42484 c -2.06768,-2.98366 -4.342,-5.42484 -5.05406,-5.42484 -0.71206,0 -0.9201,-0.97605 -0.46233,-2.169 0.45779,-1.19294 0.1443,-2.99802 -0.69664,-4.01128 -0.85851,-1.03444 -1.20889,-3.81469 -0.79903,-6.34036 0.41131,-2.5346 0.0793,-5.14875 -0.7607,-5.98871 -0.97959,-0.9796 -1.01166,-1.49065 -0.0936,-1.49065 0.7684,0 1.44986,-1.85567 1.51434,-4.1237 0.12842,-4.51664 3.71458,-8.13922 7.06486,-7.13661 1.1603,0.34724 3.17939,-0.55074 4.48688,-1.9955 1.30749,-1.44477 5.00816,-3.02137 8.22371,-3.50358 3.21555,-0.4822 5.84645,-1.2757 5.84645,-1.76335 0,-0.91519 16.39966,-5.46322 21.86178,-6.06281 6.11294,-0.67103 15.4861,-4.03386 14.98437,-5.37599 -0.28205,-0.75448 -1.19898,-1.21807 -2.03763,-1.03018 -0.83865,0.18788 -2.22954,-1.20509 -3.09086,-3.09549 l -1.56604,-3.43709 1.72763,-1.06773 c 0.9502,-0.58726 5.55009,-1.45936 10.22199,-1.93801 l 8.49435,-0.87027 3.03554,1.70015 c 1.66955,0.93509 4.04773,2.50894 5.28485,3.49744 1.2944,1.03427 2.98484,1.34271 3.98185,0.72652 0.95289,-0.58892 4.1407,-1.12426 7.08402,-1.18965 2.94331,-0.0654 6.85148,-0.98955 8.68482,-2.05368 1.83333,-1.06413 3.93333,-1.994 4.66666,-2.06638 0.73334,-0.0724 3.03369,-0.82945 5.11189,-1.68238 2.07821,-0.85293 4.31581,-1.21875 4.97245,-0.81292 0.65663,0.40583 2.55628,-0.0158 4.22144,-0.93687 1.66516,-0.9211 3.77756,-1.52254 4.69422,-1.33654 0.91667,0.186 1.66667,-0.33105 1.66667,-1.14901 0,-0.81797 1.35,-1.31709 3,-1.10917 1.65,0.20792 5.7,-0.29005 9,-1.10658 22.88913,-5.6636 28.39538,-5.15882 39.1179,3.58605 5.75442,4.69308 10.88992,19.1492 8.49521,23.91351 -1.70178,3.38573 -3.42608,3.86955 -15.91915,4.46673 -4.20165,0.20084 -8.37165,1.09745 -9.26666,1.99246 -0.89502,0.89502 -3.27189,1.6273 -5.28195,1.6273 -2.01005,0 -3.99693,0.55384 -4.41529,1.23075 -0.41835,0.67691 -2.70376,1.65084 -5.07869,2.16428 -2.37493,0.51344 -7.24829,2.50961 -10.82972,4.43592 -3.58142,1.92631 -7.63142,4.09466 -9,4.81855 -1.36857,0.7239 -2.48951,2.2239 -2.49097,3.33334 -0.002,1.30874 -1.4715,2.12047 -4.18509,2.31134 -2.30034,0.1618 -5.19639,1.2118 -6.43567,2.33333 -1.23928,1.12154 -2.95599,2.03916 -3.81492,2.03916 -1.02824,0 -1.56168,2.87186 -1.56168,8.40762 v 8.40763 l -3.28903,4.45804 c -1.80896,2.45192 -2.95732,4.99477 -2.55188,5.65077 0.40543,0.65601 0.19165,1.91646 -0.47507,2.80101 -2.90401,3.85274 -0.85988,12.94159 2.91062,12.94159 1.7425,0 7.40536,-9.899 7.40536,-12.94498 0,-0.79001 0.93803,-1.79634 2.08451,-2.23628 1.14648,-0.43995 1.72968,-1.37404 1.29599,-2.07576 -0.43368,-0.70172 0.41447,-1.91967 1.88478,-2.70656 l 2.6733,-1.43071 2.65624,1.65885 c 3.3726,2.10623 4.50728,7.25473 3.32962,15.1079 l -0.92529,6.17031 -3.02622,1.37884 c -4.05805,1.84897 -3.31327,5.26012 1.52799,6.99827 l 3.93689,1.41345 0.10256,4.37702 c 0.0564,2.40736 -0.22257,4.05189 -0.61995,3.65451 -1.13245,-1.13245 -4.58473,8.89017 -4.46697,12.96847 0.0582,2.01667 -0.46998,3.66667 -1.17379,3.66667 -0.70381,0 -1.27966,0.6 -1.27966,1.33333 0,0.73334 0.9,1.33334 2,1.33334 1.24445,0 2,1.25926 2,3.33333 0,3.83898 -3.4349,4.60528 -4.48243,1 -0.39177,-1.34837 -0.57375,-0.92624 -0.4311,1 0.16501,2.22802 -0.36695,3.20242 -1.60423,2.93852 l -1.8511,-0.39481 0.7413,4.56813 0.74131,4.56813 -3.51296,2.82668 c -1.93213,1.55468 -4.36392,2.82668 -5.40398,2.82668 -1.04006,0 -3.32866,1.55125 -5.08578,3.44721 l -3.19477,3.44721 2.70854,0.7083 c 1.48969,0.38956 2.70854,1.23832 2.70854,1.88612 0,0.64781 0.86459,1.17783 1.92131,1.17783 2.74942,0 3.62516,2.01987 2.6171,6.0363 -0.58144,2.31665 -1.32314,3.04564 -2.20327,2.16551 -1.76952,-1.76952 -5.00181,-0.42311 -5.00181,2.08349 0,1.31742 -0.75704,1.7095 -2.21819,1.1488 -2.74606,-1.05376 -16.71685,3.42306 -29.07081,9.3155 l -9.289,4.43055 -1.60337,-1.33068 -1.60337,-1.33068 -1.10763,1.89436 c -0.6092,1.0419 -2.90763,2.20746 -5.10763,2.59014 -2.2,0.38268 -7.2386,1.94415 -11.19688,3.46992 -3.95829,1.52577 -7.66683,2.48369 -8.24121,2.12871 -0.57437,-0.35498 -1.44646,0.005 -1.93798,0.80056 -0.49151,0.79529 -1.63738,1.16059 -2.54637,0.81178 -0.90899,-0.34882 -2.44462,-0.14479 -3.4125,0.4534 -0.96788,0.59818 -2.71347,0.58647 -3.87909,-0.026 -1.16561,-0.6125 -3.23155,-1.46249 -4.59097,-1.88887 -1.5113,-0.47402 -2.17515,-1.54798 -1.70852,-2.764 0.49689,-1.29486 -0.0492,-1.98876 -1.56498,-1.98876 -1.28048,0 -3.6627,-0.93476 -5.29383,-2.07725 -1.63112,-1.14248 -3.49664,-1.74909 -4.1456,-1.34801 -0.64895,0.40108 -1.92751,-0.17156 -2.84123,-1.27253 l -1.66131,-2.00176 -1.94969,1.6181 -1.94969,1.6181 0.89444,8.73167 c 0.59097,5.76908 1.97328,10.39153 4.07411,13.62378 1.74882,2.69066 3.54501,6.34775 3.99154,8.12686 l 0.81187,3.23475 10.34389,-0.23932 c 5.68914,-0.13162 11.12567,-0.72248 12.08118,-1.31302 0.95551,-0.59054 11.70904,-1.25206 23.89673,-1.47004 12.18768,-0.21798 24.67608,-0.94754 27.752,-1.62125 3.50942,-0.76866 6.0692,-0.74831 6.87214,0.0546 0.7235,0.7235 3.69142,0.87207 6.82957,0.34188 l 5.55002,-0.93767 1.39154,-3.0541 c 0.76535,-1.67975 2.80478,-3.69801 4.53206,-4.48501 l 3.14051,-1.43092 2.04579,2.04579 c 1.12519,1.12519 2.04579,2.53789 2.04579,3.13934 0,0.60146 1.46001,1.45999 3.24447,1.90787 1.78446,0.44787 3.62765,2.02162 4.09599,3.49723 0.46835,1.47561 1.39594,2.34647 2.06132,1.93525 0.66538,-0.41123 2.57218,7.4e-4 4.23733,0.91548 1.66516,0.91475 5.12756,1.82861 7.69423,2.03081 2.56666,0.2022 7.06666,0.66709 10,1.03309 2.93333,0.36599 7.1793,0.88018 9.4355,1.14262 2.25619,0.26245 4.78924,0.90182 5.629,1.42082 0.83976,0.519 2.89959,0.0442 4.5774,-1.05517 3.2591,-2.13544 6.9918,-0.98288 7.0131,2.16547 0.014,2.0751 0.80807,2.38917 6.04025,2.38917 h 4.02858 l 1.49972,-3.29152 c 0.82485,-1.81034 2.07906,-2.93347 2.78715,-2.49585 0.70809,0.43763 1.81117,-0.0312 2.45128,-1.04181 1.52538,-2.40827 1.52301,-4.1916 -0.004,-3.24767 -0.66494,0.41096 -0.88999,-0.47263 -0.50011,-1.96353 0.38988,-1.4909 1.88134,-3.33822 3.31436,-4.10514 1.43301,-0.76693 3.21676,-3.14793 3.96388,-5.29111 0.74712,-2.14319 2.1997,-3.8967 3.22796,-3.8967 1.02826,0 1.86957,-0.64043 1.86957,-1.42318 0,-0.82776 1.14299,-1.06042 2.73195,-0.5561 1.61429,0.51236 4.08434,-0.019 6.03766,-1.2989 1.81815,-1.19129 3.88876,-1.80563 4.60138,-1.36521 0.71263,0.44042 1.29567,-0.43464 1.29567,-1.94459 0,-1.68563 0.90068,-2.78598 2.33334,-2.85062 1.56682,-0.0707 1.74974,-0.33821 0.55683,-0.81439 -1.19734,-0.47794 -0.53702,-1.4629 2.02539,-3.02121 2.58466,-1.57182 3.90148,-3.55226 4.11287,-6.1856 0.17102,-2.13044 1.20958,-4.53968 2.30793,-5.35386 1.09834,-0.81417 1.99698,-2.14534 1.99698,-2.95815 0,-0.81281 0.9,-1.13247 2,-0.71036 1.10001,0.42211 2,0.0679 2,-0.7872 0,-0.85507 0.60001,-1.18385 1.33333,-0.73063 0.73333,0.45323 1.33333,0.18864 1.33333,-0.58798 0,-0.77661 0.6,-1.41202 1.33334,-1.41202 0.73334,0 1.33333,0.9 1.33333,2 0,1.1 0.63541,2 1.41202,2 0.77661,0 1.0412,-0.6 0.58798,-1.33333 -0.45323,-0.73334 0.0472,-1.33334 1.11199,-1.33334 1.06482,0 2.19863,0.75 2.51957,1.66667 1.0812,3.08807 0.0483,9.66956 -1.46481,9.33333 -0.82505,-0.18333 -1.50008,0.13947 -1.50008,0.71733 0,0.57787 -3,4.24607 -6.66667,8.15155 -3.66667,3.90549 -6.66667,7.9327 -6.66667,8.94934 0,1.01665 -0.70459,1.84845 -1.56575,1.84845 -0.86116,0 -0.11994,1.539 1.64716,3.41999 6.98963,7.44012 3.26442,18.05824 -6.12712,17.46437 l -5.28762,-0.33435 -1.73942,-3.60834 c -1.74423,-3.61831 -7.3026,-5.21121 -6.7754,-1.94167 0.1478,0.91667 -0.19302,2.72431 -0.75739,4.01698 -0.60284,1.38078 -0.34723,3.16833 0.61964,4.33333 l 1.64576,1.98302 h -1.4966 c -0.82312,0 -1.49659,0.83496 -1.49659,1.85546 0,2.07421 -5.43263,3.86773 -8.3382,2.75276 l -1.88343,-0.72274 0.59548,4.05726 c 0.32752,2.23149 1.0574,4.05726 1.62197,4.05726 0.56458,0 1.3403,1.2 1.72385,2.66667 0.38354,1.46667 0.15352,2.66667 -0.51116,2.66667 -4.73422,0 0.41952,6.18439 5.9965,7.19569 2.08386,0.37788 3.92674,0.86343 4.09528,1.07901 0.16854,0.21558 0.97667,1.59196 1.79586,3.05863 l 1.48943,2.66667 0.0405,-2.0496 c 0.0228,-1.15118 1.3469,-2.148 3.0208,-2.27409 1.63914,-0.12347 3.18914,-0.85115 3.44444,-1.61707 0.25531,-0.76592 1.26824,-1.39258 2.25096,-1.39258 0.98271,0 4.53792,-2.1 7.90042,-4.66666 3.36253,-2.56667 6.97673,-4.66667 8.03159,-4.66667 3.37554,0 13.21314,-6.06589 19.11514,-11.78646 3.14756,-3.05078 6.53336,-5.54687 7.52402,-5.54687 0.99066,0 2.14657,-0.9 2.56868,-2 0.42211,-1.1 1.9863,-2 3.47598,-2 1.48968,0 2.7132,-0.45 2.71892,-1 0.006,-0.55 1.50572,-1.69355 3.33333,-2.54122 l 3.32293,-1.54122 v 2.63107 2.63107 l 3,-0.92216 c 4.02717,-1.23789 4.27978,-1.57871 2.63757,-3.55865 l -1.4091,-1.69889 3.30566,-0.19768 c 1.81812,-0.10872 3.016,0.092 2.66197,0.44602 -0.35403,0.35404 0.32412,1.77403 1.50701,3.15554 1.18289,1.38152 2.35722,4.05385 2.60961,5.93853 0.25239,1.88467 1.02556,4.91713 1.71816,6.73879 l 1.25926,3.31212 3.68826,-0.81397 c 2.02855,-0.44767 4.69374,-0.80181 5.92265,-0.78697 1.31375,0.0159 2.82936,-1.67977 3.6784,-4.11532 0.79421,-2.27827 2.48589,-5.13147 3.7593,-6.34044 l 2.31528,-2.19812 2.33965,2.97439 c 1.28681,1.63591 2.33965,3.62975 2.33965,4.43075 0,0.80099 0.5,1.45636 1.11111,1.45636 2.21388,0 2.76558,-1.73906 1.37562,-4.33622 -0.93067,-1.73897 -0.94757,-2.36062 -0.0491,-1.80532 0.7537,0.46581 1.7714,-0.41664 2.26156,-1.961 0.58562,-1.84511 1.69657,-2.59731 3.23995,-2.19371 1.29182,0.33782 3.37735,0.0386 4.63453,-0.66497 l 2.28578,-1.27918 -2.06001,3.98362 -2.06002,3.98362 5.63028,0.59559 c 7.25494,0.76746 7.74854,0.41471 6.08743,-4.35032 -0.76097,-2.18292 -1.92937,-3.63163 -2.59645,-3.21935 -0.66707,0.41227 -1.55243,-0.33844 -1.96744,-1.66825 -0.41502,-1.32982 -1.30736,-3.45421 -1.98296,-4.72088 l -1.22838,-2.30304 3.9784,-2.05731 c 4.98781,-2.57929 5.46935,-2.61752 6.75566,-0.53623 l 1.04745,1.69481 2.10162,-1.74419 2.10162,-1.74419 v 2.24195 c 0,1.27488 0.62524,1.85553 1.44949,1.34611 0.79722,-0.49271 1.14471,-2.06133 0.7722,-3.48582 -0.43301,-1.6558 0.74354,-4.20822 3.26192,-7.0765 2.23354,-2.54386 3.36457,-4.84168 2.61209,-5.30674 -0.85307,-0.52723 -0.88085,-1.99406 -0.0777,-4.10635 0.81501,-2.14366 0.78278,-3.28613 -0.0927,-3.28613 -0.73815,0 -1.31506,-2.25 -1.28201,-5 0.0331,-2.75 0.0247,-6.2 -0.0187,-7.66667 -0.0433,-1.46666 1.07103,-3.60016 2.47632,-4.74109 5.28136,-4.28785 3.42164,-12.98158 -2.49165,-11.64787 -2.09664,0.47288 -5.31567,-5.28927 -4.35436,-7.7944 0.38018,-0.99073 1.22836,-1.46936 1.88485,-1.06362 0.65649,0.40573 1.19362,-0.16043 1.19362,-1.25813 0,-1.15005 1.09096,-1.91364 2.57441,-1.8019 1.41592,0.10666 2.46592,0.78373 2.33333,1.50461 -0.13259,0.72088 0.75834,1.53058 1.97984,1.79933 2.72154,0.59878 3.90739,-3.52614 1.81985,-6.33026 -0.8189,-1.1 -2.27347,-4.30961 -3.23237,-7.13246 l -1.74346,-5.13247 1.46753,-1.46753 c 2.12387,-2.12387 1.80113,-4.01419 -0.53246,-3.11871 -2.25289,0.86452 -2.75363,-1.19235 -0.61243,-2.51568 1.58612,-0.98028 0.30773,-6.17118 -1.862,-7.56065 -0.79659,-0.51013 -1.03683,-1.33902 -0.53387,-1.84198 0.50296,-0.50296 0.34038,-1.98718 -0.36129,-3.29827 -0.82685,-1.54499 -0.80719,-2.53999 0.0559,-2.82768 0.7513,-0.25044 0.16557,-2.61955 -1.34399,-5.43606 -1.4716,-2.7457 -2.67944,-5.74435 -2.68407,-6.66368 -0.005,-0.91932 -1.87009,-2.73115 -4.14545,-4.02629 l -4.13702,-2.3548 1.54353,-1.85983 1.54352,-1.85984 -1.56666,-0.96824 c -0.99592,-0.61552 -0.048,-1.60678 2.60193,-2.72101 3.93459,-1.65437 5.73853,-4.54815 2.83524,-4.54815 -0.73333,0 -1.33333,-0.89492 -1.33333,-1.9887 0,-1.09379 -1.2,-2.73812 -2.66667,-3.65407 -1.5972,-0.99747 -2.66666,-3.10937 -2.66666,-5.26594 0,-1.98032 -0.65227,-4.00371 -1.44949,-4.49641 -0.79722,-0.49271 -1.11838,-2.16202 -0.71369,-3.70958 0.4047,-1.54756 0.16074,-6.86853 -0.54213,-11.82438 -1.71452,-12.08896 -1.70625,-12.05753 -3.74903,-14.24541 l -1.78767,-1.91466 -1.06656,1.72575 -1.06657,1.72574 -0.90228,-2.84284 -0.90228,-2.84283 h -4.57682 c -2.51725,0 -4.57682,-0.53003 -4.57682,-1.17783 0,-1.66271 -5.17489,-2.82388 -6.07736,-1.36367 -1.11412,1.80269 -3.3061,1.45881 -2.92264,-0.4585 0.19766,-0.9883 -0.78209,-1.51478 -2.40711,-1.2935 -3.26156,0.44414 -15.25955,-4.6159 -15.25955,-6.43556 0,-0.69902 0.53002,-1.27094 1.17782,-1.27094 0.64781,0 1.49163,-1.2 1.87518,-2.66667 0.77148,-2.95015 5.7115,-3.69649 6.61906,-1 l 0.56095,1.66667 2.04783,-1.68967 c 1.1263,-0.92932 2.94645,-1.34484 4.04477,-0.92338 1.14613,0.43982 2.34778,-0.14796 2.82039,-1.37958 0.56308,-1.46737 0.3013,-1.84072 -0.82794,-1.18077 -0.90827,0.53082 -0.5084,-0.33802 0.88859,-1.93074 1.39699,-1.59273 3.07128,-2.89586 3.72065,-2.89586 0.64937,0 2.89934,-1.27067 4.99993,-2.8237 2.10059,-1.55303 4.43483,-2.44325 5.18721,-1.97825 0.75238,0.46499 1.74483,0.23566 2.20545,-0.50964 0.46062,-0.74529 2.00208,-1.35508 3.42546,-1.35508 1.58363,0 2.58006,-0.90553 2.56756,-2.33333 -0.04,-4.57236 -1.87425,-5.41353 -11.98031,-5.49406 -5.4996,-0.0438 -12.64025,-0.10961 -15.86811,-0.14619 -7.34787,-0.0833 -8.30439,0.82571 -4.15916,3.95246 l 3.26549,2.46317 -1.77267,3.31226 -1.77267,3.31227 -6.17941,-2.10525 c -3.39867,-1.15788 -6.89553,-2.82113 -7.7708,-3.69611 -0.87527,-0.87498 -3.12527,-1.29765 -5,-0.93928 l -3.40861,0.6516 v -2.15544 c 0,-3.74731 -5.31101,-1.09871 -7.04078,3.51123 -1.14571,3.05339 -4.80352,2.9173 -8.95921,-0.33333 -1.83334,-1.43405 -4.05996,-2.62071 -4.94806,-2.63702 -0.8881,-0.0163 -2.79215,-1.29346 -4.23122,-2.83812 -1.43907,-1.54465 -3.26244,-2.40924 -4.05194,-1.92131 -0.7895,0.48794 -1.43545,0.26318 -1.43545,-0.49946 0,-0.76264 -1.65,-1.82512 -3.66667,-2.36106 -2.01666,-0.53595 -3.96666,-1.07809 -4.33333,-1.20477 -0.36667,-0.12667 -2.01667,-0.66958 -3.66667,-1.20646 -1.65,-0.53688 -3.01392,-1.35617 -3.03093,-1.82064 -0.017,-0.46447 -2.11702,-3.16074 -4.66667,-5.99172 -2.54965,-2.83097 -4.63573,-6.24054 -4.63573,-7.57681 0,-1.33628 -1.05537,-2.76456 -2.34526,-3.17395 -1.28989,-0.4094 -2.93989,-1.86423 -3.66667,-3.23297 -3.40666,-6.41578 -10.82546,-16.15692 -12.3214,-16.17842 -0.91667,-0.0132 -1.66667,-1.42765 -1.66667,-3.14327 0,-2.05172 -1.16657,-3.65084 -3.40852,-4.67234 -3.61496,-1.64708 -3.33815,-4.667 0.29982,-3.27098 1.46477,0.56208 1.93153,0.22844 1.48046,-1.05823 -0.36232,-1.03353 -1.64419,-1.7958 -2.8486,-1.69395 -1.2044,0.10185 -2.18983,-0.34815 -2.18983,-1 0,-0.65185 0.63541,-1.18518 1.41203,-1.18518 0.77661,0 1.03515,-0.60979 0.57453,-1.35509 -0.46062,-0.74529 -1.54603,-0.95727 -2.41202,-0.47106 -1.06178,0.59614 -1.03177,0.29927 0.0921,-0.91158 2.52281,-2.71798 2.09561,-7.89994 -0.66667,-8.08669 -1.28333,-0.0868 -0.53333,-0.54305 1.66667,-1.01396 l 4,-0.8562 -0.10677,-7.53252 -0.10677,-7.53253 2.76641,0.53277 c 4.17208,0.80347 7.07577,-0.54239 7.8903,-3.65714 0.48632,-1.85973 1.42729,-2.52853 2.81062,-1.99769 1.14375,0.4389 2.07954,0.18964 2.07954,-0.55391 0,-0.8229 1.82608,-1.00933 4.66667,-0.47643 2.84862,0.5344 4.66667,0.34709 4.66667,-0.48081 0,-0.87074 1.20763,-0.80453 3.37338,0.18495 l 3.37339,1.54122 -0.73212,3 c -0.40267,1.65 -0.13213,3 0.60121,3 0.73333,0 1.69563,-1.44353 2.13845,-3.20784 l 0.80511,-3.20784 3.91162,1.12184 c 2.15139,0.61701 4.19763,1.17496 4.54721,1.23989 6.85198,1.27265 8.99236,2.06549 9.55841,3.5406 0.37444,0.97578 2.7015,2.15323 5.17123,2.61656 2.46974,0.46332 5.18527,1.67964 6.03453,2.70293 0.84925,1.02329 2.31977,1.86053 3.26781,1.86053 0.94805,0 3.42458,1.8202 5.50341,4.0449 4.27688,4.57699 9.10572,7.30234 15.38026,8.68046 5.06812,1.11314 11.73276,5.73221 11.73276,8.13163 0,0.92886 2.19934,2.10144 4.88742,2.60572 l 4.88742,0.91689 -2.22075,1.62385 c -1.22142,0.89312 -2.22076,2.89628 -2.22076,4.45147 v 2.8276 l 3.66667,0.90631 c 3.02651,0.74808 9.46048,4.8468 17,10.82973 0.73333,0.58193 2.27024,0.86861 3.41534,0.63705 1.14511,-0.23156 3.1881,0.8012 4.53999,2.29502 1.35188,1.49382 3.25812,2.71603 4.23608,2.71603 0.97796,0 2.9157,0.97404 4.30609,2.16453 l 2.52799,2.16453 -1.96085,2.2901 -1.96085,2.2901 -4.88523,-0.56366 c -14.57002,-1.68109 -20.21856,-1.23524 -20.21856,1.59589 0,2.0384 6.38126,5.05895 8.24899,3.90463 0.76037,-0.46994 1.7654,-0.2979 2.23341,0.38229 1.3457,1.95581 14.66942,5.77532 20.00405,5.73455 l 4.84688,-0.037 3.88889,-3.96297 c 2.13889,-2.17963 4.6247,-3.96296 5.52402,-3.96296 0.89932,0 1.98048,-0.9 2.40259,-2 0.42211,-1.1 1.92285,-2 3.33498,-2 2.33809,0 7.39149,-4.18349 11.96594,-9.90608 2.22884,-2.78825 1.08359,-6.09392 -2.11123,-6.09392 -1.32651,0 -3.78414,-0.9612 -5.4614,-2.136 -1.67726,-1.1748 -3.38684,-1.79873 -3.79906,-1.38651 -1.20524,1.20525 -8.00697,-2.83373 -8.96165,-5.32158 -0.95495,-2.48858 1.56416,-4.82217 4.17422,-3.8668 0.89318,0.32693 1.98121,0.0164 2.41785,-0.69009 0.43663,-0.70649 -0.14416,-1.64447 -1.29064,-2.08442 -1.14648,-0.43995 -2.10359,-2.08571 -2.12691,-3.65725 -0.0572,-3.85212 -2.45102,-6.63952 -7.4513,-8.67628 -2.28821,-0.93205 -4.87135,-3.25506 -5.74032,-5.16224 l -1.57995,-3.4676 1.8097,1.50192 c 2.66956,2.21554 7.67094,0.46518 7.67094,-2.68464 v -2.65381 l -2.22673,0.85448 c -2.83674,1.08855 -4.21755,-1.13143 -3.3915,-5.45263 l 0.64569,-3.37772 3.81961,0.76392 3.8196,0.76392 v -1.85556 c 0,-1.02055 -0.75,-2.20001 -1.66667,-2.62102 -0.91667,-0.42101 -0.19465,-0.39185 1.60448,0.0648 4.79177,1.21622 13.80398,13.84776 11.51387,16.13787 -1.05843,1.05843 4.76774,11.00334 6.4605,11.02766 0.83441,0.012 0.74888,0.44755 -0.20717,1.05498 l -1.62831,1.03457 3.06406,3.30445 c 1.68523,1.81745 2.81797,4.04271 2.5172,4.94502 -0.30077,0.90231 0.42837,1.64056 1.62031,1.64056 2.68004,0 13.9318,8.12947 14.00306,10.11729 0.0286,0.79785 2.22166,1.5322 4.87347,1.63189 12.19363,0.4584 11.76805,11.70925 -0.48905,12.92863 -6.76625,0.67314 -16.64679,5.86906 -18.2979,9.62241 -0.7373,1.67605 -3.00406,3.32703 -5.24315,3.81881 -4.17859,0.91778 -12.1192,4.97819 -15.45804,7.90443 -1.1,0.96407 -4.55,2.76833 -7.66666,4.00947 -6.35174,2.52943 -6.5189,2.81539 -3.55819,6.08694 l 2.10848,2.32984 -2.77515,2.77514 c -1.52633,1.52633 -3.90656,2.77515 -5.2894,2.77515 -1.38284,0 -4.12565,0.836 -6.09512,1.85777 l -3.58086,1.85777 2.43967,1.8089 c 1.34182,0.99489 2.52407,3.50577 2.62722,5.57972 0.10315,2.07396 1.45359,5.11847 3.00098,6.76558 1.54738,1.64712 2.41161,3.39657 1.92051,3.88767 -0.4911,0.4911 0.19641,2.09659 1.52779,3.56775 1.33139,1.47116 2.03646,2.67484 1.56684,2.67484 -0.46962,0 0.25313,2.85 1.60612,6.33333 1.35299,3.48334 2.18751,7.10351 1.85449,8.04483 -0.33302,0.94132 0.10289,2.56504 0.96868,3.60826 0.8658,1.04322 1.14565,2.59013 0.6219,3.43758 -0.52375,0.84744 -0.39373,1.92373 0.28893,2.39174 3.19447,2.19002 6.8403,10.38163 6.16657,13.8553 l -0.71201,3.67103 5.48961,5.32748 c 5.82464,5.65263 6.25438,6.74343 4.1821,10.61551 l -1.3075,2.44309 -5.54624,-1.24616 c -8.82558,-1.98298 -8.83735,-0.83665 -0.0805,7.83902 4.53069,4.48867 8.82359,9.70246 9.53979,11.5862 1.31518,3.45919 0.43475,11.83039 -1.14177,10.85605 -0.4688,-0.28974 -1.96894,0.28966 -3.33364,1.28756 l -2.48128,1.81435 2.16265,2.16265 c 1.18946,1.18946 2.16265,2.7198 2.16265,3.40075 0,0.68095 0.83581,1.23809 1.85735,1.23809 1.02154,0 2.20369,0.90255 2.62699,2.00566 l 0.76964,2.00566 8.01645,-0.48979 c 4.40904,-0.26938 8.80596,-1.14503 9.77093,-1.94588 1.07959,-0.89598 4.29413,-1.13026 8.35657,-0.60905 9.2953,1.19258 16.81858,1.13399 19.9354,-0.15526 4.40191,-1.82082 11.17425,-1.84405 14.63191,-0.0502 1.78795,0.9276 4.57103,1.3413 6.18462,0.91934 l 2.9338,-0.76721 -0.98689,1.59681 -0.98688,1.59681 3.44505,-0.86466 c 3.65795,-0.91808 4.49254,0.51029 1.84506,3.15777 l -1.6,1.6 h 2.26666 c 1.24667,0 2.26667,-0.6 2.26667,-1.33333 0,-3.0967 4.40756,-0.89292 10.66667,5.33333 3.68601,3.66667 7.60992,6.66667 8.71979,6.66667 2.67049,0 10.98725,7.64317 12.08695,11.10802 0.47751,1.5045 2.58857,4.57068 4.69123,6.81372 2.10266,2.24304 3.8258,4.76407 3.82919,5.60227 0.003,0.83821 0.90617,1.86938 2.00617,2.29149 1.1,0.42211 2,1.70741 2,2.85623 0,1.14882 0.969,3.56765 2.15335,5.37518 l 2.15334,3.28642 -2.48668,0.0937 -2.48668,0.0937 2.66667,1.1459 c 4.01894,1.727 4.66667,1.56253 4.66667,-1.18494 v -2.51828 l 4.72495,-0.88641 c 2.59872,-0.48752 5.89872,-0.51386 7.33333,-0.0585 l 2.60838,0.82787 v 4.00538 c 0,5.96116 -6.7208,10.98585 -8.31144,6.21392 l -0.53367,-1.60099 -0.98946,1.60099 c -0.54421,0.88055 -0.37289,1.60099 0.3807,1.60099 0.7536,0 0.98484,1.00417 0.51388,2.23148 l -0.8563,2.23148 2.18878,-0.83991 c 1.20383,-0.46195 2.54945,-0.25633 2.99028,0.45694 0.44082,0.71326 1.31507,0.97944 1.94278,0.59149 1.40393,-0.86768 8.00778,2.0151 8.00778,3.49563 0,1.73771 -4.97257,3.88764 -7.10187,3.07055 -1.07895,-0.41403 -2.33215,-0.15342 -2.7849,0.57914 -0.45758,0.74038 -3.33029,1.0159 -6.4682,0.62036 -5.63264,-0.71001 -6.83885,-0.70312 -15.64502,0.0893 -7.70681,0.69349 -8,0.76407 -8,1.92574 0,1.31922 5.56197,1.69244 22.14991,1.48631 l 12.14992,-0.15098 0.75787,1.97498 0.75787,1.97499 -5.57445,0.56192 c -3.11851,0.31435 -6.00603,-0.0684 -6.55404,-0.86875 l -0.97958,-1.43067 -0.0204,1.5385 c -0.0116,0.87295 -2.1834,1.56803 -5.02042,1.60677 -22.18986,0.30298 -44.6199,2.66171 -43.96599,4.62343 0.80507,2.4152 6.89195,3.28495 17.81803,2.54599 14.99868,-1.01439 27.29182,-0.70335 31.14796,0.78811 l 3.33333,1.28925 -3.54019,1.38956 c -1.9471,0.76425 -5.3971,1.15455 -7.66666,0.86732 -2.26956,-0.28723 -4.1269,-0.10074 -4.12742,0.41442 -0.002,1.55739 -7.2569,1.47082 -8.22659,-0.0982 l -0.90256,-1.46037 -1.95825,1.62521 -1.95826,1.6252 -36.4767,0.59632 c -20.06218,0.32798 -38.1267,0.82554 -40.14336,1.10571 l -3.66667,0.50938 -0.0424,-2.14998 -0.0424,-2.14998 -1.68072,2.20952 c -0.92439,1.21524 -3.15531,2.16847 -4.95759,2.11829 -12.2166,-0.34012 -23.73235,2.77784 -21.80104,5.90277 1.01223,1.63782 -5.78948,2.82268 -12.11242,2.11 l -5.81123,-0.65501 0.78383,2.04261 0.78382,2.04261 -1.89325,-1.21873 c -2.90758,-1.87167 -24.2448,-1.51671 -26.3116,0.43771 -3.07231,2.90527 -0.3271,4.34356 8.29039,4.34356 h 8.38132 l 2.21219,2.44445 2.2122,2.44444 -2.33888,0.20704 c -11.3265,1.00263 -39.42151,0.2187 -41.06569,-1.14585 l -1.93985,-1.60993 v 1.5109 1.5109 l -23,0.0167 c -19.43794,0.0141 -27.46478,0.24529 -40.66666,1.1711 -0.91667,0.0643 -1.66667,0.96921 -1.66667,2.01094 0,2.48221 4.37984,3.19424 21.33333,3.46817 34.08233,0.55071 54.4358,0.94278 60,1.15581 l 6,0.22972 -2.66667,1.59993 -2.66666,1.59993 -38.66667,0.21717 C 385.27,591.35705 367.87,591.54266 367.87,591.65007 c 0,0.10742 -3,0.45146 -6.66667,0.76454 -10.45581,0.89279 -20.11565,4.0874 -14.6,4.82837 0.69667,0.0936 2.76667,0.41516 4.6,0.7146 1.83333,0.29944 16.23333,0.54736 32,0.55093 15.76666,0.004 30.67797,0.3207 33.13624,0.70471 4.49986,0.70295 4.78469,2.16528 0.50326,2.5838 -1.26839,0.12399 -4.70617,0.64833 -7.6395,1.1652 -10.13041,1.78504 -35.45731,3.6099 -50,3.60261 -13.61281,-0.007 -18.62966,0.0357 -31.40118,0.26616 -7.37064,0.13301 -14.57064,0.0224 -16,-0.24575 z m 212.84357,-64.17909 c 0.67335,0 1.22428,-1.8681 1.22428,-4.15133 v -4.15133 l 3.94884,0.57957 c 2.47043,0.36258 4.1987,-0.0715 4.6162,-1.15953 0.36704,-0.9565 1.4579,-1.43573 2.42412,-1.06495 l 1.75676,0.67413 -0.2998,-5.36328 c -0.16489,-2.9498 0.26048,-5.36328 0.94528,-5.36328 1.86176,0 0.0183,-13.65517 -2.17419,-16.10498 -1.03613,-1.15775 -1.88388,-2.54964 -1.88388,-3.0931 0,-0.54346 -1.8,-3.60432 -4,-6.80191 -2.2,-3.1976 -4.02706,-7.2057 -4.06013,-8.90691 -0.0695,-3.57459 -3.66574,-12.09448 -3.8382,-9.09309 -0.0748,1.30112 -1.2069,0.63526 -3.23991,-1.90555 -3.08684,-3.85784 -10.19509,-6.22471 -10.19509,-3.39471 0,0.8017 -0.60424,1.08419 -1.34275,0.62777 -0.73851,-0.45643 -1.68231,0.25816 -2.09733,1.58798 -0.41503,1.32981 -1.31079,3.4597 -1.99059,4.73308 -1.78115,3.33639 -1.52512,5.01809 0.76401,5.01809 1.1,0 2,0.94004 2,2.08896 0,1.14893 1.5,4.05557 3.33333,6.45919 1.83333,2.40363 3.33333,5.23009 3.33333,6.28103 0,1.05094 0.93402,3.24431 2.07561,4.87415 1.14158,1.62983 1.72775,2.96334 1.30259,2.96334 -0.42515,0 0.0745,1.35 1.11034,3 1.89457,3.01788 1.90683,5.9812 0.0418,10.10412 -1.31263,2.90173 -1.69385,4.79422 -2.66485,13.22921 l -0.80581,7 h 2.13684 c 1.17526,0 2.13683,0.66419 2.13683,1.47599 0,0.81179 0.94908,1.11179 2.10905,0.66666 1.15998,-0.44512 2.65998,-0.80932 3.33334,-0.80932 z m 55.12706,-16.34722 c 0.0535,-0.17569 1.14721,-2.31807 2.43055,-4.76083 1.28334,-2.44276 2.33334,-5.44843 2.33334,-6.67927 0,-1.23084 1.1175,-2.93578 2.48335,-3.78876 l 2.48334,-1.55088 -0.30188,-5.35029 c -0.16603,-2.94266 -1.28264,-6.33105 -2.48135,-7.52975 -1.1987,-1.19871 -2.56456,-3.78751 -3.03525,-5.7529 -1.60494,-6.70161 -4.55106,-10.91499 -10.18539,-14.56664 -3.09622,-2.00667 -5.94435,-4.07086 -6.32917,-4.58707 -0.38483,-0.51622 -1.88483,-0.71774 -3.33334,-0.44783 -1.4485,0.26991 -3.98365,0.53666 -5.63365,0.59276 -3.95818,0.1346 -3.79189,2.46288 0.49552,6.93797 l 3.49552,3.64854 -1.49991,4.30266 -1.49991,4.30265 4.84309,4.30869 4.8431,4.30869 -0.11926,5.9414 c -0.0656,3.26777 -0.69928,8.52289 -1.40819,11.67804 l -1.28894,5.73664 2.90283,2.48434 c 2.39404,2.0489 10.24622,2.60978 10.8056,0.77184 z M 232.95207,452.73953 c -0.16544,-2.41677 0.4027,-3.66667 1.66668,-3.66667 1.05473,0 1.91768,-0.66419 1.91768,-1.47598 0,-0.81179 -0.9,-1.13062 -2,-0.70852 -1.09999,0.42211 -2,0.18631 -2,-0.52401 0,-0.71032 0.86459,-1.29149 1.92132,-1.29149 2.84886,0 3.47147,-1.8103 2.17606,-6.32713 -0.77888,-2.71581 -0.64655,-4.63551 0.40371,-5.85649 0.85933,-0.99901 1.30332,-1.67158 0.98667,-1.49461 -0.31666,0.17697 -1.32752,-0.30217 -2.24638,-1.06475 l -1.67064,-1.38651 -0.86405,1.39808 c -1.30542,2.11221 -7.35069,1.67525 -8.22158,-0.59426 -0.42049,-1.09579 -1.30166,-1.66038 -1.95815,-1.25465 -0.65649,0.40574 -1.19362,-0.0644 -1.19362,-1.04467 0,-3.47801 -10.88182,-11.01336 -17.70043,-12.25704 l -5.03376,-0.91814 -3.96624,2.82421 c -4.00931,2.85488 -5.20439,7.05336 -2.48595,8.73345 0.86992,0.53764 1.17707,2.78324 0.74494,5.44614 l -0.73532,4.53128 3.92171,4.01185 c 2.15694,2.20652 3.92171,4.59116 3.92171,5.29921 0,0.70805 0.86597,1.28737 1.92439,1.28737 1.05842,0 2.84462,1.3138 3.96933,2.91955 1.12472,1.60576 2.45354,2.51097 2.95293,2.01157 0.49939,-0.49939 1.70751,-0.24445 2.6847,0.56655 3.17676,2.63648 11.69158,5.12287 16.46865,4.80897 l 4.66666,-0.30664 z M 171.2031,378.69729 c 0,-0.57324 2.85,-1.84747 6.33333,-2.83163 3.48333,-0.98416 8.31764,-2.91514 10.74288,-4.29108 2.42525,-1.37595 6.13984,-2.50171 8.25464,-2.50171 2.1148,0 4.23879,-0.63701 4.71997,-1.41558 0.48118,-0.77857 2.16659,-1.97714 3.74536,-2.66349 1.57876,-0.68634 3.77048,-1.80604 4.87048,-2.48822 2.20949,-1.37023 6.59741,-3.07209 8.66667,-3.36138 0.73333,-0.10252 6.05824,-2.41051 11.83312,-5.12887 5.77489,-2.71835 11.17489,-4.96155 12,-4.98487 0.82513,-0.0233 2.6386,-0.9041 4.02997,-1.95729 1.39137,-1.05318 2.99991,-1.62432 3.57454,-1.26918 0.57462,0.35514 1.42165,0.0359 1.88226,-0.70937 0.46062,-0.7453 1.90989,-1.35509 3.22061,-1.35509 1.31072,0 4.30813,-0.96031 6.66091,-2.13403 2.35278,-1.17372 6.34496,-2.19264 8.87151,-2.26425 2.81693,-0.0799 4.59375,-0.80159 4.59375,-1.86597 0,-0.95466 1.46458,-1.73575 3.25465,-1.73575 1.79005,0 3.62546,-0.6 4.07868,-1.33333 0.45323,-0.73333 1.98864,-1.33333 3.41203,-1.33333 3.67706,0 3.20379,-2.9111 -1.15165,-7.08388 -3.84747,-3.68611 -8.98058,-4.7555 -9.87966,-2.05826 l -0.50818,1.52453 -2.82871,-1.51388 -2.8287,-1.51387 -0.49342,1.48024 c -0.27138,0.81413 -3.2734,1.59738 -6.67117,1.74056 -3.39776,0.14317 -7.11649,1.03939 -8.26383,1.9916 -1.14734,0.95221 -3.08049,1.3497 -4.29588,0.88331 -1.23129,-0.47249 -3.24662,0.0903 -4.55129,1.27102 -1.38037,1.24922 -2.67068,1.58633 -3.14352,0.82127 -0.47998,-0.77663 -3.01675,-0.22771 -6.31738,1.36698 -3.03344,1.4656 -7.29601,2.89008 -9.47238,3.16552 -2.17637,0.27543 -4.64311,1.02809 -5.48165,1.67257 -0.83854,0.64448 -6.62461,2.18486 -12.85795,3.42306 -13.4441,2.67056 -21.40728,4.865 -23.58716,6.50001 -0.87294,0.65474 -2.67294,1.02373 -4,0.81997 -1.32706,-0.20376 -3.7855,0.3857 -5.4632,1.30992 -1.6777,0.92421 -4.0777,1.37263 -5.33333,0.99648 -1.25564,-0.37615 -3.64149,0.44368 -5.3019,1.82185 l -3.01893,2.50576 1.56628,3.43762 c 0.86146,1.89069 2.29268,3.43762 3.18049,3.43762 1.7373,0 3.94869,12.52395 2.59745,14.71031 -0.43839,0.70933 -0.42625,1.88969 0.027,2.62302 0.97554,1.57845 3.33333,1.78434 3.33333,0.29109 z M 365.11008,260.05477 c 6.26756,-0.42032 6.05745,-0.24575 7.38611,-6.13683 l 1.05991,-4.69953 -1.82539,-2.6061 c -4.05322,-5.78679 -14.05679,-2.97508 -13.95498,3.92234 0.14831,10.04719 0.38892,12.22748 1.22235,11.07594 0.47942,-0.66241 3.22982,-1.36253 6.112,-1.55582 z m -85.69335,322.51261 c -0.9825,-0.62325 -5.9325,-0.87812 -11,-0.56637 l -9.21364,0.56682 v -1.95038 c 0,-1.07272 1.88954,-2.60909 4.19897,-3.41416 5.28808,-1.84343 5.13437,-1.86218 5.13437,0.62609 0,1.36667 0.80743,1.84892 2.33333,1.39362 1.28333,-0.38292 5.27282,-1.41712 8.86553,-2.29821 l 6.5322,-1.60199 1.63172,2.23153 c 0.95901,1.31151 2.52613,1.88831 3.80114,1.39904 2.91179,-1.11736 6.99273,0.49617 5.36692,2.12198 -1.72196,1.72195 -15.45771,2.88306 -17.65054,1.49203 z M 103.2031,577.49546 c -1.09999,-0.34863 -2.9,-0.96757 -3.999995,-1.37541 -1.1,-0.40785 -3.5,-0.81031 -5.33334,-0.89436 -2.00615,-0.092 -3.33333,-0.94914 -3.33333,-2.15283 v -2 l 11.333335,0.0269 c 11.55073,0.0274 29.1865,1.30412 33.99999,2.4613 1.46667,0.35259 3.11667,0.68698 3.66667,0.74309 3.35162,0.34191 0.20573,2.40752 -3.33332,2.18867 -2.38334,-0.14738 -5.97525,0.17863 -7.98202,0.72446 -2.00678,0.54583 -3.95545,0.49608 -4.33037,-0.11056 -0.63076,-1.02059 -9.80515,-0.73761 -16.02095,0.49415 -1.46666,0.29067 -3.56667,0.24323 -4.66667,-0.10541 z m 481.79207,-6.48365 c -1.20951,-3.15193 0.20417,-3.72586 9.02747,-3.66501 5.34564,0.0369 8.53054,0.6745 9.25937,1.85376 l 1.11095,1.79757 0.8711,-2.27005 c 0.47911,-1.24853 2.16138,-2.2736 3.73839,-2.27794 1.57702,-0.004 5.1173,-0.38165 7.8673,-0.83846 l 5,-0.83057 v 3.1956 3.1956 l -4.33333,0.4501 c -2.38334,0.24756 -5.38334,0.38947 -6.66667,0.31535 -1.28333,-0.0741 -3.08333,-0.172 -4,-0.21753 -0.91667,-0.0455 -6.03611,0.23859 -11.37654,0.63137 l -9.70988,0.71416 z M 387.18057,497.8063 c -1.08761,-1.08899 -3.17748,-3.10934 -4.64415,-4.48967 -4.22107,-3.97258 -7.33333,-8.14046 -7.33333,-9.82069 0,-0.85054 -0.97906,-2.62828 -2.17569,-3.95054 l -2.17568,-2.4041 0.25029,-7.70089 c 0.13766,-4.23548 0.50966,-11.30088 0.82664,-15.70088 1.40265,-19.46957 1.5874,-25.41944 0.82796,-26.66667 -1.33976,-2.2003 -1.40627,-4.73304 -0.10313,-3.92766 0.66896,0.41344 1.21629,-0.21432 1.21629,-1.39502 0,-1.21461 2.13874,-3.04034 4.92567,-4.2048 l 4.92567,-2.05807 1.74099,2.38095 c 1.59624,2.18298 2.45614,7.26891 1.78171,10.53794 -0.47213,2.28845 -1.7155,22.4005 -1.73101,28 -0.0437,15.78774 7.68264,33.81786 11.70374,27.31158 0.46062,-0.7453 1.32803,-1.0519 1.92761,-0.68135 0.59957,0.37056 1.83157,-0.21966 2.7378,-1.31158 0.90622,-1.09193 3.0742,-1.98532 4.81774,-1.98532 1.74354,0 3.17007,-0.53655 3.17007,-1.19233 0,-1.73065 7.48244,-9.47434 9.15471,-9.47434 2.1128,0 3.78855,-4.04506 3.9467,-9.5269 0.22474,-7.79018 17.56526,-41.09691 17.56526,-33.73841 0,0.50884 0.9,0.17823 2,-0.73469 l 2,-1.65985 v 2.4181 2.4181 l 1.66667,-2.18782 1.66666,-2.18781 3.12454,1.7132 3.12453,1.7132 -2.20954,2.20955 c -1.21525,1.21525 -1.89204,2.72328 -1.50398,3.35118 0.38807,0.6279 -0.43755,2.36863 -1.8347,3.8683 -1.39715,1.49966 -2.1764,3.09052 -1.73167,3.53525 0.44473,0.44473 0.0405,0.8086 -0.89829,0.8086 -1.13811,0 -1.51126,1.33289 -1.11981,4 0.32289,2.2 0.23746,4 -0.18985,4 -1.0759,0 -3.52507,5.95976 -6.02729,14.66667 -2.45088,8.5283 -3.23852,9.88874 -6.4006,11.05541 -1.28334,0.47349 -2.33334,2.07973 -2.33334,3.56941 0,1.59882 -0.87785,2.70851 -2.14265,2.70851 -1.35608,0 -1.86112,0.73366 -1.37575,1.99852 0.4218,1.09918 0.22402,3.34918 -0.4395,5 -0.66352,1.65081 -1.24443,2.25148 -1.29091,1.33482 -0.12047,-2.3757 -1.82152,-2.06433 -5.0245,0.91971 -1.52689,1.4225 -3.18503,2.1775 -3.68476,1.67777 -0.49973,-0.49973 -1.50813,0.1627 -2.24089,1.47206 -0.87818,1.56923 -2.20887,2.10245 -3.90408,1.56442 -1.51315,-0.48026 -3.4326,0.0445 -4.66295,1.27489 -1.1745,1.17449 -4.33946,2.09114 -7.22019,2.09114 -2.82098,0 -5.93825,0.31053 -6.92728,0.69005 -0.98903,0.37953 -2.6881,-0.20095 -3.77573,-1.28994 z M 291.83144,388.68882 c -1.58591,-1.86839 -1.02189,-6.28262 0.80275,-6.28262 0.67956,0 1.23557,-0.86297 1.23557,-1.91771 0,-2.81555 7.49877,-10.54945 9.20579,-9.49445 0.80348,0.49658 1.46087,0.33741 1.46087,-0.35372 0,-1.95149 6.61159,-2.74837 7.70029,-0.9281 1.38618,2.31764 8.94475,3.51561 10.75568,1.70468 l 1.51152,-1.51152 2.48091,2.58374 2.4809,2.58375 -1.20907,3.51555 -1.20907,3.51555 -4.16721,0.83344 c -2.70722,0.54144 -4.53427,0.24404 -5.2149,-0.84889 l -1.04768,-1.68232 -2.68926,1.66666 c -1.47909,0.91667 -3.51367,1.66667 -4.52128,1.66667 -1.00762,0 -4.04241,1.5 -6.74398,3.33333 -5.34915,3.63004 -8.69815,4.12966 -10.83183,1.61596 z m 102.70498,-24.18839 c -2.2,-0.7655 -4.48175,-2.15332 -5.07056,-3.08405 -0.60759,-0.96042 -2.34113,-1.37334 -4.00861,-0.95483 l -2.93806,0.73741 -2.31059,-3.91152 -2.31058,-3.91151 2.08749,-1.73246 2.08749,-1.73247 1.23171,1.91427 1.23171,1.91426 1.14907,-1.78054 c 0.63199,-0.97931 1.53199,-1.72931 2,-1.66667 0.46801,0.0626 1.30093,0.0444 1.85093,-0.0406 0.55001,-0.085 3.25,-0.10837 6,-0.052 2.75,0.0564 5,-0.39446 5,-1.00189 0,-1.85531 10.6583,-0.32381 12.82493,1.84283 1.11773,1.11772 2.58936,2.03222 3.27031,2.03222 0.68095,0 1.23809,1.75956 1.23809,3.91015 v 3.91015 l -2.66665,0.84636 c -1.46668,0.4655 -2.66668,1.44637 -2.66668,2.1797 0,0.73334 -1.05,1.01143 -2.33332,0.61798 -1.28335,-0.39344 -4.43334,-0.24952 -7,0.31984 -2.70304,0.59961 -6.34979,0.44955 -8.66668,-0.35662 z m -319.48957,-4.87799 -3.489586,-3.62687 -0.146107,-6.48513 c -0.08036,-3.56682 0.651108,-8.02175 1.625481,-9.89986 0.974374,-1.87811 1.502764,-5.24636 1.174201,-7.485 -0.328562,-2.23864 0.06029,-4.47672 0.864105,-4.97351 0.80382,-0.49679 1.461492,-1.92856 1.461492,-3.18171 0,-1.25316 1.419515,-4.36775 3.154479,-6.92131 1.734963,-2.55357 3.58103,-6.58553 4.10237,-8.95992 l 0.94789,-4.31708 -2.435703,-3.68864 c -1.339637,-2.02876 -3.035703,-4.70515 -3.769036,-5.94755 -0.733334,-1.24239 -2.996717,-4.59138 -5.02974,-7.44219 l -3.696407,-5.1833 -0.829733,-8.88542 -0.829733,-8.88542 h 1.748362 c 0.961599,0 1.380409,-0.36795 0.93069,-0.81767 -1.548515,-1.54851 3.590747,-11.82207 8.239288,-16.47061 l 4.657432,-4.65743 -0.22966,-7.36047 c -0.354899,-11.37419 -0.345114,-11.34669 -7.182722,-20.1814 -3.544444,-4.57969 -6.444444,-9.12664 -6.444444,-10.10432 0,-0.97769 -0.529997,-2.81947 -1.177771,-4.09285 -7.446094,-14.6374 -9.222351,-30.60812 -4.716449,-42.40666 l 2.264003,-5.92821 1.84733,1.53315 c 1.016031,0.84323 2.281887,1.09859 2.813012,0.56746 0.531125,-0.53112 -0.01881,-1.68556 -1.222084,-2.56541 l -2.187765,-1.59974 1.899112,-3.62458 c 1.044511,-1.99352 2.461118,-3.62458 3.148015,-3.62458 0.686898,0 0.909459,-0.88459 0.494581,-1.96574 -0.414878,-1.08115 0.305739,-3.0258 1.60137,-4.32143 l 2.355694,-2.35569 0.551587,1.65476 c 0.888688,2.66606 3.370686,1.89811 2.65916,-0.82277 l -0.647888,-2.47752 3.825709,1.90851 c 3.86021,1.92573 4.97972,4.84261 2.45702,6.40173 -0.75278,0.46524 -1.25504,1.55065 -1.11613,2.41202 0.41487,2.57265 -1.712954,8.89946 -2.99305,8.89946 -0.653834,0 -1.188789,1.23541 -1.188789,2.74535 0,1.50995 -0.6,2.37454 -1.333334,1.92131 -0.733333,-0.45322 -1.352415,0.26137 -1.375737,1.58798 -0.02332,1.32661 -0.828871,3.44753 -1.790108,4.71315 l -1.747704,2.30113 1.241333,8.20155 c 0.682733,4.51085 2.388281,10.24359 3.790108,12.73942 1.401826,2.49584 2.548775,5.41963 2.548775,6.49733 0,1.07769 0.559567,1.95944 1.243483,1.95944 0.683913,0 1.624353,1.2 2.089853,2.66667 0.4655,1.46667 1.65826,2.66667 2.65057,2.66667 0.99232,0 2.2053,1.82614 2.69552,4.05809 0.49022,2.23195 2.33789,5.50468 4.10594,7.27273 1.76805,1.76805 3.26338,4.8919 3.32296,6.9419 0.0596,2.05 0.31122,5.52728 0.55921,7.72728 0.248,2.2 -0.17073,8.1435 -0.9305,13.20779 l -1.38141,9.20779 -3.17781,2.9451 c -1.7478,1.61981 -3.17782,3.66171 -3.17782,4.53757 0,0.87585 -0.55023,1.25239 -1.22274,0.83676 -0.67251,-0.41563 -2.19132,2.16042 -3.37514,5.72456 l -2.152392,6.48025 1.461262,3.8434 c 2.837,7.46189 5.89738,13.24726 8.40212,15.88344 3.73817,3.93434 6.60512,11.3598 6.43495,16.66667 -0.14227,4.43669 -5.08771,16.16577 -7.21472,17.11111 -0.55,0.24444 -1,1.55903 -1,2.92131 0,1.36227 -0.51954,2.79795 -1.15452,3.1904 -0.63499,0.39244 -0.86102,2.24888 -0.5023,4.12541 0.37639,1.96897 -0.18737,4.3789 -1.33307,5.69849 -3.22396,3.71328 -3.89455,9.18439 -1.75375,14.30805 2.47605,5.92602 1.71779,7.90349 -3.654086,9.5295 l -4.268943,1.29216 z m 112.63841,-41.88291 c -0.42211,-1.1 -2.05328,-2.0091 -3.62482,-2.02024 -2.46124,-0.0174 -6.99019,-1.28638 -17.19068,-4.81658 -1.28333,-0.44414 -2.33333,-1.33855 -2.33333,-1.98757 0,-0.64902 -3,-3.33533 -6.66667,-5.96956 l -6.66666,-4.78953 v -3.28695 c 0,-2.04253 -0.55293,-2.94522 -1.46048,-2.38432 -3.00788,1.85897 -14.53952,-6.63133 -14.53952,-10.70489 0,-3.28719 1.58434,-6.04036 3.47598,-6.04036 1.02154,0 1.85735,-0.62023 1.85735,-1.3783 0,-1.64289 9.47332,-7.45846 11.21114,-6.88241 0.66613,0.22082 1.69425,-0.38019 2.2847,-1.33557 0.59046,-0.95538 1.54544,-1.78887 2.12219,-1.8522 3.04009,-0.33385 5.78638,-2.4431 5.1933,-3.98865 -0.38487,-1.00295 0.55887,-2.15138 2.19452,-2.67052 1.57838,-0.50096 3.69062,-1.73167 4.69387,-2.73492 1.00325,-1.00325 2.5607,-1.82409 3.461,-1.82409 0.9003,0 2.36628,-2.01703 3.25773,-4.48229 0.89145,-2.46526 3.41198,-5.855 5.60118,-7.53276 2.1892,-1.67775 3.98037,-3.86072 3.98037,-4.85104 0,-0.99032 0.45,-1.80526 1,-1.81098 0.55,-0.006 1.70808,-1.53651 2.57351,-3.40175 l 1.57351,-3.39135 -3.24018,-1.23192 c -1.7821,-0.67755 -3.24018,-2.09769 -3.24018,-3.15586 0,-1.05817 -0.36419,-2.87302 -0.80931,-4.033 -0.53109,-1.38398 -0.0727,-2.10905 1.33333,-2.10905 1.17846,0 2.14265,-0.48952 2.14265,-1.08781 0,-0.5983 2.25,-2.3857 5,-3.972 7.37104,-4.25188 14.35971,-11.01797 16.46459,-15.94019 1.01917,-2.38333 2.32796,-4.33333 2.90841,-4.33333 1.08325,0 0.25455,-20.28501 -1.04853,-25.66616 -0.39963,-1.65028 -1.01282,-5.70051 -1.36266,-9.00051 -0.34983,-3.3 -0.93143,-7.8 -1.29244,-10 -0.361,-2.2 -0.96267,-8.05 -1.33703,-13 l -0.68065,-9 h 3.29898 3.29897 l -0.76747,-2 c -0.42211,-1.1 -0.0679,-2 0.7872,-2 0.85507,0 1.20005,-0.57379 0.76662,-1.2751 -0.43343,-0.7013 -1.62506,-0.95391 -2.64807,-0.56135 l -1.86002,0.71376 0.72097,-2.75699 c 0.39653,-1.51635 1.1968,-2.46291 1.77837,-2.10348 0.58157,0.35943 0.77206,-0.43765 0.4233,-1.7713 l -0.6341,-2.4248 5.09178,-1.51113 c 2.80048,-0.83112 6.70361,-1.84264 8.67363,-2.24782 3.94998,-0.8124 17.01813,1.53344 19.01815,3.41392 0.69667,0.65503 2.11005,1.19096 3.14086,1.19096 1.0308,0 3.69458,1.53175 5.91949,3.4039 2.22492,1.87214 5.8131,3.75746 7.97374,4.18958 2.16064,0.43213 4.24106,1.60038 4.62316,2.59611 0.38209,0.99572 1.46152,1.81041 2.39872,1.81041 0.93721,0 2.68685,1.5 3.88809,3.33333 1.39696,2.13204 3.42571,3.33334 5.62933,3.33334 h 3.44525 l -0.76748,2 -0.76747,2 6.95815,0.19741 c 3.82699,0.10858 8.15816,0.26619 9.62482,0.35026 1.46667,0.0841 3.34351,-0.31752 4.17075,-0.89241 0.82724,-0.57488 4.72724,-1.1825 8.66667,-1.35026 l 7.16258,-0.305 -0.39178,2.33333 c -0.21548,1.28333 -0.026,2.33333 0.42099,2.33333 1.72133,0 5.97079,-2.81844 5.97079,-3.96011 0,-0.65979 0.69973,-2.88868 1.55494,-4.95309 1.71968,-4.15112 2.03342,-5.12699 2.2784,-7.0868 0.0917,-0.73333 1.96666,-1.33333 4.16666,-1.33333 h 4 l 0.20107,2.33333 c 0.11059,1.28334 0.0814,3.91448 -0.0648,5.84698 l -0.26587,3.51364 4.0648,1.417 c 2.23564,0.77935 4.0648,0.9159 4.0648,0.30345 0,-1.63614 15.55187,-0.7795 17.66346,0.97296 0.9912,0.82262 4.31109,1.89687 7.37752,2.38721 3.06644,0.49034 6.26628,1.72406 7.11076,2.74159 l 1.53541,1.85005 1.73786,-1.4423 1.73787,-1.4423 2.86281,1.53214 2.86282,1.53213 2.22242,-1.9586 2.22242,-1.95859 3,1.14269 c 1.64999,0.62848 3,1.832 3,2.67449 0,0.86581 1.1381,1.23419 2.61764,0.84728 1.4397,-0.37649 3.32441,0.16708 4.18824,1.20793 2.5346,3.05401 11.61748,-1.95637 11.81642,-6.51828 0.0777,-1.78108 16.43946,-16.9828 18.2788,-16.9828 0.97106,0 1.76555,-1.26419 1.76555,-2.80932 0,-1.86307 0.63009,-2.56753 1.87068,-2.09147 1.0789,0.41401 3.142,-0.94103 4.87435,-3.20144 1.65201,-2.15561 3.66019,-3.77735 4.46265,-3.60387 0.80245,0.17348 2.78086,-0.83092 4.39645,-2.23201 3.36985,-2.92241 8.59393,-3.72489 10.06255,-1.54572 l 1,1.48383 1.0477,-1.61653 c 2.64137,-4.07544 10.68517,3.55961 11.04601,10.4847 0.0515,0.98917 0.58714,0.5985 1.19022,-0.86817 l 1.0965,-2.66667 1.05936,2.61196 c 0.58264,1.43658 2.42224,3.83658 4.08801,5.33334 3.08328,2.77045 9.64256,24.21226 10.41771,34.0547 0.20214,2.56667 1.16518,8.86667 2.14009,14 2.18959,11.52919 2.52857,34.39162 0.60295,40.66667 -0.78763,2.56666 -1.44823,5.26666 -1.468,6 -0.0198,0.73333 -0.51752,2.98333 -1.10612,5 l -1.07019,3.66666 -4.18879,0.20296 c -4.58903,0.22234 -9.04792,0.20326 -10.36661,-0.0444 -1.87987,-0.35302 -2.08461,-5.50089 -0.2784,-6.9999 2.33678,-1.93936 4.76267,-6.28986 5.07578,-9.10272 0.12588,-1.13078 0.93725,-3.74313 1.80305,-5.80523 l 1.57419,-3.74925 -1.32119,-5.58408 c -0.72665,-3.07124 -1.1987,-6.48407 -1.04899,-7.58407 0.40985,-3.01144 -1.77014,-19.43805 -2.76113,-20.80563 -1.14232,-1.57641 -6.86549,-4.75797 -6.86549,-3.81659 0,0.40355 1.2,2.02177 2.66667,3.59605 2.75993,2.96244 3.42976,5.02617 1.63136,5.02617 -0.56941,0 -1.15022,2.55 -1.29068,5.66666 -0.43895,9.73985 -1.19798,14.87124 -2.7601,18.65936 l -1.50902,3.65936 -4.36911,-0.46464 -4.36912,-0.46465 -1.50699,-4.52805 -1.50699,-4.52804 -3.82634,-0.36493 c -2.10449,-0.20072 -4.84222,-0.39058 -6.08384,-0.42192 -1.36774,-0.0345 -1.97727,-0.78723 -1.54651,-1.90978 l 0.71099,-1.85281 -4.14482,1.18872 c -2.27965,0.65379 -4.51664,1.27866 -4.97109,1.3886 -0.45444,0.10993 -1.33416,-0.60137 -1.95492,-1.58067 l -1.12865,-1.78055 -0.0204,1.71358 -0.0204,1.71358 -2.66666,-1.42716 -2.66667,-1.42715 v -4.61976 c 0,-2.54086 0.6,-4.61975 1.33333,-4.61975 0.73334,0 1.33334,-0.83581 1.33334,-1.85735 0,-1.02154 0.82279,-2.17308 1.82843,-2.55898 1.00563,-0.3859 2.24083,-2.40009 2.74489,-4.47599 0.50406,-2.07589 2.14512,-6.34568 3.6468,-9.48842 1.50168,-3.14275 2.81648,-7.64275 2.92177,-10 0.24282,-5.43613 2.01446,-7.26651 9.50307,-9.81813 3.31194,-1.12849 6.0217,-2.61651 6.0217,-3.30671 0,-0.72691 1.122,-0.65444 2.66667,0.17225 1.46667,0.78493 2.66667,2.0899 2.66667,2.89992 0,1.51459 3.88506,4.98212 5.66666,5.05767 1.68294,0.0714 1.11018,-3.75725 -0.73174,-4.89134 -0.95246,-0.58644 -3.4033,-4.52997 -5.44631,-8.76341 l -3.71457,-7.69715 -3.16027,0.42322 c -1.73815,0.23277 -4.8649,1.89649 -6.94833,3.69715 -2.08343,1.80067 -5.60238,4.29401 -7.81988,5.54076 -7.26133,4.08256 -13.96816,11.17578 -14.39818,15.22768 -0.24076,2.26855 -1.30186,4.01517 -2.59406,4.26993 -1.20266,0.2371 -2.18667,1.24667 -2.18667,2.24348 0,0.99681 -1.14985,2.17733 -2.55522,2.62338 -1.40537,0.44605 -3.17206,2.58044 -3.92595,4.74308 -0.91049,2.61185 -2.02067,3.68269 -3.30643,3.18929 -1.09859,-0.42156 -2.80544,0.49893 -3.9468,2.12845 l -2.0111,2.87124 -2.70625,-1.44835 c -1.48845,-0.79658 -3.88151,-1.44834 -5.31793,-1.44834 -1.43642,0 -2.95703,-0.9 -3.37914,-2 -0.42211,-1.1 -0.0663,-2 0.79068,-2 0.97604,0 1.08494,-0.45528 0.29149,-1.21865 -1.66998,-1.60668 -7.53285,-2.2819 -9.44893,-1.08822 -0.83357,0.5193 -2.28062,0.0224 -3.21563,-1.10426 -1.05482,-1.27097 -2.01855,-1.53309 -2.53923,-0.69061 -0.47967,0.77613 -2.96589,1.0127 -5.80352,0.55221 l -4.96435,-0.8056 -0.81201,-3.23529 c -0.48645,-1.9382 -1.51336,-2.96616 -2.56136,-2.56401 -0.96214,0.36921 -2.04244,-0.045 -2.40065,-0.92047 l -0.6513,-1.59177 -1.26818,1.80902 c -0.80422,1.14721 -1.57618,1.31065 -2.1101,0.44676 -0.46305,-0.74924 -3.35283,-1.20237 -6.42172,-1.00696 -3.06889,0.19542 -7.64196,-0.10978 -10.16237,-0.67823 l -4.58258,-1.03354 -4.28733,4.23148 c -2.35802,2.32731 -4.96284,5.43147 -5.78848,6.89814 -0.82565,1.46667 -1.51942,1.99918 -1.54171,1.18335 -0.0223,-0.81582 -1.54055,-1.31865 -3.37388,-1.11741 -3.42187,0.37563 -4.65076,-1.39881 -1.66667,-2.40656 0.92731,-0.31316 -0.14094,-1.50129 -2.40807,-2.67829 l -4.07473,-2.11545 -1.60323,2.56718 c -1.99553,3.19534 -4.06049,3.28809 -5.20652,0.23385 -1.34668,-3.58899 -4.41114,-5.31256 -8.58213,-4.82692 l -3.79199,0.44151 v -1.97396 c 0,-1.08568 -0.6,-1.97396 -1.33333,-1.97396 -2.1617,0 -1.52261,4.97539 0.75118,5.84793 2.45816,0.94328 1.30925,3.4854 -1.57522,3.4854 -1.1,0 -1.68929,-0.50275 -1.30953,-1.11721 0.37976,-0.61447 -1.38483,-0.46766 -3.92131,0.32625 -2.53648,0.79391 -4.61179,2.19665 -4.61179,3.11721 0,0.92056 -0.6,1.67375 -1.33333,1.67375 -0.73333,0 -1.33333,0.9 -1.33333,2 0,3.10626 -6.38318,2.42829 -9.41511,-1 -8.85345,-10.01088 -10.58489,-12.18791 -10.58489,-13.30891 0,-1.98559 -9.18033,-10.35776 -11.35759,-10.35776 -1.08666,0 -1.97574,-0.59148 -1.97574,-1.31441 0,-0.72293 -2.55,-2.96732 -5.66667,-4.98752 -3.11667,-2.02021 -5.96667,-4.03346 -6.33333,-4.47389 -0.36667,-0.44043 -3.825,-0.86222 -7.68518,-0.93732 l -7.01851,-0.13654 -2.13325,3.25575 -2.13324,3.25574 0.90012,6.00243 0.90012,6.00243 h 2.93546 c 1.76532,0 3.46012,-1.19587 4.25164,-3 1.6511,-3.76342 5.77214,-3.85865 9.49079,-0.21932 1.5627,1.52937 5.6127,5.05165 9,7.82728 3.38729,2.77563 6.15871,5.93852 6.15871,7.02864 0,1.21402 0.77498,1.68465 2,1.21456 2.92879,-1.12388 2.49985,2.74696 -0.59836,5.39973 -1.4291,1.22363 -2.29213,2.72028 -1.91784,3.32589 1.16562,1.88601 -5.20658,11.89594 -7.08505,11.12973 -0.95264,-0.38858 -2.55805,-1.0423 -3.56758,-1.4527 -1.15205,-0.46835 -2.12654,0.40046 -2.61715,2.33333 -0.42991,1.69374 -2.00081,3.83265 -3.49088,4.75315 l -2.70923,1.67362 -2.67362,-2.67362 c -3.85152,-3.85152 -4.15896,-3.45675 -3.36935,4.32637 0.3906,3.85 0.3388,9.55 -0.11511,12.66667 l -0.82528,5.66667 h -2.37262 c -1.30494,0 -2.7141,0.88988 -3.13147,1.97752 -0.4318,1.12524 -1.64256,1.63841 -2.80932,1.19068 -3.02052,-1.15908 -2.52267,2.15729 0.8652,5.76352 3.33761,3.55271 2.24896,5.55808 -3.26504,6.01443 l -3.56494,0.29504 -0.81545,3.71274 c -0.4485,2.042 -1.66778,3.71273 -2.70951,3.71273 -1.04174,0 -1.89406,0.53268 -1.89406,1.18372 0,0.65104 -2.1,4.23658 -4.66667,7.96786 -2.56667,3.73127 -4.66667,7.3986 -4.66667,8.14961 0,0.75101 -0.9,1.36548 -2,1.36548 -1.1,0 -2,0.80819 -2,1.79599 0,0.98779 -1.2,3.17959 -2.66666,4.87068 -1.46667,1.69108 -2.66667,3.54747 -2.66667,4.12532 0,1.76855 2.43047,2.66885 3.31988,1.22976 0.46062,-0.7453 2.50208,-1.35508 4.53658,-1.35508 2.0345,0 4.09723,-0.39815 4.58386,-0.88478 0.48662,-0.48662 4.03662,-1.98935 7.88889,-3.3394 3.85226,-1.35004 7.60411,-3.22631 8.33745,-4.16948 2.92248,-3.75871 11.34521,-9.13176 13.60335,-8.67788 1.31815,0.26494 3.56341,-0.58896 4.98944,-1.89755 1.42727,-1.30971 3.6384,-2.04739 4.9188,-1.641 1.48489,0.47128 2.84487,-0.23128 3.76087,-1.94285 0.78919,-1.4746 2.2483,-2.36896 3.24249,-1.98745 0.99418,0.3815 2.16619,-0.24084 2.60448,-1.38299 0.43828,-1.14214 1.43498,-2.07662 2.21488,-2.07662 0.7799,0 3.64873,-0.98072 6.37518,-2.17938 2.72644,-1.19866 5.85717,-2.29845 6.95717,-2.44398 1.1,-0.14553 3.29951,-0.68922 4.88779,-1.2082 1.63356,-0.53376 3.26609,-0.33148 3.7588,0.46574 0.47905,0.77512 1.46848,1.04006 2.19872,0.58874 2.72271,-1.68272 10.32925,0.98094 14.68427,5.14215 l 4.50195,4.30159 -1.25092,5 c -0.688,2.75 -1.64118,5 -2.11817,5 -0.47699,0 -0.60307,1.8 -0.28018,4 0.36159,2.46367 -9.9e-4,4 -0.9445,4 h -1.53158 l 1.42715,2.66667 1.42716,2.66667 h -1.47009 c -0.86333,0 -1.12077,1.10063 -0.62373,2.66666 l 0.84637,2.66667 h -2.16854 c -1.1927,0 -1.81281,0.57559 -1.37802,1.2791 0.71641,1.15917 -0.26169,3.74876 -3.54576,9.38756 -0.64064,1.1 -1.51736,3.05 -1.94827,4.33334 -0.43091,1.28333 -1.28311,2.33333 -1.89379,2.33333 -1.78324,0 -13.24532,11.30593 -13.24532,13.06488 0,0.88098 -0.53496,1.60179 -1.18879,1.60179 -0.65384,0 -1.53559,1.38175 -1.95946,3.07056 -0.42386,1.68881 -2.57224,4.83881 -4.77417,7 -2.20193,2.16119 -4.02018,4.37944 -4.04055,4.92944 -0.14894,4.02136 -12.95667,9.388 -22.96018,9.62067 -2.70773,0.063 -5.31639,0.50776 -5.79702,0.98839 -0.48063,0.48063 -1.72286,0.54808 -2.7605,0.1499 -1.03764,-0.39818 -2.62899,-0.1435 -3.53631,0.56596 -3.51217,2.74624 -7.82002,2.83808 -10.43561,0.22249 l -2.58803,-2.58803 0.85178,-3.39372 0.85177,-3.39372 -2.49814,-2.30429 c -1.46738,-1.35352 -7.05936,-3.03978 -13.5528,-4.08684 -15.1342,-2.44039 -16.92803,-0.27351 -3.81485,4.60817 3.5551,1.32346 6.76929,3.20236 7.14266,4.17532 0.37336,0.97297 1.51464,1.76903 2.53618,1.76903 1.09714,0 1.85735,1.37784 1.85735,3.36633 v 3.36634 l -3.42013,1.30033 c -4.64978,1.76784 -5.86576,1.64207 -6.76437,-0.69967 z m -15.1918,-31.33333 c 0.75697,0 1.3763,0.72 1.3763,1.6 v 1.6 l 1.6,-1.6 c 0.88,-0.88 2.78276,-1.6 4.22835,-1.6 3.23118,0 7.50498,-3.68631 7.50498,-6.47332 v -2.06001 l -1.53759,1.53759 -1.53759,1.5376 -2.64156,-1.41372 -2.64156,-1.41372 7.84582,-3.94161 c 7.99733,-4.01773 13.04459,-8.49983 11.81393,-10.49108 -0.92511,-1.49686 -12.5883,-0.31349 -14.77197,1.4988 -0.9603,0.79697 -2.40849,1.0396 -3.21821,0.53917 -1.72409,-1.06555 -9.31127,1.7935 -9.31127,3.50873 0,1.44786 -5.31689,6.89251 -5.37573,5.5049 -0.0233,-0.55 -0.94915,0.2 -2.0574,1.66667 -1.10824,1.46667 -2.18202,2.36667 -2.38617,2 -0.20414,-0.36667 -1.35883,0.321 -2.56598,1.52814 l -2.1948,2.1948 3.49626,3.49627 c 2.28352,2.28351 4.34971,3.22538 5.95671,2.71534 l 2.46045,-0.78092 0.0845,2.42319 0.0845,2.42318 1.20585,-3 c 0.66322,-1.65 1.82519,-3 2.58215,-3 z m 92.90202,-32.48052 c 2.72586,-8.22619 0.0657,-12.23155 -7.75565,-11.67745 -1.30689,0.0926 -2.88133,2.13173 -3.80361,4.92627 l -1.57368,4.76829 2.85339,3.0373 c 3.47332,3.69718 8.88912,3.14167 10.27955,-1.05441 z m 17.47428,42.49433 c -7.90037,-7.41097 -8.09325,-10.3951 -0.90881,-14.06033 10.81324,-5.5165 26.57547,-4.60215 26.57547,1.54161 0,1.3777 0.9,2.50491 2,2.50491 h 2 v 4.66667 4.66666 h -2 c -1.1,0 -2,0.91485 -2,2.03301 0,2.71981 -5.44605,4.6387 -13.0868,4.61107 l -6.24653,-0.0226 z m 24.8444,-67.84068 -3.8444,-3.33807 1.67403,-2.74456 c 1.84451,-3.02407 2.87718,-8.9042 3.54106,-20.16312 0.24017,-4.07328 1.04503,-8.57328 1.78857,-10 0.74354,-1.42672 2.1294,-4.25549 3.0797,-6.28615 l 1.72781,-3.69211 1.09445,1.69211 1.09444,1.69211 0.82216,-3 c 0.45217,-1.65 1.28796,-3 1.8573,-3 1.31316,0 3.2054,4.23576 2.68038,6 -0.21823,0.73333 -0.56826,6.8945 -0.77785,13.69149 -0.20959,6.79699 -0.78281,14.18728 -1.27383,16.42288 -0.59966,2.73024 -0.25664,4.80138 1.04481,6.30851 1.06566,1.23408 2.25427,3.54889 2.64136,5.14403 l 0.70379,2.90024 -1.84909,-0.70956 c -1.01699,-0.39026 -1.84908,-1.78892 -1.84908,-3.10813 v -2.39857 l -3.32293,1.54122 c -4.0398,1.87371 -4.32157,3.54122 -0.59838,3.54122 1.50994,0 2.37353,0.60162 1.91908,1.33694 -0.53483,0.86537 -1.66627,0.88739 -3.20776,0.0624 -1.54597,-0.82737 -2.85858,-0.79744 -3.74135,0.0853 -0.92425,0.92425 -2.59133,0.29057 -5.20426,-1.97821 z"
       id="path2" />
  </g>
</svg>
