<?xml version="1.0" encoding="UTF-8" standalone="no"?>
<!-- Created with Inkscape (http://www.inkscape.org/) -->

<svg
   version="1.1"
   id="svg1"
   width="666.66669"
   height="666.66669"
   viewBox="0 0 666.66669 666.66669"
   sodipodi:docname="download (6).jpg"
   xml:space="preserve"
   xmlns:inkscape="http://www.inkscape.org/namespaces/inkscape"
   xmlns:sodipodi="http://sodipodi.sourceforge.net/DTD/sodipodi-0.dtd"
   xmlns="http://www.w3.org/2000/svg"
   xmlns:svg="http://www.w3.org/2000/svg"><defs
     id="defs1" /><sodipodi:namedview
     id="namedview1"
     pagecolor="#505050"
     bordercolor="#eeeeee"
     borderopacity="1"
     inkscape:showpageshadow="0"
     inkscape:pageopacity="0"
     inkscape:pagecheckerboard="0"
     inkscape:deskcolor="#505050"><inkscape:page
       x="0"
       y="0"
       width="666.66669"
       height="666.66669"
       id="page2"
       margin="0"
       bleed="0" /></sodipodi:namedview><g
     inkscape:groupmode="layer"
     inkscape:label="Image"
     id="g1"><path
       id="path2"
       style="fill:#000000"
       d="m 512.5957,428.17773 c -2.45439,0.73631 -5.17399,0.8365 -8.28125,0.44336 -4.37618,-0.55369 -11.12483,0.25273 -21.97851,2.62696 C 444.45816,439.53379 415.0455,442.71618 346,446 c -45.49639,2.16382 -55.52126,3.01437 -86,7.29492 -9.9,1.39039 -27,3.48255 -38,4.64844 -36.86817,3.90768 -54.41195,6.17201 -99.33398,12.81836 C 98.099349,474.39643 70.8,477.97636 62,478.71875 c -14.574616,1.22954 -16.267259,1.65011 -19,4.72266 -3.813246,4.28743 -4.17889,14.80667 -0.666016,19.14453 2.670833,3.29807 6.193133,4.21749 31.035157,8.10351 15.479502,2.42147 22.943031,2.76936 53.964839,2.51563 32.81866,-0.26844 37.15663,-0.0365 49.09961,2.62695 20.44743,4.55998 34.84054,5.41906 94.23243,5.61914 30.43334,0.10252 63.13463,0.61702 72.66796,1.14258 43.94782,2.42275 53.38004,1.7463 120.43164,-8.61719 25.9039,-4.0037 53.8039,-7.88731 62,-8.63086 22.53888,-2.04474 30.42004,-4.14411 36.56836,-9.74414 2.67371,-2.43527 2.99508,-3.97735 2.95508,-14.16797 -0.076,-19.34721 -2.28917,-38.61615 -4.95898,-43.1875 -3.71515,-6.36123 -9.91581,-9.32207 -19.81641,-9.46093 -4.67888,-0.0656 -8.50776,-0.17038 -8.50976,-0.23438 v -0.002 c 0.005,-0.0137 0.0496,-0.0689 0.1289,-0.16016 z m -26.125,11.03321 c 1.20794,-0.0703 2.12292,0.41161 3.62305,1.39453 2.2292,1.46063 3.24023,3.36004 3.24023,6.0918 0,2.67977 0.66495,3.96875 2.04688,3.96875 1.67453,0 1.77106,0.51567 0.5293,2.83593 -1.16337,2.17377 -1.12808,3.0778 0.15234,3.86914 1.18444,0.73202 -0.36236,3.18197 -5.3125,8.41602 l -6.98242,7.38281 4.44922,0.72852 c 2.44699,0.40153 6.24922,0.88839 8.44922,1.08203 l 4,0.35351 -4.33204,2.6211 C 493.95065,479.39652 492,481.03674 492,481.60156 c 0,0.56481 2.48342,2.66983 5.51758,4.67774 l 5.51562,3.65039 -7.73632,2.29687 c -4.25481,1.26309 -13.3328,3.6457 -20.17383,5.29492 -6.84104,1.64922 -11.74294,3.42953 -10.89258,3.95508 5.38565,3.32852 -48.21817,12.14092 -55.56445,9.13477 L 406,509.52148 l 2.66602,-0.13671 c 9.47659,-0.48316 30.57135,-4.11055 31.82617,-5.47266 0.82942,-0.90039 0.90716,-1.31741 0.17383,-0.92773 -0.73333,0.38966 -7.33268,1.08159 -14.66602,1.53906 -7.33333,0.45747 -18.73398,1.16886 -25.33398,1.58008 -6.6,0.41122 -25.49768,2.25248 -41.9961,4.09179 -24.76846,2.76124 -34.0654,3.22722 -53.33398,2.67578 -41.9875,-1.20163 -58.02801,-3.50257 -62.88282,-9.02148 -1.75775,-1.99821 -4.22942,-2.55309 -12,-2.69727 -4.28913,-0.0796 -7.10063,-0.31414 -7.23046,-0.5664 -0.0259,-0.0631 0.11464,-0.13005 0.44336,-0.19336 4.96708,-0.9567 3.47088,-2.78903 -6.29883,-7.70899 -11.13405,-5.60701 -12.1607,-5.76119 -7.9336,-1.18554 l 3.23243,3.5 -3.09961,-0.95508 c -1.70564,-0.52483 -7.63474,-3.01978 -13.17579,-5.54492 -5.54104,-2.52513 -10.31663,-4.34938 -10.61132,-4.05469 -0.29469,0.29469 3.36968,3.16472 8.14258,6.37891 12.45633,8.38838 13.3969,13.17773 2.58789,13.17773 -8.89724,0 -5.84479,2.63977 3.23632,2.79883 4.17339,0.0731 9.0866,0.56566 10.91993,1.09375 1.83334,0.52809 4.35397,0.34389 5.5996,-0.41016 1.71595,-1.03874 4.21496,-0.43967 10.31641,2.47656 4.42916,2.11694 7.83848,4.06387 7.57617,4.32618 -0.26231,0.26231 -4.41864,-0.81691 -9.23632,-2.39844 l -8.75977,-2.875 -3.59375,2.82812 c -3.90224,3.0695 -9.03211,3.35017 -26.56836,1.45704 -11.60059,-1.25236 -22.30565,-3.94762 -42,-10.57618 -16.0497,-5.40188 -27.57393,-7.93428 -26.23242,-5.76367 0.42444,0.68676 4.40091,2.34663 8.83594,3.68945 5.82209,1.76278 8.0625,3.08532 8.0625,4.75391 0,2.49275 -1.01668,2.84315 -15.33204,5.2832 -9.23901,1.57479 -9.49568,1.53658 -25.33398,-3.74609 -8.8,-2.93514 -17.19935,-5.67449 -18.666016,-6.08789 -0.366666,-0.10335 -0.536096,-0.18973 -0.527343,-0.25586 0.04265,-0.19554 1.662118,-0.22095 4.308593,-0.0293 8.218578,0.59516 6.310488,-1.91368 -2.183593,-2.87109 -3.867867,-0.43596 -8.481265,0.18033 -13.115235,1.75391 -6.986051,2.37228 -7.059262,2.44804 -3.15039,3.33203 2.2,0.49754 3.401302,0.98598 2.667968,1.08398 -0.733333,0.098 -0.433984,0.75982 0.666016,1.4707 3.226282,2.08498 -5.987873,1.65091 -11.201172,-0.52734 C 48.015617,502.80808 44,498.11323 44,494.51758 c 0,-4.62875 4.578853,-8.02383 13.361328,-9.90625 12.23463,-2.62236 23.674224,-2.38111 33.519531,0.70508 13.321571,4.17587 14.533281,2.76784 1.785157,-2.07422 L 86,480.70898 l 6.666016,-0.86914 c 3.666667,-0.47818 9.066674,-1.81141 12.000004,-2.96289 3.61566,-1.41933 9.90408,-2.11264 19.52539,-2.15234 19.92265,-0.0821 40.17974,-2.38412 47.96093,-5.45117 8.18021,-3.22432 8.31973,-3.22175 7.45118,0.0996 -0.64341,2.46041 -0.26494,2.62531 4.17773,1.83007 2.68695,-0.48095 5.78477,-1.62923 6.88477,-2.55273 1.1,-0.9235 7.85,-2.10433 15,-2.62305 11.66345,-0.84616 13,-0.71233 13,1.29883 0,1.8774 0.92203,2.10715 5.66796,1.41797 L 230,467.92188 l -4.66602,2.77343 -4.66796,2.77149 5.71875,-0.75782 c 3.14495,-0.4167 11.02819,-3.1483 17.51757,-6.07031 6.48938,-2.92201 13.81559,-5.68311 16.28125,-6.13672 2.46566,-0.45361 6.88307,-2.16893 9.81641,-3.81054 7.10321,-3.97526 10.87113,-4.4221 46.33398,-5.49805 22.46521,-0.68159 30.33204,-0.52362 30.33204,0.60937 0,1.1011 -7.65844,1.53125 -27.33204,1.53125 -23.40741,0 -27.33398,0.28726 -27.33398,2 0,1.68831 3.58442,2.0486 23,2.31446 36.99927,0.50663 42.83118,0.4129 46,-0.73828 6.91119,-2.51072 2.08648,1.65879 -11,9.50586 -7.7,4.61716 -14,8.67088 -14,9.00781 0,1.03551 8.65398,-2.92807 26.00391,-11.91016 16.28191,-8.42917 16.8462,-8.6078 29.63086,-9.40625 7.16799,-0.44767 17.75672,-1.15259 23.53125,-1.5664 l 10.49804,-0.75391 -6.39258,11.77344 -6.39257,11.77343 11.22656,-11.5371 c 9.59085,-9.85504 12.28408,-11.84604 18.4707,-13.66602 9.74481,-2.86676 28.85554,-2.91107 30.44531,-0.0703 0.92441,1.65182 1.88056,1.78324 4.82422,0.66406 2.01973,-0.7679 5.0825,-1.04162 6.80469,-0.60938 2.29029,0.57483 3.51885,0.0618 4.57422,-1.91015 2.18315,-4.07925 2.01354,-4.19764 -6.22461,-4.31836 l -7.66602,-0.11133 5.75977,-2.64648 c 2.66812,-1.22541 4.16901,-1.8477 5.37695,-1.91797 z m -57.16601,5.12695 c 0.85854,0.0163 1.36133,0.50172 1.36133,1.37891 0,1.36919 -2.50425,2.13455 -9,2.74804 -12.14304,1.14683 -15,1.08315 -15,-0.33007 0,-0.65891 4.35129,-1.602 9.66796,-2.09571 5.31666,-0.4937 10.71666,-1.19512 12,-1.55859 0.35964,-0.10186 0.68453,-0.148 0.97071,-0.14258 z m 59.36133,54.36914 c 0.73333,0 0.43398,0.58209 -0.66602,1.29297 -1.1,0.71087 -2.60065,1.29297 -3.33398,1.29297 -0.73333,0 -0.43204,-0.5821 0.66796,-1.29297 1.1,-0.71088 2.59871,-1.29297 3.33204,-1.29297 z m -94.82813,11.10742 c 1.08878,-0.0282 1.77128,0.0174 1.9082,0.1543 1.6388,1.6388 -1.91895,2.46124 -18.02148,4.16602 -20.51506,2.17193 -19.05859,2.11477 -19.05859,0.75781 0,-1.08571 27.55042,-4.88048 35.17187,-5.07813 z" /><path
       style="fill:#000000;stroke-width:0.162479"
       d="m 324.62535,453.67063 c 0,-0.11915 -0.14864,-0.21664 -0.33032,-0.21664 -0.18167,0 -0.41999,-0.23585 -0.52958,-0.52411 -0.26829,-0.70565 -0.85476,-1.01748 -1.38245,-0.73506 -0.28847,0.15438 -0.58264,0.14244 -0.98047,-0.0398 -1.34563,-0.61645 -3.96572,-0.71683 -5.41497,-0.20746 -1.11749,0.39277 -2.62784,0.40428 -2.62717,0.02 3.2e-4,-0.22867 -3.4159,-0.01 -4.11637,0.26368 -0.69954,0.27314 -3.10472,0.31251 -3.8632,0.0632 -0.43699,-0.14363 -0.89202,-0.26376 -1.01117,-0.26697 -1.15666,-0.0312 -1.85405,-0.77076 -1.82127,-1.93143 0.0101,-0.35745 0.0243,-2.99275 0.0317,-5.85622 0.0115,-4.52345 -0.0363,-5.31087 -0.36502,-6.00354 -0.20807,-0.43847 -0.40848,-1.12185 -0.44535,-1.51862 -0.0369,-0.39677 -0.18016,-1.14145 -0.3184,-1.65485 -0.13824,-0.51339 -0.19963,-0.98516 -0.13641,-1.04837 0.0632,-0.0632 0.0243,-0.28428 -0.0865,-0.49125 -0.11077,-0.20697 -0.14106,-0.43664 -0.0673,-0.51039 0.0737,-0.0737 0.1175,-0.64711 0.0972,-1.27415 -0.0329,-1.01864 -0.0323,-13.12055 8.1e-4,-17.27965 0.0172,-2.16018 -0.25295,-6.76609 -0.41199,-7.02343 -0.19554,-0.31639 -0.29618,-1.31155 -0.41393,-4.09318 -0.0816,-1.92633 -0.18385,-2.58836 -0.4136,-2.67653 -0.16789,-0.0644 -0.25536,-0.19787 -0.19438,-0.29654 0.10804,-0.1748 -1.16674,-1.5053 -1.44418,-1.5073 -0.24607,-0.002 -0.43063,-0.72385 -0.55396,-2.16739 -0.0662,-0.77448 -0.21679,-1.59372 -0.33471,-1.82053 -0.11792,-0.22682 -0.2159,-1.11618 -0.21774,-1.97636 -0.004,-2.02965 0.71953,-3.68926 1.87855,-4.30701 0.91963,-0.49015 0.99466,-0.96842 0.66586,-4.24449 -0.19968,-1.98959 -0.20243,-2.26402 -0.10087,-10.0737 0.0715,-5.49721 0.0377,-6.36035 -0.27009,-6.90516 -0.29583,-0.52361 -0.33763,-1.17833 -0.26279,-4.11614 0.049,-1.92141 0.13145,-4.02966 0.18333,-4.685 0.0519,-0.65533 -0.003,-1.67894 -0.12114,-2.2747 -0.1185,-0.59576 -0.24242,-1.28748 -0.27536,-1.53717 -0.0329,-0.24969 -0.13289,-0.57209 -0.22211,-0.71646 -0.0892,-0.14436 -0.19281,-0.47625 -0.2302,-0.73753 -0.0374,-0.26128 -0.17184,-1.01124 -0.29877,-1.66657 -0.12693,-0.65533 -0.34422,-2.06775 -0.48288,-3.13871 l -0.25209,-1.9472 -1.32429,-1.29487 c -1.71915,-1.68097 -1.91065,-2.07278 -1.96371,-4.01787 -0.0474,-1.73625 -0.31158,-2.45644 -1.14036,-3.10835 -0.28569,-0.22473 -0.81242,-1.05522 -1.17049,-1.84554 -0.35808,-0.79032 -0.72927,-1.58502 -0.82487,-1.766 -0.43539,-0.82424 0.0354,-4.8112 0.61268,-5.18836 0.097,-0.0634 0.37192,-0.55389 0.611,-1.09007 0.42122,-0.94467 1.99878,-2.78871 2.65978,-3.10907 0.51513,-0.24967 1.14492,-0.64221 1.90008,-1.18429 0.38477,-0.2762 0.70268,-0.42243 0.70647,-0.32496 0.004,0.0975 0.12565,0.031 0.2708,-0.14772 0.31275,-0.3851 0.40936,-0.40003 3.6218,-0.55947 3.64843,-0.18109 4.59585,-0.18685 5.19933,-0.0316 1.17296,0.30173 2.09294,0.72098 2.58064,1.17604 0.28094,0.26215 0.86322,0.64341 1.29395,0.84724 1.11724,0.52871 1.97465,1.20025 1.97465,1.54658 0,0.1637 0.25388,0.83429 0.56418,1.49021 0.3103,0.65592 0.59158,1.45415 0.62507,1.77385 0.0335,0.31971 0.16009,1.06104 0.28134,1.64742 0.12124,0.58637 0.18745,1.1713 0.14711,1.29983 -0.0403,0.12853 -0.12389,1.15982 -0.1857,2.29176 l -0.11238,2.05807 -1.4047,1.31089 -1.4047,1.31089 0.20769,0.92435 c 0.3521,1.56708 -0.0141,2.38051 -1.51253,3.35949 -1.30451,0.85231 -1.57188,1.24489 -1.64125,2.40984 -0.0213,0.35745 -0.11513,1.23484 -0.20855,1.94974 -0.0934,0.71491 -0.19786,2.14163 -0.23207,3.1705 -0.0569,1.71029 -0.33636,2.80146 -0.9913,3.87026 -0.48222,0.78694 -0.65651,1.4737 -0.65794,2.59253 -0.006,4.49488 -0.0133,5.92421 -0.0382,7.26452 -0.0497,2.6784 0.12962,5.18042 0.42197,5.88669 0.23407,0.56546 0.23451,0.81521 0.003,1.40816 -0.30296,0.77426 -0.28426,1.9382 0.0531,3.30848 0.11573,0.47003 0.15268,0.94803 0.0821,1.06221 -0.23305,0.3771 -0.23676,6.73087 -0.004,7.17351 0.12275,0.23362 0.20864,1.1903 0.19086,2.12595 -0.0384,2.01939 0.14436,2.44383 1.13189,2.62909 0.40817,0.0766 0.99935,0.34156 1.31374,0.58885 0.31439,0.2473 1.32352,0.74429 2.24252,1.10443 1.49293,0.58505 1.9132,0.65367 3.94562,0.64424 1.25108,-0.006 2.33157,-0.0179 2.40107,-0.0269 0.0695,-0.009 0.48383,-0.37383 0.92072,-0.81072 0.43688,-0.43689 0.79434,-0.72555 0.79434,-0.64148 0,0.0841 0.21656,-0.0489 0.48124,-0.29548 0.41247,-0.38427 0.44238,-0.51059 0.2093,-0.88381 -0.14957,-0.2395 -0.21051,-0.53486 -0.13542,-0.65636 0.0751,-0.12149 0.0202,-0.50174 -0.12198,-0.845 -0.54797,-1.3229 0.68697,-3.14857 2.65396,-3.92348 0.71299,-0.28089 0.70818,-0.22519 0.14768,-1.71184 -0.24644,-0.65365 -0.47543,-1.28594 -0.50887,-1.4051 -0.0334,-0.11915 -0.11631,-0.36287 -0.18422,-0.54159 -0.14534,-0.38252 -0.34639,-1.36195 -0.46694,-2.27471 -0.0472,-0.35745 -0.18213,-1.30357 -0.29982,-2.10248 -0.18093,-1.22822 -0.14767,-1.69666 0.21533,-3.03294 0.23611,-0.86921 0.46532,-1.92158 0.50934,-2.33861 0.044,-0.41703 0.19085,-1.22554 0.32628,-1.7967 0.28006,-1.18116 0.1639,-1.72247 -0.32904,-1.53331 -0.18475,0.0709 -0.47577,0.0128 -0.64671,-0.12903 -0.17094,-0.14187 -0.73025,-0.23396 -1.24291,-0.20466 -0.51267,0.0293 -1.17155,-0.0247 -1.46419,-0.12002 -0.54598,-0.17783 -1.8611,-0.29924 -3.33323,-0.30771 -0.4578,-0.003 -0.94524,-0.0864 -1.0832,-0.1862 -0.13795,-0.0998 -0.64078,-0.30625 -1.11738,-0.45883 -2.2494,-0.72013 -3.03294,-1.52604 -3.03294,-3.11952 0,-0.87985 0.0958,-1.11292 0.64992,-1.582 0.35745,-0.30257 1.09341,-0.76627 1.63547,-1.03043 0.54205,-0.26417 1.26029,-0.69642 1.59609,-0.96056 0.3358,-0.26413 0.69381,-0.42878 0.79559,-0.36588 0.10178,0.0629 0.40716,-0.0306 0.67862,-0.20782 0.27145,-0.1772 0.83476,-0.38087 1.25179,-0.45258 0.41702,-0.0717 1.11701,-0.36636 1.55552,-0.65476 0.43851,-0.28841 1.26715,-0.63879 1.84143,-0.77864 1.05539,-0.25702 2.05015,-0.71058 2.69755,-1.22996 0.20521,-0.16462 1.20519,-0.33303 2.38302,-0.40132 1.1162,-0.0647 2.12206,-0.20624 2.23525,-0.31449 0.1132,-0.10826 0.55189,-0.199 0.97488,-0.20165 0.42774,-0.003 1.00943,-0.19283 1.31066,-0.42846 0.29788,-0.233 0.70645,-0.42581 0.90793,-0.42846 0.20148,-0.003 0.42658,-0.1023 0.50022,-0.22146 0.0736,-0.11915 0.40935,-0.21663 0.74602,-0.21663 0.58648,0 0.61214,-0.0435 0.61214,-1.03674 0,-0.75546 0.15068,-1.25877 0.55537,-1.85513 0.30546,-0.45011 0.62036,-1.25174 0.69979,-1.78139 0.0794,-0.52966 0.41832,-1.34113 0.7531,-1.80328 0.62613,-0.86435 2.46974,-2.52308 2.64359,-2.37849 0.28652,0.23828 0.81547,-0.64856 1.15188,-1.9312 0.20971,-0.79962 0.54867,-1.64883 0.75323,-1.88713 0.20456,-0.2383 0.61409,-0.82323 0.91006,-1.29983 1.21438,-1.95556 3.97697,-4.7101 5.4193,-5.40351 0.82996,-0.39901 2.97829,-2.3262 2.97829,-2.67172 0,-0.19174 1.67309,-2.13772 2.27279,-2.64348 0.3564,-0.30057 0.84383,-0.74701 1.08319,-0.99207 0.3968,-0.40627 1.81351,-1.17922 2.16134,-1.17922 0.0793,0 0.45452,-0.2324 0.83381,-0.51645 0.37929,-0.28405 0.93334,-0.58953 1.23122,-0.67884 0.29788,-0.0893 0.89316,-0.43893 1.32285,-0.77692 0.48163,-0.37885 1.1463,-0.65822 1.73311,-0.72845 0.7217,-0.0864 1.10177,-0.28437 1.57187,-0.81886 1.2256,-1.39346 2.36192,-2.54636 2.50975,-2.54636 0.0828,0 0.61472,-0.44469 1.18196,-0.98819 0.87451,-0.83793 1.12433,-0.96777 1.64292,-0.85388 0.35593,0.0782 0.67337,0.0344 0.7594,-0.10484 0.25171,-0.40728 2.26198,-0.18827 3.02506,0.32958 0.69591,0.47226 1.51859,0.79374 3.90912,1.52759 1.01935,0.31293 1.65531,0.71901 2.94723,1.88191 1.86448,1.67828 2.87374,2.40645 3.66025,2.64082 0.29788,0.0888 1.27275,0.48463 2.16638,0.8797 0.89364,0.39507 1.81977,0.75053 2.05807,0.78991 0.2383,0.0394 0.48202,0.12678 0.5416,0.19422 0.25589,0.28967 2.15539,1.50217 2.3533,1.50217 0.11944,0 0.26474,0.1706 0.32289,0.37912 0.0582,0.20851 0.16624,0.59048 0.2402,0.8488 0.0964,0.33666 -0.0481,0.67761 -0.51005,1.20377 -0.59176,0.67397 -0.73885,0.73122 -1.79624,0.69915 -0.75972,-0.0231 -1.28118,0.0768 -1.53214,0.29331 -0.20925,0.18055 -0.444,0.26472 -0.52167,0.18705 -0.0777,-0.0777 -0.25239,-0.049 -0.38826,0.0638 -0.29417,0.24414 -1.46591,0.29061 -2.44863,0.0971 -0.40241,-0.0792 -0.82785,-0.0379 -0.98926,0.096 -0.33801,0.28052 -1.70199,-0.0357 -2.07079,-0.48004 -0.16133,-0.19439 -0.67698,-0.27027 -1.59408,-0.23458 -0.74558,0.029 -1.81174,-0.0764 -2.36923,-0.2343 -1.42238,-0.40281 -1.911,-0.2324 -1.911,0.66648 0,0.39538 -0.10565,0.9933 -0.23479,1.32873 -0.8001,2.07822 -1.09826,5.47616 -0.63151,7.197 0.11008,0.40585 0.1335,0.84454 0.0521,0.97487 -0.27063,0.43307 -0.27332,1.01571 -0.007,1.4957 0.14481,0.26091 0.23917,0.55776 0.20967,0.65966 -0.0295,0.10191 0.0582,0.32002 0.19485,0.48468 0.13666,0.16467 0.19428,0.44065 0.12803,0.61329 -0.0662,0.17264 0.0772,0.56517 0.31879,0.8723 0.33405,0.42467 0.45086,0.93067 0.48775,2.11279 0.0461,1.47822 0.0816,1.57615 0.72388,1.99828 0.91273,0.59988 1.35219,1.40939 1.50575,2.77372 0.18242,1.62067 0.4054,1.97339 1.15302,1.82387 0.38446,-0.0769 0.70257,-0.0119 0.85787,0.17519 0.17246,0.20781 0.42806,0.24543 0.84846,0.12486 0.70752,-0.20291 1.40839,-0.14226 2.28343,0.19762 0.34812,0.13521 1.32299,0.29457 2.16639,0.35412 1.64341,0.11605 3.73298,0.70893 5.34937,1.51781 0.5498,0.27514 1.18347,0.49203 1.40815,0.482 0.22469,-0.01 0.70098,0.10872 1.05844,0.2639 0.35745,0.15517 0.7149,0.2903 0.79434,0.30029 0.0794,0.01 0.21754,0.0913 0.3069,0.18063 0.0894,0.0894 0.32927,0.16248 0.53313,0.16248 0.20385,0 0.48191,0.13406 0.6179,0.29792 0.13599,0.16386 0.65477,0.36309 1.15285,0.44273 0.70391,0.11256 1.10887,0.36622 1.81826,1.13889 0.89481,0.97464 1.53986,2.54803 1.14474,2.79223 -0.10666,0.0659 -0.19393,0.29396 -0.19393,0.50676 0,0.42547 -0.64438,1.10398 -1.04845,1.10398 -0.14085,0 -0.66936,0.19399 -1.17445,0.43108 -0.5051,0.23709 -1.39354,0.47893 -1.97432,0.53743 -0.58079,0.0585 -1.16571,0.18846 -1.29984,0.28881 -0.13412,0.10036 -0.57858,0.20263 -0.98769,0.22728 -0.40911,0.0246 -0.85083,0.13361 -0.9816,0.24215 -0.2635,0.21868 -1.08314,0.41856 -2.37775,0.57984 -0.46948,0.0585 -0.95692,0.24016 -1.08319,0.40372 -0.12628,0.16356 -0.65385,0.358 -1.17238,0.43208 -0.51854,0.0741 -1.16655,0.21978 -1.44004,0.32376 -0.27348,0.10398 -0.54181,0.14448 -0.59627,0.09 -0.0843,-0.0843 -0.72483,-0.0976 -3.25002,-0.0676 -0.47782,0.006 -0.3504,0.71434 0.39884,2.21824 0.28745,0.57696 0.52263,1.41659 0.52263,1.86583 0,0.44923 0.20141,1.62604 0.44758,2.61512 0.46867,1.88308 0.45069,2.69811 -0.10266,4.65204 -1.02936,3.6348 -1.04443,4.1904 -0.12828,4.73158 0.35746,0.21116 0.64992,0.46533 0.64992,0.56483 0,0.0995 0.23993,0.24112 0.53319,0.31472 0.84786,0.2128 3.07604,2.95237 3.25296,3.99954 0.20396,1.20725 -0.17523,2.44115 -1.06052,3.45098 -0.36218,0.41312 -0.39116,0.56741 -0.17235,0.91777 0.14466,0.23164 0.26302,0.56872 0.26302,0.74906 0,0.18034 0.0975,0.3279 0.21664,0.3279 0.11915,0 0.21664,0.10779 0.21664,0.23952 0,0.13174 0.23984,0.52456 0.53297,0.87293 0.29314,0.34838 0.59218,0.99612 0.66455,1.43943 0.0724,0.44331 0.31689,1.14722 0.54341,1.56425 0.22651,0.41703 0.67485,1.29442 0.99632,1.94975 0.32146,0.65533 0.77605,1.40643 1.0102,1.66911 0.31515,0.35355 0.41924,0.76552 0.40075,1.58609 -0.0137,0.60967 0.11793,1.45049 0.29259,1.8685 0.17465,0.418 0.31039,0.9716 0.30163,1.23021 -0.0154,0.45353 0.0441,0.90562 0.33233,2.52827 0.0741,0.41703 0.17555,1.29441 0.22548,1.94975 0.0499,0.65533 0.14664,1.43523 0.21489,1.7331 0.20672,0.90213 0.58469,3.33294 0.58108,3.73702 -0.002,0.20852 0.0667,0.37912 0.15248,0.37912 0.16998,0 0.6522,1.49938 0.80697,2.50909 0.21656,1.41289 -1.17349,2.59187 -3.28977,2.79025 -0.54934,0.0515 -1.04662,0.14145 -1.10508,0.1999 -0.12648,0.12649 -0.10554,1.61643 0.0643,4.57445 0.18336,3.19368 0.23298,3.87614 0.2993,4.11614 0.0329,0.11915 0.0378,0.26538 0.0109,0.32495 -0.13554,0.29952 -0.13681,2.3033 -0.002,2.49135 0.0857,0.11915 0.21345,0.55784 0.28391,0.97487 0.13013,0.77016 0.15296,0.87639 0.55853,2.59966 0.12619,0.53618 0.23182,1.76689 0.23474,2.73491 0.003,1.01809 0.14606,2.15901 0.33922,2.70649 0.27174,0.77019 0.28846,1.13601 0.0898,1.96422 -0.2701,1.12589 -0.60373,1.42082 -2.26513,2.00237 -0.59576,0.20854 -1.25248,0.46801 -1.45938,0.57659 -0.50545,0.26528 -1.39654,0.24945 -1.92661,-0.0342 -0.31279,-0.16739 -0.51632,-0.16243 -0.7336,0.0179 -0.16539,0.13727 -0.50505,0.18472 -0.75478,0.10546 -0.24974,-0.0793 -0.57125,-0.0474 -0.71447,0.0709 -0.14323,0.11828 -1.23528,0.21673 -2.42679,0.21878 -1.19151,0.002 -2.45885,0.0611 -2.8163,0.13121 -0.35746,0.0701 -0.96675,0.18576 -1.354,0.25699 -0.38724,0.0712 -0.70407,0.20883 -0.70407,0.30579 0,0.0969 0.36342,0.47583 0.80759,0.84196 0.75099,0.61903 1.73838,0.86381 2.08524,0.51695 0.21306,-0.21306 4.89867,-0.25527 5.02844,-0.0453 0.0595,0.0963 0.25258,0.11973 0.42901,0.052 0.17643,-0.0677 0.4732,0.003 0.65949,0.15801 0.22877,0.18986 0.38609,0.20722 0.48468,0.0535 0.0803,-0.12519 0.48717,-0.18956 0.9042,-0.14303 0.41703,0.0465 1.36768,0.0788 2.11255,0.0716 0.74488,-0.007 1.55569,0.0948 1.8018,0.22652 0.34724,0.18583 0.56384,0.16324 0.96692,-0.10087 0.2857,-0.1872 0.63001,-0.34036 0.76513,-0.34036 0.13513,0 0.56835,-0.15312 0.96273,-0.34026 0.6517,-0.30925 0.80837,-0.30925 1.71926,0 0.55121,0.18714 1.14504,0.34026 1.3196,0.34026 0.17456,0 0.31738,0.0875 0.31738,0.19442 0,0.3105 1.38378,0.1617 1.64899,-0.17732 0.3237,-0.4138 0.93527,-0.49151 1.64179,-0.20862 0.49834,0.19953 0.68787,0.1532 1.30791,-0.31972 0.84241,-0.64255 1.73882,-0.65931 2.19092,-0.041 0.23265,0.3182 0.59637,0.43157 1.4716,0.45868 1.71133,0.053 1.70417,0.0505 1.70417,0.60859 0,0.64983 -0.50052,1.07801 -1.05457,0.90217 -0.23399,-0.0743 -0.47756,-0.0507 -0.54127,0.0524 -0.0637,0.10308 -0.87618,0.16838 -1.8055,0.14512 -1.28831,-0.0323 -1.88234,0.0549 -2.50081,0.36675 -0.44612,0.22498 -0.80016,0.48047 -0.78674,0.56777 0.1059,0.68881 -0.0404,0.75475 -1.34668,0.60696 -0.72587,-0.0821 -1.64168,-0.30283 -2.03513,-0.49045 -0.57492,-0.27416 -0.85234,-0.29338 -1.4131,-0.0979 -0.38375,0.13378 -0.78823,0.1873 -0.89885,0.11894 -0.11061,-0.0684 -0.53741,0.13221 -0.94845,0.44572 -0.41103,0.31351 -0.86988,0.54513 -1.01967,0.51472 -0.14978,-0.0304 -0.4881,0.0642 -0.75182,0.21015 -0.37133,0.20558 -0.81633,0.20983 -1.97293,0.0188 -1.25347,-0.20701 -1.54815,-0.33924 -1.83388,-0.82294 -0.26189,-0.44335 -0.50645,-0.57465 -1.06001,-0.56913 -0.59811,0.006 -0.70705,0.0803 -0.64537,0.44046 0.0408,0.2383 0.0896,0.5228 0.10832,0.63221 0.0761,0.44348 -0.95327,0.7267 -1.83119,0.50386 -0.68067,-0.17278 -0.92487,-0.37181 -1.16692,-0.95113 -0.36524,-0.87414 -0.85527,-1.11528 -1.36278,-0.67061 -0.20407,0.17881 -0.71225,0.49669 -1.12928,0.70641 -0.41703,0.20972 -0.80698,0.45293 -0.86655,0.54046 -0.0596,0.0875 -0.43859,0.35888 -0.84224,0.60298 -0.56864,0.34388 -0.85582,0.39749 -1.27523,0.23803 -0.29773,-0.1132 -0.89359,-0.25759 -1.32415,-0.32088 -0.43056,-0.0633 -0.95351,-0.16472 -1.1621,-0.22541 -0.2086,-0.0607 -0.68922,0.11037 -1.06805,0.38012 -0.37883,0.26975 -1.03519,0.51774 -1.45858,0.55108 -0.78344,0.0617 -2.52455,-0.6224 -2.66629,-1.04762 -0.0416,-0.12472 -0.41338,-0.34959 -0.82624,-0.49971 -0.41285,-0.15012 -0.89914,-0.33681 -1.08064,-0.41486 -0.23145,-0.0995 -0.40047,0.0448 -0.56603,0.48346 -0.23491,0.62235 -0.24428,0.62515 -1.94472,0.58138 -1.18811,-0.0306 -2.00567,-0.17971 -2.68354,-0.48946 -0.71665,-0.32748 -1.41329,-0.44435 -2.62999,-0.44121 -0.91031,0.002 -1.74963,-0.0542 -1.86515,-0.12556 -0.28252,-0.1746 -1.35029,0.33627 -1.35241,0.64705 -0.002,0.33968 -0.93469,0.56702 -2.55464,0.62292 -1.0396,0.0359 -1.47989,-0.0462 -1.86254,-0.3472 -0.36088,-0.28387 -0.56701,-0.32825 -0.73664,-0.15862 -0.16964,0.16964 -0.48069,0.13746 -1.11162,-0.11499 -0.63632,-0.2546 -1.02505,-0.29389 -1.42042,-0.14357 -0.29938,0.11382 -0.69141,0.15051 -0.87118,0.0815 -0.17976,-0.069 -0.32683,-0.0419 -0.32682,0.0602 2e-5,0.22267 -2.17103,0.10997 -2.81632,-0.1462 -0.32504,-0.12903 -1.02992,0.0966 -1.41506,0.45293 -0.3921,0.36278 -0.50334,0.37453 -1.01795,0.10755 -0.4999,-0.25935 -0.61438,-0.25561 -0.84959,0.0278 -0.18479,0.22267 -0.49922,0.29065 -0.98199,0.21231 -0.39058,-0.0634 -0.75159,-0.0482 -0.80224,0.0338 -0.0931,0.15061 -3.86774,0.12708 -5.40948,-0.0337 -0.77957,-0.0813 -2.20655,0.12808 -2.95528,0.43365 -0.56551,0.23079 -1.17958,0.23231 -1.54567,0.004 -0.25541,-0.15942 -0.56657,-0.12026 -1.11594,0.14043 -0.8853,0.42011 -1.02124,0.43939 -1.02124,0.14485 z m 3.43563,-2.89694 c 0.23938,-0.21663 0.66143,-0.29244 1.29063,-0.23184 0.65089,0.0627 1.19388,-0.042 1.7872,-0.34473 0.46874,-0.23914 0.85225,-0.36457 0.85225,-0.27874 0,0.0858 0.11699,0.0391 0.25997,-0.10392 0.14298,-0.14298 0.41107,-0.26347 0.59576,-0.26776 0.43008,-0.01 1.63474,-0.98671 1.3883,-1.12563 -0.10228,-0.0576 -0.6734,-0.0441 -1.26915,0.0302 -0.76758,0.0957 -1.25194,0.041 -1.66236,-0.1877 -0.5177,-0.28845 -0.62114,-0.28599 -0.97487,0.0232 -0.52058,0.45506 -1.97469,1.12506 -2.42369,1.11674 -0.19528,-0.004 -0.45253,0.0642 -0.57168,0.15066 -0.11916,0.0865 -0.47824,0.21965 -0.79796,0.29594 -0.57573,0.13736 -0.97548,0.8051 -0.7248,1.21071 0.18711,0.30275 1.83026,0.0931 2.2504,-0.28711 z m 40.21768,-1.52407 c -0.44336,-0.58127 -0.75441,-0.77832 -1.22862,-0.77832 -0.34923,0 -0.92905,-0.15208 -1.2885,-0.33796 -0.6718,-0.3474 -1.68462,-0.35347 -1.76886,-0.0106 -0.0515,0.20956 0.19728,0.37309 1.36073,0.89454 0.41702,0.18691 1.24567,0.61122 1.84142,0.9429 0.87209,0.48553 1.14111,0.5509 1.38034,0.33541 0.24852,-0.22386 0.20001,-0.39499 -0.29651,-1.04596 z m -59.26323,0.11057 c 0.16885,-0.3155 0.40962,-0.39433 1.03665,-0.33937 2.34285,0.20532 3.66623,0.36482 3.95798,0.47703 0.46231,0.17781 0.91613,0.0701 1.35399,-0.32144 0.34475,-0.30824 0.41646,-0.30519 0.79089,0.0337 0.23459,0.21231 0.467,0.28328 0.54013,0.16496 0.12876,-0.20833 3.42945,-0.14603 4.90843,0.0927 0.66667,0.10759 0.91874,0.006 1.88921,-0.76108 0.61594,-0.48687 1.22025,-0.88522 1.34291,-0.88522 0.12266,0 0.22301,-0.0937 0.22301,-0.20829 0,-0.25735 -1.51356,-0.68365 -2.80194,-0.78918 -0.52829,-0.0433 -1.05197,-0.17013 -1.16375,-0.28191 -0.11178,-0.11178 -0.32879,-0.15506 -0.48225,-0.0962 -0.15345,0.0589 -0.59076,-0.0542 -0.9718,-0.2512 -0.40157,-0.20766 -0.91067,-0.30358 -1.21107,-0.22818 -0.28504,0.0715 -0.51826,0.0373 -0.51826,-0.0761 0,-0.1134 -0.20232,-0.27038 -0.44961,-0.34887 -0.24728,-0.0785 -0.3974,-0.1949 -0.33359,-0.2587 0.0638,-0.0638 -0.046,-0.42048 -0.244,-0.79262 -0.35643,-0.66988 -0.52818,-2.9513 -0.22218,-2.95131 0.0873,0 0.12107,-0.54284 0.075,-1.20631 -0.0652,-0.93823 -0.01,-1.23462 0.2483,-1.33373 0.27174,-0.10428 0.3078,-0.38881 0.19842,-1.56565 -0.10363,-1.11503 -0.0334,-1.77679 0.31245,-2.94488 0.33945,-1.1464 0.44479,-2.10236 0.44056,-3.998 -0.006,-2.61512 0.47167,-6.89185 0.84802,-7.59507 0.12149,-0.227 0.18806,-1.07055 0.14795,-1.87455 -0.0694,-1.39108 -0.10721,-1.48183 -0.78117,-1.87545 -0.70329,-0.41074 -0.7141,-0.41033 -1.54871,0.0587 -0.68028,0.38234 -1.13391,0.46229 -2.37997,0.41947 -0.84672,-0.0291 -1.58753,-0.13063 -1.64625,-0.22563 -0.0587,-0.095 -0.25117,-0.17272 -0.42769,-0.17272 -0.49674,0 -1.60936,-0.90535 -1.97277,-1.60525 -0.20698,-0.39863 -0.3513,-1.39412 -0.39259,-2.70798 -0.0359,-1.14269 -0.1712,-2.53714 -0.30065,-3.09878 -0.39064,-1.69487 -0.40922,-6.30935 -0.0273,-6.76959 0.1561,-0.18808 0.16736,-0.3423 0.0311,-0.42649 -0.11736,-0.0725 -0.21286,-0.30055 -0.21223,-0.50672 0.005,-1.64909 -0.58912,-3.08098 -1.1377,-2.74193 -0.0982,0.0607 -0.40165,-0.0358 -0.67426,-0.21438 -0.27624,-0.181 -0.61635,-0.25017 -0.76831,-0.15626 -0.37919,0.23435 -0.68463,1.40735 -0.46751,1.79534 0.0988,0.17656 0.15486,1.67942 0.12455,3.33968 -0.0448,2.45338 0.0172,3.21823 0.33124,4.08439 0.30593,0.84388 0.36059,1.45267 0.2626,2.92462 -0.0681,1.02239 -0.16389,1.92383 -0.21293,2.00319 -0.049,0.0794 0.0233,0.42057 0.16075,0.75824 0.13746,0.33766 0.27635,1.1708 0.30866,1.85141 0.0323,0.68061 0.12263,1.34084 0.20071,1.46717 0.0781,0.12634 -0.0155,0.70382 -0.20798,1.28328 -0.44635,1.34384 -0.5681,4.69389 -0.19816,5.45252 0.18263,0.37452 0.22995,1.05194 0.14377,2.05807 -0.0707,0.82489 -0.13755,2.91336 -0.14865,4.64106 -0.0189,2.94529 0.0108,3.18471 0.47659,3.83775 0.45546,0.63855 0.50601,0.98998 0.6076,4.22445 0.0609,1.94038 0.0903,3.77168 0.0653,4.06956 -0.059,0.70228 -0.0474,1.48488 0.0504,3.41133 0.0813,1.60241 0.37137,2.00985 0.82599,1.16041 z m 33.37429,-3.20572 c 0.29787,-0.0664 0.72816,-0.14034 0.95619,-0.16423 0.45201,-0.0474 0.83244,-0.80502 0.64694,-1.28844 -0.0639,-0.16654 -0.0248,-0.35928 0.0869,-0.4283 0.11168,-0.069 0.16846,-0.53363 0.12617,-1.03246 -0.0423,-0.49883 0.0304,-1.03625 0.16154,-1.19426 0.13114,-0.15802 0.19017,-0.60503 0.13118,-0.99336 -0.059,-0.38834 -0.0103,-0.89108 0.10821,-1.11721 0.19542,-0.37291 0.15193,-0.39845 -0.46746,-0.27457 -0.84749,0.1695 -1.06906,-0.23719 -0.55591,-1.02036 0.19805,-0.30227 0.30958,-0.63131 0.24784,-0.7312 -0.0617,-0.0999 0.0847,-0.9405 0.32534,-1.86801 0.46883,-1.80673 0.39056,-2.28542 -0.23753,-1.45274 -0.47521,0.63 -1.0239,0.4885 -1.22585,-0.31612 -0.11861,-0.4726 0.0128,-0.72684 0.7797,-1.50823 0.52086,-0.53072 1.05166,-0.8902 1.2194,-0.82584 0.19466,0.0747 0.29704,-0.046 0.29704,-0.35009 0,-0.25524 0.13671,-0.67999 0.3038,-0.94389 0.3472,-0.54836 0.42689,-2.2742 0.12727,-2.75623 -0.13245,-0.21309 -0.55203,-0.32325 -1.2312,-0.32325 -0.80868,0 -1.04655,-0.0817 -1.10596,-0.37977 -0.0443,-0.22221 0.0883,-0.43313 0.31945,-0.50838 0.58645,-0.19087 1.8259,-0.82417 1.92877,-0.98551 0.0493,-0.0773 0.13909,-0.5343 0.19955,-1.01555 l 0.10994,-0.875 -0.73812,0.11978 c -0.60609,0.0984 -0.7833,0.0353 -0.99076,-0.35229 -0.28324,-0.52924 -0.0437,-0.98433 0.63067,-1.19838 0.53101,-0.16854 0.94404,-1.12361 0.99253,-2.29509 l 0.041,-0.99103 -0.94339,-0.27855 c -0.51887,-0.1532 -0.94034,-0.34091 -0.93659,-0.41712 0.0118,-0.23933 1.08624,-0.93696 1.68985,-1.09717 0.49371,-0.13105 0.58776,-0.28565 0.64466,-1.05972 0.0657,-0.89422 0.0571,-0.90634 -0.64992,-0.90926 -1.74951,-0.007 -2.25761,-0.68806 -0.98241,-1.31642 0.38454,-0.18948 0.73481,-0.53069 0.77838,-0.75824 0.0436,-0.22755 0.17964,-0.477 0.30237,-0.55434 0.41641,-0.2624 -0.0187,-0.77892 -0.7758,-0.92095 -1.13203,-0.21237 -1.37382,-0.63597 -0.63861,-1.11881 0.32975,-0.21655 0.77014,-0.38117 0.97866,-0.36581 0.30681,0.0226 0.37912,-0.15039 0.37912,-0.90697 0,-1.13304 -0.33982,-1.46577 -1.32298,-1.2954 -1.24072,0.21499 -2.01081,0.59234 -2.57652,1.26249 -0.83844,0.99324 -1.05018,1.8204 -0.71803,2.80506 0.155,0.4595 0.2246,0.92804 0.15467,1.04119 -0.0699,0.11314 -0.15773,0.69617 -0.19512,1.29561 -0.0475,0.76144 -0.21292,1.24419 -0.54896,1.60189 -0.4519,0.48102 -0.50906,0.49082 -0.94507,0.16193 -0.4345,-0.32774 -0.46158,-0.52036 -0.42487,-3.02218 l 0.0392,-2.67214 h -0.52234 c -0.28728,0 -0.52233,-0.0975 -0.52233,-0.21664 0,-0.11915 -0.18535,-0.21663 -0.41188,-0.21663 -0.23805,0 -0.59367,-0.30811 -0.84262,-0.73005 -0.43908,-0.7442 -0.43596,-0.86033 0.0812,-3.02074 0.094,-0.39281 0.55632,-0.91272 1.30027,-1.46231 0.63491,-0.46903 1.23166,-0.85297 1.32611,-0.8532 0.0944,-1.7e-4 0.51139,-0.49876 0.92653,-1.10784 0.41514,-0.60909 1.00006,-1.20386 1.29983,-1.32173 0.53796,-0.21152 0.53899,-0.21662 0.0798,-0.39344 -0.64584,-0.24868 -0.73668,-0.47244 -0.38631,-0.9516 0.2771,-0.37894 0.39397,-0.39041 1.4431,-0.14154 0.8301,0.19691 1.30414,0.20809 1.73734,0.041 0.32767,-0.1264 0.59576,-0.16724 0.59576,-0.0908 0,0.0765 0.0566,0.0824 0.12587,0.0132 0.37952,-0.37952 -1.48031,-1.94109 -2.40058,-2.01559 -0.58055,-0.047 -1.76203,-0.38708 -1.99441,-0.57408 -0.14372,-0.11565 -0.34643,-0.15767 -0.45046,-0.0934 -0.10403,0.0643 -0.62276,-0.0136 -1.15273,-0.1731 -0.52998,-0.1595 -1.70802,-0.34773 -2.61788,-0.41828 -1.43056,-0.11093 -1.748,-0.21387 -2.34718,-0.76114 -0.38109,-0.34807 -1.07195,-0.80379 -1.53524,-1.0127 -0.46329,-0.20892 -0.84234,-0.51703 -0.84234,-0.68469 0,-0.16766 -0.0877,-0.25066 -0.19482,-0.18444 -0.10715,0.0662 -0.50178,-0.22922 -0.87697,-0.65653 -0.56256,-0.64073 -0.63502,-0.83375 -0.41327,-1.10094 0.18582,-0.2239 0.47349,-0.28166 0.93114,-0.18695 0.36423,0.0754 0.85758,0.1632 1.09634,0.19515 0.23876,0.0319 0.67745,0.20695 0.97487,0.38889 0.29743,0.18194 1.03686,0.63868 1.64319,1.01498 0.60632,0.37629 1.38622,0.72824 1.7331,0.78209 0.77382,0.12014 2.42742,0.54871 3.01372,0.78108 0.23831,0.0944 0.77449,0.18614 1.19152,0.20376 1.25229,0.0529 1.61329,0.10389 1.85908,0.26258 0.4063,0.2623 3.1236,0.46613 3.1236,0.2343 0,-0.46713 -1.86682,-1.58395 -3.20463,-1.91716 -0.20345,-0.0507 -1.06559,-0.32896 -1.91589,-0.61842 -0.85029,-0.28946 -1.88497,-0.58017 -2.2993,-0.64601 -1.16507,-0.18516 -1.89623,-0.5204 -2.72818,-1.25086 -0.93088,-0.81732 -2.31434,-1.46911 -3.13187,-1.47553 -0.33358,-0.003 -0.86976,-0.13796 -1.19151,-0.30076 -0.32175,-0.1628 -0.9262,-0.35971 -1.34323,-0.43758 -0.49538,-0.0925 -1.68061,-0.86109 -3.41895,-2.21709 -2.13905,-1.66861 -2.76048,-2.05048 -3.16962,-1.9478 -0.6747,0.16934 -1.29826,1.48048 -1.12237,2.35996 0.16075,0.80373 1.15813,2.16397 1.45306,1.98169 0.13559,-0.0838 0.12368,-0.23934 -0.0328,-0.42784 -0.1352,-0.1629 -0.18292,-0.39794 -0.10606,-0.52231 0.27534,-0.44551 0.88088,-0.20771 1.36185,0.53478 0.40874,0.63099 0.61721,0.75556 1.26449,0.75556 0.66224,0 0.81077,0.0946 1.02038,0.64991 0.13492,0.35746 0.39455,0.66372 0.57694,0.68059 0.18239,0.0169 0.57534,0.0412 0.87322,0.0542 0.39176,0.017 0.56118,0.16164 0.61238,0.52285 0.0894,0.63062 -0.35765,1.18592 -0.8509,1.05694 -0.20741,-0.0542 -0.84384,-0.0114 -1.41429,0.0951 -0.70268,0.13127 -1.28351,0.11247 -1.80094,-0.0583 -0.42007,-0.13863 -1.13418,-0.23754 -1.58691,-0.2198 -0.55299,0.0217 -0.86393,-0.074 -0.94737,-0.29143 -0.0683,-0.17803 -0.2663,-0.32369 -0.43998,-0.32369 -0.17367,0 -0.56185,-0.29246 -0.86263,-0.64991 -0.56512,-0.67161 -0.99959,-0.85289 -0.90864,-0.37912 0.0549,0.28571 -1.34584,1.89559 -1.64928,1.89559 -0.0975,0 -0.29748,0.16425 -0.44427,0.365 -0.24969,0.34148 -0.33282,0.33982 -1.28991,-0.0257 -1.00757,-0.3848 -1.03229,-0.38383 -1.63818,0.0641 l -0.61518,0.45482 -0.9351,-0.42437 c -0.51431,-0.2334 -1.21661,-0.42651 -1.56068,-0.42912 l -0.62559,-0.005 0.1665,1.24568 c 0.0916,0.68512 0.18874,2.18326 0.21594,3.3292 0.0272,1.14594 0.11304,2.18642 0.19076,2.31216 0.0777,0.12575 0.1926,0.66479 0.25529,1.19786 0.0627,0.53307 0.15994,1.19862 0.2161,1.47901 0.0936,0.46721 0.27884,2.70382 0.40108,4.84223 0.034,0.59533 0.15801,0.88712 0.39644,0.93303 0.46396,0.0894 0.54618,-0.28463 0.70507,-3.20741 0.10567,-1.94376 0.21364,-2.55104 0.49126,-2.76295 0.23687,-0.18081 0.42815,-0.19929 0.57215,-0.0553 0.18126,0.18126 0.42589,3.92282 0.38376,5.86941 -0.0116,0.53651 0.018,0.55038 0.71178,0.33324 0.59825,-0.18725 0.69777,-0.30321 0.57339,-0.66813 -0.23865,-0.70017 -0.10973,-6.04444 0.14787,-6.13031 0.53323,-0.17774 0.89381,1.35574 1.01993,4.33761 0.0492,1.1633 0.14892,2.21129 0.22158,2.32887 0.25686,0.41561 0.53983,0.20592 0.53983,-0.40004 0,-0.33759 0.0731,-0.68693 0.16248,-0.7763 0.13064,-0.13065 0.26426,-3.01164 0.27448,-5.91821 9.8e-4,-0.27444 0.23333,-0.63597 0.53635,-0.83452 0.32052,-0.21001 0.52222,-0.53667 0.50363,-0.81563 -0.0415,-0.62185 0.6351,-2.53694 1.06365,-3.01081 0.18858,-0.20851 0.46604,-0.37912 0.61658,-0.37912 0.35145,0 1.24839,1.44007 1.07335,1.7233 -0.073,0.1181 -0.1768,0.55903 -0.23067,0.97985 -0.0539,0.42081 -0.21875,0.95853 -0.36638,1.19492 -0.22175,0.35508 -0.19877,0.55913 0.13214,1.17359 0.34921,0.64845 0.38198,1.04371 0.25566,3.08391 -0.0881,1.42359 -0.24642,2.40838 -0.40413,2.51441 -0.14258,0.0959 -0.40547,0.26901 -0.5842,0.38476 -0.28302,0.18331 -0.27603,0.23981 0.0542,0.43787 0.20852,0.12507 0.37912,0.40617 0.37912,0.62465 0,0.21849 0.19497,0.44823 0.43327,0.51055 0.23831,0.0623 0.43328,0.21992 0.43328,0.35023 0,0.2777 -0.64843,0.95987 -1.2124,1.27549 -0.2954,0.16531 -0.40504,0.51221 -0.43568,1.37843 -0.0225,0.63664 -0.0632,1.80492 -0.0904,2.59618 -0.0272,0.79125 0.0125,1.53892 0.0883,1.66148 0.0757,0.12256 0.005,0.35544 -0.15694,0.51751 -0.33547,0.33546 -0.29711,2.49238 0.0715,4.0217 0.17334,0.7191 0.15209,1.09234 -0.096,1.68608 -0.23422,0.56057 -0.26132,0.9132 -0.10234,1.33137 0.16753,0.44062 0.1229,0.7686 -0.198,1.45518 -0.47805,1.02282 -0.8753,3.38581 -0.8592,5.1108 0.0206,2.20553 -0.2578,3.51142 -0.92927,4.35923 -0.62056,0.78351 -0.62563,0.81297 -0.44829,2.60355 0.0986,0.9961 0.11202,2.52523 0.0297,3.39807 -0.0823,0.87285 -0.13895,1.79066 -0.12586,2.03958 0.0325,0.61834 1.25063,1.26064 2.60826,1.37529 0.60411,0.051 1.29336,0.12818 1.53166,0.17146 0.60897,0.11059 0.97488,-0.24894 0.97488,-0.95789 0,-0.68527 0.59452,-3.15257 0.89829,-3.72799 0.11008,-0.20852 0.39476,-0.37912 0.63263,-0.37912 0.37188,0 0.43213,0.14419 0.42991,1.02903 -10e-4,0.56597 0.001,1.51647 0.006,2.11223 0.005,0.59576 -0.0133,1.45194 -0.0405,1.90263 -0.0814,1.34673 0.20953,1.46348 3.59759,1.44391 0.2383,-0.001 1.23952,0.062 2.22493,0.14083 1.65896,0.13273 1.82159,0.10883 2.1958,-0.32264 0.44535,-0.51348 0.70601,-2.31766 0.64935,-4.49448 -0.0388,-1.49041 0.0801,-1.81151 0.67084,-1.81151 0.53437,0 0.63279,0.18845 0.87472,1.67492 0.1117,0.68635 0.29187,1.2775 0.40037,1.31367 0.17973,0.0599 0.16348,0.61287 -0.0757,2.57429 -0.0731,0.59948 -0.002,0.71718 0.552,0.9102 0.34977,0.12193 1.22207,0.28801 1.93845,0.36905 0.71638,0.0811 1.36089,0.24184 1.43225,0.3573 0.11855,0.19182 0.38498,0.16542 2.02694,-0.2008 z m -14.50812,-3.95771 c -0.26249,-0.1654 -0.31429,-0.89586 -0.29544,-4.16625 0.0231,-4.01125 0.20551,-5.15718 0.82088,-5.15718 0.41531,0 0.53046,0.52069 0.63808,2.88521 0.0478,1.05069 0.13752,1.96092 0.19934,2.02274 0.12923,0.12923 -0.40562,2.11519 -0.76203,2.82949 -0.17607,0.35286 -0.17445,0.55846 0.006,0.77601 0.34757,0.4188 -0.15767,1.09308 -0.60692,0.80998 z m 14.07484,-0.33293 c 0,-0.337 0.12276,-0.5416 0.32496,-0.5416 0.20219,0 0.32495,0.2046 0.32495,0.5416 0,0.33699 -0.12276,0.54159 -0.32495,0.54159 -0.2022,0 -0.32496,-0.2046 -0.32496,-0.54159 z m -3.38884,-1.14067 c -0.33853,-0.21764 -0.47158,-2.04595 -0.15668,-2.15304 0.45871,-0.15599 0.94586,0.59994 0.94586,1.46775 0,0.83895 -0.23404,1.04217 -0.78918,0.68529 z m -6.14326,-4.25724 c 0,-0.28795 0.12186,-0.56605 0.2708,-0.61801 0.47756,-0.16658 0.8124,0.0902 0.8124,0.62313 0,0.40855 -0.11478,0.51842 -0.5416,0.51842 -0.4283,0 -0.5416,-0.10952 -0.5416,-0.52354 z m -8.39474,-3.08615 c -0.36078,-0.14558 -0.3318,-0.73252 0.0619,-1.25304 0.44799,-0.59234 0.83982,-0.15311 0.64692,0.72518 -0.14867,0.67688 -0.21572,0.72681 -0.70878,0.52786 z m 12.74866,-11.51549 c -0.37763,-0.70562 -0.29625,-1.33935 0.17201,-1.33935 0.54976,0 0.81835,1.03108 0.3822,1.46723 -0.27747,0.27747 -0.34569,0.26173 -0.55421,-0.12788 z m -10.74199,-6.10092 c -0.0721,-0.11669 -0.0341,-0.39339 0.0844,-0.61489 0.11855,-0.22151 0.16261,-0.60512 0.0979,-0.85249 -0.0801,-0.30621 0.0181,-0.52238 0.3076,-0.67732 0.23387,-0.12516 0.48677,-0.166 0.56201,-0.0908 0.24075,0.24075 0.14631,1.91818 -0.12316,2.18765 -0.31461,0.31461 -0.75003,0.33702 -0.92878,0.0478 z M 313.71204,399.0666 c -0.32612,-0.65371 -0.27302,-1.28872 0.10775,-1.28872 0.10815,0 0.38618,0.31167 0.61784,0.6926 0.31021,0.5101 0.35947,0.76697 0.18692,0.97487 -0.35481,0.42752 -0.5509,0.34613 -0.91251,-0.37875 z m 2.60883,-0.34996 c -0.0794,-0.0794 -0.14442,-0.35996 -0.14442,-0.62339 0,-0.26343 -0.14623,-0.60032 -0.32496,-0.74865 -0.17873,-0.14833 -0.32496,-0.41331 -0.32496,-0.58884 0,-0.17553 -0.20754,-0.61061 -0.4612,-0.96685 -0.41161,-0.57806 -0.42598,-0.68292 -0.13359,-0.9753 0.48622,-0.48622 1.09788,-0.0629 1.67111,1.15661 0.64162,1.36497 0.80919,2.44479 0.41786,2.69258 -0.36651,0.23206 -0.51054,0.24314 -0.69984,0.0538 z m 2.35423,-3.31372 c -0.72243,-0.79827 0.091,-1.5036 0.85405,-0.74055 0.32318,0.32318 0.32176,0.38269 -0.0181,0.75823 -0.44722,0.49418 -0.37127,0.49578 -0.83594,-0.0177 z m 32.8128,50.8613 c 3.6e-4,-0.082 0.17124,-0.1477 0.37975,-0.14609 0.53095,0.004 2.47932,-0.6893 2.87047,-1.02156 0.26399,-0.22424 0.30289,-0.67531 0.20736,-2.4043 -0.0647,-1.17055 -0.0786,-2.25013 -0.031,-2.39907 0.13362,-0.41778 0.56607,-0.3225 1.09585,0.24142 0.40245,0.42839 0.49558,0.82061 0.56899,2.39633 0.1287,2.76264 0.35582,3.16541 1.53266,2.71797 0.68694,-0.26117 2.19276,-0.2759 2.34908,-0.023 0.1808,0.29254 1.20309,0.0163 1.39351,-0.37658 0.094,-0.19393 0.14065,-0.69381 0.10366,-1.11084 -0.25897,-2.91998 -0.38933,-4.07883 -0.62373,-5.54472 -0.10237,-0.64015 -0.0526,-0.9384 0.19004,-1.13981 0.79456,-0.65943 1.66246,0.9471 1.66246,3.07733 0,0.38734 0.0831,0.79686 0.1847,0.91005 0.10159,0.1132 0.3111,0.69325 0.4656,1.289 0.45638,1.75992 1.80469,2.84815 3.16624,2.55549 0.3435,-0.0738 0.9568,-0.11731 1.36289,-0.0966 0.43132,0.022 0.90427,-0.11255 1.13736,-0.32349 0.27975,-0.25317 0.39901,-0.27838 0.39901,-0.0843 0,0.20695 0.0733,0.21589 0.29073,0.0354 0.1599,-0.1327 0.34439,-0.18762 0.40999,-0.12202 0.0656,0.0656 0.67414,-0.0421 1.35232,-0.2392 0.74667,-0.21706 1.52376,-0.30393 1.97,-0.22022 0.40531,0.076 0.92964,0.0351 1.16518,-0.0909 0.54717,-0.29283 0.34469,-0.87249 -0.30477,-0.87249 -0.30127,0 -0.84997,-0.39134 -1.44284,-1.02904 -0.72282,-0.77748 -1.12384,-1.0364 -1.64048,-1.05917 -0.37609,-0.0166 -0.81312,-0.14152 -0.97117,-0.27765 -2.013,-1.73379 -1.99596,-1.71323 -1.70748,-2.06082 0.31687,-0.38181 1.00028,-0.4515 1.20347,-0.12273 0.0736,0.11915 0.3082,0.21664 0.52124,0.21664 0.21304,0 0.60525,0.18898 0.87158,0.41997 0.26633,0.23099 0.76868,0.48245 1.11634,0.55881 0.34766,0.0764 0.6321,0.2367 0.6321,0.35631 0,0.11962 0.12186,0.17399 0.2708,0.12083 0.14894,-0.0531 0.53368,0.036 0.85497,0.19816 0.52971,0.26732 0.63871,0.2479 1.16911,-0.20833 l 0.58494,-0.50315 -0.47576,-0.44324 c -0.34031,-0.31705 -0.79163,-0.45036 -1.58516,-0.46823 -0.81933,-0.0185 -1.24123,-0.14885 -1.61361,-0.49868 -0.27731,-0.26052 -1.20742,-0.82245 -2.06691,-1.24874 -1.2173,-0.60374 -1.59581,-0.90475 -1.71243,-1.36183 -0.1025,-0.4017 -0.0486,-0.67066 0.17072,-0.85271 0.33257,-0.27602 1.12014,0.021 2.47191,0.9322 0.30796,0.20759 0.74665,0.37733 0.97487,0.3772 0.22823,-1.3e-4 0.9699,0.0532 1.64816,0.11857 0.67827,0.0653 1.28444,0.0359 1.34705,-0.0654 0.20906,-0.33825 -0.45345,-0.96988 -1.30492,-1.2441 -1.70314,-0.5485 -2.40678,-0.86591 -3.99003,-1.7999 -2.70194,-1.59394 -3.27055,-2.01873 -3.14392,-2.34872 0.0647,-0.16869 0.11769,-0.39623 0.11769,-0.50564 0,-0.41465 0.94386,-0.1741 1.71579,0.43728 0.44179,0.3499 1.06512,0.7555 1.38516,0.90133 0.32005,0.14582 0.58191,0.35272 0.58191,0.45978 0,0.10706 0.10177,0.13175 0.22617,0.0549 0.12439,-0.0769 0.45923,0.0129 0.7441,0.19959 0.28486,0.18665 0.93371,0.43278 1.44188,0.54696 0.74103,0.1665 1.04406,0.13665 1.53061,-0.15076 0.70918,-0.41892 0.71556,-0.44632 0.25662,-1.10155 -0.25149,-0.35905 -0.41616,-0.43361 -0.58492,-0.26484 -0.33836,0.33835 -1.13357,0.28889 -1.44807,-0.0901 -0.14833,-0.17872 -0.44566,-0.32495 -0.66072,-0.32495 -0.40275,0 -1.28903,-0.95245 -1.28903,-1.38526 0,-0.13399 0.189,-0.36166 0.42,-0.50593 0.64012,-0.39975 0.23626,-1.42666 -1.05615,-2.68554 -0.5962,-0.58073 -1.12771,-1.05588 -1.18114,-1.05588 -0.0534,0 -0.49504,-0.35719 -0.98136,-0.79377 -0.93061,-0.83543 -1.03243,-1.12414 -0.64905,-1.84049 0.23323,-0.43579 0.2396,-0.43523 0.77569,0.0684 0.29729,0.27929 0.55705,0.47713 0.57724,0.43965 0.0973,-0.18054 0.94759,0.31777 1.2981,0.76071 0.44306,0.55988 1.01331,0.66352 1.01331,0.18416 0,-0.17314 -0.34377,-0.47793 -0.76393,-0.67731 -0.91771,-0.43547 -2.546,-2.22101 -2.39183,-2.62278 0.0604,-0.15739 -0.12949,-0.73622 -0.42197,-1.2863 -0.29248,-0.55008 -0.48372,-1.07791 -0.42498,-1.17296 0.0587,-0.095 0.14495,-0.85172 0.19157,-1.68148 0.0526,-0.93562 0.22601,-1.72424 0.45665,-2.07623 0.20453,-0.31216 0.32157,-0.75997 0.26007,-0.99512 -0.0615,-0.23515 -0.01,-0.82966 0.11501,-1.32113 0.18093,-0.71282 0.16559,-0.93636 -0.0758,-1.10503 -0.23298,-0.16277 -0.24031,-0.23674 -0.0318,-0.32133 0.15871,-0.0644 0.27734,-0.52833 0.28661,-1.12086 0.009,-0.55604 0.11307,-1.54716 0.23194,-2.20249 0.11887,-0.65533 0.24508,-1.80896 0.28045,-2.56363 0.12869,-2.74522 1.03646,-3.98361 2.12336,-2.89671 0.39061,0.3906 0.44259,0.69569 0.42008,2.46561 -0.0141,1.11092 -0.0396,3.14096 -0.0567,4.5112 -0.0171,1.37024 -0.005,2.83255 0.0279,3.24958 0.0796,1.02368 -0.11975,3.43171 -0.29885,3.6108 -0.2985,0.29851 -0.1272,1.93881 0.27061,2.59119 0.345,0.56579 0.5148,0.6595 1.02822,0.56747 0.33824,-0.0606 0.78723,-0.26035 0.99777,-0.44381 0.34764,-0.30295 0.42104,-0.29252 0.7993,0.1135 0.37334,0.40072 0.64606,0.44328 2.63084,0.41056 2.1127,-0.0348 2.23363,-0.0623 2.63485,-0.59975 0.3105,-0.41587 0.36645,-0.66953 0.21385,-0.96942 -0.11368,-0.2234 -0.22764,-1.40542 -0.25324,-2.62672 -0.0437,-2.08587 -0.0205,-2.22054 0.3833,-2.22054 0.52122,0 0.96023,1.13284 1.2957,3.34348 0.37266,2.45572 1.19171,3.07806 3.17455,2.41214 1.07009,-0.35937 1.48176,-1.17993 0.90933,-1.81247 -0.42651,-0.47128 -0.48457,-1.32706 -0.0937,-1.38055 0.14893,-0.0204 0.51245,-0.0447 0.80782,-0.0541 0.44583,-0.0142 0.55911,-0.15203 0.66706,-0.8116 0.11239,-0.68668 0.0616,-0.82567 -0.37455,-1.02438 -0.27752,-0.12645 -0.50768,-0.15888 -0.51147,-0.0721 -0.004,0.0868 -0.1368,0.32899 -0.29557,0.53817 -0.26684,0.35155 -0.34922,0.35505 -1.08838,0.0462 -0.66988,-0.27989 -0.77561,-0.41001 -0.65135,-0.80153 0.0816,-0.25706 0.35511,-0.63823 0.60783,-0.84703 0.44686,-0.36921 0.44907,-0.3983 0.0804,-1.05868 -0.20851,-0.37347 -0.37912,-0.76863 -0.37912,-0.87812 0,-0.32048 0.86413,-1.09271 1.07613,-0.96169 0.31345,0.19372 0.53372,-0.36487 0.4669,-1.18402 -0.0828,-1.01482 -0.26882,-1.15972 -1.00121,-0.77975 -0.81479,0.42272 -1.39113,0.1342 -1.24622,-0.62385 0.0577,-0.3021 0.19112,-0.54927 0.29638,-0.54927 0.10526,0 0.19138,-0.13112 0.19138,-0.29138 0,-0.16026 0.19498,-0.46783 0.43328,-0.68349 0.41846,-0.37871 0.56776,-0.98482 0.30685,-1.24574 -0.18265,-0.18264 -1.54492,0.664 -1.69416,1.05292 -0.16889,0.4401 -1.41758,0.31427 -1.72299,-0.17362 -0.17499,-0.27954 -0.13478,-0.47098 0.16958,-0.80729 0.21943,-0.24246 0.47248,-0.39541 0.56233,-0.33988 0.0899,0.0555 0.43462,-0.45858 0.76616,-1.14246 0.33154,-0.68389 0.70419,-1.31059 0.82811,-1.39268 0.14359,-0.0951 0.077,-0.31311 -0.18358,-0.60106 l -0.40888,-0.45181 -0.6657,0.64205 c -1.0408,1.00381 -1.79147,1.31869 -2.53002,1.06123 -0.96679,-0.33703 -0.76145,-1.21448 0.34785,-1.48641 0.11915,-0.0292 0.39904,-0.35566 0.62197,-0.72544 0.22293,-0.36978 0.53977,-0.75029 0.70408,-0.84558 0.29665,-0.17203 0.41404,-1.04739 0.1728,-1.28863 -0.0693,-0.0693 -0.46245,0.10242 -0.87375,0.38154 -0.4113,0.27911 -1.03704,0.571 -1.39053,0.64864 -0.3535,0.0776 -0.64272,0.23091 -0.64272,0.34059 0,0.36402 -1.00988,0.20623 -1.39356,-0.21773 -0.51958,-0.57412 -0.35977,-1.20199 0.31314,-1.23031 0.63858,-0.0269 2.49075,-1.2297 2.68898,-1.74626 0.25374,-0.66124 -0.2368,-0.80312 -0.97048,-0.2807 -0.52204,0.37172 -0.78242,0.4399 -1.04572,0.27382 -0.56007,-0.35329 -0.41052,-0.97048 0.32608,-1.3457 0.37217,-0.18959 0.83997,-0.62894 1.03956,-0.97635 0.32762,-0.57028 0.33028,-0.66425 0.0274,-0.96714 -0.22336,-0.22336 -0.33549,-0.24757 -0.33549,-0.0724 0,0.14468 -0.13429,0.26306 -0.29843,0.26306 -0.16413,0 -0.41459,0.13996 -0.55656,0.31103 -0.42914,0.51708 -1.47931,0.63728 -2.08731,0.2389 -0.4682,-0.30677 -0.64811,-0.31672 -1.32637,-0.0733 -0.49827,0.17882 -0.81263,0.20254 -0.8612,0.065 -0.24208,-0.68558 -0.46792,-0.84018 -0.81118,-0.5553 -0.27317,0.22671 -0.40645,0.22946 -0.66642,0.0137 -0.46183,-0.38328 -0.40452,-0.62295 0.21664,-0.90597 0.29787,-0.13572 0.54159,-0.42609 0.54159,-0.64527 0,-0.21918 0.14323,-0.3985 0.31829,-0.3985 0.82987,0 3.13641,-1.54951 3.14419,-2.11223 0.006,-0.44153 -0.4886,-0.29531 -1.27444,0.37668 -0.67838,0.58009 -0.78151,0.60662 -1.30523,0.3358 -0.77082,-0.39861 -2.18353,-0.26443 -4.13239,0.39249 -0.89363,0.30123 -1.99036,0.6132 -2.43718,0.69326 -0.44682,0.0801 -0.81239,0.23719 -0.81239,0.34916 0,0.11197 -0.33454,0.34336 -0.74343,0.5142 -0.40888,0.17085 -0.80458,0.40959 -0.87934,0.53055 -0.0747,0.12095 -0.3132,0.21992 -0.52988,0.21992 -0.21668,0 -0.50521,0.13404 -0.64118,0.29788 -0.13597,0.16383 -0.46474,0.30026 -0.7306,0.30317 -0.26586,0.003 -0.93523,0.2018 -1.48748,0.44197 -0.56415,0.24534 -1.08621,0.35467 -1.19151,0.24951 -0.20714,-0.20685 -2.43033,0.44753 -3.39704,0.99988 -0.33547,0.19169 -0.82291,0.38213 -1.08319,0.4232 -0.88586,0.13979 -1.98763,0.48135 -3.0367,0.94139 -0.57585,0.25253 -1.32649,0.45914 -1.66809,0.45914 -0.98822,0 -2.53722,1.17399 -2.80069,2.12264 -0.2643,0.95164 -0.29476,1.57006 -0.0594,1.20521 0.23775,-0.36847 1.55974,-0.67323 2.54219,-0.58603 0.4766,0.0423 1.09189,0.077 1.36731,0.077 0.27542,7e-5 0.79998,0.15485 1.16569,0.34397 0.53906,0.27875 0.83388,0.2999 1.55731,0.11171 0.49081,-0.12768 1.18484,-0.27658 1.54229,-0.33089 1.36734,-0.20775 4.3479,-1.06814 4.67479,-1.34945 0.18811,-0.16189 0.46353,-0.29434 0.61204,-0.29434 0.14851,0 0.93955,-0.39776 1.75787,-0.88391 0.81831,-0.48616 1.61526,-0.90987 1.77098,-0.94159 0.6733,-0.13715 1.45258,-0.56018 1.72359,-0.93564 0.31556,-0.43719 2.6569,-1.84316 2.81167,-1.6884 0.0516,0.0516 0.43206,0.15266 0.84547,0.22458 1.82884,0.31815 1.55775,1.29764 -0.68794,2.48566 -0.75719,0.40057 -1.42545,0.79595 -1.48503,0.87862 -0.0596,0.0827 -0.42411,0.3121 -0.81008,0.50986 -0.38596,0.19775 -1.18871,0.79203 -1.78387,1.32062 -1.32726,1.17879 -1.59162,1.32133 -2.82201,1.52154 -0.53618,0.0873 -1.12111,0.23453 -1.29983,0.32728 -0.17873,0.0928 -0.90989,0.2296 -1.62479,0.30409 -0.71491,0.0745 -1.68978,0.2379 -2.16639,0.36315 -0.4766,0.12524 -1.0145,0.24979 -1.19532,0.27677 -0.18082,0.027 -0.45398,0.12644 -0.60702,0.22102 -0.15303,0.0946 -0.71187,0.17853 -1.24186,0.18654 -0.52999,0.008 -0.96361,0.091 -0.96361,0.18449 0,0.0934 -0.49428,0.16609 -1.09839,0.16141 -0.60411,-0.005 -1.15005,0.0432 -1.2132,0.10631 -0.3741,0.3741 1.22123,1.21078 2.52823,1.32595 1.40397,0.12371 3.48569,1.44308 3.61513,2.29122 0.042,0.27515 0.18383,0.6298 0.3152,0.78809 0.15966,0.19237 0.16759,0.37759 0.0239,0.5586 -0.1182,0.14893 -0.27827,0.62299 -0.35572,1.05345 -0.20134,1.11916 -0.72832,1.51479 -1.91464,1.4374 -0.53886,-0.0352 -1.1138,-0.16829 -1.27766,-0.29586 -0.86042,-0.66988 -0.89841,-0.63036 -0.7771,0.8084 0.0642,0.76094 0.19155,1.72474 0.28311,2.14177 0.29277,1.33365 0.20303,3.91045 -0.14384,4.12996 -0.41739,0.26413 -0.67293,0.24247 -1.1168,-0.0947 -0.28011,-0.21275 -0.39854,-0.71219 -0.47355,-1.99702 -0.055,-0.94233 -0.24903,-2.06746 -0.43116,-2.50029 -0.18212,-0.43283 -0.37105,-1.36705 -0.41984,-2.07605 -0.10907,-1.58502 -0.60034,-2.67051 -1.43055,-3.16093 -0.53221,-0.31439 -0.72548,-0.33044 -1.24217,-0.10321 -0.74647,0.32828 -0.92924,0.56428 -0.93354,1.20543 -0.004,0.52458 0.66933,0.95402 0.81413,0.51961 0.11774,-0.35321 0.80845,-0.32086 1.11821,0.0524 0.39569,0.47679 -0.12042,1.13628 -0.88925,1.13628 -1.05709,0 -1.15537,0.23837 -0.97629,2.36788 0.0569,0.67693 0.5764,1.20082 1.04366,1.05252 0.54639,-0.17342 1.26924,0.0799 1.26924,0.4448 0,0.37505 -0.30161,0.56348 -1.02991,0.64343 -0.60156,0.066 -1.41955,0.87768 -1.29317,1.28314 0.0408,0.1309 0.40958,0.40826 0.81951,0.61636 0.82447,0.41854 1.01432,1.1244 0.31206,1.16019 -0.91589,0.0467 -0.97487,0.0967 -0.97487,0.82676 0,1.04229 0.17847,1.395 0.8928,1.7644 0.36764,0.19011 0.62367,0.4981 0.62367,0.75022 0,0.51938 -0.5513,0.56546 -0.82897,0.0693 -0.12072,-0.2157 -0.34067,-0.30467 -0.55237,-0.22344 -0.25771,0.0989 -0.35916,0.44092 -0.37942,1.27914 -0.0152,0.62928 -0.0507,1.36362 -0.0788,1.63186 -0.0645,0.61554 0.82664,1.61291 1.28424,1.43731 0.22284,-0.0855 0.40059,0.0428 0.52827,0.38121 0.21545,0.57106 -0.0602,1.30119 -0.47175,1.24954 -0.82085,-0.10302 -1.198,0.0618 -1.40592,0.61453 -0.46012,1.22309 -0.71357,2.69534 -0.5072,2.94626 0.11271,0.13703 0.26946,0.68785 0.34832,1.22403 0.0789,0.53618 0.19185,1.26733 0.25108,1.62479 0.1526,0.92099 0.14953,2.3989 -0.006,3.01971 -0.0729,0.29055 -0.0347,0.58874 0.0848,0.66265 0.11959,0.0739 0.21744,0.46171 0.21744,0.86178 0,0.40007 0.10695,0.76305 0.23768,0.80662 0.16803,0.056 0.17435,0.33111 0.0215,0.93877 -0.26222,1.04279 -0.14692,3.57657 0.21096,4.636 0.14361,0.42512 0.23753,1.0212 0.20872,1.32461 -0.0833,0.87746 0.66697,1.6515 1.58152,1.63155 0.42418,-0.009 0.77153,-0.0839 0.77188,-0.16584 z m -0.0929,-2.09707 c -0.21759,-0.42076 -0.32898,-1.34729 -0.34512,-2.87046 -0.0131,-1.23704 -0.0754,-2.76097 -0.13846,-3.38652 -0.12591,-1.24919 0.0121,-1.36537 0.84444,-0.71069 0.53937,0.42427 0.80356,1.1577 0.93883,2.60628 0.0389,0.41703 0.15419,1.56497 0.2561,2.55098 l 0.18528,1.79274 -0.64042,0.31948 c -0.80806,0.40311 -0.72424,0.4261 -1.10065,-0.30181 z m 11.84048,-7.86578 c -0.18607,-0.18608 -0.19061,-0.33217 -0.0168,-0.5416 0.3683,-0.44377 0.61824,-0.34076 0.61824,0.25481 0,0.58897 -0.20264,0.68559 -0.60144,0.28679 z m 6.52902,-7.43586 c -0.0686,-0.17872 -0.24217,-0.32496 -0.38574,-0.32496 -0.34217,0 -1.29355,-1.29099 -1.09017,-1.47934 0.0864,-0.08 0.20057,-0.0236 0.25377,0.12535 0.0532,0.14894 0.21658,0.2708 0.36308,0.2708 0.33602,0 1.43063,1.12793 1.43063,1.47417 0,0.36955 -0.42318,0.32068 -0.57157,-0.066 z m -3.38208,-5.45698 c -0.5581,-0.14584 -0.5108,-1.15049 0.0542,-1.15049 0.33699,0 0.43328,0.14442 0.43328,0.64991 0,0.35745 -0.0244,0.63861 -0.0542,0.62479 -0.0298,-0.0138 -0.22477,-0.0697 -0.43328,-0.12421 z m 7.25029,-5.32534 c -0.11829,-0.14644 -0.39088,-0.82943 -0.60575,-1.51776 -0.31921,-1.02259 -0.34505,-1.37924 -0.14123,-1.94975 0.16149,-0.45203 0.19036,-1.12655 0.0819,-1.91294 -0.0922,-0.66808 -0.10287,-1.39917 -0.0238,-1.62464 0.0791,-0.22547 0.0629,-0.7029 -0.036,-1.06096 -0.19536,-0.70752 0.0443,-1.9618 0.36841,-1.9279 0.11058,0.0116 0.41234,0.39377 0.67059,0.84935 0.42743,0.75404 0.46059,1.05675 0.3697,3.37545 -0.0698,1.78196 -0.0157,2.76332 0.18038,3.26678 0.38081,0.978 0.25198,2.28634 -0.25167,2.55589 -0.27773,0.14863 -0.4623,0.13251 -0.61257,-0.0535 z m 2.57349,0.0762 c -0.23566,-0.1492 -0.27323,-0.52273 -0.167,-1.66028 0.15544,-1.66465 0.44548,-2.15263 0.9075,-1.52687 0.19087,0.25852 0.27866,0.84909 0.24285,1.63364 -0.075,1.64206 -0.29483,1.98941 -0.98335,1.55351 z m 6.96316,-0.41429 c -0.28565,-0.18133 -0.152,-1.46534 0.17346,-1.66649 0.29678,-0.18342 0.81174,0.1294 0.92481,0.5618 0.25888,0.98994 -0.33617,1.58847 -1.09827,1.10469 z m -6.88498,-9.79545 c -0.2923,-0.32299 -0.32958,-0.49582 -0.14646,-0.67895 0.28749,-0.28748 0.91395,0.12009 0.91395,0.5946 0,0.49462 -0.36036,0.53423 -0.76749,0.0843 z m -10.68148,-1.57494 c -0.19892,-0.2397 -0.18094,-0.36844 0.082,-0.58662 0.50587,-0.41983 0.97215,0.0945 0.5072,0.55942 -0.28731,0.28731 -0.3701,0.29113 -0.58915,0.0272 z m 13.1627,37.62991 c 0.15821,-0.14246 -0.68821,-0.94929 -0.99587,-0.94929 -0.42777,0 -0.59717,0.59822 -0.27824,0.98252 0.23644,0.28488 0.94121,0.2665 1.27411,-0.0332 z m -72.68543,-4.14471 c -0.0738,-1.16172 -0.25744,-2.35594 -0.40816,-2.65382 -0.15073,-0.29788 -0.64977,-1.61396 -1.109,-2.92462 l -0.83496,-2.38303 -0.0715,-7.09491 c -0.0758,-7.5257 -0.0463,-7.74282 0.90036,-6.63715 0.45392,0.53014 0.83074,0.30775 0.83053,-0.49016 -1.6e-4,-0.55579 -0.58777,-5.14128 -0.70377,-5.49189 -0.0394,-0.11915 0.003,-0.53394 0.0954,-0.92176 0.12506,-0.52797 0.0157,-1.15388 -0.4353,-2.49134 -0.33128,-0.98242 -0.61674,-1.88371 -0.63436,-2.00286 -0.0176,-0.11915 -0.0557,-0.26538 -0.0846,-0.32496 -0.0289,-0.0596 -0.0698,-1.18068 -0.0908,-2.49134 -0.021,-1.31067 -0.12069,-2.51338 -0.2215,-2.6727 -0.3711,-0.58652 -0.67599,0.20423 -0.72156,1.87139 -0.13119,4.7996 -0.14247,4.6469 0.45004,6.09214 0.59658,1.45515 0.77979,3.5447 0.33491,3.81965 -0.12983,0.0802 -0.17187,0.35332 -0.0937,0.60854 0.52667,1.71942 0.52582,1.87114 -0.0105,1.87114 -0.51919,0 -0.54495,0.21957 -0.2762,2.35391 0.01,0.0756 -0.004,0.18618 -0.0309,0.24575 -0.14316,0.32203 -0.1213,12.31971 0.0244,13.37467 0.0948,0.68664 0.23183,1.81638 0.30448,2.51053 0.0727,0.69416 0.27138,1.65692 0.44164,2.13947 0.17025,0.48255 0.30955,1.19438 0.30955,1.58183 0,0.38746 0.14124,0.8217 0.31388,0.96497 0.17263,0.14327 0.43173,0.61827 0.57579,1.05556 0.94776,2.87704 1.32464,2.90697 1.14583,0.091 z m 75.95439,1.07398 c 0,-0.0689 -0.21319,-0.35226 -0.47374,-0.62961 -0.33678,-0.35849 -0.40666,-0.57135 -0.2417,-0.73631 0.32166,-0.32166 0.097,-1.02998 -0.41337,-1.3031 -0.51131,-0.27365 -0.5643,-0.23116 -0.72561,0.5818 -0.10018,0.50486 0.01,0.78559 0.53934,1.37722 0.36584,0.4087 0.66516,0.81996 0.66516,0.91391 0,0.0939 0.14623,0.11471 0.32496,0.0461 0.17873,-0.0686 0.32496,-0.1811 0.32496,-0.25003 z m -3.59226,-2.55947 c 0.51212,-0.19652 0.41668,-0.4352 -0.29127,-0.72844 -0.64291,-0.2663 -1.53244,-0.13951 -1.53244,0.21843 0,0.10771 0.31683,0.28733 0.70408,0.39914 0.38724,0.11181 0.72047,0.21208 0.74051,0.22283 0.02,0.0107 0.19065,-0.0396 0.37912,-0.11196 z m 5.10873,-2.81391 c 0,-0.41269 -0.4114,-0.59202 -0.73742,-0.32145 -0.161,0.13362 -0.23944,0.47588 -0.18015,0.78603 0.0999,0.52247 0.1249,0.53136 0.51129,0.18169 0.22345,-0.20222 0.40628,-0.49304 0.40628,-0.64627 z m -4.97367,-0.64 c 0.22843,-0.27524 0.22345,-0.38857 -0.0276,-0.62816 -0.4042,-0.38569 -1.52986,-0.60083 -1.89935,-0.36301 -0.45125,0.29046 0.0634,1.0632 0.78052,1.17182 0.32771,0.0496 0.65702,0.10487 0.73179,0.12272 0.0748,0.0179 0.26138,-0.11866 0.41467,-0.30337 z m 2.34671,-3.20582 c 0.18506,-0.22299 0.1385,-0.38611 -0.19685,-0.6896 -0.40635,-0.36774 -0.46576,-0.37101 -0.79302,-0.0438 -0.29199,0.29198 -0.3051,0.41241 -0.0751,0.68959 0.34303,0.41333 0.74451,0.42983 1.06492,0.0438 z m -5.68056,-3.55658 c 0.13734,-0.0875 0.49809,-0.72092 0.80166,-1.40751 0.61274,-1.38585 0.87919,-1.57975 1.72757,-1.2572 0.42059,0.15991 0.57896,0.37268 0.57896,0.77783 0,0.66497 0.52953,1.75849 0.91616,1.89193 0.80049,0.27628 1.87928,-1.04752 1.59179,-1.95332 -0.0841,-0.26504 0.0268,-0.55572 0.30965,-0.81173 0.42891,-0.38816 0.45733,-0.38653 1.06262,0.061 0.61112,0.45182 0.62842,0.45262 0.99619,0.0462 0.27599,-0.30497 0.32975,-0.57229 0.20474,-1.01805 -0.0932,-0.33247 -0.14975,-0.689 -0.12556,-0.79229 0.0859,-0.36679 -0.45922,-1.76609 -0.79007,-2.02808 -0.33701,-0.26687 -1.24188,-0.16762 -1.69411,0.18581 -0.13011,0.10169 -0.29607,0.12539 -0.36878,0.0527 -0.0727,-0.0727 -1.42169,-0.12465 -2.99772,-0.1154 l -2.86552,0.0168 -0.48987,0.60472 c -0.4528,0.55895 -0.48528,0.78648 -0.42926,3.00619 0.0333,1.32081 0.1308,2.51503 0.21658,2.65382 0.17378,0.28119 0.96983,0.33204 1.35497,0.0866 z m -59.66282,-11.3036 c 0.7019,-0.35183 0.81221,-1.09563 0.16248,-1.09563 -0.248,0 -0.43327,0.14442 -0.43327,0.33774 0,0.18576 -0.0778,0.28968 -0.17283,0.23094 -0.31841,-0.1968 -0.75991,0.24622 -0.61686,0.61898 0.077,0.20066 0.21306,0.32923 0.30236,0.28571 0.0893,-0.0435 0.43046,-0.2135 0.75812,-0.37774 z m 1.67214,-4.26452 c 0.004,-0.13435 -0.13262,-0.35999 -0.30304,-0.50143 -0.24628,-0.20439 -0.35139,-0.1765 -0.51232,0.13595 -0.11136,0.21621 -0.15426,0.52854 -0.0953,0.69406 0.0655,0.18391 0.012,0.24213 -0.1376,0.1497 -0.25592,-0.15817 -0.34358,0.13652 -0.11007,0.37004 0.17751,0.17751 1.14961,-0.53441 1.15835,-0.84832 z m -0.20983,-2.55925 c 0,-0.34502 -0.39306,-0.66681 -0.58277,-0.4771 -0.17822,0.17822 0.1,0.78927 0.35934,0.78927 0.12289,0 0.22343,-0.14047 0.22343,-0.31217 z m 22.48485,-2.59485 c 0.52813,-0.58038 0.61416,-0.79027 0.39756,-0.97003 -0.20578,-0.17079 -0.4583,-0.0417 -0.98846,0.50528 -0.39164,0.40407 -0.64662,0.84058 -0.56662,0.97003 0.23156,0.37466 0.43931,0.28398 1.15752,-0.50528 z m 5.73478,-0.61335 c 0.0989,-0.28884 -0.43502,-1.24567 -0.6951,-1.24567 -0.0854,0 -0.26009,0.3412 -0.38808,0.75823 -0.22786,0.74245 -0.21998,0.75823 0.37888,0.75823 0.33637,0 0.65331,-0.12185 0.7043,-0.27079 z m 10.91692,-0.0677 c 0.0332,-0.11171 -0.0795,-0.38817 -0.25049,-0.61436 -0.2594,-0.3432 -0.36666,-0.36495 -0.64804,-0.13142 -0.30408,0.25236 -0.30098,0.31986 0.0316,0.68733 0.37086,0.40979 0.75484,0.43568 0.86696,0.0584 z m -7.49587,-1.93621 c -0.017,-0.32155 -0.50165,-0.26248 -0.6141,0.0749 -0.0607,0.18222 0.0383,0.26343 0.26419,0.21664 0.19874,-0.0412 0.3562,-0.17234 0.34991,-0.29149 z m -5.75045,-0.97797 c 0.0747,-0.12085 0.53073,-0.42121 1.01343,-0.66747 0.55138,-0.28129 0.80148,-0.52388 0.67279,-0.65257 -0.26752,-0.26752 -2.22973,0.81784 -2.22973,1.23334 0,0.35438 0.34414,0.40928 0.54351,0.0867 z m -34.27621,-5.24362 c 0.62814,-0.18694 0.78482,-0.32466 0.66655,-0.58593 -0.085,-0.18785 -0.1462,-1.35988 -0.13591,-2.6045 0.0153,-1.84669 -0.0619,-2.43448 -0.4196,-3.19542 -0.2831,-0.60226 -0.57949,-0.93247 -0.83697,-0.93247 -0.21926,0 -0.47661,-0.12186 -0.5719,-0.2708 -0.25621,-0.40048 -1.55008,-0.82168 -1.71323,-0.55771 -0.0873,0.14126 -0.21545,0.13461 -0.36922,-0.0192 -0.347,-0.347 -1.00951,-0.28633 -1.16015,0.10624 -0.17369,0.45263 0.29801,0.89443 1.81538,1.70027 1.24027,0.65868 1.25398,0.67651 1.25398,1.63121 0,0.84388 -0.0662,0.98086 -0.52681,1.08947 -0.47351,0.11165 -0.52993,0.24414 -0.55759,1.30945 -0.0169,0.65188 -0.10016,1.48261 -0.18497,1.84605 l -0.15421,0.66082 1.03675,0.0334 c 0.57021,0.0184 1.40627,-0.0765 1.8579,-0.21095 z m -6.09864,-0.58412 0.51144,-0.41488 -0.5271,-0.56201 c -0.3287,-0.35048 -0.66838,-0.51717 -0.90248,-0.44287 -0.20646,0.0655 -0.43809,0.0177 -0.51472,-0.1063 -0.28025,-0.45345 -0.96902,-0.23762 -1.11646,0.34985 -0.15698,0.62544 0.31723,1.1578 1.03131,1.1578 0.2085,0 0.43934,0.0975 0.51298,0.21664 0.1947,0.31504 0.42934,0.26876 1.00503,-0.19823 z m 47.7589,-4.10926 c 0.59043,-0.62592 1.04279,-0.90825 1.49621,-0.9338 0.35746,-0.0201 0.75139,-0.11144 0.87542,-0.20289 0.12402,-0.0915 0.56098,-0.22538 0.97102,-0.29762 0.41004,-0.0722 0.90931,-0.27957 1.10949,-0.46073 0.20018,-0.18116 0.49438,-0.34913 0.65377,-0.37325 0.15939,-0.0241 0.38729,-0.0988 0.50644,-0.16589 0.11915,-0.0671 0.75282,-0.1425 1.40815,-0.16753 1.326,-0.0507 1.75852,-0.14076 2.70798,-0.56411 0.35745,-0.15938 1.03987,-0.36067 1.51647,-0.4473 0.47661,-0.0866 0.91953,-0.23847 0.98428,-0.33743 0.0648,-0.099 0.30846,-0.21214 0.54159,-0.25153 0.69383,-0.11721 2.48194,-0.98208 2.48194,-1.20045 0,-0.11127 -0.14623,-0.32366 -0.32495,-0.47199 -0.31098,-0.25808 -0.4552,-0.86655 -0.2054,-0.86655 0.0658,0 0.50909,0.21934 0.98519,0.48743 0.84072,0.47341 0.87439,0.47576 1.16929,0.0819 0.27065,-0.36143 0.23125,-0.49557 -0.36269,-1.23465 -0.3931,-0.48916 -0.61346,-0.96693 -0.53741,-1.16514 0.15657,-0.408 0.65866,-0.43581 1.04777,-0.058 0.15745,0.15286 0.59026,0.49156 0.96181,0.75267 0.66904,0.47017 0.67922,0.47066 1.05834,0.0517 0.36805,-0.40669 0.3608,-0.45185 -0.1881,-1.17149 -0.314,-0.41167 -0.57091,-0.84206 -0.57091,-0.95641 0,-0.35262 0.65865,-0.4836 0.78437,-0.15598 0.0649,0.1692 0.2411,0.26041 0.39151,0.20269 0.1504,-0.0577 0.53725,0.2409 0.85965,0.6636 0.88761,1.16372 1.51473,0.97738 1.78805,-0.5313 0.0324,-0.17873 -0.15664,-0.4903 -0.42004,-0.69238 -0.72419,-0.5556 -0.19091,-0.93241 1.31958,-0.93241 1.11523,0 1.24113,-0.0471 1.30367,-0.48744 0.0472,-0.33232 -0.0418,-0.48744 -0.27957,-0.48744 -0.19184,0 -0.66168,-0.21901 -1.0441,-0.4867 -0.38242,-0.26769 -0.72858,-0.50406 -0.76924,-0.52527 -0.16634,-0.0868 0.22835,-0.93777 0.43491,-0.93777 0.27647,0 1.70106,0.6438 2.09807,0.94816 0.48649,0.37296 0.89155,0.33682 1.12556,-0.10042 0.26615,-0.4973 -0.0271,-1.15895 -0.66495,-1.50032 -0.48834,-0.26135 -0.57893,-0.86389 -0.12988,-0.86389 0.16414,0 0.4189,-0.14516 0.56615,-0.32258 0.14724,-0.17741 0.35842,-0.26651 0.46929,-0.19799 0.28136,0.1739 0.85827,-0.34569 0.68862,-0.62019 -0.0765,-0.12381 -0.12165,-0.71876 -0.10029,-1.32212 0.0662,-1.87056 -0.3416,-3.30477 -1.11085,-3.9068 -0.64613,-0.50567 -0.6793,-0.60851 -0.74525,-2.31051 -0.0738,-1.90425 -0.17157,-2.66316 -0.38834,-3.01391 -0.0746,-0.12067 -0.17303,-0.41377 -0.21878,-0.65133 -0.0457,-0.23757 -0.2272,-0.701 -0.40321,-1.02985 -0.17601,-0.32885 -0.4783,-0.89986 -0.67175,-1.2689 -0.37783,-0.72077 -2.45551,-2.81063 -3.40319,-3.42315 -0.45537,-0.29431 -1.19121,-0.38942 -3.46622,-0.44802 l -2.88813,-0.0744 -1.73311,0.8299 c -0.95321,0.45645 -2.21306,1.27582 -2.79967,1.82084 -1.08195,1.00523 -1.49743,1.18254 -1.76323,0.75247 -0.0831,-0.13441 -0.41551,-0.18484 -0.7619,-0.11556 -0.33798,0.0676 -0.93545,-0.009 -1.32771,-0.17089 -0.39226,-0.16159 -1.13916,-0.26731 -1.65977,-0.23495 -0.52061,0.0324 -1.47041,-0.0629 -2.11066,-0.21176 -0.79329,-0.1844 -1.45789,-0.20793 -2.08638,-0.0738 -0.50725,0.10821 -1.01976,0.19084 -1.13891,0.18361 -0.69707,-0.0423 -1.34964,-0.15959 -1.53907,-0.27667 -0.11955,-0.0739 -0.60207,-0.0488 -1.07226,0.0557 -0.47019,0.10454 -1.00112,0.17334 -1.17985,0.15289 -0.17872,-0.0205 -1.02472,0.19733 -1.87998,0.48397 l -1.55502,0.52117 -0.80302,-0.61249 c -0.44166,-0.33687 -0.96049,-0.88936 -1.15296,-1.22776 -0.19247,-0.3384 -0.50861,-0.61589 -0.70253,-0.61664 -0.19393,-7.5e-4 -0.47395,-0.1476 -0.62228,-0.32633 -0.14833,-0.17872 -0.45273,-0.32496 -0.67645,-0.32496 -0.22371,0 -0.40675,-0.0872 -0.40675,-0.19372 0,-0.22153 -0.14384,-0.23669 -3.28653,-0.34636 -1.96164,-0.0684 -2.43601,-0.0173 -3.13291,0.33803 -0.45168,0.23028 -0.94718,0.41869 -1.1011,0.41869 -0.15393,0 -0.91662,0.65583 -1.69487,1.45739 -1.42416,1.46683 -2.48307,3.27243 -2.48307,4.23401 0,0.2854 -0.0731,0.59199 -0.16248,0.68131 -0.0894,0.0893 -0.17579,0.37366 -0.19207,0.63186 -0.0163,0.25821 -0.13312,0.90816 -0.25965,1.44434 -0.62129,2.6328 -0.91954,4.453 -0.79615,4.85886 0.15044,0.49484 0.52767,3.01836 0.64249,4.29803 0.15122,1.68529 0.99075,2.19859 2.023,1.2369 0.67421,-0.62812 1.24349,-0.41284 1.19944,0.45358 -0.0356,0.7004 -0.60135,1.3842 -0.96121,1.16179 -0.28622,-0.17689 -1.02627,0.39193 -0.90866,0.69842 0.0595,0.15508 0.41813,0.47352 0.79695,0.70763 0.54406,0.33626 0.85459,0.38827 1.47823,0.24762 0.88304,-0.19916 1.25624,0.0208 1.25624,0.74025 0,0.27199 -0.25844,0.60423 -0.64991,0.83548 -0.87218,0.51521 -0.81974,0.84696 0.25931,1.64051 0.99984,0.73528 1.50326,0.83026 1.89552,0.35762 0.14197,-0.17107 0.54274,-0.37354 0.89059,-0.44995 0.34786,-0.0764 0.68808,-0.22889 0.75605,-0.33888 0.22048,-0.35673 0.94313,-0.21155 1.18361,0.23779 0.29607,0.55321 0.18611,0.72325 -0.75713,1.17085 -1.1291,0.53579 -0.97154,1.22079 0.30486,1.32546 0.63187,0.0518 2.44553,0.70194 2.61383,0.93695 0.0915,0.12777 1.5274,0.84405 4.44352,2.2166 0.2383,0.11216 0.6463,0.24382 0.90666,0.29259 0.26035,0.0488 0.6503,0.18164 0.86655,0.29528 0.21625,0.11365 0.81088,0.27583 1.32141,0.36042 0.51053,0.0846 1.20701,0.38837 1.54774,0.67507 0.34073,0.28671 0.74077,0.52129 0.88897,0.52129 0.1482,0 0.67407,0.37295 1.16859,0.82879 0.76442,0.70462 1.03075,0.8224 1.7776,0.78619 0.72179,-0.035 1.0294,-0.20262 1.72475,-0.93979 z m -16.76783,-13.17365 c -0.27482,-0.055 -0.61323,-0.34916 -0.75203,-0.65377 -0.22852,-0.50155 -0.18607,-0.60919 0.4495,-1.13978 0.49118,-0.41006 0.91198,-0.57205 1.40194,-0.53968 0.38506,0.0254 0.79588,-0.0101 0.91293,-0.079 0.29825,-0.17547 0.82701,-0.23932 2.86175,-0.34561 0.9761,-0.051 2.24344,-0.15212 2.8163,-0.22475 0.97941,-0.12417 3.04961,-0.29652 5.26601,-0.43839 0.53618,-0.0343 1.07236,-0.0851 1.19151,-0.11278 0.11915,-0.0277 0.30244,-0.0346 0.40731,-0.0153 0.77574,0.1426 4.86535,0.12799 5.15799,-0.0184 0.21197,-0.10606 0.41977,-0.0961 0.49382,0.0238 0.0703,0.11378 0.78303,0.21921 1.58378,0.23427 2.05855,0.0387 3.08046,0.11866 3.91007,0.30581 1.14176,0.25755 1.71736,0.28738 2.01351,0.10435 0.15128,-0.0935 0.46016,-0.0709 0.6864,0.0502 0.22625,0.12108 1.24346,0.25106 2.26047,0.28885 1.63007,0.0606 1.91275,0.13235 2.3864,0.60599 0.49711,0.49711 0.51494,0.58374 0.2384,1.15834 -0.29361,0.6101 -0.32939,0.62065 -2.02785,0.59818 -0.95093,-0.0126 -2.46011,-0.0983 -3.35375,-0.19061 -0.89363,-0.0922 -1.77102,-0.1541 -1.94975,-0.13743 -0.69153,0.0645 -1.73164,0.009 -3.16524,-0.16841 -0.82143,-0.10173 -1.59708,-0.10191 -1.72511,-3.2e-4 -0.12917,0.10242 -0.32186,0.0976 -0.43328,-0.0108 -0.23159,-0.2254 -3.23168,-0.32803 -4.58396,-0.15682 -0.5044,0.0639 -0.96087,0.0453 -1.01436,-0.0413 -0.0535,-0.0866 -0.76191,-0.1006 -1.57425,-0.0312 -0.81234,0.0694 -1.9154,0.10728 -2.45123,0.0842 -0.53584,-0.0231 -1.07202,0.0192 -1.19152,0.0939 -0.44715,0.27972 -1.05309,0.2537 -1.39986,-0.0601 -0.31873,-0.28844 -0.41439,-0.28497 -0.86615,0.0315 -0.49371,0.34581 -1.17833,0.43501 -4.55873,0.59397 -0.89363,0.042 -1.81976,0.12475 -2.05806,0.18382 -0.2383,0.0591 -0.65813,0.0625 -0.93296,0.007 z m -0.94662,-7.4411 c -0.15774,-0.0837 -0.64973,-0.21744 -1.09331,-0.29708 -0.44358,-0.0797 -0.88227,-0.26509 -0.97488,-0.4121 -0.0926,-0.14701 -0.42707,-0.43165 -0.74326,-0.63253 -0.31619,-0.20088 -0.89229,-0.92 -1.28022,-1.59803 -0.89633,-1.56661 -0.97059,-3.2352 -0.22801,-5.12285 0.50327,-1.27931 1.80129,-2.75523 2.42614,-2.75865 0.18865,-10e-4 0.41082,-0.0697 0.4937,-0.15258 0.38115,-0.38115 2.94058,-0.44083 4.17097,-0.0973 1.15096,0.32139 2.46526,1.36847 2.98357,2.37697 0.22489,0.43758 0.48756,0.84675 0.58369,0.90926 0.42123,0.27388 0.59755,1.98813 0.29322,2.8507 -0.16685,0.47289 -0.28537,1.07712 -0.26339,1.34272 0.0879,1.06206 -2.17404,3.3836 -3.29673,3.3836 -0.22446,0 -0.46491,0.0919 -0.53433,0.20424 -0.14348,0.23215 -2.10144,0.23492 -2.53716,0.004 z m 32.20355,2e-5 c -0.0707,-0.11432 -0.34476,-0.20785 -0.60913,-0.20785 -0.26436,0 -0.63909,-0.1706 -0.83272,-0.37912 -0.19363,-0.20851 -0.68914,-0.62013 -1.10113,-0.9147 -1.37594,-0.98379 -2.35357,-2.97479 -2.20715,-4.49498 0.0727,-0.75428 0.47573,-1.80836 1.22432,-3.2017 0.23606,-0.43937 2.05074,-1.72834 2.44805,-1.73884 0.11915,-0.003 0.35193,-0.0903 0.51729,-0.19371 0.16536,-0.1034 1.04275,-0.21656 1.94975,-0.25147 1.56065,-0.0601 1.72461,-0.0203 3.05724,0.74226 1.19239,0.68226 1.51104,0.9984 2.07965,2.06324 0.58156,1.08909 0.66556,1.45219 0.62713,2.71083 -0.0244,0.79932 -0.16049,1.67027 -0.3024,1.93544 -0.14192,0.26517 -0.19805,0.57917 -0.12474,0.69779 0.16941,0.27412 -1.27263,1.82795 -2.32104,2.50097 -0.4398,0.28232 -1.07347,0.56048 -1.40815,0.61812 -1.46132,0.25168 -2.87847,0.30546 -2.99697,0.11372 z m -18.68077,-0.44727 c -0.26747,-0.0989 -0.48631,-0.34289 -0.48631,-0.54211 0,-0.41702 0.60075,-0.93459 1.0965,-0.94469 0.41961,-0.009 1.33703,0.81932 1.1834,1.06789 -0.2132,0.34497 -1.30447,0.59985 -1.79359,0.41891 z m 5.29071,-0.12165 c -0.55146,-0.55146 0.19127,-1.37204 1.24186,-1.37204 0.76779,0 1.20957,0.82507 0.65781,1.22852 -0.41061,0.30024 -1.64936,0.39383 -1.89967,0.14352 z m -48.44201,21.44885 c 0.17621,-0.1762 0.0329,-0.39877 -0.53609,-0.83278 -0.52423,-0.39986 -0.77656,-0.76747 -0.77656,-1.13138 0,-0.37788 -0.0924,-0.50359 -0.30911,-0.42044 -0.17002,0.0652 -0.42568,-0.0218 -0.56813,-0.19346 -0.38341,-0.46199 -0.55515,-0.39094 -1.07047,0.44287 -0.55963,0.9055 -0.44717,1.37056 0.47576,1.96738 0.75357,0.4873 2.36783,0.58458 2.7846,0.16781 z m 1.68197,-7.81867 c 8.1e-4,-1.08428 -0.4927,-2.97155 -0.92064,-3.52038 -0.51209,-0.65674 -1.40361,-2.52487 -1.40076,-2.93522 0.002,-0.23247 -0.0296,-2.01323 -0.0694,-3.95724 -0.0498,-2.42969 0.004,-3.5976 0.17063,-3.73625 0.35564,-0.29515 0.92451,0.42751 1.04051,1.32178 0.13365,1.03037 0.32477,1.45134 0.7294,1.60662 0.66327,0.25452 0.74208,-0.23303 0.36732,-2.27229 -0.49722,-2.7056 -2.01679,-5.84201 -2.83041,-5.84201 -0.29685,0 -0.28614,0.93765 0.035,3.06697 0.11156,0.73961 0.0591,1.19552 -0.19658,1.70802 -0.28738,0.57608 -0.34262,1.40882 -0.31392,4.73202 0.0485,5.61904 0.55124,9.27115 1.07956,7.84297 0.2901,-0.78423 0.68709,-0.41083 1.15411,1.08556 0.70098,2.24599 1.15382,2.59859 1.15518,0.89945 z m -0.61159,-19.4989 c 0,-0.57805 -0.48926,-1.67593 -0.86374,-1.93823 -0.24424,-0.17108 -0.68415,-0.7848 -0.97756,-1.36383 -0.64422,-1.27131 -0.9062,-1.46173 -1.37124,-0.99669 -0.28934,0.28934 -0.30536,0.42373 -0.087,0.72971 0.1472,0.20628 0.35509,0.57003 0.46196,0.80833 0.10688,0.2383 0.5053,0.72574 0.88538,1.08319 0.38008,0.35745 0.83109,0.91801 1.00224,1.24567 0.28007,0.53621 0.94997,0.84073 0.94997,0.43185 z m -0.0724,-5.37595 c 0.11531,-0.30048 -0.19008,-1.05397 -1.61805,-3.99224 -0.56249,-1.15741 -1.02346,-1.0008 -0.99093,0.33665 0.0281,1.15399 0.42869,2.12317 1.36018,3.29059 0.61405,0.76959 1.04519,0.8956 1.2488,0.365 z m 18.59497,-2.9822 c 0.2383,-0.0193 0.48989,-0.11171 0.55909,-0.20527 0.14354,-0.19407 1.53316,-0.39553 3.12376,-0.45289 0.59576,-0.0215 1.20506,-0.11519 1.35399,-0.20825 0.14894,-0.0931 0.37256,-0.10631 0.49693,-0.0294 0.12437,0.0769 0.34372,0.0431 0.48744,-0.075 0.31954,-0.26255 10.42552,-0.15223 11.8652,0.12952 0.54373,0.10641 1.1774,0.15571 1.40815,0.10956 1.05254,-0.21053 9.409,-0.0135 9.4096,0.2219 2.4e-4,0.0964 0.12231,0.0987 0.27125,0.005 0.37632,-0.23663 4.82607,-0.29085 6.00984,-0.0732 0.53515,0.0984 1.07133,0.11454 1.19151,0.0359 0.12019,-0.0786 1.0959,-0.14701 2.16826,-0.15197 1.07237,-0.005 2.58342,-0.0772 3.3579,-0.16052 1.4745,-0.15863 5.12499,-0.4096 6.60748,-0.45427 0.4766,-0.0144 0.99268,-0.10761 1.14684,-0.20723 0.15718,-0.10158 0.39506,-0.0868 0.5416,0.0337 0.14372,0.11818 0.85893,0.2111 1.58936,0.20647 0.73043,-0.005 1.44148,0.0617 1.58012,0.14738 0.13863,0.0857 0.36965,0.063 0.51337,-0.0503 0.159,-0.12541 0.89085,-0.13632 1.86918,-0.0279 1.3335,0.14783 2.33033,0.14628 4.41974,-0.007 0.0981,-0.007 0.14684,-0.16939 0.10832,-0.36043 -0.0923,-0.45744 -2.1141,-1.2338 -2.46176,-0.94527 -0.16879,0.14009 -0.54303,0.11021 -1.1056,-0.0883 -0.46774,-0.16503 -1.23702,-0.2748 -1.7095,-0.24394 -0.47249,0.0309 -0.95484,-6.3e-4 -1.0719,-0.07 -0.34846,-0.20645 -1.95294,-0.31004 -3.57834,-0.23103 -0.17873,0.009 -1.08049,-0.0415 -2.00391,-0.11159 -1.11413,-0.0845 -1.67895,-0.0505 -1.67895,0.10126 0,0.12575 -0.0975,0.16839 -0.21664,0.0948 -0.11915,-0.0736 -0.32597,-0.0663 -0.45959,0.0163 -0.4388,0.27119 -3.31363,0.31672 -3.80873,0.0603 -0.38458,-0.19917 -0.67879,-0.16043 -1.51647,0.19969 -0.87071,0.37431 -1.21311,0.41428 -2.11056,0.2464 -1.09395,-0.20465 -1.41092,-0.45316 -1.41679,-1.11081 -0.005,-0.57285 0.74572,-0.84726 2.52701,-0.92357 0.89605,-0.0384 1.7364,-0.17702 1.86746,-0.30808 0.13105,-0.13105 0.67258,-0.23828 1.2034,-0.23828 0.94957,0 0.95884,-0.007 0.57523,-0.43082 -0.44224,-0.48868 -1.14484,-0.44242 -3.51976,0.23172 -0.74314,0.21094 -1.40395,0.29811 -1.46848,0.1937 -0.10148,-0.1642 -0.54889,-0.14146 -2.05473,0.10446 -0.17873,0.0292 -0.71491,0.13585 -1.19151,0.23704 -0.47661,0.10119 -0.98884,0.16008 -1.1383,0.13086 -0.14946,-0.0292 -0.58816,0.086 -0.97488,0.256 -0.38672,0.17001 -1.28509,0.42989 -1.99638,0.5775 -0.71129,0.14761 -1.49119,0.39062 -1.73311,0.54002 -0.31251,0.193 -1.25521,0.24879 -3.25615,0.19273 -1.54897,-0.0434 -3.30374,-0.0747 -3.8995,-0.0696 -2.98723,0.0256 -4.10437,-0.0409 -4.36825,-0.25991 -0.21392,-0.17754 -0.37668,-0.16787 -0.62362,0.0371 -0.25309,0.21004 -0.39497,0.21648 -0.58492,0.0265 -0.32468,-0.32468 -0.97054,-0.3229 -1.07916,0.003 -0.11528,0.34584 -0.72771,0.42645 -3.63438,0.47841 -1.37024,0.0245 -2.73506,0.14412 -3.03294,0.26583 -0.29788,0.12172 -1.60836,0.19788 -2.91218,0.16926 -1.73298,-0.038 -2.53417,0.0326 -2.97878,0.26247 -0.33451,0.17299 -0.6082,0.25532 -0.6082,0.18296 0,-0.0724 -0.31683,0.0609 -0.70407,0.29603 -0.38724,0.23516 -1.03605,0.4979 -1.44179,0.58386 -0.40574,0.086 -1.0232,0.27633 -1.37212,0.42304 -0.6018,0.25304 -0.61512,0.28605 -0.25903,0.64214 0.24463,0.24463 0.53393,0.32518 0.83053,0.23125 0.25033,-0.0793 0.65012,-0.15996 0.88842,-0.1793 z m 33.98252,-2.6342 c -0.19993,-0.521 0.27151,-0.91743 0.73977,-0.62206 0.52618,0.3319 0.46352,0.82524 -0.11525,0.90743 -0.29988,0.0426 -0.54095,-0.0676 -0.62452,-0.28537 z m -52.07317,-2.39436 c 0.63759,-0.63759 1.62232,-5.78951 1.28851,-6.74115 -0.0715,-0.20385 0.008,-0.64638 0.17569,-0.98341 0.23463,-0.47034 0.27723,-1.2036 0.18325,-3.15455 -0.17724,-3.67925 -0.16106,-4.03184 0.19733,-4.29876 0.17761,-0.13229 0.32293,-0.39381 0.32293,-0.58116 0,-0.42936 0.65807,-0.64706 1.39606,-0.46183 0.69977,0.17563 1.89543,-0.60056 3.25571,-2.11352 0.83829,-0.93238 0.92767,-1.13515 0.86509,-1.96265 -0.14225,-1.88125 -0.36073,-3.10392 -0.64882,-3.63082 -0.16286,-0.29788 -0.39827,-0.76625 -0.52313,-1.04083 -0.12486,-0.27458 -0.65323,-0.68776 -1.17415,-0.91819 -0.52092,-0.23043 -1.07067,-0.56781 -1.22165,-0.74974 -0.33306,-0.40131 -1.9328,-1.20786 -3.21264,-1.61974 -0.77196,-0.24844 -1.23343,-0.25574 -2.59966,-0.0411 -0.9136,0.1435 -2.3435,0.36487 -3.17756,0.49195 -3.72022,0.56682 -6.45618,3.82232 -6.37635,7.58718 0.0393,1.85157 0.63387,3.1406 1.54057,3.33975 0.37805,0.083 0.70842,0.31602 0.76729,0.54111 0.0604,0.23116 0.22977,0.3468 0.40778,0.27849 0.43313,-0.16621 2.18921,0.70682 2.46743,1.22668 0.12851,0.24012 0.18494,0.43658 0.12541,0.43658 -0.0595,0 0.07,0.41592 0.28794,0.92426 0.31732,0.74029 0.38602,1.39789 0.34515,3.30374 -0.0281,1.30871 0.007,2.47697 0.0784,2.59612 0.0712,0.11915 0.1475,0.5091 0.16951,0.86655 0.022,0.35746 0.14817,1.1861 0.28034,1.84143 0.13217,0.65533 0.27783,1.58146 0.32368,2.05807 0.11862,1.23302 0.74322,2.66891 1.22785,2.82273 0.22716,0.0721 0.41302,0.19876 0.41302,0.28148 0,0.0827 0.53798,0.14476 1.1955,0.13788 0.88624,-0.009 1.30518,-0.1222 1.61948,-0.4365 z m -1.92992,-1.05019 c -0.13815,-0.16646 -0.2729,-1.04453 -0.29944,-1.95127 -0.0281,-0.95822 -0.13809,-1.62529 -0.26278,-1.59292 -0.11798,0.0306 -0.21452,0.25065 -0.21452,0.48896 0,0.2383 -0.0818,0.55987 -0.18176,0.71459 -0.5014,0.77601 -1.44302,-1.46523 -1.44302,-3.43464 0,-1.89817 0.72255,-2.21686 1.68094,-0.74142 0.26918,0.41442 0.59099,0.75348 0.71513,0.75348 0.12413,0 0.37791,-0.36557 0.56395,-0.81239 0.18604,-0.44682 0.44915,-0.88402 0.5847,-0.97156 0.38101,-0.24606 1.1781,-0.19436 1.35244,0.0877 0.21165,0.34246 0.12598,2.37888 -0.16705,3.97093 -0.24294,1.31996 -0.60737,2.07557 -0.62166,1.289 -0.004,-0.23235 -0.147,-0.66617 -0.31728,-0.96404 -0.28792,-0.50367 -0.31014,-0.41945 -0.31728,1.20234 -0.009,2.0202 -0.41183,2.75711 -1.07237,1.96121 z m -0.57606,-8.88936 c -0.32319,-0.23632 -0.41896,-0.63872 -0.4753,-1.99696 -0.0388,-0.93556 -0.12424,-2.80069 -0.18985,-4.14475 -0.12564,-2.57382 0.007,-3.08055 0.80834,-3.08055 0.37724,0 0.9437,0.6983 0.73541,0.90658 -0.0533,0.0534 0.004,0.43174 0.12818,0.84088 0.39175,1.2942 0.45361,5.9118 0.0908,6.78007 -0.39546,0.94648 -0.58728,1.06789 -1.0976,0.69473 z m -5.9416,-7.91953 c -0.17873,-0.10355 -0.48988,-0.23881 -0.69145,-0.30058 -0.96041,-0.2943 -1.50863,-2.36668 -0.96821,-3.66008 0.39473,-0.94472 1.50502,-1.58824 2.58619,-1.49893 0.67135,0.0555 0.9152,0.21415 1.35866,0.88427 0.65064,0.98318 1.01511,2.13248 0.73179,2.30758 -0.11037,0.0682 -0.20068,0.34027 -0.20068,0.60456 0,0.73542 -1.15578,1.87943 -1.88337,1.86419 -0.33438,-0.007 -0.7542,-0.0975 -0.93293,-0.20101 z m 11.14937,-0.42567 c -0.61459,-0.24911 -0.96659,-0.72489 -1.07261,-1.44973 -0.0498,-0.34036 -0.13855,-0.8392 -0.19726,-1.10854 -0.16177,-0.74205 0.44153,-1.95038 1.15905,-2.32142 1.21531,-0.62846 2.94691,-0.23599 3.49745,0.79269 0.30226,0.56478 0.28494,2.63789 -0.0269,3.22058 -0.47281,0.88346 -2.2115,1.33184 -3.35972,0.86642 z m 62.35235,18.25879 c 0.83932,-0.42707 0.52963,-0.75014 -0.56175,-0.58602 -1.06975,0.16087 -1.33934,0.35701 -1.15411,0.8397 0.14663,0.38213 0.59721,0.31551 1.71586,-0.25368 z m -19.7122,-0.21085 c 0.51841,-0.23225 0.77812,-0.47423 0.70408,-0.65599 -0.0645,-0.1584 -0.17322,-0.42571 -0.24154,-0.59401 -0.0754,-0.18572 0.0311,-0.33871 0.2708,-0.3892 0.55293,-0.11644 2.01981,0.26952 2.01981,0.53145 0,0.12292 0.13818,0.10213 0.3191,-0.048 0.3433,-0.28492 1.52924,-0.35164 2.24007,-0.12603 0.24052,0.0763 0.49557,0.0445 0.56678,-0.0707 0.0805,-0.13019 0.38487,-0.13624 0.80414,-0.016 0.42365,0.1215 0.82724,0.11184 1.08474,-0.026 0.22555,-0.1207 0.50556,-0.16046 0.62225,-0.0883 0.11669,0.0721 0.21216,-0.0209 0.21216,-0.20662 0,-0.18576 -0.0731,-0.31916 -0.16248,-0.29645 -0.3028,0.077 -3.40957,-0.5086 -3.79998,-0.71623 -0.21337,-0.11346 -0.45708,-0.16774 -0.5416,-0.12062 -0.0845,0.0471 -0.73859,0.0146 -1.4535,-0.0723 -0.92985,-0.11301 -1.54648,-0.0692 -2.16639,0.15389 -0.98392,0.35411 -1.26585,0.41505 -2.91898,0.63094 -0.79801,0.10421 -1.3115,0.30254 -1.56997,0.60638 l -0.38409,0.45152 -0.51039,-0.57079 c -0.40587,-0.4539 -0.79419,-0.60468 -1.89625,-0.73631 -1.88101,-0.22466 -3.64644,-0.16583 -4.00715,0.13354 -0.1638,0.13593 -0.43581,0.1942 -0.60447,0.12948 -0.16866,-0.0647 -0.48674,0.0188 -0.70684,0.18551 -0.22009,0.16676 -0.75064,0.30629 -1.17899,0.31008 -0.50846,0.005 -0.92108,0.16409 -1.18863,0.45973 -0.39309,0.43436 -0.39395,0.46445 -0.0209,0.73721 0.30959,0.22638 1.12183,0.29754 1.12183,0.0983 0,-0.0246 0.87738,-0.0684 1.94974,-0.0975 1.07236,-0.0291 2.57786,-0.0819 3.34555,-0.1173 0.92498,-0.0427 1.42432,0.0211 1.48036,0.18925 0.0465,0.13954 0.22268,0.2537 0.39147,0.2537 0.1688,0 0.30691,0.0872 0.30691,0.19382 0,0.10972 0.32952,0.11951 0.75939,0.0226 0.43018,-0.097 0.81233,-0.0856 0.88152,0.0263 0.0672,0.10869 0.21211,0.142 0.32209,0.074 0.10997,-0.068 0.34096,-0.0447 0.5133,0.0518 0.50322,0.28162 2.54355,0.10876 3.43609,-0.29111 z m -13.07511,-4.50209 c 0.14293,-0.17222 0.65709,-0.31423 1.16388,-0.32145 0.4993,-0.007 3.29627,-0.0682 6.21548,-0.13566 7.10682,-0.16431 8.9905,-0.13769 8.9905,0.12707 0,0.0245 0.24371,0.0767 0.54159,0.11596 1.2503,0.16495 2.10435,0.14409 2.84777,-0.0696 0.5016,-0.14415 1.16169,-0.15744 1.80938,-0.0364 1.88416,0.352 5.06457,0.23395 5.59677,-0.20774 0.20626,-0.17118 0.35142,-0.17015 0.52528,0.004 0.13213,0.13214 0.4109,0.17477 0.61947,0.0947 0.35478,-0.13614 0.35223,-0.17051 -0.0396,-0.53322 -0.23035,-0.21323 -1.07686,-0.6591 -1.88113,-0.99081 -0.80427,-0.33171 -1.46231,-0.68963 -1.46231,-0.79538 0,-0.10574 -0.23011,-0.19226 -0.51137,-0.19226 -0.28125,0 -0.89054,-0.25676 -1.35399,-0.57058 -2.21164,-1.49761 -3.51718,-2.49606 -3.62244,-2.77038 -0.15408,-0.4015 0.55049,-1.01635 1.06784,-0.93188 0.83792,0.13682 2.25424,0.9007 2.3749,1.28089 0.0685,0.21576 0.24906,0.39229 0.40129,0.39229 0.15223,0 0.45513,0.19707 0.67311,0.43793 0.25861,0.28576 0.62787,0.42279 1.06261,0.39435 1.60487,-0.10499 2.26863,0.0523 3.34473,0.7925 1.10814,0.76227 1.81534,0.92378 2.40688,0.54969 0.27025,-0.1709 0.24352,-0.28256 -0.17404,-0.72703 -0.27133,-0.28881 -0.82933,-0.70607 -1.24,-0.92723 -0.41066,-0.22116 -0.74666,-0.47742 -0.74666,-0.56948 0,-0.092 -0.21935,-0.16942 -0.48744,-0.17192 -0.64853,-0.006 -3.19542,-1.65126 -3.19542,-2.06414 0,-0.42259 1.01069,-0.80297 1.59924,-0.60189 0.25236,0.0862 0.54776,0.13217 0.65646,0.10212 0.31231,-0.0864 1.51762,0.45572 1.70872,0.76847 0.21251,0.34778 0.72278,0.36972 0.92665,0.0399 0.0877,-0.14193 -0.42702,-0.77442 -1.23289,-1.51492 -1.28687,-1.18249 -1.69604,-1.41332 -2.25003,-1.26937 -0.49716,0.12917 -1.04811,-0.004 -1.42432,-0.34458 -0.2301,-0.20823 -0.5559,-0.30342 -0.76452,-0.22336 -0.19996,0.0767 -0.57887,-0.002 -0.84204,-0.17401 -0.4359,-0.28561 -0.50857,-0.63542 -0.34851,-1.67767 0.0384,-0.25009 1.83405,-0.055 1.92199,0.20882 0.047,0.14084 0.2283,0.25607 0.40302,0.25607 0.17471,0 0.62221,0.15749 0.99444,0.34998 0.37223,0.19248 1.04784,0.34485 1.50136,0.33859 0.45351,-0.006 0.88119,0.0802 0.9504,0.19221 0.14187,0.22956 0.96608,-0.13417 0.96608,-0.42634 0,-0.0991 -0.3852,-0.43514 -0.85601,-0.7467 -0.65623,-0.43428 -0.8915,-0.75572 -1.00812,-1.37735 -0.0837,-0.44597 -0.25902,-0.92429 -0.38967,-1.06292 -1.6745,-1.77679 -2.08656,-3.16115 -0.97927,-3.28995 0.44177,-0.0514 0.80305,0.19851 1.73311,1.19876 0.64625,0.69502 1.32799,1.4964 1.51497,1.78084 0.42554,0.64732 0.85154,0.42449 0.85154,-0.44542 0,-0.41316 -0.30389,-1.05348 -0.84216,-1.77448 -0.84828,-1.13624 -1.7575,-2.77253 -1.7575,-3.1629 0,-0.11586 0.20327,-0.27518 0.45171,-0.35403 0.49058,-0.15571 1.49804,0.60209 1.49804,1.1268 0,0.15796 0.0999,0.2872 0.222,0.2872 0.1221,0 0.31955,0.25658 0.43878,0.57019 0.21001,0.55235 0.23017,0.55808 0.64456,0.18306 0.59088,-0.53474 0.53881,-1.01674 -0.26697,-2.47131 -0.67806,-1.22402 -0.68574,-1.26786 -0.31996,-1.8261 0.54612,-0.83349 1.15571,-0.71889 2.14315,0.4029 1.29525,1.47148 1.9481,1.22943 1.47026,-0.54511 -0.23323,-0.86615 -0.21376,-0.94967 0.36131,-1.54991 0.69232,-0.72262 1.42698,-0.6978 2.07682,0.0702 0.46258,0.54667 0.47539,0.96856 0.054,1.77658 -0.5541,1.06242 0.0929,1.35564 1.2201,0.55298 0.41173,-0.29318 0.7682,-0.39553 1.00832,-0.28951 0.20428,0.0902 0.54558,0.17242 0.75844,0.18271 0.48919,0.0236 0.83057,0.55306 0.67629,1.04881 -0.16256,0.52237 0.38942,0.69106 1.41198,0.43151 0.4623,-0.11734 0.94304,-0.15 1.06832,-0.0726 0.12528,0.0774 0.61544,0.10381 1.08924,0.0586 0.64244,-0.0613 0.83096,-0.16168 0.74144,-0.39494 -0.066,-0.17204 -0.22917,-0.27641 -0.36256,-0.23194 -0.1334,0.0445 -0.68194,-0.18165 -1.21898,-0.50247 -4.31127,-2.57547 -5.52364,-3.3933 -5.83067,-3.93319 -0.18981,-0.33375 -0.42865,-0.60744 -0.53077,-0.6082 -0.44507,-0.003 -2.96237,-1.35178 -3.1503,-1.68759 -0.175,-0.31272 -0.5504,-0.36846 -2.41701,-0.35891 l -2.20983,0.0113 -0.67632,0.78689 c -0.37198,0.43278 -0.9038,1.08623 -1.18182,1.4521 -0.27803,0.36588 -1.03356,0.90676 -1.67895,1.20198 -0.6454,0.29521 -1.17346,0.62368 -1.17346,0.72994 0,0.31081 -2.17104,1.68789 -3.46621,2.19859 -0.65533,0.25841 -1.45028,0.60719 -1.76654,0.77507 -0.31626,0.16788 -0.76637,0.30523 -1.00024,0.30523 -0.35202,0 -1.56599,1.41711 -1.56599,1.82804 0,0.0573 -0.36558,0.49306 -0.8124,0.96832 -0.44682,0.47525 -0.92709,0.991 -1.06728,1.1461 -0.14019,0.1551 -0.60057,0.52572 -1.02307,0.82359 -0.4225,0.29788 -0.77087,0.66346 -0.77415,0.8124 -0.003,0.14894 -0.17656,0.27455 -0.38508,0.27914 -0.20851,0.005 -0.57409,0.31222 -0.81239,0.68363 -0.2383,0.3714 -0.72574,0.83274 -1.0832,1.02519 -2.69586,1.45141 -2.97882,1.65592 -3.38052,2.44332 l -0.41946,0.8222 h 0.74986 c 0.41242,0 0.80395,-0.0875 0.87008,-0.19453 0.20442,-0.33076 1.6091,-0.11582 2.09056,0.3199 0.26815,0.24267 0.68467,0.38344 1.00885,0.34096 0.77973,-0.10218 1.57198,0.37756 1.57198,0.95191 0,0.56494 -0.53671,1.10659 -0.75174,0.75867 -0.0772,-0.12494 -0.36641,-0.22716 -0.64267,-0.22716 -0.27626,0 -0.63066,-0.15468 -0.78757,-0.34374 -0.20666,-0.24902 -0.49755,-0.30834 -1.05556,-0.21529 -1.49555,0.24942 -2.5077,0.28039 -2.88251,0.0882 -0.2863,-0.14678 -0.49849,-0.0559 -0.86656,0.37122 -0.26808,0.31108 -0.99923,1.08602 -1.62478,1.7221 -0.63896,0.64972 -1.13735,1.35453 -1.13735,1.60842 0,0.53868 -0.1043,0.5296 1.45174,0.12639 0.69094,-0.17903 1.36448,-0.47149 1.49677,-0.64991 0.30922,-0.41705 0.60939,-0.41103 0.9666,0.0194 0.24547,0.29578 0.166,0.44778 -0.56923,1.08875 -0.75183,0.65545 -0.96273,0.73213 -1.75474,0.63806 -0.59283,-0.0704 -0.93607,-0.0168 -1.00524,0.15693 -0.0578,0.14511 -0.48132,0.45683 -0.94123,0.69272 -1.36859,0.70195 -2.02329,1.24679 -2.80436,2.33376 -0.40689,0.56625 -0.7398,1.07805 -0.7398,1.13735 0,0.22027 0.38864,0.0977 0.63627,-0.20069 z m 22.01642,-1.22844 c -0.98444,-0.51046 -1.24181,-0.55329 -2.5053,-0.41692 -2.43204,0.2625 -3.68286,-4e-5 -3.68286,-0.77301 0,-0.26383 0.51376,-0.66446 0.92071,-0.71797 0.0894,-0.0118 0.18685,-0.0339 0.21664,-0.0493 0.0538,-0.0278 0.19821,-0.0448 2.16558,-0.25615 0.56553,-0.0607 1.08407,-0.0201 1.15232,0.0904 0.0683,0.11043 0.22073,0.14106 0.33884,0.0681 0.11811,-0.073 0.47695,-0.035 0.79743,0.0845 0.32047,0.11946 0.77765,0.29055 1.01596,0.38021 0.2383,0.0897 0.50639,0.14755 0.59575,0.12863 0.0894,-0.0189 0.16248,0.0712 0.16248,0.2003 0,0.12908 0.11717,0.19563 0.26039,0.1479 0.14321,-0.0477 0.43759,0.0649 0.65417,0.25037 0.21658,0.18545 0.56247,0.33824 0.76865,0.33954 0.25479,0.002 0.37486,0.17584 0.37486,0.54397 0,0.50408 -0.074,0.54183 -1.06924,0.545 -0.73634,0.002 -1.41082,-0.17371 -2.16638,-0.56549 z m -14.77281,-0.94774 c -0.26832,-0.69923 0.79238,-1.24126 2.95205,-1.50854 0.29787,-0.0369 0.54159,-0.0871 0.54159,-0.11154 0,-0.0738 0.81059,-0.21927 1.79134,-0.32144 0.74201,-0.0773 1.00961,-0.005 1.35399,0.36436 0.82693,0.88761 0.43287,1.21595 -1.6404,1.36685 -1.72149,0.12529 -2.5271,0.21487 -4.04823,0.45018 -0.63595,0.0984 -0.84034,0.0468 -0.95034,-0.23987 z m 23.5802,-23.17581 c -0.23914,-0.30402 -0.5307,-0.55276 -0.6479,-0.55276 -0.1172,0 -0.33851,-0.15112 -0.49181,-0.33583 -0.22991,-0.27703 -0.21749,-0.39705 0.0709,-0.68547 0.28842,-0.28842 0.40843,-0.30083 0.68546,-0.0709 0.18471,0.1533 0.33583,0.40527 0.33583,0.55994 0,0.15467 0.29807,0.34668 0.66237,0.4267 0.52006,0.11422 0.64806,0.24544 0.59576,0.61075 -0.0956,0.66775 -0.70401,0.69166 -1.21064,0.0476 z m -70.8883,17.86084 c -0.4303,-0.32835 -0.55554,-0.35082 -0.60946,-0.10934 -0.0373,0.16717 0.0453,0.51541 0.18363,0.77386 0.23447,0.43811 0.2757,0.44551 0.60945,0.10933 0.33307,-0.33548 0.3203,-0.38932 -0.18362,-0.77385 z m 12.3484,-0.39649 c 0,-0.21845 -0.0642,-0.46132 -0.14255,-0.53972 -0.22981,-0.22981 -0.7094,0.28961 -0.57963,0.62777 0.17161,0.44721 0.72218,0.38008 0.72218,-0.0881 z m -11.27057,111.1937 c -0.47026,-1.23687 -0.0885,-1.6361 1.46064,-1.52755 1.22831,0.0861 1.57766,0.2367 1.57766,0.68026 0,0.29243 -0.82349,0.88689 -1.11657,0.80602 -0.0779,-0.0215 -0.26048,0.10402 -0.40565,0.27893 -0.4367,0.52619 -1.27567,0.39467 -1.51608,-0.23766 z"
       id="path1" /></g></svg>
