<?xml version="1.0" encoding="UTF-8" standalone="no"?>
<!-- Created with Inkscape (http://www.inkscape.org/) -->

<svg
   version="1.1"
   id="svg1"
   width="666.66669"
   height="666.66669"
   viewBox="0 0 666.66669 666.66669"
   sodipodi:docname="download (6).jpg"
   xml:space="preserve"
   xmlns:inkscape="http://www.inkscape.org/namespaces/inkscape"
   xmlns:sodipodi="http://sodipodi.sourceforge.net/DTD/sodipodi-0.dtd"
   xmlns="http://www.w3.org/2000/svg"
   xmlns:svg="http://www.w3.org/2000/svg"><defs
     id="defs1" /><sodipodi:namedview
     id="namedview1"
     pagecolor="#505050"
     bordercolor="#eeeeee"
     borderopacity="1"
     inkscape:showpageshadow="0"
     inkscape:pageopacity="0"
     inkscape:pagecheckerboard="0"
     inkscape:deskcolor="#505050"><inkscape:page
       x="0"
       y="0"
       width="666.66669"
       height="666.66669"
       id="page2"
       margin="0"
       bleed="0" /></sodipodi:namedview><g
     inkscape:groupmode="layer"
     inkscape:label="Image"
     id="g1"><path
       style="fill:#000000"
       d="m 343.33334,522.59292 c -9.53333,-0.52556 -42.23333,-1.03944 -72.66667,-1.14196 -59.39189,-0.20008 -73.78521,-1.05822 -94.23264,-5.6182 -11.94298,-2.66341 -16.28203,-2.89557 -49.10069,-2.62713 -31.021812,0.25373 -38.484061,-0.0941 -53.963563,-2.51557 -24.842024,-3.88602 -28.365609,-4.80609 -31.036442,-8.10416 -3.512874,-4.33786 -3.14658,-14.85614 0.666666,-19.14357 2.732741,-3.07255 4.425385,-3.49329 19.000001,-4.72283 8.8,-0.74239 36.100001,-4.32365 60.666668,-7.95836 44.92203,-6.64635 62.46517,-8.91008 99.33334,-12.81776 11,-1.16589 28.1,-3.2574 38,-4.64779 30.47874,-4.28055 40.50361,-5.13088 86,-7.2947 69.0455,-3.28382 98.45905,-6.4665 136.33683,-14.75224 10.85368,-2.37423 17.60235,-3.18096 21.97853,-2.62727 13.16655,1.66588 19.35978,-5.51788 28.00529,-32.48434 2.45214,-7.64854 2.56964,-9.42503 1.13751,-17.1975 -2.7559,-14.95677 -13.32081,-36.29244 -21.67947,-43.78134 -1.52949,-1.37034 -6.67721,-7.46971 -11.43937,-13.55416 -8.32301,-10.63402 -9.85554,-14.69174 -4.21948,-11.17195 2.57837,1.61021 2.599,1.54338 0.63307,-2.05048 -3.45718,-6.31997 -5.46758,-8.23376 -11.54673,-10.99187 l -5.87284,-2.6645 4.47598,-0.0293 c 3.02476,-0.0198 4.26863,-0.56966 3.83645,-1.69595 -0.35174,-0.91667 -1.99378,-7.06667 -3.64897,-13.66667 -2.48607,-9.91311 -2.86434,-14.05149 -2.17511,-23.79646 0.74383,-10.51694 0.54566,-12.16345 -1.82701,-15.17982 -1.63265,-2.07557 -2.66134,-5.40576 -2.66134,-8.61555 0,-6.60024 1.79766,-5.60748 3.9836,2.19993 2.8913,10.32672 4.47574,5.68959 3.57817,-10.47208 -0.95033,-17.11169 0.72939,-22.81219 8.7113,-29.56368 2.53961,-2.14812 6.4819,-6.66261 8.76063,-10.03219 7.14581,-10.56657 17.59872,-18.46246 32.40729,-24.47972 12.92892,-5.2535 13.7963,-3.9342 1.47563,2.24447 -19.79749,9.9282 -41.58329,30.24426 -41.58329,38.77795 0,2.43246 0.70726,2.11348 5.49652,-2.47892 6.10977,-5.85864 5.5194,-3.60065 -1.90094,7.27064 -4.23461,6.20398 -8.92891,17.28503 -8.92891,21.077 0,1.63003 1.51938,0.79337 5.47399,-3.01431 l 5.47399,-5.27059 -4.15294,8.31964 c -14.79376,29.63653 -9.85187,54.69233 19.92349,101.01369 12.52136,19.47941 17.18252,29.53974 19.37071,41.80841 2.75495,15.44638 2.45183,24.29298 -1.28576,37.52493 -0.90399,3.20034 -0.85901,3.23007 1.12748,0.74516 2.65648,-3.32301 2.67791,-0.45682 0.0348,4.65439 -3.38399,6.54392 0.1175,4.40974 4.84038,-2.95024 5.43671,-8.47237 9.09262,-18.73952 9.15033,-25.69746 0.0853,-10.28661 -4.48518,-23.13845 -18.09294,-50.87583 -22.8067,-46.488 -28.00473,-66.47817 -20.83327,-80.11889 4.46973,-8.50179 5.48848,-7.93818 3.42707,1.89596 -1.03023,4.91482 -1.50556,10.60965 -1.05629,12.65519 1.47147,6.69953 7.24466,9.82966 7.27865,3.94636 0.007,-1.24006 1.44913,-5.33896 3.20437,-9.10868 2.57134,-5.52246 4.1149,-7.15884 7.94522,-8.42296 2.97856,-0.98301 5.56182,-1.11676 6.91738,-0.35815 1.79967,1.00714 1.45298,1.50507 -2.06152,2.96083 -6.4311,2.66384 -7.64147,5.85132 -8.61663,22.69172 -1.2251,21.15655 2.36008,39.14602 8.69857,43.64699 2.66339,1.89128 12.15682,29.41741 15.20591,44.08944 4.80323,23.1128 0.24299,41.46295 -14.03369,56.47085 -2.89995,3.04849 -5.27114,5.59504 -5.26931,5.65901 0.002,0.064 3.8315,0.17 8.51038,0.23563 9.9006,0.13886 16.10174,3.09924 19.81689,9.46047 2.66981,4.57135 4.88187,23.84058 4.95784,43.18779 0.04,10.19062 -0.28139,11.73145 -2.9551,14.16672 -6.14832,5.60003 -14.02979,7.70034 -36.56867,9.74508 -8.19611,0.74355 -36.09611,4.62768 -62.00001,8.63138 -67.0516,10.36349 -76.48351,11.03823 -120.43133,8.61548 z m 34.39111,-8.4581 c 16.10253,-1.70478 19.6608,-2.52734 18.022,-4.16614 -1.09537,-1.09537 -37.07977,3.68241 -37.07977,4.92322 0,1.35696 -1.45729,1.41485 19.05777,-0.75708 z m -165.15613,-2.29565 3.5946,-2.82752 8.75943,2.87552 c 4.81769,1.58153 8.97405,2.6609 9.23636,2.39859 0.26231,-0.26231 -3.14694,-2.20898 -7.5761,-4.32592 -6.10145,-2.91623 -8.60188,-3.51675 -10.31782,-2.47801 -1.24563,0.75405 -3.76478,0.93892 -5.59812,0.41083 -1.83333,-0.52809 -6.74792,-1.01997 -10.92131,-1.09307 -9.08111,-0.15906 -12.13331,-2.79957 -3.23607,-2.79957 10.80901,0 9.86855,-4.78893 -2.58778,-13.17731 -4.7729,-3.21419 -8.43689,-6.08509 -8.1422,-6.37978 0.29469,-0.29469 5.06938,1.53022 10.61043,4.05535 5.54104,2.52514 11.47014,5.02056 13.17578,5.54539 l 3.10115,0.95424 -3.23242,-3.49895 c -4.2271,-4.57565 -3.20167,-4.42253 7.93238,1.18448 9.76971,4.91996 11.26712,6.75223 6.30004,7.70893 -1.65,0.31781 1.40383,0.65954 6.78628,0.7594 7.77058,0.14418 10.24224,0.69991 12,2.69812 4.85481,5.51891 20.89577,7.82033 62.88327,9.02196 19.26858,0.55144 28.56487,0.0849 53.33333,-2.67634 16.49842,-1.83931 35.39713,-3.68065 41.99713,-4.09187 6.6,-0.41122 18,-1.12196 25.33333,-1.57943 7.33334,-0.45747 13.93334,-1.15058 14.66667,-1.54025 0.73333,-0.38967 0.65471,0.0281 -0.17471,0.92849 -1.25482,1.36211 -22.3487,4.98921 -31.82529,5.47237 l -2.66667,0.13596 2.66667,1.09121 c 7.34628,3.00615 60.9499,-5.80741 55.56425,-9.13593 -0.85036,-0.52555 4.0511,-2.3049 10.89214,-3.95412 6.84103,-1.64922 15.91944,-4.032 20.17425,-5.29509 l 7.736,-2.29651 -5.51665,-3.65075 c -3.03416,-2.00791 -5.51665,-4.11287 -5.51665,-4.67768 0,-0.56482 1.95,-2.20631 4.33333,-3.64775 l 4.33333,-2.62081 -4,-0.35208 c -2.2,-0.19364 -6.00208,-0.6806 -8.44907,-1.08213 l -4.44907,-0.73005 6.98204,-7.38247 c 4.95014,-5.23405 6.49585,-7.68295 5.31141,-8.41497 -1.28042,-0.79134 -1.31609,-1.69497 -0.15272,-3.86874 1.24176,-2.32026 1.14552,-2.83623 -0.52901,-2.83623 -1.38193,0 -2.04691,-1.28949 -2.04691,-3.96926 0,-2.73176 -1.00985,-4.63094 -3.23905,-6.09157 -3.00025,-1.96584 -3.66376,-1.92724 -9,0.52358 l -5.76095,2.64589 7.66666,0.11235 c 8.23815,0.12072 8.40693,0.2378 6.22378,4.31705 -1.05537,1.97197 -2.28384,2.48499 -4.57413,1.91016 -1.72219,-0.43224 -4.78376,-0.15761 -6.80349,0.61029 -2.94366,1.11918 -3.90104,0.98734 -4.82545,-0.66448 -1.58977,-2.84076 -20.70056,-2.79696 -30.44537,0.0698 -6.18662,1.81998 -8.87811,3.81163 -18.46896,13.66667 l -11.22696,11.53621 6.39277,-11.77276 6.39277,-11.77277 -10.49915,0.75237 c -5.77453,0.41381 -16.36385,1.11865 -23.53184,1.56632 -12.78466,0.79845 -13.34858,0.97747 -29.63049,9.40664 -17.34993,8.98209 -26.00348,12.94556 -26.00348,11.91005 0,-0.33693 6.3,-4.39028 14,-9.00744 13.08648,-7.84707 17.91119,-12.01632 11,-9.5056 -3.16882,1.15118 -9.00073,1.24476 -46,0.73813 -19.41558,-0.26586 -23,-0.62663 -23,-2.31494 0,-1.71274 3.92592,-2 27.33333,-2 19.6736,0 27.33334,-0.42871 27.33334,-1.52981 0,-1.13299 -7.86813,-1.29108 -30.33334,-0.60949 -35.46285,1.07595 -39.23012,1.523 -46.33333,5.49826 -2.93334,1.64161 -7.3507,3.35589 -9.81636,3.8095 -2.46566,0.45361 -9.79252,3.21548 -16.2819,6.13749 -6.48938,2.92201 -14.37202,5.65368 -17.51697,6.07038 l -5.71811,0.75762 4.66667,-2.77266 4.66667,-2.77266 -5.66667,0.82288 c -4.74593,0.68918 -5.66667,0.45865 -5.66667,-1.41875 0,-2.01116 -1.33655,-2.14466 -13,-1.2985 -7.15,0.51872 -13.9,1.69872 -15,2.62222 -1.1,0.9235 -4.1984,2.07259 -6.88535,2.55354 -4.44267,0.79523 -4.82123,0.6293 -4.17782,-1.83111 0.86855,-3.32136 0.72886,-3.32322 -7.45135,-0.0989 -7.78119,3.06705 -28.03744,5.36967 -47.96009,5.45182 -9.62131,0.0397 -15.90973,0.7328 -19.52539,2.15213 -2.93333,1.15148 -8.333334,2.48484 -12.000001,2.96302 l -6.666666,0.86942 6.666666,2.53217 c 12.748121,4.84206 11.536111,6.25008 -1.785459,2.07421 -9.845307,-3.08619 -21.285424,-3.32651 -33.520054,-0.70415 -8.782475,1.88242 -13.361155,5.27697 -13.361155,9.90572 0,3.59565 4.014888,8.29125 8.798099,10.28981 5.213299,2.17825 14.428184,2.6108 11.201902,0.52582 -1.1,-0.71088 -1.4,-1.37268 -0.666667,-1.47067 0.733334,-0.098 -0.466666,-0.58524 -2.666666,-1.08278 -3.908872,-0.88399 -3.837134,-0.95991 3.148917,-3.33219 4.63397,-1.57358 9.248087,-2.19099 13.115954,-1.75503 8.494081,0.95741 10.402994,3.46737 2.184416,2.87221 -3.547108,-0.25687 -5.249287,-0.1288 -3.78262,0.2846 1.466666,0.4134 9.866667,3.15311 18.666667,6.08825 15.838297,5.28267 16.094327,5.32053 25.333337,3.74574 14.31536,-2.44005 15.33333,-2.79082 15.33333,-5.28357 0,-1.66859 -2.24161,-2.98973 -8.0637,-4.75251 -4.43503,-1.34282 -8.41097,-3.00339 -8.83541,-3.69015 -1.34151,-2.17061 10.18274,0.36116 26.23244,5.76304 19.69435,6.62856 30.39942,9.32438 42.00001,10.57673 17.53625,1.89313 22.66607,1.61165 26.56831,-1.45785 z m 275.43169,-11.83915 c 1.1,-0.71088 1.4,-1.2925 0.66667,-1.2925 -0.73333,0 -2.23333,0.58162 -3.33333,1.2925 -1.1,0.71087 -1.4,1.29249 -0.66667,1.29249 0.73333,0 2.23333,-0.58162 3.33333,-1.29249 z M 421.66668,448.4644 c 6.49575,-0.61349 9,-1.37785 9,-2.74704 0,-1.16958 -0.89477,-1.64362 -2.33333,-1.23618 -1.28334,0.36347 -6.68334,1.0648 -12,1.5585 -5.31667,0.49371 -9.66667,1.43675 -9.66667,2.09566 0,1.41322 2.85696,1.47589 15,0.32906 z m 92.33063,-26.46439 c 2.58314,-6.31399 5.85498,-20.4352 5.92584,-25.57587 0.0645,-4.67749 -0.54707,-6.02016 -3.79563,-8.33334 -7.4321,-5.29212 -12.89254,-2.05071 -11.74292,6.97082 0.49707,3.90072 0.63332,4.01117 1.56872,1.27173 1.37784,-4.03514 4.24898,-3.80302 5.05409,0.4086 0.69865,3.6548 -1.86463,7.25806 -5.16324,7.25806 -1.08095,0 -3.43809,-1.47272 -5.23809,-3.27273 -5.93372,-5.93371 -3.25967,-17.41897 4.83633,-20.77245 5.52894,-2.29016 13.77381,0.40909 17.77015,5.81768 5.61681,7.6017 1.70861,27.95501 -6.86714,35.76298 -3.09138,2.81462 -3.32878,2.86158 -2.34811,0.46452 z m 42.90928,-10 c 1.55933,-2.56666 5.05036,-8.26666 7.75785,-12.66666 l 4.92269,-8 -0.7604,5.31224 c -0.84717,5.91847 -6.41764,14.61221 -11.45767,17.88183 l -3.29762,2.13926 z m -4.31257,-0.66666 c 0.55597,-1.46667 2.47098,-6.48675 4.25558,-11.15573 3.58806,-9.3873 4.35921,-17.9404 2.75088,-30.51094 -1.18977,-9.29904 0.30104,-10.96977 3.78196,-4.2384 2.22217,4.2972 2.86122,17.69588 1.17683,24.67425 -1.2226,5.06522 -6.84919,16.31953 -10.28105,20.56415 -2.11809,2.61972 -2.47865,2.76244 -1.6842,0.66667 z m 23.60383,-29.99522 c -1.33629,-2.19736 -2.94884,-3.54736 -3.58343,-3 -0.63459,0.54737 -0.21438,-0.50479 0.9338,-2.33812 3.83502,-6.12345 13.11846,-4.66976 13.11846,2.05421 0,8.25112 -6.25488,10.21318 -10.46883,3.28391 z m 4.13624,-5.53738 c -0.85783,-0.85783 -2.51444,-1.05305 -3.91112,-0.46092 -2.143,0.90855 -2.03782,1.135 0.91038,1.95983 3.95208,1.1057 5.05462,0.55497 3.00074,-1.49891 z m -25.37341,-28.13407 c -0.79577,-1.65 -1.48746,-2.25 -1.53709,-1.33334 -0.0496,0.91667 -0.69024,1.66667 -1.42357,1.66667 -0.73334,0 -1.37714,-2.85 -1.43067,-6.33333 -0.0535,-3.48334 -0.5437,-9.46565 -1.08925,-13.29403 -1.23837,-8.69015 1.34131,-7.46017 4.32744,2.06331 1.78899,5.70551 3.94298,20.23072 3.00008,20.23072 -0.22006,0 -1.05118,-1.35 -1.84694,-3 z m -46.16864,-4.02194 c -5.65435,-3.23331 -10.73922,-9.13648 -9.93868,-11.5381 0.27556,-0.82669 4.07751,2.11113 8.44877,6.52849 4.37126,4.41735 7.66653,8.02168 7.32281,8.00961 -0.34371,-0.0121 -2.96851,-1.36206 -5.8329,-3 z m 60.54131,-34.3114 c -1.5407,-0.99567 -1.0814,-1.30804 2,-1.36016 5.70818,-0.0966 9.90506,-2.82548 13.51364,-8.7869 l 3.13937,-5.18627 0.007,4.88147 c 0.005,3.81872 -0.88629,5.63299 -4.09547,8.33334 -4.25608,3.58125 -10.82288,4.53646 -14.56437,2.11852 z m -67.80957,-17.18619 c -6.61044,-15.36637 -7.35654,-36.90221 -1.66096,-47.94302 3.77421,-7.31627 4.60492,-6.62544 2.0883,1.73667 -2.83748,9.42822 -2.50156,28.81371 0.71738,41.39966 1.46767,5.73853 2.44941,10.65276 2.18165,10.92053 -0.26776,0.26776 -1.76463,-2.48347 -3.32637,-6.11384 z m 61.43196,-2.22808 c -3.6526,-2.55839 -6.97389,-8.74296 -6.90234,-12.85285 0.0492,-2.825 0.21928,-2.75154 2.16213,0.93379 5.15198,9.7726 10.39953,11.97089 20.32025,8.51251 5.37551,-1.87392 6.17791,-1.11471 2.73155,2.58452 -3.31661,3.55997 -13.73491,4.02766 -18.31159,0.82203 z m 10.79811,-8.5977 c -2.84125,-1.14216 -5.75383,-5.11065 -5.75383,-7.83977 0,-0.74821 1.47272,0.11235 3.27272,1.91235 1.8,1.8 4.05,3.26938 5,3.26529 4.29058,-0.0185 11.50631,-2.91957 14.0708,-5.6572 3.43418,-3.66603 6.18128,-10.33537 4.25714,-10.33537 -0.73333,0 -1.88172,1.44239 -2.55198,3.2053 -3.21618,8.4592 -11.63468,11.06949 -19.74758,6.12305 -2.40105,-1.46392 -4.96392,-2.66168 -5.69525,-2.66168 -2.43601,0 -11.84334,-6.93086 -12.58682,-9.27335 -0.403,-1.26975 0.15437,-4.35269 1.2386,-6.85098 l 1.97132,-4.54234 0.0522,5.46002 c 0.0551,5.76595 2.30875,8.82344 7.71886,10.47213 2.41875,0.73709 3,0.39539 3,-1.76361 0,-1.4728 0.6,-3.04864 1.33333,-3.50187 0.73333,-0.45322 1.33333,0.0449 1.33333,1.10693 0,1.06204 1.08725,3.27367 2.4161,4.91474 1.83104,2.26123 3.16518,2.74601 5.50951,2.00194 2.1673,-0.68787 2.59373,-1.29062 1.42437,-2.01332 -1.10812,-0.68486 -0.12101,-1.54241 2.93724,-2.55172 12.22815,-4.03566 19.78674,-23.04617 13.7809,-34.66019 -2.54416,-4.91986 -10.29552,-11.63384 -16.35382,-14.16516 -3.46467,-1.44763 -4.44255,-2.4383 -3.41807,-3.46278 1.02448,-1.02448 3.66683,0.0473 9.23607,3.74623 10.41091,6.91466 11.13437,7.34407 11.13437,6.60878 0,-0.34757 -2.8979,-2.93928 -6.43978,-5.75936 -3.54187,-2.82009 -6.1885,-5.88126 -5.88138,-6.8026 0.7574,-2.2722 -9.3766,-6.59272 -21.77373,-9.283 -9.87296,-2.14251 -19.17847,-1.67508 -32.57178,1.63614 -2.35859,0.58312 -1.87608,0.0169 1.65007,-1.93627 14.56502,-8.06775 36.27147,-8.73885 50.83037,-1.57153 9.6109,4.73143 13.86126,8.83306 19.55199,18.86783 l 4.15308,7.32334 -0.82942,-5.33333 c -2.20619,-14.18607 -13.81086,-28.18024 -30.13066,-36.33478 -7.08895,-3.54215 -7.92146,-4.28132 -4.84777,-4.30423 5.08224,-0.0379 16.02057,5.72213 22.88871,12.05296 11.03546,10.17214 17.92962,28.80625 16.0938,43.49966 -0.97878,7.83388 -10.00695,34.44828 -13.48757,39.76037 -4.33916,6.6224 -16.41873,11.20676 -22.78543,8.64738 z m -101.53982,-4.71743 c -2.38947,-5.24434 -1.81673,-16.54779 1.17229,-23.13579 3.44264,-7.58779 4.56978,-6.43753 1.76319,1.79935 -1.58197,4.64283 -1.9661,8.89074 -1.40702,15.55945 0.42297,5.04518 0.60026,9.17306 0.39397,9.17306 -0.20629,0 -1.07138,-1.52823 -1.92243,-3.39607 z m 47.80845,-18.31342 c -0.0615,-2.85638 4.0572,-10.1951 6.80003,-12.11626 3.42384,-2.39815 11.38711,-2.85963 14.51084,-0.84092 1.56046,1.00845 1.20011,1.29699 -1.63968,1.31292 -6.13644,0.0344 -14.0917,4.01276 -16.95193,8.47748 -1.48324,2.31528 -2.70691,3.74033 -2.71926,3.16678 z m 57.97754,-5.23643 c 8.46752,-2.96798 12.802,-10.28945 10.03968,-16.95828 -0.88944,-2.1473 -2.46223,-4.22847 -3.49509,-4.62482 -1.75977,-0.67528 -2.74386,-4.80432 -1.14505,-4.80432 2.80561,0 8.70713,4.62743 9.39455,7.36635 2.35623,9.38797 -5.66991,20.74538 -14.50715,20.52839 l -4.28694,-0.10526 z m -29.97298,-9.05408 c 0.69825,-2.56667 2.54429,-5.71667 4.10231,-7 3.54444,-2.91955 12.2895,-3.05736 15.10876,-0.2381 3.17281,3.17281 2.55041,4.67848 -1.32489,3.2051 -6.78055,-2.57796 -10.73774,-1.60659 -15.07181,3.69966 l -4.08392,5 z m -72.392,-26.14275 c -0.5326,-0.5326 -0.96836,-4.10737 -0.96836,-7.94394 0,-15.90494 18.12177,-41.5204 35.6618,-50.4086 9.74379,-4.93756 10.0586,-4.35587 0.87825,1.62282 -16.98717,11.06289 -29.37881,29.39046 -32.94847,48.73173 -0.91017,4.93149 -2.09062,8.53059 -2.62322,7.99799 z m 138.31818,-2.59346 c -0.49317,-2.16175 -1.32254,-5.73046 -1.84303,-7.93046 -0.52049,-2.2 -1.76504,-4 -2.76567,-4 -1.00062,0 -2.22151,-1.50389 -2.71309,-3.34197 -2.28798,-8.55506 -8.89968,-16.58276 -18.63141,-22.62162 l -4.66667,-2.89582 4.66667,0.8216 4.66666,0.8216 -5.2746,-3.3403 c -12.63405,-8.00089 -27.58735,-6.7984 -48.82039,3.92597 -3.98109,2.01076 -9.63834,5.27311 -12.57167,7.24967 -8.76976,5.90927 -9.32564,6.0513 -6.13239,1.56678 1.6823,-2.36257 6.1503,-6.60478 9.92889,-9.42712 25.59268,-19.11597 52.83005,-19.37495 72.80338,-0.69224 9.56302,8.94509 14.73916,19.90259 14.71304,31.14641 -0.0235,10.12745 -1.91714,15.04081 -3.35972,8.7175 z m -101.9532,-0.82837 c 6.51434,-5.51753 19.74688,-10.72364 29.07186,-11.43783 4.91048,-0.37609 8.56428,-0.29054 8.11956,0.19011 -0.44472,0.48064 -9.74472,3.84324 -20.66667,7.47244 -15.95989,5.30323 -19.20375,6.04433 -16.52475,3.77528 z m 112.02042,-16.52676 c -0.0366,-7.32636 -3.85478,-17.23515 -8.92288,-23.15608 -5.36533,-6.26819 -2.27636,-5.62379 3.83173,0.79934 6.55141,6.88932 9.78176,19.22146 6.40406,24.44808 -0.98939,1.53096 -1.29729,1.04051 -1.31291,-2.09134 z m -29.15209,-40.16773 c -4.16738,-1.96934 -11.09489,-3.7876 -16.66666,-4.3745 l -9.53501,-1.00435 8.51198,-0.18104 c 10.07022,-0.21419 17.10757,1.65629 22.34298,5.9386 4.73106,3.86977 4.2551,3.83103 -4.65329,-0.37871 z m 11.17102,-4.36652 c -2.08609,-2.17741 -7.14834,-5.13004 -11.24945,-6.56141 -6.2375,-2.177 -6.80261,-2.6149 -3.45657,-2.67846 6.21153,-0.11799 14.87266,4.44036 17.27915,9.09401 2.64513,5.11512 2.21129,5.13971 -2.57313,0.14586 z m -66.74033,-5.98601 c 6.04241,-3.7797 14.52753,-5.42626 21.35875,-4.14471 7.79792,1.4629 5.31163,2.96298 -7.65777,4.62026 -6.78334,0.8668 -13.83334,1.8602 -15.66667,2.20757 -2.6561,0.50325 -2.25674,-0.0419 1.96569,-2.68312 z"
       id="path2" /><path
       style="fill:#000000;stroke-width:0.174919"
       d="m 355.02945,456.18706 c 0.089,-0.28047 0.0169,-0.46738 -0.26996,-0.69968 -0.47987,-0.38856 -0.85475,-0.40085 -1.36328,-0.0446 -0.76077,0.53287 -0.28637,1.12705 0.89985,1.12705 0.47582,0 0.63895,-0.0851 0.73339,-0.38271 z m -4.1553,-0.74708 c 0.49524,-0.34067 0.97141,-0.6194 1.05816,-0.6194 0.0867,0 0.24783,-0.10858 0.35797,-0.2413 0.11015,-0.13271 0.42451,-0.28614 0.69859,-0.34096 0.3269,-0.0654 0.62437,-0.3133 0.86476,-0.72075 0.38639,-0.65489 0.83382,-0.78094 1.63819,-0.46155 0.22099,0.0877 0.87407,0.33824 1.45131,0.55664 0.57723,0.2184 1.48243,0.72639 2.01157,1.12888 1.54541,1.17552 3.20244,1.33122 3.99512,0.37538 0.37488,-0.45203 0.4353,-1.53412 0.13377,-2.39536 -0.42701,-1.21963 -0.3977,-1.29118 0.46272,-1.12916 0.98285,0.18509 2.14614,0.13695 2.60328,-0.1077 0.30038,-0.16076 0.45946,-0.13007 0.85974,0.16588 0.27015,0.19972 0.79969,0.41247 1.17677,0.47277 0.6055,0.0968 0.76303,0.0416 1.34845,-0.47237 0.57208,-0.50229 0.8316,-0.59747 1.89478,-0.69492 0.811,-0.0743 1.58465,-0.0306 2.26436,0.12794 1.14283,0.2666 2.697,0.87618 3.10273,1.21695 0.57947,0.48671 1.94365,0.78454 2.82993,0.61785 0.36377,-0.0684 0.66844,-0.65075 0.66844,-1.27762 v -0.70556 l 0.74341,0.10153 c 2.13173,0.29111 2.77889,0.28037 4.0778,-0.0677 0.72727,-0.1949 1.38088,-0.31816 1.45248,-0.27391 0.0716,0.0443 0.41431,0.0164 0.7616,-0.0619 0.57653,-0.13003 1.93536,0.093 2.76017,0.45297 0.14431,0.063 0.40129,0.0973 0.57108,0.0762 0.16978,-0.0211 1.07499,0.0585 2.01156,0.17675 2.89631,0.36579 4.49286,0.11642 4.97066,-0.77636 0.25193,-0.47074 0.47972,-6.14012 0.30954,-7.70408 -0.0721,-0.66222 -0.10266,-1.48871 -0.068,-1.83665 0.21283,-2.13585 0.21466,-3.30171 0.009,-5.75528 -0.30531,-3.64397 -0.23856,-8.61567 0.14025,-10.4451 0.28073,-1.35576 0.39959,-5.17009 0.17256,-5.53743 -0.13457,-0.21774 0.43046,-0.84711 0.76051,-0.84711 0.55135,0 1.32813,-0.66195 1.88171,-1.60354 0.69691,-1.18536 1.48536,-4.14482 1.48536,-5.5753 0,-2.55252 -0.99072,-5.21687 -2.30669,-6.20343 -0.6897,-0.51705 -0.69725,-0.53502 -0.58789,-1.39837 0.0609,-0.48104 0.31604,-1.54367 0.56691,-2.36141 0.39799,-1.29731 0.45377,-1.77526 0.43765,-3.75004 -0.0102,-1.24476 -0.10864,-3.01582 -0.21885,-3.93567 -0.1517,-1.2663 -0.1505,-2.1397 0.005,-3.59656 0.32658,-3.06044 0.50598,-3.81924 1.79893,-7.60896 0.11488,-0.33672 0.21081,-1.33457 0.21319,-2.21743 l 0.004,-1.60522 0.59613,-0.40635 c 1.15531,-0.78751 1.32677,-1.19416 1.33862,-3.17464 0.0152,-2.54186 0.22423,-2.92822 2.40019,-4.43627 1.07211,-0.74303 1.32849,-1.52935 1.0142,-3.11054 -0.1218,-0.61281 -0.16793,-1.28286 -0.1025,-1.489 0.0654,-0.20614 0.50466,-0.61213 0.97608,-0.9022 1.17403,-0.72239 1.57557,-1.34249 1.69057,-2.61082 0.0715,-0.788 0.0175,-1.21781 -0.21875,-1.74166 -0.17249,-0.38252 -0.37413,-0.69548 -0.44808,-0.69548 -0.074,0 -0.18772,-0.24254 -0.25283,-0.53897 -0.0903,-0.41104 0.009,-0.79792 0.41878,-1.63007 0.51502,-1.04615 0.52972,-1.13747 0.35679,-2.21601 -0.0992,-0.6187 -0.38015,-1.46665 -0.62436,-1.88435 -0.88269,-1.50976 -3.81133,-3.87589 -4.79732,-3.87589 -0.17342,0 -0.35624,-0.0662 -0.40627,-0.14719 -0.23641,-0.38251 -2.8789,-0.81192 -5.00534,-0.81337 -2.11591,-0.001 -2.22815,0.0175 -3.33957,0.56435 -1.1569,0.56921 -2.77958,1.84334 -2.77958,2.18252 0,0.10028 -0.24788,0.68583 -0.55084,1.30123 -0.765,1.55395 -0.82949,2.50964 -0.25415,3.76681 0.55101,1.20402 0.56421,1.61167 0.0877,2.70794 -0.82907,1.9075 -0.18857,3.89465 1.6879,5.23672 l 0.51483,0.36822 -0.24824,0.85622 c -0.42582,1.46866 -0.43469,2.39064 -0.0306,3.18267 0.19947,0.39099 0.44306,0.76057 0.54132,0.8213 0.58237,0.35992 0.74318,1.22564 0.82644,4.44902 0.0828,3.20339 0.0909,3.2596 0.58753,4.07535 1.18127,1.94019 1.27122,2.73857 0.61626,5.46991 -0.2307,0.96206 -0.45915,2.14276 -0.50767,2.62379 -0.0486,0.48103 -0.29259,1.84285 -0.54238,3.02628 -0.50411,2.38833 -0.53945,3.21688 -0.21459,5.02971 0.28267,1.57732 0.084,3.88277 -0.49,5.68595 -0.23158,0.72748 -0.47734,1.63269 -0.54615,2.01157 -0.1755,0.9664 -0.58811,1.95769 -0.85796,2.06125 -0.30391,0.11662 -1.24478,-0.22988 -2.10622,-0.77566 -1.51575,-0.96034 -2.38025,-1.07537 -6.47199,-0.86111 -1.13362,0.0594 -1.30876,0.0179 -2.3614,-0.55885 -0.62534,-0.34262 -1.50975,-0.76043 -1.96536,-0.92846 -1.16062,-0.42804 -1.23121,-0.55954 -0.89952,-1.67559 0.15458,-0.52013 0.29174,-1.53605 0.3048,-2.25758 0.0272,-1.50311 -0.44616,-2.91273 -1.3804,-4.1106 -0.30012,-0.38482 -0.60029,-0.84739 -0.66702,-1.02795 -0.16911,-0.4575 0.1801,-0.80869 0.80413,-0.80869 0.68234,0 1.89038,-0.34601 2.24287,-0.6424 0.15188,-0.12771 0.35449,-0.2322 0.45024,-0.2322 0.0957,0 0.56157,-0.27549 1.03517,-0.61222 0.47361,-0.33671 0.92279,-0.61221 0.9982,-0.61221 0.0754,0 0.68618,-0.33453 1.35728,-0.74341 0.67111,-0.40887 1.38632,-0.83396 1.58936,-0.94464 0.5745,-0.31316 2.42794,-2.17875 2.71385,-2.73162 0.14125,-0.27317 0.40681,-0.64664 0.59011,-0.82994 0.7115,-0.7115 1.09512,-1.75963 0.9959,-2.72097 -0.18239,-1.76719 -1.29486,-3.121 -3.4468,-4.19457 -1.27883,-0.63798 -4.23282,-1.45948 -5.94725,-1.65391 -0.62533,-0.0709 -1.8454,-0.292 -2.71124,-0.4913 -2.37766,-0.54729 -5.88082,-0.7701 -7.95881,-0.5062 -1.65191,0.20979 -3.45097,0.18546 -4.03029,-0.0545 -0.49626,-0.20556 -1.36913,-0.88376 -2.25341,-1.75083 -0.72051,-0.70648 -2.04603,-1.74458 -2.22762,-1.74458 -0.59993,0 -2.87394,-2.56587 -3.81616,-4.30593 -1.48375,-2.74016 -1.85326,-3.31876 -2.61471,-4.09422 -0.46222,-0.47073 -1.29746,-1.09373 -1.85609,-1.38447 -0.55862,-0.29073 -1.53829,-0.92416 -2.17704,-1.40763 -0.63874,-0.48347 -1.37873,-0.99144 -1.64442,-1.12883 -0.69568,-0.35975 -2.04917,-2.01035 -2.77105,-3.37932 -1.35721,-2.57381 -3.03629,-3.25271 -6.87016,-2.77779 -0.4999,0.0619 -1.06544,-0.07 -2.49327,-0.58175 -0.55833,-0.20009 -1.68714,-0.40603 -2.53522,-0.46249 -0.84082,-0.056 -1.68669,-0.18631 -1.8797,-0.28962 -0.19302,-0.1033 -0.35095,-0.16943 -0.35095,-0.14696 0,0.0225 -0.11807,10e-4 -0.26237,-0.0466 -0.26245,-0.0875 -3.02278,-0.45988 -3.40874,-0.45988 -0.11252,0 -0.55782,0.23398 -0.98957,0.51995 -0.60084,0.39798 -0.93698,0.81857 -1.43291,1.79292 -0.7234,1.42126 -1.27192,2.0416 -3.60024,4.07166 -0.88273,0.76965 -1.90993,1.79292 -2.28267,2.27395 -0.37275,0.48103 -1.02699,1.2526 -1.45389,1.7146 -0.42689,0.46201 -0.88282,1.05236 -1.01317,1.3119 -0.13036,0.25953 -0.38097,0.68555 -0.55693,0.94672 -0.47715,0.70821 -0.5933,2.07552 -0.22417,2.63888 0.55342,0.84461 2.35928,0.76156 4.55448,-0.20949 0.44124,-0.19518 1.09406,-0.40743 1.45071,-0.47166 0.35665,-0.0642 0.72716,-0.17657 0.82337,-0.24963 0.0962,-0.0731 0.38266,-0.13168 0.63658,-0.13025 0.25391,0.001 0.88362,-0.19504 1.39935,-0.4366 3.28841,-1.54026 3.29736,-1.54204 4.03928,-0.80011 0.99016,0.99015 2.23345,2.59374 2.23345,2.88069 0,0.24711 0.29501,1.35068 0.9612,3.59562 0.2913,0.98161 0.2322,1.94199 -0.23176,3.76645 -0.19029,0.74827 -0.3918,2.0798 -0.4478,2.95897 -0.13847,2.17402 -0.59127,5.31398 -0.80311,5.56923 -0.0953,0.11478 -0.50886,0.31335 -0.91911,0.44125 -0.41025,0.12791 -1.17883,0.45001 -1.70796,0.71579 -0.52913,0.26577 -1.55241,0.73424 -2.27395,1.04104 -0.72154,0.3068 -1.42996,0.65761 -1.57427,0.77957 -0.1443,0.12196 -0.85272,0.50581 -1.57427,0.85302 -1.99855,0.96169 -2.93584,1.62741 -4.69803,3.3368 -1.87272,1.81661 -2.21107,2.307 -2.4301,3.52213 -0.21625,1.19965 0.31373,2.4641 1.30882,3.12262 0.8958,0.5928 2.89081,1.13564 4.46955,1.21615 2.81397,0.1435 7.01366,0.44445 7.75627,0.55581 1.18358,0.17749 1.35453,0.92641 0.53039,2.32355 -0.26628,0.4514 -0.37349,1.06165 -0.46464,2.64474 -0.13164,2.28617 -0.24217,2.56348 -1.69593,4.25505 -1.01327,1.17901 -1.25178,1.65339 -1.30211,2.5897 -0.0227,0.42277 -0.26273,1.38097 -0.53334,2.12933 -0.2706,0.74837 -0.49201,1.50718 -0.49201,1.68628 0,0.17908 -0.28875,0.90491 -0.64166,1.61296 -0.5221,1.04746 -0.66478,1.5644 -0.76572,2.77416 -0.0967,1.1591 -0.24781,1.73535 -0.68556,2.61448 -1.13452,2.27847 -1.38932,8.23668 -0.43307,10.12707 0.12932,0.25565 0.57347,0.70917 0.987,1.00781 l 0.75187,0.54299 -0.022,1.6435 c -0.0262,1.95923 -0.48734,5.88182 -0.89232,7.59073 -0.17087,0.72099 -0.29427,1.99731 -0.30015,3.1042 l -0.01,1.87977 -1.22444,0.0232 c -0.67343,0.0128 -1.57864,0.0444 -2.01157,0.0704 -0.43292,0.026 -1.88074,0.0972 -3.21738,0.15831 -2.03175,0.0929 -2.51048,0.16826 -2.91954,0.45953 -1.13437,0.80774 -0.73336,1.64993 0.85878,1.80367 2.52972,0.24428 2.94997,0.37226 3.2729,0.99675 0.24299,0.46989 0.3025,0.49054 1.13087,0.39243 0.91823,-0.10875 1.24566,0.1639 0.43974,0.36617 -0.63502,0.15938 -0.7909,0.93153 -0.26772,1.32617 0.49814,0.37575 1.1742,0.33029 3.32614,-0.22367 0.91395,-0.23527 2.09465,-0.48477 2.62378,-0.55444 1.47505,-0.19423 5.35586,-0.15985 6.82183,0.0604 0.72155,0.10842 2.02032,0.27228 2.88616,0.36413 0.86585,0.0918 1.86945,0.25248 2.23022,0.35696 0.63292,0.1833 0.65595,0.21765 0.65595,0.97874 0,0.65877 0.0893,0.87032 0.54168,1.28353 1.02728,0.93827 2.44112,0.75694 4.03323,-0.51727 0.73561,-0.58873 2.54769,-1.43228 2.91899,-1.35885 0.13832,0.0273 0.27522,0.28589 0.3042,0.57451 0.1629,1.62197 0.29016,2.02666 0.79661,2.5331 0.29038,0.29039 0.67291,0.52798 0.85006,0.52798 0.17713,0 0.43305,0.0426 0.56869,0.0946 0.13564,0.052 0.65182,-0.1841 1.14706,-0.52476 z m -0.70595,-4.37347 c 0.16515,-1.23434 0.1563,-1.56772 -0.0523,-1.97061 -0.48364,-0.93404 -1.64672,-0.77916 -2.76035,0.36757 -0.32892,0.33869 -0.82511,0.67192 -1.10263,0.74049 -0.27752,0.0686 -0.62266,0.25361 -0.76697,0.41122 -0.28131,0.30721 -1.7203,0.79421 -1.87871,0.63581 -0.0525,-0.0525 0.0536,-0.14869 0.23568,-0.21374 0.89568,-0.3199 2.76344,-1.75894 3.50028,-2.6968 1.32448,-1.68587 1.45094,-1.72773 4.9979,-1.65418 1.66527,0.0345 3.25556,0.14954 3.53397,0.25558 0.75601,0.28793 1.82857,1.19685 2.1467,1.81918 0.15454,0.30228 0.51402,0.82511 0.79886,1.16183 0.97183,1.14883 1.89807,2.53138 1.73281,2.58647 -0.0907,0.0303 -0.60185,-0.22449 -1.13582,-0.56607 -0.53398,-0.34158 -1.07304,-0.62182 -1.19792,-0.62276 -0.51654,-0.004 -2.0952,-0.89659 -2.59778,-1.46901 -0.29694,-0.33819 -0.79498,-0.77255 -1.10675,-0.96524 -0.49411,-0.30537 -0.6553,-0.32459 -1.25593,-0.14981 -0.379,0.11027 -0.78063,0.26887 -0.89255,0.35245 -0.11191,0.0836 -0.53691,0.91542 -0.94445,1.84858 -0.40754,0.93314 -0.82696,1.75239 -0.93203,1.82053 -0.42277,0.27418 -0.51805,-0.2263 -0.32201,-1.69149 z m 26.54076,-1.08524 c -0.19241,-0.0802 -1.31563,-0.73623 -2.49604,-1.45776 -1.18042,-0.72155 -2.32722,-1.42239 -2.54845,-1.55744 -0.71934,-0.43912 -1.20218,-0.14414 -1.82221,1.11319 -0.31025,0.62916 -0.67436,1.14392 -0.80914,1.14392 -0.53426,0 -0.46751,-1.45927 0.12935,-2.8276 0.41304,-0.94691 1.09509,-1.12153 2.5613,-0.65574 0.62533,0.19865 1.3429,0.39184 1.59458,0.42931 0.25169,0.0374 0.80268,0.14768 1.22443,0.24491 0.42176,0.0972 1.24874,0.17871 1.83774,0.18106 1.3189,0.005 3.30763,0.62913 4.71962,1.48055 0.88983,0.53655 0.96673,0.62192 0.56059,0.62231 -0.25888,1.7e-4 -0.51934,-0.0783 -0.5788,-0.17447 -0.0595,-0.0962 -0.2956,-0.17492 -0.52476,-0.17492 -0.22916,0 -0.46211,-0.0736 -0.51767,-0.16346 -0.0556,-0.0899 -0.74602,-0.41219 -1.53436,-0.71621 -1.26573,-0.48811 -1.50846,-0.53025 -2.07565,-0.36031 -1.03434,0.30989 -0.98883,0.72796 0.20834,1.91405 0.56826,0.56298 1.03318,1.07003 1.03318,1.12678 0,0.12068 -0.46371,0.0396 -0.96205,-0.16817 z m 17.56177,-1.41404 c -0.2065,-0.54036 -0.10236,-5.83031 0.12192,-6.19321 0.0751,-0.12159 0.15374,-3.4121 0.17468,-7.31227 0.0279,-5.19281 0.10041,-7.34876 0.27097,-8.05326 0.13953,-0.57635 0.23746,-2.05776 0.24425,-3.69508 0.009,-2.27724 0.0615,-2.80962 0.31226,-3.19227 0.48923,-0.74666 0.77703,-0.58247 0.91502,0.52203 0.13279,1.06275 -0.13786,5.65637 -0.35385,6.00585 -0.0988,0.1599 -0.32719,5.22561 -0.29219,6.48163 0.0121,0.43293 0.10882,1.75679 0.21502,2.94193 0.1062,1.18514 0.13318,2.44455 0.0599,2.7987 -0.0732,0.35415 -0.15181,2.25753 -0.17463,4.22974 -0.0426,3.68234 -0.24914,5.55191 -0.64081,5.80048 -0.40385,0.2563 -0.66621,0.15344 -0.85259,-0.33427 z m -4.52143,0.0301 c -0.53517,-0.18634 -1.23273,-0.25207 -2.23327,-0.21048 l -1.45501,0.0605 -1.00731,-0.97956 c -0.55401,-0.53877 -1.3988,-1.16849 -1.87732,-1.39937 -0.47852,-0.23089 -0.90044,-0.4396 -0.93759,-0.46381 -0.0371,-0.0242 0.11068,-0.45834 0.32854,-0.96475 0.3297,-0.76643 0.39215,-1.20757 0.37261,-2.63203 -0.0236,-1.71653 -0.22271,-3.51853 -0.54165,-4.90072 -0.094,-0.40721 -0.17277,-1.10146 -0.17512,-1.54276 -0.003,-0.44131 -0.12182,-1.58266 -0.26549,-2.53633 -0.35296,-2.34306 -0.56171,-10.04259 -0.27226,-10.04259 0.11541,0 0.76527,0.37389 1.44414,0.83086 1.86336,1.25432 2.81237,1.78432 3.20305,1.78884 0.37497,0.004 1.65797,0.79297 1.87593,1.15309 0.0714,0.11802 0.5532,0.49557 1.07059,0.83899 0.87556,0.58116 1.51399,0.77794 2.82267,0.87003 l 0.52476,0.0369 -0.0222,1.30749 c -0.0122,0.71912 -0.0392,3.43276 -0.06,6.0303 -0.0208,2.59755 -0.10577,5.19509 -0.18888,5.77233 -0.0831,0.57723 -0.19345,1.63986 -0.24517,2.3614 -0.36475,5.08755 -0.46416,5.28213 -2.36104,4.62166 z m -58.67774,-3.66304 c -0.43061,-0.1462 -0.84661,-0.2527 -0.92443,-0.23668 -0.29975,0.0617 -1.64104,-0.25118 -1.73611,-0.40502 -0.22457,-0.36335 0.11972,-1.0127 0.59149,-1.1156 1.295,-0.28247 2.96605,-1.05755 3.19257,-1.4808 0.25056,-0.46817 0.21128,-0.88551 -0.11753,-1.24885 -0.34877,-0.38538 -0.99282,-0.40737 -1.95793,-0.0669 -0.39442,0.13916 -0.75525,0.19134 -0.80183,0.11596 -0.16988,-0.27487 0.48588,-0.93207 1.26198,-1.26474 0.43764,-0.1876 0.88384,-0.46159 0.99152,-0.60886 0.10769,-0.14728 0.52168,-0.31148 0.91998,-0.3649 l 0.72417,-0.0971 0.27547,0.92762 c 0.15151,0.51019 0.27547,1.01313 0.27547,1.11765 0,0.10451 0.19322,0.47436 0.42937,0.82188 0.52041,0.76587 1.38192,1.00648 2.16106,0.60357 0.49679,-0.2569 1.11579,-1.38382 1.64156,-2.98852 0.24774,-0.75614 0.77071,-1.03016 0.94717,-0.49631 0.28249,0.85459 1.19902,2.47202 1.51131,2.66705 0.77911,0.48656 2.02831,0.33806 2.52016,-0.29959 0.12694,-0.16458 0.38232,-0.77729 0.5675,-1.36158 0.30763,-0.97065 0.31592,-1.15936 0.096,-2.18648 -0.13241,-0.61828 -0.29333,-1.83403 -0.35758,-2.70166 -0.15174,-2.04896 -0.0313,-2.17556 1.41968,-1.49246 1.37313,0.64644 1.96964,0.73907 2.66101,0.41321 1.10244,-0.5196 1.26062,-1.04478 1.31227,-4.35679 0.0358,-2.29538 -0.0267,-3.34727 -0.27939,-4.70227 -0.19785,-1.06102 -0.28678,-2.08986 -0.22676,-2.62378 0.0965,-0.85828 -0.0726,-1.81013 -0.65644,-3.69521 -0.59129,-1.90919 -3.85498,-4.79919 -5.47152,-4.84501 -0.65033,-0.0184 -0.92172,0.2417 -0.92608,0.88764 -0.002,0.28023 0.22293,0.54049 0.76241,0.88262 1.36709,0.86698 3.01527,2.51669 3.48298,3.4862 0.4823,0.99976 0.79851,2.66781 0.50573,2.66781 -0.0972,0 -0.20299,-0.0608 -0.23506,-0.13519 -0.0321,-0.0743 -0.45115,-0.39283 -0.93131,-0.70772 -1.10998,-0.72795 -1.9768,-0.72335 -2.32772,0.0124 -0.28001,0.58705 -0.13489,0.84081 1.0156,1.77588 1.69345,1.37637 1.92767,1.61463 2.25181,2.29066 0.50853,1.06062 0.93115,2.72511 0.86603,3.41092 -0.053,0.55838 -0.10426,0.6097 -0.58288,0.58368 -0.28861,-0.0157 -1.23317,-0.27635 -2.09902,-0.57923 -1.34895,-0.47187 -2.68524,-0.74462 -5.66517,-1.15631 -0.32588,-0.045 -0.91623,-0.15012 -1.31189,-0.23353 -0.66383,-0.13995 -3.9058,-0.1187 -6.84153,0.0448 -1.50483,0.0838 -2.2249,-0.18156 -2.53702,-0.93509 -0.3297,-0.79596 8e-5,-1.04923 1.4304,-1.09855 1.25447,-0.0433 1.71884,-0.29247 1.71884,-0.92244 0,-0.4788 -0.19718,-0.62855 -1.13698,-0.8635 -0.51978,-0.12994 -0.71374,-0.27378 -0.75439,-0.55946 -0.0981,-0.68946 0.24336,-1.04461 1.11984,-1.16474 0.94435,-0.12943 1.93053,-0.68026 2.08408,-1.16403 0.20441,-0.64404 -0.20241,-1.04744 -1.05633,-1.04744 -0.84834,0 -1.02111,-0.26604 -0.47487,-0.73121 0.39889,-0.3397 1.06878,-0.58078 2.62154,-0.94344 1.39882,-0.3267 1.7107,-0.56487 1.55454,-1.1871 -0.19651,-0.78293 -1.66355,-0.99951 -3.55493,-0.5248 -0.56473,0.14173 -0.69089,-0.32786 -0.31314,-1.16556 0.37026,-0.82109 0.72663,-1.1694 1.31153,-1.28184 1.3231,-0.25437 2.09748,-0.87193 2.09748,-1.67273 0,-0.34293 -0.17326,-0.43226 -1.11822,-0.5765 -0.54359,-0.083 -0.76683,-0.60187 -0.41171,-0.95698 0.31489,-0.31489 1.14865,-0.36845 2.18748,-0.14052 1.01173,0.22198 1.46694,-0.60134 0.71816,-1.29893 -0.20541,-0.19137 -0.61865,-0.40053 -0.91832,-0.46481 -1.38067,-0.29612 -1.41713,-0.84248 -0.0829,-1.2415 1.16806,-0.34931 2.20467,-0.28012 3.9361,0.26271 1.47355,0.46198 4.42316,1.96482 5.22244,2.66085 0.19241,0.16757 0.62533,0.45329 0.96205,0.63494 0.33672,0.18167 0.92707,0.53152 1.31189,0.77745 0.38482,0.24592 0.90517,0.55819 1.15633,0.69391 0.76695,0.41445 1.93711,1.21486 3.0817,2.10793 0.59922,0.46754 1.13854,0.85008 1.19849,0.85008 0.0599,0 0.65181,0.53132 1.31523,1.1807 0.66342,0.64939 1.44167,1.30809 1.72945,1.46378 0.28777,0.15569 0.63389,0.37492 0.76914,0.48716 0.13525,0.11225 0.31324,0.18514 0.39551,0.16199 0.0823,-0.0232 0.38575,0.0837 0.67436,0.23745 0.28862,0.15374 1.58739,0.68772 2.88617,1.18661 3.82843,1.47059 3.90528,1.51269 3.79221,2.07802 -0.10839,0.54195 -1.49006,3.40956 -2.41456,5.01131 -0.823,1.42592 -1.26602,2.90329 -1.158,3.86166 0.0722,0.64043 0.22311,0.89484 0.89509,1.50885 0.81664,0.74619 1.85913,1.18362 2.82093,1.18366 0.62103,3e-5 1.67918,-0.34595 2.08293,-0.68103 0.15781,-0.13097 0.32563,-0.19942 0.37293,-0.15212 0.176,0.17599 0.21236,3.83226 0.0607,6.10076 -0.22345,3.34189 -0.62041,5.33624 -1.18797,5.9684 -0.43688,0.48661 -0.51657,0.50645 -2.11571,0.52688 -0.91396,0.0117 -2.52758,0.009 -3.58584,-0.006 -1.05826,-0.0151 -2.51446,-0.027 -3.236,-0.0265 -0.72154,4.9e-4 -3.12229,-0.0271 -5.33502,-0.0615 -2.21273,-0.0344 -4.19467,-4.9e-4 -4.40432,0.0753 -0.20966,0.0758 -0.82508,0.17994 -1.36761,0.23141 -0.54252,0.0515 -1.06883,0.14451 -1.16956,0.20677 -0.10074,0.0623 -2.50993,0.14298 -5.35375,0.17938 -2.84383,0.0364 -5.20925,0.10486 -5.2565,0.15211 -0.15567,0.15566 -0.70329,0.0899 -1.49799,-0.17991 z m 26.37451,-3.38338 c 0.51362,-0.56754 0.58209,-1.24442 0.52064,-5.14769 -0.0459,-2.91515 -0.12038,-3.92845 -0.31668,-4.30805 -0.34928,-0.67543 -0.76773,-0.80194 -1.31046,-0.39619 -0.50879,0.38039 -0.50885,0.38109 -0.53099,6.22264 -0.0109,2.86328 0.0268,3.34752 0.28201,3.62956 0.37692,0.41649 0.97843,0.41637 1.35548,-2.4e-4 z m -4.78709,-8.21122 c 0.37658,-0.30493 0.38987,-0.42049 0.38718,-3.36719 -0.003,-3.2738 -0.14039,-4.01347 -0.74555,-4.01347 -0.89382,0 -1.02541,0.24531 -1.01757,1.89683 0.004,0.84921 -0.0486,2.33236 -0.11686,3.29589 -0.11934,1.68328 -0.1084,1.76659 0.2793,2.12779 0.49176,0.45814 0.70873,0.4689 1.2135,0.0602 z m -9.40129,-8.38644 c 0.16913,-0.18837 0.24023,-0.48468 0.18485,-0.77037 -0.0763,-0.39361 -0.32032,-0.55922 -1.60335,-1.08818 -1.78511,-0.73596 -4.15933,-1.12581 -4.92495,-0.80868 -0.57129,0.23664 -0.85418,0.79779 -0.7053,1.39907 0.0941,0.37991 0.23357,0.45224 1.06308,0.55118 0.52513,0.0627 1.34932,0.12168 1.83151,0.1312 0.48219,0.01 1.49674,0.21408 2.25453,0.4546 1.64033,0.5206 1.55527,0.51473 1.89963,0.13118 z m -3.80583,-11.65223 c 0.25879,-0.39495 0.25994,-0.4818 0.0127,-0.95993 -0.46524,-0.89968 -1.56988,-0.94285 -1.78898,-0.0699 -0.28586,1.13895 1.15678,1.97536 1.7763,1.02985 z m 35.20682,30.29482 c -1.346,-0.22801 -1.82364,-0.60936 -2.07727,-1.65856 -0.0894,-0.37006 -0.1953,-2.77843 -0.2352,-5.35192 -0.0798,-5.14837 -0.13848,-4.89753 1.03077,-4.40899 0.3718,0.15534 0.80816,0.21875 1.02714,0.14925 0.20941,-0.0665 0.40777,-0.10161 0.44081,-0.0781 0.14139,0.10057 1.13885,-0.99802 1.34213,-1.47821 0.27417,-0.64764 0.15659,-1.46613 -0.58061,-4.04181 -0.1898,-0.66317 -0.59761,-2.11096 -0.90623,-3.21732 -0.30861,-1.10636 -0.62742,-2.09248 -0.70846,-2.19137 -0.2507,-0.30597 -0.42226,-2.88127 -0.19193,-2.88127 0.2109,0 0.80701,-0.62244 1.13851,-1.18879 0.10799,-0.18451 0.40557,-0.64854 0.66129,-1.03119 0.25572,-0.38265 0.75361,-1.39751 1.10643,-2.25523 0.35282,-0.85772 0.74608,-1.6672 0.8739,-1.79884 0.61452,-0.63287 0.99826,0.70046 1.05058,3.65026 0.0213,1.20257 0.17251,3.68205 0.33596,5.50994 0.37531,4.19721 0.4357,5.26429 0.6138,10.84497 0.1094,3.42804 0.21431,4.74474 0.42607,5.3473 0.71116,2.02363 0.62473,4.98965 -0.16784,5.76003 -0.69683,0.67731 -2.43577,0.78468 -5.17985,0.31986 z m 2.09401,-2.70963 c 0.32115,-0.12958 0.25903,-1.31229 -0.0913,-1.73917 -0.4652,-0.56678 -0.86617,-0.63444 -1.17203,-0.19776 -0.75541,1.0785 0.10846,2.40295 1.26338,1.93693 z m -8.85918,-2.74091 c -0.25846,-1.48421 -0.24902,-3.66405 0.017,-3.9301 0.2567,-0.2567 0.55681,-0.2622 1.4081,-0.0258 l 0.65594,0.18216 -0.0123,1.87215 c -0.007,1.02969 -0.072,2.02466 -0.14498,2.21104 -0.11809,0.30161 -0.99042,0.74899 -1.53024,0.78479 -0.11273,0.007 -0.28522,-0.47214 -0.39356,-1.09426 z m -32.69743,-0.39276 c -0.0314,-0.37739 0.0635,-1.55201 0.21092,-2.61027 0.31304,-2.24721 0.25312,-3.03135 -0.26432,-3.45869 -0.74586,-0.616 -1.69692,0.10362 -2.59763,1.96548 -0.53887,1.1139 -0.95048,1.56618 -1.19911,1.31757 -0.35183,-0.35185 1.03362,-4.14557 1.86372,-5.1033 0.50471,-0.5823 1.96715,-0.89778 4.27114,-0.92136 2.0893,-0.0214 3.10348,0.21946 3.11019,0.73858 0.0201,1.55348 0.7304,7.24698 0.95419,7.64821 0.0268,0.0481 -0.006,0.23915 -0.0737,0.42456 -0.10213,0.28114 -0.21113,0.17952 -0.65667,-0.61222 -0.63048,-1.12037 -1.02933,-2.34463 -1.18058,-3.62367 -0.15197,-1.28515 -0.36735,-1.76507 -0.87954,-1.9598 -0.7687,-0.29226 -1.21827,0.0321 -1.61322,1.16414 -0.3649,1.04584 -0.82309,2.82405 -1.00435,3.89778 -0.32589,1.93056 -0.82468,2.53108 -0.94105,1.13299 z m 32.65583,-5.58389 c -0.11556,-0.70228 0.14917,-3.75666 0.3524,-4.06614 0.0597,-0.0909 0.40155,-0.2115 0.75966,-0.26799 1.03124,-0.1627 1.37706,0.23156 1.3835,1.57727 0.008,1.72421 -0.2132,3.40039 -0.43812,3.31629 -0.10843,-0.0405 -0.35457,-0.01 -0.54698,0.0688 -0.19241,0.0784 -0.58508,0.12652 -0.87259,0.10698 -0.46556,-0.0316 -0.53534,-0.11206 -0.63787,-0.7352 z m -6.31648,-2.44454 c -0.21344,-0.38139 -0.0261,-1.62087 0.32643,-2.15949 l 0.26571,-0.40598 0.41677,0.44971 c 0.52103,0.5622 0.85678,0.56707 1.40349,0.0203 0.56546,-0.56545 0.5417,-1.00479 -0.0934,-1.72816 -0.50697,-0.5774 -0.51457,-0.61186 -0.2513,-1.13958 0.14931,-0.2993 0.34493,-0.58959 0.43473,-0.64508 0.0898,-0.0555 0.33169,-0.49238 0.53752,-0.97086 0.45151,-1.04956 0.63417,-0.99584 0.32831,0.0965 -0.17728,0.63317 -0.17781,0.84355 -0.003,1.05453 0.50628,0.61002 1.27069,0.11421 1.48138,-0.96086 0.20489,-1.0454 0.28427,-1.22444 0.54296,-1.22444 0.34559,0 0.31663,0.338 -0.17018,1.98627 -0.23141,0.78356 -0.46502,1.62506 -0.51913,1.87001 -0.0541,0.24494 -0.49447,0.9389 -0.97859,1.54212 -0.48411,0.60322 -0.8827,1.18995 -0.88574,1.30383 -0.008,0.31639 -0.77139,1.11454 -1.19342,1.24849 -0.20642,0.0655 -0.37532,0.18873 -0.37532,0.27381 0,0.24586 -1.07903,-0.27449 -1.26748,-0.61124 z m 11.21657,-0.0942 c -0.1748,-0.23919 -0.36489,-0.86423 -0.42243,-1.38898 -0.0575,-0.52476 -0.14011,-1.01153 -0.18348,-1.0817 -0.0434,-0.0702 -0.31334,-1.28531 -0.59992,-2.70029 -0.49246,-2.43139 -0.50429,-2.58541 -0.21546,-2.80468 0.16808,-0.1276 0.35831,-0.2345 0.42273,-0.23756 0.14167,-0.007 0.53654,1.16649 1.02839,3.05552 0.60682,2.33053 0.66464,2.59221 0.76385,3.45693 0.0526,0.45824 0.21836,1.07058 0.36842,1.36076 0.15005,0.29018 0.22861,0.59916 0.17455,0.68662 -0.18785,0.30396 -1.01865,0.0885 -1.33665,-0.34662 z m 16.51843,-6.16602 c -0.49901,-0.98471 -0.99001,-2.02652 -1.09112,-2.31513 -0.24918,-0.71131 -0.6879,-2.86304 -0.90943,-4.46043 -0.10006,-0.72155 -0.30575,-1.44964 -0.45708,-1.618 -0.3728,-0.41475 -1.01618,-0.38545 -1.46849,0.0669 -0.32718,0.32717 -0.36055,0.50601 -0.2718,1.45645 0.0556,0.5959 0.2617,1.4907 0.45788,1.98843 0.19618,0.49772 0.29882,0.90375 0.22806,0.90228 -0.20968,-0.004 -0.49516,-0.24121 -0.62928,-0.52208 -0.19393,-0.40613 -0.54304,-0.98757 -0.75023,-1.24951 -0.29126,-0.36823 -0.40025,-1.01111 -0.51931,-3.06328 -0.11643,-2.00682 -0.359,-2.7616 -0.94753,-2.94839 -0.75889,-0.24087 -0.90244,0.16632 -0.84487,2.39635 0.0293,1.13528 -0.003,2.0646 -0.0724,2.06514 -0.0692,4.9e-4 -0.20243,10e-4 -0.29616,10e-4 -0.30459,0 -0.65833,-0.93801 -0.75858,-2.01157 -0.13132,-1.40603 -0.17017,-1.54052 -0.89362,-3.09334 -0.34443,-0.73928 -0.62624,-1.43031 -0.62624,-1.5356 0,-0.1053 -0.23237,-0.89657 -0.51637,-1.75839 -0.79059,-2.39901 -0.56437,-4.19524 0.52834,-4.19524 0.54018,0 2.14657,0.72127 2.35405,1.05697 0.15446,0.24993 0.83614,0.50102 1.72416,0.63507 1.02884,0.15532 1.25089,0.14052 2.89058,-0.19271 0.80895,-0.1644 1.67157,-0.24852 1.91693,-0.18694 0.58392,0.14656 2.29711,0.98722 2.29711,1.12718 0,0.0599 -0.16509,0.57842 -0.36687,1.15232 -0.38976,1.10851 -0.40444,1.49753 -0.26375,6.99069 0.0369,1.44308 0.1517,3.21414 0.25497,3.93568 0.10326,0.72153 0.24012,2.63034 0.30412,4.24178 0.1424,3.58547 0.023,3.6919 -1.27304,1.13443 z m -1.9813,-10.88325 c 0.13409,-0.16156 0.20794,-0.77203 0.19574,-1.61799 -0.0108,-0.74719 0.0551,-1.61862 0.14643,-1.93651 0.13782,-0.47981 0.10822,-0.63579 -0.17432,-0.91833 -0.42894,-0.42893 -0.90098,-0.43407 -1.28119,-0.014 -0.45526,0.50306 -0.61688,3.69137 -0.21799,4.30016 0.32849,0.50134 0.99286,0.59447 1.33133,0.18664 z m -18.96294,12.52538 c -0.0839,-0.13576 0.33785,-1.82983 0.53794,-2.16076 0.0424,-0.0702 0.2257,-0.0349 0.40726,0.0785 0.3421,0.21365 0.6646,1.69854 0.44579,2.05257 -0.13679,0.22133 -1.25775,0.24523 -1.39099,0.0296 z m 0.22304,-4.8279 c -0.65205,-0.074 -1.0934,-0.22855 -1.2978,-0.45441 -0.29685,-0.32802 -0.29577,-0.35342 0.026,-0.61114 0.18465,-0.14789 0.58343,-0.38044 0.88617,-0.51677 0.30274,-0.13635 0.87612,-0.62412 1.27419,-1.08396 0.69977,-0.80836 0.7324,-0.82458 0.98515,-0.4896 0.36234,0.48021 0.25407,0.81385 -0.39768,1.22547 -0.76556,0.48351 -0.81936,0.72237 -0.3124,1.38703 0.51545,0.67579 0.54723,0.85606 0.13052,0.74046 -0.16836,-0.0467 -0.75073,-0.1354 -1.29417,-0.19708 z m -5.78209,-2.43509 c -1.82566,-0.69559 -3.36519,-1.35783 -3.54132,-1.52332 -0.0914,-0.0859 -0.28818,-0.15881 -0.4373,-0.16207 -0.14912,-0.003 -0.58598,-0.15802 -0.9708,-0.34391 -0.38481,-0.18588 -0.76968,-0.34064 -0.85525,-0.3439 -0.0856,-0.003 -0.70538,-0.45853 -1.37737,-1.01171 -0.672,-0.55319 -1.4795,-1.16322 -1.79445,-1.35563 -0.31494,-0.19241 -0.99389,-0.68139 -1.50878,-1.08664 -5.03775,-3.96498 -6.46668,-5.00281 -7.75798,-5.63455 -0.67343,-0.32947 -1.51064,-0.74272 -1.86046,-0.91833 -0.34982,-0.1756 -0.73065,-0.31929 -0.8463,-0.31929 -0.36145,0 -2.35659,-0.98454 -2.60729,-1.28662 -0.1313,-0.15821 -0.31562,-0.28765 -0.40959,-0.28765 -0.34167,0 -2.23517,-1.28059 -2.23517,-1.51167 0,-0.30019 0.19158,-0.29528 1.48682,0.038 0.57723,0.14854 1.41413,0.33789 1.85979,0.42077 0.80281,0.1493 2.07284,0.60027 4.43728,1.57567 0.67344,0.27781 1.59426,0.62573 2.04627,0.77314 0.45201,0.14742 1.16043,0.42031 1.57427,0.60642 0.41384,0.1861 0.95191,0.38243 1.1957,0.43629 0.38556,0.0852 2.92305,1.2334 3.66733,1.65949 0.37131,0.21258 1.23417,0.65915 2.12403,1.09929 0.71814,0.35521 1.22222,0.57672 2.24894,0.98826 2.59868,1.04162 2.4465,0.9614 4.68605,2.47036 0.79752,0.53737 1.57586,1.05574 1.72962,1.15194 0.15376,0.0962 0.47103,0.34652 0.70504,0.55625 0.42105,0.37736 1.79008,0.93056 2.30293,0.93056 0.51848,0 1.59624,0.90183 1.59624,1.33568 0,0.69472 -0.95725,0.55619 -2.27961,-0.3299 -2.1816,-1.46186 -3.24577,-2.10488 -4.27985,-2.58607 -1.10908,-0.51611 -2.88936,-0.92349 -3.31758,-0.75916 -0.35675,0.1369 -0.49708,0.68746 -0.27905,1.09484 0.23296,0.43528 1.03285,1.06969 1.3487,1.06969 0.45289,0 5.70498,2.79863 5.92736,3.15846 0.11889,0.19236 -0.52016,0.48732 -1.09142,0.50375 -0.21208,0.006 -0.88114,-0.17772 -1.4868,-0.40848 z m 8.76533,-1.44359 c -0.57223,-0.92588 -0.17797,-1.66206 1.44938,-2.70632 0.46252,-0.29681 0.84094,-0.62053 0.84094,-0.7194 0,-0.0989 0.2755,-0.43959 0.61222,-0.75715 0.33672,-0.31757 0.61222,-0.66531 0.61222,-0.77275 0,-0.32047 0.52032,-1.22749 0.70417,-1.22749 0.2199,0 0.22059,0.7894 0.001,1.18308 -0.0932,0.16705 -0.29567,0.6973 -0.44999,1.17832 -0.15433,0.48103 -0.45999,1.11074 -0.67926,1.39935 -0.21928,0.28862 -0.53287,0.78529 -0.69688,1.10369 -0.41083,0.79761 -1.43337,1.89909 -1.76299,1.89909 -0.14966,0 -0.43353,-0.26119 -0.63082,-0.58042 z m 25.79456,-1.85896 c 1.00225,-1.72425 1.06521,-1.93066 1.10543,-3.62447 0.0217,-0.91396 0.0427,-1.78744 0.0467,-1.94108 0.01,-0.38757 0.60096,-1.03255 0.94606,-1.03255 0.18139,0 0.28559,0.14678 0.28559,0.40232 0,0.22127 0.0703,0.47709 0.15624,0.56849 0.35185,0.37422 0.54303,1.98717 0.34624,2.92114 -0.10643,0.50508 -0.24864,0.99704 -0.31602,1.09324 -0.0674,0.0962 -0.27114,0.64721 -0.45279,1.22443 -0.40307,1.2808 -0.43168,1.31729 -1.16055,1.47989 -0.45509,0.10152 -0.66223,0.0575 -0.93453,-0.19879 -0.34403,-0.32377 -0.3444,-0.33858 -0.0224,-0.89262 z m -28.22216,-0.55752 c -0.28586,-0.34444 -0.24152,-0.43019 0.86971,-1.68177 1.62226,-1.82714 3.8059,-3.83405 4.17171,-3.83405 0.54599,0 -0.0958,1.30488 -1.11836,2.27395 -0.45684,0.43292 -1.42678,1.39716 -2.15543,2.14275 -0.72864,0.7456 -1.37654,1.35563 -1.43978,1.35563 -0.0632,0 -0.21077,-0.11543 -0.32785,-0.25651 z m 23.41266,-1.16442 c -0.34341,-0.34342 -0.36546,-0.5116 -0.29247,-2.23022 0.0815,-1.92019 0.36348,-2.84307 0.93559,-3.06261 0.409,-0.15694 0.60183,0.0195 0.61024,0.55818 0.006,0.36696 0.25419,0.66348 1.12721,1.34531 1.11953,0.87434 1.32401,1.23221 0.92948,1.62674 -0.33448,0.33448 -0.72116,0.24768 -1.37097,-0.30775 -0.69713,-0.59588 -0.98228,-0.64232 -1.54099,-0.25099 -0.3493,0.24467 -0.38549,0.37435 -0.28062,1.00579 0.0662,0.3987 0.23118,0.94136 0.36658,1.20594 0.29611,0.57856 0.0424,0.63602 -0.48405,0.10961 z m -26.56608,-0.99505 c -0.94827,-0.65676 -2.24705,-1.3816 -5.68487,-3.17268 -0.96205,-0.50123 -2.18211,-1.17388 -2.71123,-1.49479 -2.53353,-1.53652 -6.51659,-3.3598 -9.97037,-4.56404 -1.49119,-0.51993 -2.82932,-1.01167 -2.97363,-1.09276 -0.1443,-0.0811 -0.73465,-0.28634 -1.31189,-0.45614 -0.57723,-0.16979 -1.47781,-0.47321 -2.00129,-0.67428 -0.89842,-0.34508 -0.92543,-0.37263 -0.48184,-0.49126 0.67153,-0.1796 1.87091,-1.17717 1.87091,-1.55611 0,-0.92228 -0.36229,-1.03563 -2.15768,-0.67506 -1.21088,0.24318 -1.94269,0.86864 -1.77907,1.52053 0.10096,0.40229 0.0739,0.42042 -0.47066,0.3158 -0.31778,-0.0611 -0.76004,-0.31825 -0.98281,-0.57157 -0.34023,-0.38688 -0.38596,-0.57584 -0.2858,-1.18089 0.0656,-0.39617 0.19159,-0.85806 0.28001,-1.02642 0.18345,-0.34932 0.70309,-0.41815 0.66015,-0.0875 -0.0717,0.55235 0.0387,0.65595 0.6991,0.65595 0.58888,0 0.77468,-0.10356 1.31189,-0.73117 0.78625,-0.91855 0.82407,-1.47145 0.11135,-1.62799 -0.5768,-0.12668 -1.16379,0.11473 -1.63922,0.67417 l -0.31708,0.3731 0.11984,-0.4373 c 0.18333,-0.66903 0.41999,-0.8746 1.00686,-0.8746 0.42158,0 0.73778,-0.20711 1.46957,-0.96265 l 0.9324,-0.96266 -0.28155,-0.54445 c -0.15485,-0.29945 -0.43719,-0.58515 -0.62742,-0.6349 -0.25328,-0.0662 0.11367,-0.31645 1.3706,-0.93458 0.94407,-0.46428 1.83673,-0.84736 1.98368,-0.85131 0.14696,-0.004 0.42755,-0.1195 0.62355,-0.25678 0.42971,-0.30098 2.38289,-0.97482 2.82558,-0.97482 0.55503,0 1.06783,-0.50643 1.82321,-1.80056 1.05663,-1.81025 1.99457,-2.46741 3.81569,-2.67345 1.15335,-0.13048 2.00676,0.0895 3.04062,0.78383 1.47813,0.99269 1.97057,1.23567 2.50985,1.23843 0.9398,0.005 1.22758,-1.00425 0.55555,-1.94802 -0.41991,-0.58971 -0.38869,-0.66726 0.3064,-0.76103 0.2749,-0.0371 1.01389,-0.14211 1.64219,-0.2334 1.50945,-0.2193 3.07064,-0.0116 4.89233,0.65081 0.81774,0.29736 1.66823,0.5417 1.88997,0.54299 0.22173,10e-4 0.9695,-0.24099 1.66172,-0.53839 1.1072,-0.47571 1.40251,-0.53097 2.45527,-0.45951 0.81191,0.0551 1.34268,0.19022 1.6507,0.42019 0.74021,0.55265 0.68595,0.75497 -0.20247,0.75497 -0.97636,0 -2.5489,0.56705 -3.03679,1.09503 -0.46468,0.50289 -0.82337,1.71788 -0.67806,2.29683 0.14663,0.58421 1.11116,1.68006 1.48161,1.68333 0.1584,0.001 0.6422,0.12723 1.07512,0.27961 0.51504,0.18128 1.10083,0.24563 1.69459,0.18614 0.9033,-0.0905 0.90799,-0.0884 1.02609,0.46379 0.24951,1.16652 0.66313,2.14948 1.12744,2.67931 0.67491,0.77015 1.33885,2.25935 1.48142,3.32277 0.13802,1.02943 -0.0781,1.32357 -0.4997,0.68011 -0.39209,-0.5984 -2.12246,-1.72848 -3.1681,-2.06903 -1.85792,-0.6051 -4.97961,-1.17225 -6.42195,-1.16673 -3.59135,0.0138 -9.78897,1.36275 -12.17588,2.65027 -0.51206,0.27621 -1.69276,0.82181 -2.62378,1.21245 -1.85566,0.7786 -2.4799,1.30335 -2.4799,2.08471 0,1.06902 1.28848,1.30515 2.78887,0.51108 1.91674,-1.01442 4.26749,-2.10478 4.85077,-2.24997 0.36795,-0.0916 1.10193,-0.29336 1.63106,-0.44838 1.34999,-0.39549 1.39582,-0.40404 3.74853,-0.69881 2.46006,-0.30822 5.30702,-0.39277 6.92152,-0.20556 1.52825,0.17721 3.85892,0.91863 4.76868,1.51698 0.40769,0.26815 1.06817,0.57441 1.46772,0.68057 0.84658,0.22496 0.84976,0.42085 0.0295,1.81438 -0.27147,0.46121 -0.49392,0.89413 -0.49434,0.96205 -4.9e-4,0.0679 -0.23998,0.4777 -0.53237,0.91063 -0.29239,0.43292 -0.68118,1.10757 -0.86396,1.49923 -0.18277,0.39165 -0.63195,0.99922 -0.99816,1.35017 -4.0272,3.85929 -5.63365,5.52333 -6.27053,6.49534 -0.16243,0.24789 -0.3453,0.45062 -0.4064,0.45048 -0.0611,-1.2e-4 -0.54399,-0.30006 -1.07312,-0.66652 z m -19.15361,-13.44021 c 0.48102,-0.34625 1.20026,-0.94234 1.5983,-1.32465 0.61314,-0.58891 0.70477,-0.766 0.59976,-1.15905 -0.0682,-0.25517 -0.32862,-0.57895 -0.57877,-0.7195 -0.52787,-0.29663 -0.92616,-0.14383 -2.0169,0.77373 -1.44096,1.21218 -1.81972,1.69554 -1.70435,2.17506 0.12187,0.50659 0.5392,0.89488 0.95469,0.88827 0.14997,-0.003 0.66624,-0.28763 1.14727,-0.63386 z m -2.59576,-5.80341 c 1.01872,-0.80537 1.98354,-1.75318 1.98354,-1.94857 0,-0.0781 -0.14775,-0.32456 -0.32834,-0.54756 l -0.32833,-0.40548 -0.76491,0.3303 c -0.4207,0.18167 -0.84362,0.41773 -0.93982,0.52458 -0.0962,0.10684 -0.46125,0.36904 -0.8112,0.58266 -0.98232,0.59962 -1.09098,0.79258 -0.85276,1.51437 0.28293,0.85729 0.91345,0.84176 2.04182,-0.0503 z m 10.59491,-0.47887 c 0.0542,-0.0543 0.36255,-0.10422 0.6851,-0.11103 1.4632,-0.0309 2.59801,-1.31732 2.59801,-2.94518 0,-1.41724 -0.6397,-2.25645 -2.32629,-3.05179 -1.36207,-0.64232 -4.25568,0.15919 -5.01598,1.38939 -0.18458,0.29865 -0.4173,0.90759 -0.51716,1.35318 -0.20914,0.9332 0.0311,1.7227 0.71621,2.35395 0.6726,0.6197 3.50872,1.36286 3.86011,1.01148 z m 10.58113,-0.9946 c 0.5509,-0.71198 0.18254,-1.50791 -0.73857,-1.59584 -0.59031,-0.0563 -1.31188,0.46632 -1.31188,0.95026 0,0.65459 1.64317,1.17193 2.05045,0.64558 z m 4.72765,-0.13664 c 0.80845,-0.32496 0.22839,-1.74374 -0.71291,-1.74374 -0.60227,0 -1.21228,0.72261 -1.07425,1.27255 0.15167,0.60431 0.93933,0.81197 1.78716,0.47119 z m 25.53634,15.35457 c -0.16588,-0.43712 0.24401,-2.58977 0.68135,-3.5783 0.47131,-1.06528 0.60688,-1.66367 1.02216,-4.51169 0.30177,-2.06961 0.33376,-3.48249 0.0892,-3.9395 -0.38181,-0.71343 -0.38641,-2.15153 -0.0117,-3.65658 0.40308,-1.619 0.4603,-1.73532 0.72393,-1.47169 0.12286,0.12286 0.115,0.68335 -0.0249,1.77403 -0.17661,1.37713 -0.16194,1.82783 0.1077,3.30711 0.36477,2.00121 0.36477,3.5887 0,5.63517 -0.24832,1.39318 -0.69246,2.85827 -0.98604,3.25263 -0.14651,0.1968 -0.77777,2.16829 -0.93703,2.92645 -0.1034,0.49224 -0.5157,0.65499 -0.66468,0.26237 z m -56.61359,-13.99927 c 0.0401,-0.0272 0.23032,-0.16497 0.42272,-0.30611 0.32361,-0.23736 0.33184,-0.23365 0.10978,0.0495 -0.13204,0.16836 -0.32227,0.30611 -0.42272,0.30611 -0.10046,0 -0.14986,-0.0223 -0.10978,-0.0495 z m -16.80678,-1.60846 c 0,-0.046 0.53131,-0.6219 1.1807,-1.27971 1.0147,-1.02786 1.51414,-1.3604 3.55227,-2.36517 1.30436,-0.64303 2.45318,-1.16915 2.55294,-1.16915 0.0998,0 0.31398,-0.14653 0.47606,-0.32562 0.16207,-0.17908 0.62687,-0.46449 1.03289,-0.63423 0.40602,-0.16974 0.97436,-0.41478 1.26297,-0.54453 1.22174,-0.54923 2.86949,-1.1056 3.84821,-1.29938 0.57724,-0.11427 1.12823,-0.26807 1.22444,-0.34177 0.25003,-0.19152 1.29133,-0.37579 2.03645,-0.36037 0.3504,0.007 0.86203,-0.0782 1.13697,-0.18993 0.27492,-0.11171 0.85408,-0.26581 1.28701,-0.34243 0.43292,-0.0766 1.37749,-0.30023 2.09902,-0.49693 0.72154,-0.19668 1.82353,-0.39835 2.44887,-0.44815 1.98031,-0.15767 2.36289,-0.25136 6.16219,-1.50915 1.12838,-0.37355 2.14022,-0.67919 2.24854,-0.67919 0.10832,0 0.56258,-0.18364 1.00948,-0.40809 0.72899,-0.36613 1.67059,-0.56446 3.52378,-0.74223 0.33672,-0.0323 1.0845,-0.14144 1.66173,-0.24253 1.69605,-0.29703 2.27979,-0.354 5.68486,-0.55479 5.70532,-0.33646 10.69403,-0.2366 13.03812,0.26099 0.66977,0.14217 1.96555,0.3915 2.8795,0.55406 2.06662,0.36758 3.01143,0.68855 3.43322,1.16634 0.32473,0.36783 0.32379,0.36991 -0.10976,0.24264 -0.24052,-0.0706 -0.63408,-0.14808 -0.8746,-0.17216 -0.24051,-0.0241 -0.59522,-0.12862 -0.78823,-0.23227 -0.72145,-0.38745 -10.86869,-0.6792 -12.74913,-0.36656 -0.58759,0.0977 -1.26515,0.17642 -1.50566,0.17494 -0.24051,-10e-4 -0.71279,0.0649 -1.04951,0.14759 -0.33672,0.0827 -1.35111,0.19657 -2.25421,0.25314 -0.90308,0.0566 -1.6967,0.13668 -1.76359,0.17801 -0.0669,0.0414 -0.7842,0.11122 -1.59402,0.15528 -2.43241,0.13234 -4.0562,0.29314 -4.79585,0.47492 -0.38483,0.0946 -1.21131,0.2443 -1.83665,0.33273 -1.43831,0.20338 -4.74852,0.92426 -5.00187,1.08927 -0.10538,0.0686 -0.53831,0.1722 -0.96205,0.23013 -1.30834,0.17886 -2.49214,0.44445 -3.13185,0.70263 -0.33673,0.13591 -1.28129,0.3711 -2.09904,0.52266 -0.81774,0.15156 -1.84102,0.34165 -2.27394,0.42241 -0.43292,0.0808 -1.57271,0.34539 -2.53286,0.58807 -0.96016,0.2427 -1.79365,0.41164 -1.85222,0.37544 -0.14049,-0.0868 -2.99941,0.8379 -4.04924,1.30975 -0.45394,0.20403 -1.3985,0.52134 -2.09902,0.70515 -1.06906,0.28051 -3.54213,1.34047 -4.50968,1.93287 -0.14431,0.0883 -0.53788,0.28743 -0.87459,0.4424 -0.33672,0.15498 -0.73029,0.35405 -0.8746,0.44238 -0.52243,0.31979 -2.14753,1.03472 -2.35201,1.03472 -0.11519,0 -0.51865,0.23395 -0.89656,0.51989 -0.65164,0.49306 -0.94948,0.63294 -0.94948,0.44593 z m 76.01986,-4.99376 c 0.01,-0.23787 0.15291,-1.02284 0.31825,-1.74439 0.16534,-0.72154 0.35925,-1.76298 0.4309,-2.31432 0.15278,-1.17557 0.30658,-1.39708 0.64687,-0.93169 0.33938,0.46412 0.31117,1.332 -0.0909,2.79756 -0.18645,0.67957 -0.42695,1.57505 -0.53445,1.98995 -0.14562,0.56202 -0.27104,0.7392 -0.49187,0.69488 -0.18908,-0.0379 -0.29004,-0.21611 -0.27879,-0.49199 z m -56.14835,-6.20808 c 0.38785,-0.59193 1.63567,-1.24725 2.82352,-1.48285 1.9368,-0.38413 2.33212,-0.53222 2.47956,-0.92881 0.18822,-0.50628 0.0857,-0.73213 -0.44143,-0.9723 -1.19727,-0.54551 -4.21562,0.17334 -6.16192,1.46755 -0.87014,0.57859 -1.356,0.79321 -1.70337,0.75237 -0.26728,-0.0314 -0.51248,-0.1381 -0.54487,-0.23707 -0.0802,-0.24486 0.84713,-0.77184 1.48978,-0.84667 0.28771,-0.0335 0.73739,-0.22946 0.99929,-0.43547 0.2619,-0.20601 0.56891,-0.37456 0.68224,-0.37456 0.11334,0 0.42406,-0.22753 0.69048,-0.50562 0.47333,-0.49405 0.47789,-0.51823 0.19927,-1.05703 -0.53816,-1.04067 -1.59215,-1.15325 -2.56537,-0.274 -0.37271,0.33671 -0.80588,0.61221 -0.96261,0.61221 -0.15673,0 -0.55583,0.16741 -0.88689,0.37202 -0.43816,0.2708 -0.65435,0.31961 -0.79456,0.17941 -0.25034,-0.25035 2.14177,-2.60152 2.81201,-2.76387 0.25702,-0.0623 0.97893,-0.42547 1.60427,-0.80714 0.62533,-0.38167 1.34966,-0.82191 1.60961,-0.97832 0.60762,-0.36559 0.77824,-1.00879 0.38334,-1.44515 -0.43325,-0.47874 -0.92269,-0.40738 -1.90749,0.27813 -1.52477,1.06136 -4.30708,2.38951 -4.5622,2.17777 -0.34079,-0.28284 -0.0999,-0.67562 0.74172,-1.20935 1.12595,-0.71406 3.03534,-2.84169 3.03534,-3.38228 0,-0.51724 -0.41491,-0.99224 -0.86673,-0.99224 -0.2812,0 -1.27487,0.93632 -1.69167,1.59404 -0.0846,0.13344 -0.36999,0.43344 -0.63431,0.66667 l -0.48058,0.42406 v -0.45023 c 0,-0.25095 0.29969,-0.84907 0.67709,-1.35134 0.52553,-0.69942 0.97699,-1.05178 2.01693,-1.57422 0.7369,-0.3702 1.533,-0.72158 1.7691,-0.78084 0.5685,-0.14268 0.76062,-0.86996 0.34974,-1.32397 -0.62949,-0.69558 -2.10491,-0.58701 -3.91408,0.28804 -0.76798,0.37145 -0.96553,0.40995 -1.09057,0.21255 -0.33764,-0.53308 -0.15049,-0.99212 0.67281,-1.65021 0.94761,-0.75746 1.4601,-1.27437 2.39674,-2.41741 0.50638,-0.61798 0.63464,-0.90403 0.55235,-1.23191 -0.15599,-0.62152 -0.61958,-1.02059 -1.05105,-0.90476 -0.20212,0.0542 -0.4621,0.0997 -0.57774,0.10104 -0.11564,0.001 -0.44592,0.33692 -0.73398,0.7458 -0.28805,0.40887 -0.91096,1.17506 -1.38425,1.70265 -0.7324,0.81643 -0.90065,0.92593 -1.13011,0.7355 -0.31517,-0.26156 -0.17225,-1.00648 0.44259,-2.30697 0.70145,-1.48366 0.36055,-2.97362 -0.68038,-2.97362 -0.50521,0 -0.86654,0.54634 -1.02938,1.55646 -0.0682,0.42312 -0.2332,1.03062 -0.36665,1.35 -0.13344,0.31938 -0.24262,0.88232 -0.24262,1.25099 0,0.68443 -0.24085,1.09012 -0.6472,1.09012 -0.29778,0 -0.28674,-0.5013 0.0462,-2.0972 0.27,-1.29423 0.26871,-1.31378 -0.10698,-1.618 -0.54088,-0.43798 -0.70514,-0.39506 -1.53315,0.40056 -0.40554,0.38968 -0.81496,0.66053 -0.90983,0.6019 -0.0949,-0.0586 -0.1725,-0.36874 -0.1725,-0.68913 0,-0.32037 -0.14344,-0.75966 -0.31876,-0.97617 -0.2943,-0.36343 -0.35807,-0.37499 -0.83086,-0.15056 -0.37309,0.1771 -0.5826,0.46312 -0.77177,1.05364 -0.20823,0.64997 -0.371,0.85082 -0.82161,1.01376 -0.53725,0.19427 -0.88225,0.71505 -0.68506,1.0341 0.0511,0.0827 -0.16069,0.57533 -0.47062,1.0948 -0.55747,0.93439 -0.57567,0.94661 -1.6996,1.14046 -0.62485,0.10778 -1.37223,0.29342 -1.66085,0.41254 -0.72238,0.29815 -2.18649,0.36676 -2.18649,0.10247 0,-0.3532 0.71614,-1.18864 2.83128,-3.30296 1.12427,-1.12384 2.1572,-2.04334 2.29539,-2.04334 0.22767,0 0.64801,-0.42383 2.08874,-2.1061 0.26456,-0.30891 0.48102,-0.61975 0.48102,-0.69074 0,-0.22187 0.94288,-1.08519 1.35805,-1.24345 0.24445,-0.0932 0.88036,-0.0607 1.66173,0.0849 1.5343,0.28594 1.68483,0.30383 3.02702,0.35969 0.92898,0.0387 1.93032,0.29638 3.13644,0.80722 1.1524,0.48808 1.64836,0.51258 3.41092,0.1685 2.2445,-0.43817 2.41381,-0.37797 3.18731,1.13313 0.19698,0.38483 0.56402,0.95093 0.81563,1.258 0.25162,0.30708 0.72145,0.93743 1.04407,1.40078 0.32263,0.46335 1.10976,1.23538 1.74919,1.71562 0.63944,0.48024 1.20196,0.9227 1.25006,0.98324 0.0771,0.097 1.18673,0.80329 3.54232,2.25465 0.54819,0.33777 0.90214,0.7869 1.5163,1.92411 0.44064,0.81592 1.21441,2.0993 1.71949,2.85195 0.50508,0.75265 0.91833,1.43749 0.91833,1.52185 0,0.0844 0.10537,0.21633 0.23416,0.29327 0.12878,0.0769 0.30928,0.2781 0.40111,0.44705 0.18713,0.34429 1.94896,1.52947 2.27362,1.52947 0.2437,0 2.51359,2.66898 2.51359,2.95553 0,0.10616 -0.13775,0.19832 -0.30611,0.20482 -0.7185,0.0277 -1.51213,0.17711 -1.68941,0.31802 -0.24166,0.19208 -4.08078,0.59376 -4.31159,0.45111 -0.22497,-0.13904 -1.31971,0.21614 -2.07819,0.67424 -1.42887,0.863 -6.41458,2.30459 -10.04355,2.90403 -1.14067,0.18842 -2.11588,0.38453 -2.16716,0.4358 -0.26203,0.26203 -0.35285,-0.1477 -0.11365,-0.51276 z m 11.7888,-4.8222 c 0.72154,-0.37285 1.52835,-0.67938 1.79292,-0.68119 0.47081,-0.003 1.1807,-0.53103 1.1807,-0.87788 0,-0.36944 -0.67781,-0.82639 -1.3962,-0.94126 -0.89097,-0.14247 -1.50775,0.0393 -3.08626,0.90967 -1.35706,0.74824 -1.61705,1.19018 -1.09248,1.85707 0.47953,0.60962 1.01142,0.55515 2.60132,-0.26641 z m 46.35349,2.4676 c 0,-0.32682 -1.79335,-1.90955 -2.28633,-2.01783 -0.28181,-0.0619 -0.51237,-0.17968 -0.51237,-0.26176 0,-0.35641 0.72749,-0.32158 1.81235,0.0868 0.64309,0.24206 1.36054,0.4401 1.59433,0.4401 0.23379,0 0.63037,0.0935 0.88129,0.20787 0.37119,0.16912 0.43677,0.29138 0.35182,0.65595 -0.0574,0.24644 -0.34044,0.66585 -0.62894,0.93202 -0.42756,0.39448 -0.5881,0.44994 -0.86834,0.29996 -0.1891,-0.1012 -0.34381,-0.25558 -0.34381,-0.34307 z m 1.61742,-4.945 c -0.096,-0.12025 -0.21227,-0.83406 -0.2583,-1.58625 -0.0985,-1.60993 -0.37004,-2.03819 -1.12343,-1.77194 -0.50057,0.17691 -0.66565,0.53949 -0.84132,1.84777 -0.12643,0.94153 -0.43329,1.43944 -0.80031,1.2986 -0.32217,-0.12362 -0.69248,-1.26768 -0.69489,-2.14683 -0.003,-0.88754 -0.6606,-2.14729 -1.34774,-2.57962 -0.62928,-0.39592 -0.75344,-1.04808 -0.32646,-1.71479 0.23366,-0.36486 0.34255,-0.83612 0.29679,-1.28444 -0.0111,-0.10854 -0.43581,-0.48363 -0.94385,-0.83353 -0.92637,-0.63802 -1.32665,-1.20773 -1.69823,-2.41711 -0.16583,-0.53972 -0.14844,-0.7611 0.10307,-1.31189 0.16641,-0.36443 0.43428,-0.82004 0.59528,-1.01244 0.65607,-0.78412 0.74544,-1.36127 0.36558,-2.36097 -0.33418,-0.87949 -0.34376,-1.22487 -0.034,-1.22487 0.0751,0 0.22518,0.19461 0.33356,0.43247 0.23062,0.50617 0.97306,0.75157 1.34356,0.44408 0.14051,-0.11662 0.30495,-0.47574 0.36542,-0.79806 0.14149,-0.75423 -0.4983,-1.9669 -1.23766,-2.34585 -0.28861,-0.14793 -0.55162,-0.28271 -0.58446,-0.29951 -0.21883,-0.11197 0.27007,-0.79143 0.84161,-1.16966 0.56134,-0.37148 0.91151,-0.45769 1.96225,-0.48309 2.44434,-0.0591 4.89936,0.42197 6.48552,1.27085 1.16312,0.62248 2.20997,1.74685 2.58031,2.77138 0.41495,1.1479 0.43041,1.7268 0.0772,2.88864 -0.17631,0.57989 -0.21248,0.99246 -0.10735,1.22442 0.39965,0.88178 0.58377,1.2555 0.81868,1.66173 0.57784,0.99927 0.19444,2.07224 -1.06811,2.98919 -1.5046,1.09274 -1.86064,1.50722 -1.75246,2.04009 0.0835,0.41144 -0.002,0.54924 -0.59383,0.95678 -0.43766,0.30138 -0.72605,0.65445 -0.78581,0.96205 -0.10515,0.54128 -0.51743,2.13772 -0.88737,3.43604 -0.34858,1.22336 -0.70482,1.59063 -1.08324,1.11676 z m 0.83336,-5.42248 c 0.19064,-0.31267 0.34691,-0.64936 0.34727,-0.74821 10e-4,-0.39489 -0.56558,-0.95725 -0.96517,-0.95725 -0.77928,0 -1.06952,1.28812 -0.43353,1.92411 0.47804,0.47803 0.64823,0.44264 1.05143,-0.21865 z m -3.01836,-0.16705 c 0.60746,-0.73194 0.34241,-2.23808 -0.39385,-2.23808 -0.5413,0 -0.93974,0.85005 -0.80124,1.70939 0.0865,0.53675 0.18467,0.6613 0.55528,0.70458 0.24761,0.0289 0.53552,-0.0503 0.63981,-0.17589 z m 6.40295,-3.86546 c 0.76016,-0.71694 0.91565,-1.28326 0.57567,-2.09694 -0.4595,-1.09973 -2.05791,-1.83348 -3.18763,-1.46329 -0.19934,0.0653 -0.53387,0.4238 -0.74341,0.79663 -0.96288,1.71322 -0.0263,3.33925 1.92425,3.34081 0.68627,5e-4 0.91733,-0.0926 1.43112,-0.57721 z m -7.42226,-0.0291 c 1.19989,-0.68788 1.17602,-2.84289 -0.0404,-3.63986 -0.77435,-0.50737 -1.61557,-0.55439 -2.30422,-0.12878 -0.79165,0.48927 -0.96629,0.82869 -0.96629,1.8781 0,0.67345 0.0995,0.96504 0.48103,1.41035 0.40788,0.47602 0.62731,0.57372 1.44308,0.64251 0.63592,0.0536 1.10602,-0.001 1.38672,-0.16232 z m 7.40294,-5.87906 c 0.68178,-0.39709 0.1144,-1.91009 -0.7163,-1.91009 -0.41713,0 -0.9017,0.53861 -0.9017,1.00227 0,0.23 0.22745,0.49672 0.62222,0.72964 0.34222,0.20191 0.63739,0.36472 0.65594,0.3618 0.0186,-0.003 0.17148,-0.0856 0.33984,-0.18362 z m -32.08886,97.23392 c 0.3162,-0.31619 0.25245,-0.80453 -0.13187,-1.01021 -0.18798,-0.1006 -0.81592,-0.23247 -1.39544,-0.29304 -1.15854,-0.12109 -1.44748,0.0922 -1.0729,0.79216 0.31577,0.59002 2.15899,0.95231 2.60021,0.51109 z m -35.56099,0.0819 c 0.38206,-0.0955 0.60536,-0.35655 0.60953,-0.71271 0.004,-0.32599 -1.34526,-0.87884 -2.46601,-1.01055 -0.77368,-0.0909 -1.00042,-0.0565 -1.19833,0.18196 -0.21503,0.25909 -0.18308,0.34398 0.26838,0.71303 0.28186,0.23041 0.64059,0.42175 0.79717,0.42521 0.15658,0.003 0.38268,0.12436 0.50244,0.26867 0.21315,0.25683 0.78859,0.30884 1.48682,0.13439 z m -6.09633,-1.10486 c 0.51059,-0.19299 0.65881,-0.48069 0.4051,-0.78638 -0.43201,-0.52054 -1.82442,-0.1116 -1.48577,0.43636 0.20598,0.33328 0.70087,0.49358 1.08067,0.35002 z m 55.79833,-0.60603 c 0.15985,-0.41658 -0.27494,-0.78491 -0.92656,-0.78491 -0.66227,0 -0.93375,0.36729 -0.58346,0.78937 0.28687,0.34565 1.3769,0.34244 1.51002,-0.004 z"
       id="path3" /></g></svg>
