<?xml version="1.0" encoding="UTF-8" standalone="no"?>
<!-- Created with Inkscape (http://www.inkscape.org/) -->

<svg
   version="1.1"
   id="svg1"
   width="197"
   height="255"
   viewBox="0 0 197 255"
   sodipodi:docname="TEC.png"
   xml:space="preserve"
   xmlns:inkscape="http://www.inkscape.org/namespaces/inkscape"
   xmlns:sodipodi="http://sodipodi.sourceforge.net/DTD/sodipodi-0.dtd"
   xmlns="http://www.w3.org/2000/svg"
   xmlns:svg="http://www.w3.org/2000/svg"><defs
     id="defs1" /><sodipodi:namedview
     id="namedview1"
     pagecolor="#505050"
     bordercolor="#eeeeee"
     borderopacity="1"
     inkscape:showpageshadow="0"
     inkscape:pageopacity="0"
     inkscape:pagecheckerboard="0"
     inkscape:deskcolor="#505050"
     showgrid="false"><inkscape:page
       x="0"
       y="0"
       width="197"
       height="255"
       id="page2"
       margin="0"
       bleed="0" /></sodipodi:namedview><g
     inkscape:groupmode="layer"
     inkscape:label="Image"
     id="g1"><path
       style="fill:#000000"
       d="m 147.27458,158.34591 c -5.52969,-1.95802 -13.17817,-8.91546 -16.48972,-14.99985 -3.63233,-6.67379 -5.17607,-16.18804 -3.90611,-24.07377 1.37317,-8.52661 4.13838,-14.30721 9.67599,-20.227352 9.31819,-9.961905 22.58016,-13.413256 35.16371,-9.151154 7.56061,2.560807 9.1858,2.614144 10.85399,0.356216 2.20848,-2.989238 3.22555,-0.302335 3.97452,10.5 0.81455,11.74806 -0.21627,13.21403 -3.66102,5.2065 C 178.49177,95.741978 168.21028,90.515731 157.309,92.955331 145.11816,95.68352 138.85714,106.515 138.85714,124.87679 c 0,19.70851 8.64398,30.08849 25.07714,30.11344 8.12203,0.0123 13.7812,-2.58605 18.69637,-8.58437 1.98565,-2.42322 4.00607,-4.40586 4.48981,-4.40586 4.22934,0 -6.49364,12.33336 -13.60018,15.64267 -4.08011,1.89998 -6.61211,2.32484 -13.52028,2.26861 -4.81591,-0.0392 -10.33139,-0.71766 -12.72542,-1.56537 z M 24,158.01905 c 0,-0.53952 1.135498,-1.26594 2.523329,-1.61426 C 31.807867,155.07845 32,153.91695 32,123.29655 V 95.038104 l -2.570908,-0.645257 c -3.828829,-0.960975 -11.586583,0.364905 -14.420851,2.464671 -1.370468,1.01531 -2.898065,3.262722 -3.394661,4.994252 -0.894519,3.11901 -1.9989866,3.95168 -3.029623,2.28408 -0.2937423,-0.47529 -0.2545838,-3.85719 0.087019,-7.51533 L 9.2920718,89.96935 37.396036,90.234675 65.5,90.5 l 0.2958,7.3486 c 0.228143,5.66779 -5.82e-4,7.25095 -1,6.92167 -0.71269,-0.23481 -1.435064,-1.36958 -1.605275,-2.52171 C 62.711642,99.007089 58.380973,95.324698 54.243409,94.640779 48.457097,93.68433 44.516105,93.883895 43.2,95.2 c -1.727391,1.727391 -1.66839,54.32614 0.06474,57.71622 0.679392,1.32892 2.724114,2.91507 4.543826,3.52477 1.819713,0.60969 2.982213,1.4349 2.583334,1.83378 C 49.265697,159.40097 24,159.15617 24,158.01905 Z m 45,0.0585 c 0,-0.50734 1.535207,-1.42911 3.411572,-2.04837 1.876364,-0.61925 3.676364,-1.81595 4,-2.65934 C 76.735207,152.52646 77,139.07375 77,123.47492 77,95.300555 76.985334,95.103136 74.777494,93.556704 73.555115,92.700517 71.755115,92 70.777494,92 69.799872,92 69,91.55 69,91 c 0,-0.641026 9.333333,-1 26,-1 h 26 v 2.360429 c 0,1.298236 0.28617,4.448236 0.63592,7 0.52177,3.806681 0.35617,4.639571 -0.92244,4.639571 -0.89405,0 -2.05035,-1.49071 -2.71246,-3.4969 C 116.09315,94.722179 114.12492,94 100.27749,94 H 88 v 12.98095 12.98095 l 2.614236,0.65613 c 1.43783,0.36087 6.015842,0.36859 10.173364,0.0172 8.05121,-0.68058 10.59446,-2.03697 11.64152,-6.20878 0.33494,-1.33452 1.05041,-2.4264 1.58993,-2.4264 0.58181,0 0.98095,4.47576 0.98095,11 0,11.28036 -0.96097,13.67831 -3.00253,7.49232 -0.6367,-1.92922 -1.99202,-3.95422 -3.01181,-4.5 C 107.96586,125.44655 102.8269,125 97.565741,125 H 88 v 14.02475 14.02475 l 2.5651,0.97525 c 3.12489,1.18808 14.30702,1.20222 20.40461,0.0258 4.44352,-0.8573 8.13977,-3.90975 12.17098,-10.05106 2.61473,-3.9834 3.3732,-1.4809 1.44347,4.76264 C 121.1556,159.85502 123.67002,159 94.476947,159 79.586915,159 69,158.61668 69,158.07755 Z"
       id="path1" /><path
       style="fill:#000000;stroke-width:0.110555"
       d="m 166.77963,157.27519 c -0.30403,-0.0517 -0.77252,-0.0676 -1.0411,-0.0353 -0.34665,0.0417 -0.54183,0.0103 -0.67271,-0.10815 -0.14886,-0.13471 -0.25218,-0.14323 -0.53625,-0.0442 -0.20464,0.0713 -0.47827,0.0863 -0.65395,0.0358 -0.45441,-0.13068 -1.1767,-0.1354 -1.26073,-0.008 -0.0493,0.0747 -0.2347,0.0639 -0.55278,-0.0322 -0.2632,-0.0795 -0.82679,-0.1634 -1.25242,-0.18649 -1.55401,-0.0843 -2.0094,-0.12516 -2.25127,-0.20192 -0.14436,-0.0458 -0.3137,-0.0229 -0.40792,0.0554 -0.0995,0.0826 -0.36807,0.11381 -0.7026,0.0817 -0.29783,-0.0286 -0.62355,-0.006 -0.72382,0.05 -0.11614,0.065 -0.23403,0.0591 -0.32478,-0.0162 -0.255,-0.21163 -3.07948,-0.36364 -3.37404,-0.18159 -0.0685,0.0423 -0.29975,0.0191 -0.51388,-0.0515 -0.21414,-0.0707 -0.46684,-0.0988 -0.56156,-0.0624 -0.20776,0.0797 -1.58754,-0.16063 -1.58754,-0.27654 0,-0.045 -0.18394,0.008 -0.40875,0.11697 -0.25604,0.12454 -0.47289,0.16451 -0.58041,0.107 -0.0944,-0.0505 -0.35762,-0.12156 -0.5849,-0.15791 -0.24331,-0.0389 -0.45945,-0.15244 -0.52564,-0.27612 -0.12841,-0.23993 -0.7849,-0.2567 -1.01565,-0.0259 -0.18922,0.18921 -0.87853,0.16817 -1.1696,-0.0357 -0.19317,-0.1353 -0.32996,-0.14764 -0.66029,-0.0596 -0.24685,0.0658 -0.582,0.0733 -0.82238,0.0185 -0.22315,-0.0509 -0.52467,-0.0699 -0.67005,-0.0421 -0.30206,0.0577 -0.56339,-0.18669 -0.4673,-0.4371 0.0699,-0.18212 1.43381,-0.37115 1.81198,-0.25113 0.11549,0.0367 0.24198,0.0149 0.28109,-0.0484 0.0391,-0.0633 0.25547,-0.11505 0.4808,-0.11505 0.22533,0 0.6064,-0.10543 0.84682,-0.23429 0.24042,-0.12886 0.66453,-0.24656 0.94245,-0.26156 0.27793,-0.015 0.61302,-0.0614 0.74466,-0.10322 0.14654,-0.0465 0.34115,-0.009 0.50194,0.0961 0.14444,0.0946 0.29488,0.13981 0.33431,0.10038 0.0394,-0.0394 0.53295,-0.083 1.09672,-0.0969 0.56376,-0.0139 1.38896,-0.10616 1.83377,-0.20508 0.88008,-0.19573 1.75753,-0.23163 1.99432,-0.0816 0.0827,0.0524 0.28064,0.0528 0.44222,9.7e-4 0.16085,-0.0517 0.49146,-0.1264 0.73468,-0.16603 0.24322,-0.0396 0.38003,-0.0947 0.30402,-0.12238 -0.076,-0.0277 -0.13819,-0.11745 -0.13819,-0.1995 0,-0.082 -0.0995,-0.18075 -0.22111,-0.21935 -0.22389,-0.071 -0.31414,-0.38694 -0.11056,-0.38694 0.15832,0 0.13635,-0.22937 -0.0415,-0.43351 -0.40054,-0.4597 -1.07343,-1.96889 -1.11293,-2.49614 -0.0204,-0.27254 -0.44348,-1.45434 -0.57697,-1.61175 -0.0814,-0.096 -0.14801,-0.23484 -0.14801,-0.30855 0,-0.0737 -0.0989,-0.44291 -0.21971,-0.82045 -0.12085,-0.37754 -0.21363,-0.91032 -0.20619,-1.18394 0.0258,-0.94821 -0.0807,-1.85635 -0.24003,-2.04839 -0.1219,-0.14688 -0.16051,-0.54355 -0.16169,-1.6611 -9.6e-4,-0.80748 -0.0377,-1.50425 -0.0818,-1.54839 -0.0441,-0.0441 -0.14561,-0.026 -0.2255,0.0403 -0.18462,0.15322 -2.60823,0.24694 -2.69641,0.10427 -0.0357,-0.0578 -0.21165,-0.0757 -0.39098,-0.0398 -0.5001,0.10002 -0.94442,-0.1908 -1.21302,-0.79397 -0.12745,-0.28619 -0.27042,-0.5994 -0.31772,-0.69602 -0.0473,-0.0966 -0.12072,-0.45357 -0.16316,-0.79323 -0.0921,-0.73722 -0.37585,-1.11072 -0.76884,-1.01208 -0.47571,0.11939 -1.00776,-0.37185 -1.55537,-1.43606 -0.27137,-0.5274 -0.49341,-1.08266 -0.49341,-1.23392 0,-0.30531 0.61349,-1.59537 0.75869,-1.59537 0.0507,0 0.18362,-0.20279 0.29539,-0.45065 0.19559,-0.43375 0.1958,-0.46443 0.006,-0.81753 -0.12182,-0.2262 -0.1686,-0.45814 -0.12202,-0.60491 0.0416,-0.13093 0.02,-0.30502 -0.048,-0.38688 -0.0679,-0.0819 -0.15352,-0.41527 -0.19021,-0.74093 -0.0905,-0.80373 -0.15782,-0.90141 -0.73917,-1.07306 -0.33523,-0.099 -0.59722,-0.27176 -0.7846,-0.51742 -0.48992,-0.64232 -0.33213,-1.27314 0.44062,-1.76159 0.49117,-0.31046 0.63502,-0.50714 0.54869,-0.75016 -0.027,-0.076 0.0651,-0.36206 0.20473,-0.63568 0.27534,-0.5397 0.67174,-0.75602 1.40664,-0.76765 0.21698,-0.003 0.63985,-0.0762 0.93971,-0.1618 0.76602,-0.21857 1.80269,-0.32418 1.96062,-0.19975 0.13723,0.10813 1.57638,-0.13491 1.78997,-0.30229 0.0612,-0.0479 0.27303,-0.0904 0.47075,-0.0943 0.56963,-0.0114 0.80126,-0.12362 0.802,-0.3887 2.4e-4,-0.13529 0.24418,-0.50555 0.55495,-0.84283 0.30485,-0.33083 0.53895,-0.64748 0.52022,-0.70365 -0.0436,-0.13079 -1.05955,-0.51876 -1.35874,-0.51888 -0.12519,-5e-5 -0.32419,-0.0731 -0.44222,-0.1624 -0.12308,-0.0931 -0.46048,-0.16382 -0.79112,-0.16583 -0.46207,-0.003 -0.60012,-0.0476 -0.69539,-0.22563 -0.0882,-0.16485 -0.18799,-0.20475 -0.38701,-0.1548 -0.18228,0.0457 -0.36266,-0.007 -0.56326,-0.16484 -0.16232,-0.12767 -0.40985,-0.23213 -0.55007,-0.23213 -0.14022,0 -0.28779,-0.0531 -0.32794,-0.11809 -0.0401,-0.0649 -0.14263,-0.0914 -0.22776,-0.0587 -0.0851,0.0327 -0.33579,-0.0634 -0.55702,-0.21357 -0.22207,-0.1507 -0.56197,-0.27297 -0.75884,-0.27297 -0.19613,0 -0.47541,-0.0934 -0.62062,-0.20768 -0.4792,-0.37693 -1.08648,-0.67211 -1.25206,-0.60857 -0.48391,0.18569 -1.48047,-0.59817 -1.33663,-1.05136 0.0909,-0.28638 0.84633,-1.07486 1.10929,-1.15781 0.12161,-0.0384 0.45723,-0.2937 0.74583,-0.56742 0.2886,-0.27372 0.59182,-0.49768 0.67383,-0.49768 0.082,0 0.24389,-0.1052 0.35972,-0.23379 0.11583,-0.12859 0.31873,-0.27516 0.45088,-0.32571 0.13215,-0.0506 0.25653,-0.20653 0.27639,-0.34661 0.0217,-0.15309 0.12432,-0.2687 0.25722,-0.28978 0.1216,-0.0193 0.3206,-0.19148 0.44221,-0.38265 0.14331,-0.22528 0.3455,-0.37295 0.57462,-0.41964 0.45038,-0.0918 1.4454,-0.91894 1.49152,-1.23987 0.0251,-0.1748 0.10244,-0.23752 0.27151,-0.2202 0.15514,0.0159 0.25609,-0.0511 0.2937,-0.19495 0.0315,-0.12054 0.23592,-0.29379 0.45422,-0.385 0.25487,-0.10649 0.3969,-0.23981 0.3969,-0.37257 0,-0.11795 0.10111,-0.23317 0.23547,-0.2683 0.1516,-0.0396 0.21301,-0.12011 0.17241,-0.2259 -0.0402,-0.10467 0.0851,-0.27591 0.34494,-0.47165 0.2244,-0.16903 0.607,-0.49132 0.85022,-0.71621 1.22743,-1.13493 1.83539,-1.64636 1.96138,-1.64996 0.0765,-0.002 0.28367,-0.12214 0.4603,-0.26655 0.30891,-0.25258 0.31644,-0.28086 0.1976,-0.74227 -0.24889,-0.96632 -0.27545,-1.41365 -0.0882,-1.48549 0.12455,-0.0478 0.1452,-0.11942 0.0732,-0.25392 -0.15279,-0.2855 -0.089,-2.51586 0.0767,-2.68155 0.076,-0.076 0.13819,-0.27394 0.13819,-0.43985 0,-0.16591 0.0628,-0.3674 0.13948,-0.44774 0.0767,-0.0803 0.19846,-0.27947 0.27054,-0.44249 0.20739,-0.46902 0.70425,-0.76825 1.34974,-0.81289 0.46472,-0.0321 0.61683,0.003 0.80044,0.18702 0.16344,0.16344 0.31333,0.20937 0.5372,0.16459 0.20089,-0.0402 0.35772,-0.005 0.44424,0.099 0.0736,0.0886 0.19891,0.16114 0.27858,0.16114 0.0797,0 0.17642,0.0995 0.21502,0.22111 0.0386,0.12161 0.10931,0.22111 0.15714,0.22111 0.0478,0 0.21663,0.12017 0.37511,0.26705 0.15849,0.14688 0.37738,0.33344 0.48643,0.41458 0.10905,0.0811 0.32173,0.33164 0.47264,0.55666 0.1509,0.22502 0.38626,0.43721 0.52302,0.47154 0.14593,0.0366 0.27775,0.17831 0.31907,0.34294 0.0622,0.24773 0.11085,0.27203 0.41626,0.20778 0.19022,-0.04 0.39312,-0.11726 0.45088,-0.17166 0.0578,-0.0544 0.37197,-0.0989 0.69824,-0.0989 0.32626,0 0.69919,-0.0567 0.82873,-0.12605 0.12954,-0.0693 0.7357,-0.13896 1.34702,-0.15473 0.61133,-0.0158 1.28563,-0.0657 1.49844,-0.1109 0.43283,-0.092 0.67667,-0.0942 1.9021,-0.0175 0.61327,0.0384 0.96112,0.12087 1.24206,0.29451 0.36523,0.22572 0.83581,0.23348 0.83581,0.0138 0,-0.0473 0.31907,-0.32024 0.70906,-0.60655 0.38998,-0.28632 0.73667,-0.59252 0.77041,-0.68046 0.0337,-0.0879 0.1557,-0.15988 0.27102,-0.15988 0.11532,0 0.33616,-0.0995 0.49076,-0.22111 0.15461,-0.12161 0.42885,-0.22111 0.60942,-0.22111 0.18059,0 0.38624,-0.0698 0.45703,-0.15506 0.0708,-0.0853 0.36293,-0.18306 0.64922,-0.21728 0.71495,-0.0854 0.9143,-0.12091 1.26927,-0.22571 0.16859,-0.0498 0.62418,-0.0565 1.01241,-0.0149 0.64607,0.0692 0.71726,0.10305 0.84008,0.39955 0.0738,0.17818 0.2015,0.32396 0.28376,0.32396 0.21006,0 0.48693,0.58151 0.48693,1.02267 0,0.20367 0.0593,0.42963 0.13181,0.50213 0.0741,0.0741 0.12197,0.37433 0.10934,0.68544 -0.0344,0.84836 -0.0364,0.99315 -0.0248,1.825 0.006,0.42564 -0.0425,1.02263 -0.10767,1.32666 -0.0651,0.30402 -0.12283,0.62739 -0.12821,0.7186 -0.005,0.0912 -0.0858,0.25327 -0.17882,0.36013 -0.0946,0.10872 -0.16282,0.37652 -0.15493,0.60805 0.0125,0.36812 0.11454,0.50825 0.92484,1.27055 0.50091,0.47124 0.97348,0.8568 1.05016,0.8568 0.0767,0 0.19469,0.10327 0.26223,0.22948 0.0675,0.12621 0.21855,0.32521 0.33556,0.44221 0.117,0.11701 0.21274,0.2625 0.21274,0.3233 0,0.0608 0.0759,0.11055 0.16856,0.11055 0.0927,0 0.21199,0.11421 0.26506,0.25379 0.0531,0.13958 0.31841,0.43563 0.58965,0.65789 0.27124,0.22226 0.55526,0.55402 0.63115,0.73723 0.0759,0.18322 0.30681,0.43273 0.51315,0.55448 0.29545,0.17431 0.37518,0.29264 0.37518,0.55675 0,0.18447 0.0481,0.33539 0.10695,0.33539 0.0588,0 0.62802,0.53481 1.26488,1.18846 1.71498,1.76021 1.75566,1.79651 2.01295,1.79651 0.2276,0 0.81629,0.62715 0.81629,0.86961 0,0.0608 0.0953,0.14074 0.21187,0.17773 0.26845,0.0852 0.44986,0.58962 0.32928,0.91558 -0.0505,0.1365 -0.13072,0.25111 -0.17829,0.2547 -0.0476,0.004 -0.27309,0.0208 -0.50117,0.0382 -0.22809,0.0174 -0.51321,0.12088 -0.63362,0.22984 -0.1788,0.16181 -0.24958,0.17267 -0.38626,0.0592 -0.13562,-0.11256 -0.2172,-0.10623 -0.43022,0.0333 -0.14458,0.0947 -0.35749,0.14749 -0.47313,0.11725 -0.11564,-0.0302 -0.35828,0.0222 -0.5392,0.11655 -0.18092,0.0943 -0.4877,0.17183 -0.68173,0.17221 -0.19403,2.4e-4 -0.38691,0.0559 -0.42863,0.12341 -0.0443,0.0717 -0.23018,0.0977 -0.44672,0.0626 -0.20397,-0.0331 -0.39499,-0.0211 -0.42447,0.0266 -0.0295,0.0477 -0.43571,0.11904 -0.90273,0.15852 -0.46702,0.0395 -0.90399,0.11476 -0.97105,0.16729 -0.0671,0.0525 -0.19655,0.10124 -0.28775,0.10822 -0.0912,0.007 -0.53896,0.076 -0.99499,0.15326 -0.79066,0.13404 -0.83084,0.15521 -0.86524,0.45591 -0.0247,0.21578 0.0318,0.36289 0.17886,0.46589 0.11821,0.0828 0.24539,0.30286 0.28262,0.48901 0.0721,0.36053 0.12447,0.41828 1.4356,1.58364 0.46617,0.41434 0.84758,0.84293 0.84758,0.95244 0,0.10951 0.0995,0.32559 0.22111,0.4802 0.38264,0.48644 0.29946,0.62078 -0.3593,0.58031 -0.7051,-0.0433 -0.93916,-0.13013 -1.08487,-0.40238 -0.0612,-0.11446 -0.19759,-0.2081 -0.30298,-0.2081 -0.10538,0 -0.43214,-0.19876 -0.72612,-0.4417 -0.29398,-0.24293 -0.57119,-0.41902 -0.61601,-0.39132 -0.0991,0.0612 -0.0709,0.70562 0.0421,0.96592 0.045,0.10349 0.0482,0.24249 0.007,0.30889 -0.041,0.0664 0.006,0.24429 0.10535,0.39535 0.099,0.15106 0.15095,0.32159 0.11549,0.37896 -0.0355,0.0574 0.0165,0.2279 0.11549,0.37896 0.099,0.15105 0.15037,0.32252 0.1142,0.38103 -0.0828,0.13396 0.19187,1.20468 0.42433,1.65421 0.0963,0.18627 0.17514,0.40968 0.17514,0.49647 0,0.0868 0.0746,0.21971 0.16583,0.29541 0.1767,0.14665 0.23895,1.10554 0.0718,1.10554 -0.0517,0 -0.2545,-0.0559 -0.4506,-0.12429 -0.5381,-0.18758 -0.59717,-0.052 -0.59357,1.36245 0.003,1.02245 -0.029,1.2702 -0.17555,1.37822 -0.16315,0.12023 -0.16174,0.13827 0.0162,0.20724 0.19817,0.0768 0.52372,-0.11125 0.52372,-0.30254 0,-0.1331 1.09402,-1.14389 1.71156,-1.58136 0.2575,-0.18242 0.77632,-0.59285 1.15293,-0.91208 0.41958,-0.35565 0.78954,-0.58041 0.95538,-0.58041 0.18936,0 0.27065,-0.0613 0.27065,-0.20397 0,-0.27285 0.34394,-0.56991 0.65984,-0.56991 0.14052,0 0.31073,-0.0665 0.37824,-0.14782 0.16022,-0.19296 1.23884,-0.52573 1.44618,-0.44616 0.0885,0.0339 0.47363,-0.0162 0.85591,-0.11152 0.76244,-0.19004 1.04298,-0.21115 1.99889,-0.15044 0.59545,0.0378 0.67486,0.0765 1.12896,0.55044 0.55102,0.57504 0.69601,0.97322 0.52212,1.4339 -0.0655,0.17354 -0.0914,0.58428 -0.0575,0.91275 0.0339,0.32846 0.0234,0.68764 -0.0233,0.79816 -0.0804,0.19041 -0.10648,0.39649 -0.20104,1.59158 -0.022,0.27842 -0.12256,0.67163 -0.22341,0.87379 -0.10086,0.20216 -0.18337,0.53473 -0.18337,0.73903 0,0.2043 -0.0467,0.45784 -0.10388,0.56342 -0.0571,0.10559 -0.13121,0.32284 -0.16462,0.48279 -0.0347,0.16612 -0.15607,0.31574 -0.28307,0.34895 -0.17199,0.045 -0.22232,0.15038 -0.22232,0.46563 0,0.24009 -0.0908,0.52297 -0.2211,0.68859 -0.12161,0.1546 -0.22111,0.35075 -0.22111,0.4359 0,0.16174 -0.28391,0.65028 -0.5237,0.90117 -0.0768,0.0804 -0.13963,0.26691 -0.13963,0.41459 0,0.14766 -0.0498,0.26848 -0.11055,0.26848 -0.0608,0 -0.11056,0.0685 -0.11056,0.1523 0,0.0838 -0.0746,0.21423 -0.16583,0.28992 -0.0912,0.0757 -0.16583,0.21468 -0.16583,0.30886 0,0.0942 -0.0681,0.24977 -0.15141,0.34576 -0.0833,0.096 -0.1989,0.32242 -0.25694,0.50315 -0.058,0.18074 -0.20544,0.35487 -0.32755,0.38695 -0.27074,0.0711 -0.87348,0.74437 -1.02632,1.14636 -0.0711,0.18701 -0.19464,0.29389 -0.33971,0.29389 -0.21588,0 -1.21471,0.91075 -1.21471,1.1076 0,0.1123 -0.63614,0.44017 -0.85404,0.44017 -0.0862,0 -0.22841,0.0717 -0.316,0.15925 -0.0876,0.0876 -0.39497,0.19248 -0.68307,0.2331 -0.28809,0.0406 -0.63882,0.14622 -0.77938,0.2347 -0.14056,0.0885 -0.36495,0.14653 -0.49863,0.12901 -0.13368,-0.0175 -0.35941,0.0496 -0.50162,0.14925 -0.20459,0.1433 -0.32686,0.15729 -0.58584,0.067 -0.28096,-0.0979 -0.36613,-0.0776 -0.60179,0.14379 -0.23716,0.2228 -0.30521,0.2387 -0.50022,0.11691 -0.13148,-0.0821 -0.35762,-0.112 -0.54161,-0.0716 -0.17374,0.0382 -0.41316,0.0173 -0.53205,-0.0463 -0.18203,-0.0974 -0.26162,-0.0561 -0.50398,0.26165 -0.1583,0.20754 -0.28781,0.5021 -0.28781,0.65458 0,0.15248 -0.0497,0.30799 -0.11056,0.34557 -0.0608,0.0376 -0.11055,0.16727 -0.11055,0.28821 0,0.12094 -0.12733,0.32944 -0.28296,0.46333 -0.21957,0.18891 -0.28444,0.35058 -0.28954,0.72166 -0.005,0.39308 -0.0534,0.49958 -0.26981,0.59816 -0.14478,0.066 -0.26377,0.17414 -0.26441,0.24039 -7.3e-4,0.0662 -0.17477,0.28912 -0.38694,0.49527 -0.21217,0.20616 -0.38735,0.47978 -0.38928,0.60805 -0.005,0.29956 -0.2479,0.62017 -0.47078,0.62017 -0.26046,0 -0.70872,0.95801 -0.55919,1.19507 0.11793,0.18696 0.86989,0.27452 1.97319,0.22976 1.39003,-0.0564 3.29752,0.0352 3.70358,0.17791 0.2132,0.0749 0.80888,0.12659 1.32666,0.11509 0.51684,-0.0115 1.00337,0.0275 1.08118,0.0866 0.093,0.0706 0.23726,0.0638 0.42089,-0.0198 0.18508,-0.0843 0.34624,-0.0916 0.47729,-0.0214 0.13183,0.0706 0.23883,0.0649 0.32066,-0.0169 0.09,-0.09 0.16246,-0.0899 0.27144,4.8e-4 0.0817,0.0678 0.25789,0.0948 0.39143,0.0599 0.14016,-0.0367 0.36349,0.0156 0.52831,0.12358 0.15703,0.10289 0.35248,0.16138 0.43433,0.12997 0.0818,-0.0314 0.21378,0.0212 0.29317,0.11683 0.12799,0.15421 0.1514,0.14407 0.20654,-0.0895 0.0475,-0.20114 0.13941,-0.26548 0.38886,-0.27215 0.17968,-0.005 0.37643,-0.0254 0.43724,-0.0458 0.0608,-0.0204 0.23492,-0.006 0.38694,0.0318 0.15201,0.0379 0.99775,0.0949 1.87942,0.12662 0.88168,0.0318 1.80204,0.11392 2.04526,0.18254 0.24322,0.0686 0.64122,0.13173 0.88444,0.14025 0.31249,0.0109 0.44222,0.0641 0.44222,0.18133 0,0.12019 -0.13244,0.16909 -0.48121,0.17768 -0.27414,0.007 -0.52105,0.0763 -0.57378,0.16162 -0.0533,0.0863 -0.31801,0.15937 -0.62433,0.17243 -0.29248,0.0125 -0.78052,0.0495 -1.08455,0.0822 -1.30291,0.14044 -2.1609,0.19001 -3.0749,0.17765 -0.55659,-0.008 -1.03616,0.0381 -1.11851,0.10646 -0.10608,0.088 -0.18161,0.0745 -0.28597,-0.0512 -0.12646,-0.15237 -0.16869,-0.14564 -0.38988,0.0622 -0.21303,0.20013 -0.28009,0.21306 -0.47472,0.0915 -0.19056,-0.11901 -0.25956,-0.11176 -0.43334,0.0455 -0.13773,0.12464 -0.24356,0.15018 -0.3172,0.0765 -0.0736,-0.0736 -0.38481,-0.0585 -0.93268,0.0455 -0.45219,0.0858 -0.86422,0.13035 -0.91562,0.099 -0.0514,-0.0314 -0.21261,0.007 -0.35823,0.0847 -0.22429,0.12004 -0.29559,0.11381 -0.46636,-0.0407 -0.11086,-0.10033 -0.24816,-0.14351 -0.30509,-0.0959 -0.0569,0.0476 -0.29363,0.15089 -0.52598,0.22961 -0.37277,0.12629 -0.44754,0.12043 -0.63569,-0.0499 -0.20205,-0.18285 -0.2243,-0.18295 -0.42423,-0.002 -0.17562,0.15894 -0.28047,0.17178 -0.62531,0.0766 -0.22788,-0.0629 -0.46573,-0.0826 -0.52858,-0.0438 -0.13956,0.0863 -0.69948,0.15232 -1.50953,0.17812 -0.33442,0.0106 -0.66574,0.0568 -0.73626,0.10263 -0.0705,0.0458 -0.19489,0.0591 -0.27639,0.0296 -0.0815,-0.0295 -0.57104,0.008 -1.08788,0.0825 -0.97371,0.14115 -2.62802,0.15231 -3.33659,0.0225 -0.23035,-0.0422 -0.8779,0.003 -1.49248,0.10341 -0.59708,0.0979 -1.31487,0.19511 -1.59509,0.21611 -0.28022,0.021 -0.55384,0.0615 -0.60805,0.09 -0.0542,0.0285 -0.34731,0.01 -0.65133,-0.0421 z m 5.16791,-2.60305 c 0.0946,-0.10641 0.24991,-0.3676 0.34517,-0.58041 0.26802,-0.59876 0.71276,-1.35622 0.84387,-1.43726 0.0651,-0.0402 0.14895,-0.26809 0.18638,-0.50639 0.0374,-0.2383 0.20654,-0.59298 0.37579,-0.78819 0.16925,-0.1952 0.44009,-0.58075 0.60185,-0.85679 0.16178,-0.27604 0.36403,-0.50189 0.44946,-0.50189 0.0854,0 0.15533,-0.0966 0.15533,-0.21459 0,-0.11801 0.0527,-0.24713 0.11702,-0.28691 0.066,-0.0408 0.0871,-0.20835 0.0485,-0.3845 -0.0458,-0.20866 0.007,-0.46033 0.15936,-0.75896 0.12536,-0.24572 0.22793,-0.52803 0.22793,-0.62735 0,-0.0993 0.1043,-0.20787 0.23179,-0.24121 0.18731,-0.049 0.21983,-0.12041 0.16945,-0.3723 -0.0343,-0.17143 -0.0204,-0.33758 0.0308,-0.36924 0.11699,-0.0723 0.12345,-0.61435 0.007,-0.61435 -0.0472,0 -0.0808,-0.17702 -0.0747,-0.39338 0.0101,-0.3579 0.035,-0.38739 0.27596,-0.32692 0.25497,0.064 0.26201,0.0498 0.1893,-0.3805 -0.0619,-0.3663 -0.0438,-0.44696 0.10004,-0.44696 0.20063,0 0.23431,-0.17175 0.0554,-0.28234 -0.0865,-0.0535 -0.0865,-0.10792 0,-0.19447 0.0661,-0.0661 0.12019,-0.21068 0.12019,-0.32129 0,-0.15911 0.0575,-0.18667 0.27536,-0.132 0.19806,0.0497 0.29499,0.0179 0.34532,-0.11321 0.0947,-0.24678 -0.0262,-0.345 -0.22336,-0.18141 -0.12912,0.10717 -0.18114,0.0939 -0.26411,-0.0672 -0.12821,-0.24891 -0.0553,-0.477 0.15239,-0.477 0.10426,0 0.15662,-0.12504 0.15662,-0.37404 0,-0.28704 0.054,-0.38817 0.23223,-0.43478 0.15863,-0.0415 0.2033,-0.10689 0.14095,-0.20636 -0.0502,-0.0801 -0.0769,-0.23321 -0.0593,-0.34023 0.0176,-0.10703 -0.0707,-0.32517 -0.19623,-0.48477 -0.30063,-0.38219 -0.29651,-0.58916 0.0102,-0.50897 0.17254,0.0451 0.21475,0.0241 0.15279,-0.0762 -0.0471,-0.0762 -0.0225,-0.25645 0.0546,-0.40059 0.10826,-0.20228 0.11045,-0.29799 0.01,-0.41951 -0.10281,-0.12388 -0.0809,-0.24175 0.10266,-0.55291 0.12834,-0.2175 0.20139,-0.44713 0.16236,-0.5103 -0.039,-0.0632 -0.009,-0.28539 0.0661,-0.49385 0.10416,-0.28804 0.1063,-0.41607 0.009,-0.53338 -0.18477,-0.22263 -0.13833,-1.73474 0.0627,-2.04342 0.12801,-0.19652 0.14526,-0.45099 0.0824,-1.2161 -0.0919,-1.11857 -0.10376,-2.88134 -0.0211,-3.12339 0.11814,-0.34594 0.17305,-1.1851 0.0839,-1.28143 -0.13125,-0.14174 -0.21756,-1.25569 -0.10279,-1.32662 0.0522,-0.0323 0.0411,-0.1593 -0.0247,-0.28228 -0.0912,-0.17049 -0.0816,-0.26735 0.0408,-0.40787 0.21917,-0.25165 0.21405,-0.86892 -0.0106,-1.28094 -0.14228,-0.26092 -0.18591,-0.62917 -0.18661,-1.57506 -4.8e-4,-0.67899 -0.0426,-1.27598 -0.0936,-1.32665 -0.051,-0.0507 -0.16065,-0.25452 -0.24375,-0.45299 -0.0831,-0.19847 -0.2298,-0.39106 -0.326,-0.42798 -0.0962,-0.0369 -0.25085,-0.21397 -0.34367,-0.39346 -0.2326,-0.44979 -0.11457,-0.92099 0.26627,-1.06296 0.16368,-0.061 0.3971,-0.1494 0.51871,-0.1964 0.34038,-0.13156 0.62085,-0.17069 1.13558,-0.15844 0.2638,0.006 0.57965,-0.064 0.71557,-0.15918 0.13382,-0.0937 0.34832,-0.17042 0.47667,-0.17042 0.12835,0 0.26574,-0.0324 0.30532,-0.072 0.0396,-0.0396 0.30906,-0.0809 0.59884,-0.0919 0.65612,-0.0248 2.00042,-0.24863 2.29575,-0.38225 0.35655,-0.16133 0.86203,-0.26259 1.18152,-0.23668 0.1634,0.0133 0.41214,-0.0393 0.55277,-0.11682 0.14063,-0.0775 0.47839,-0.15687 0.75059,-0.17637 0.70148,-0.0503 0.75546,-0.16947 0.29257,-0.64609 -0.22029,-0.22683 -0.40053,-0.47813 -0.40053,-0.55845 0,-0.0803 -0.14925,-0.22321 -0.33166,-0.31754 -0.18242,-0.0943 -0.33167,-0.21187 -0.33167,-0.2612 0,-0.0836 -0.61448,-0.7687 -1.50106,-1.67351 -0.20853,-0.21281 -0.37897,-0.43838 -0.37876,-0.50126 4.9e-4,-0.12183 -0.21374,-0.34484 -1.58885,-1.6545 -0.47886,-0.45607 -0.9099,-0.82921 -0.95787,-0.82921 -0.048,0 -0.24028,-0.24875 -0.42735,-0.55277 -0.18707,-0.30403 -0.39033,-0.55277 -0.4517,-0.55277 -0.0614,0 -0.11158,-0.0695 -0.11158,-0.15438 0,-0.0849 -0.17412,-0.30727 -0.38694,-0.49412 -0.21282,-0.18686 -0.38694,-0.38614 -0.38694,-0.44286 0,-0.0567 -0.14875,-0.15497 -0.33055,-0.21834 -0.4394,-0.15318 -0.88555,-0.61213 -0.88555,-0.91096 0,-0.1324 0.0947,-0.39584 0.21044,-0.58544 0.35495,-0.58141 0.49942,-1.21201 0.34416,-1.50213 -0.10874,-0.20317 -0.10352,-0.28075 0.0277,-0.41196 0.1295,-0.12949 0.15094,-0.40728 0.10781,-1.39667 -0.0301,-0.68982 -0.004,-1.41511 0.0595,-1.64296 0.11301,-0.40673 0.0278,-0.84137 -0.26298,-1.34097 -0.1518,-0.26085 -0.83971,-0.31799 -1.40924,-0.11705 -0.23751,0.0838 -0.59361,0.15236 -0.79134,0.15236 -0.19772,0 -0.42143,0.0746 -0.49713,0.16583 -0.0757,0.0912 -0.19852,0.16584 -0.27294,0.16584 -0.2599,0 -2.09301,1.0771 -2.26981,1.3337 -0.0304,0.0441 -0.30137,0.35908 -0.60214,0.69991 -0.63698,0.72182 -0.95744,0.79966 -1.21796,0.29587 -0.16068,-0.31073 -0.55721,-0.5418 -0.69438,-0.40463 -0.0361,0.0361 -0.16003,-0.0198 -0.27542,-0.12427 -0.17293,-0.15649 -0.39803,-0.18514 -1.28035,-0.16292 -0.5888,0.0148 -1.23045,0.0846 -1.42591,0.15514 -0.27627,0.0997 -0.41374,0.097 -0.61764,-0.0122 -0.21696,-0.11611 -0.33282,-0.11088 -0.67062,0.0302 -0.22458,0.0938 -0.65269,0.19332 -0.95135,0.22106 -0.29866,0.0277 -0.62759,0.0978 -0.73095,0.15561 -0.10337,0.0579 -0.27723,0.0818 -0.38637,0.0533 -0.10914,-0.0285 -0.56225,0.11955 -1.00692,0.32908 -0.44468,0.20954 -1.10207,0.44364 -1.46088,0.52023 -0.4022,0.0859 -0.75389,0.24078 -0.9171,0.40398 -0.1456,0.1456 -0.34184,0.26473 -0.4361,0.26473 -0.0943,0 -0.30647,0.0962 -0.47158,0.21376 -0.1651,0.11756 -0.43795,0.24833 -0.60631,0.29058 -0.16837,0.0423 -0.35517,0.18238 -0.41511,0.31138 -0.11838,0.25479 -0.65961,0.62453 -1.39831,0.95526 -0.25761,0.11533 -0.49547,0.28031 -0.52858,0.3666 -0.0331,0.0863 -0.36817,0.35638 -0.74456,0.6002 -0.3764,0.24381 -0.97717,0.72254 -1.33505,1.06385 -0.35789,0.3413 -0.69369,0.62055 -0.74624,0.62055 -0.0525,0 -0.0955,0.0492 -0.0955,0.10932 0,0.11371 0.16031,0.12838 0.99499,0.091 0.27362,-0.0122 1.28423,-0.0199 2.24579,-0.0171 1.57206,0.005 1.77823,0.0275 2.04526,0.2267 0.45157,0.33682 0.43417,0.56826 -0.0783,1.04145 -0.24965,0.23052 -0.45391,0.48804 -0.45391,0.57226 0,0.0842 -0.0995,0.24318 -0.22111,0.35323 -0.12162,0.11006 -0.22111,0.25727 -0.22111,0.32712 0,0.0699 -0.18657,0.30865 -0.41458,0.53063 -1.37151,1.33521 -1.72272,1.72483 -1.86763,2.07186 -0.191,0.45741 -0.77688,1.03292 -0.88063,0.86505 -0.042,-0.0679 -0.17935,0.003 -0.33785,0.17362 -0.14691,0.15844 -0.36919,0.28807 -0.49395,0.28807 -0.12476,0 -0.34721,0.0947 -0.49434,0.21042 -0.14712,0.11573 -0.36079,0.18602 -0.47481,0.1562 -0.11403,-0.0298 -0.24075,-1.1e-4 -0.2816,0.066 -0.21111,0.34158 -2.03558,-0.13724 -2.34972,-0.61666 -0.093,-0.14198 -0.25909,-0.25815 -0.36903,-0.25815 -0.10994,0 -0.3654,-0.14965 -0.5677,-0.33255 -0.86913,-0.78584 -0.84817,-0.77403 -1.16174,-0.65481 -0.16209,0.0616 -0.40588,0.22193 -0.54176,0.35623 -0.13589,0.13431 -0.4755,0.4408 -0.7547,0.6811 -0.585,0.50349 -0.62912,0.68539 -0.20361,0.83949 0.16722,0.0606 0.40353,0.15507 0.52513,0.21004 0.12162,0.055 0.34549,0.12718 0.4975,0.16046 1.15726,0.25335 1.534,0.35959 1.66904,0.47063 0.0853,0.0701 0.43968,0.16275 0.78749,0.20579 0.34781,0.043 0.68926,0.14679 0.75877,0.23054 0.0695,0.0838 0.1691,0.1259 0.22129,0.0936 0.0522,-0.0323 0.22033,0.0235 0.37361,0.12396 0.1733,0.11355 0.38199,0.15669 0.55179,0.11407 0.21717,-0.0545 0.32268,-0.001 0.51526,0.25902 0.18285,0.24731 0.28687,0.30363 0.42464,0.2299 0.1065,-0.057 0.24904,-0.0559 0.34235,0.003 0.0879,0.0552 0.24694,0.0732 0.35334,0.0401 0.34384,-0.10699 0.63569,0.0587 0.63569,0.36092 0,0.21387 0.0428,0.26432 0.17985,0.21175 0.0989,-0.038 0.23572,-0.0232 0.30402,0.0329 0.0683,0.056 0.24689,0.11907 0.39688,0.1401 0.46584,0.0653 0.528,0.58831 0.19355,1.62851 l -0.28243,0.87837 0.23976,0.69241 c 0.23752,0.68598 0.42109,0.87861 1.14108,1.19738 0.43857,0.19418 0.73939,0.99168 0.54373,1.44151 -0.16426,0.37765 -0.51314,0.7324 -0.81278,0.82649 -0.21192,0.0665 -0.24271,0.13515 -0.19295,0.42994 0.10773,0.63823 0.19207,3.28761 0.21881,6.87349 0.0145,1.94576 0.0618,3.69469 0.10517,3.88652 0.0477,0.21119 0.0326,0.37731 -0.0382,0.42111 -0.0644,0.0398 -0.11703,0.17013 -0.11703,0.28967 0,0.15222 -0.0977,0.23689 -0.32601,0.28255 -0.17931,0.0359 -0.4109,0.15899 -0.51463,0.27362 -0.10374,0.11464 -0.30528,0.20842 -0.44787,0.20842 -0.29436,0 -0.31417,0.12515 -0.1397,0.88234 0.0797,0.34595 0.0789,0.50715 -0.003,0.53435 -0.19317,0.0644 -0.1319,0.33635 0.10426,0.46274 0.23159,0.12394 0.30616,0.44222 0.10361,0.44222 -0.0646,0 -0.10318,0.0871 -0.0857,0.19347 0.0175,0.10641 -0.0112,0.26221 -0.0639,0.34622 -0.0635,0.10132 -0.0348,0.18681 0.0851,0.25391 0.14318,0.0801 0.17514,0.25025 0.15371,0.81831 -0.02,0.53014 0.0149,0.74313 0.13359,0.81676 0.0991,0.0615 0.16813,0.30346 0.1802,0.63197 0.0179,0.48674 0.20466,1.60022 0.46251,2.75728 0.0559,0.25082 0.20543,0.60181 0.3323,0.77999 0.15469,0.21724 0.19834,0.37627 0.13253,0.48275 -0.11088,0.17942 0.48881,0.81189 0.77708,0.81957 0.11465,0.003 0.15844,0.10536 0.14187,0.33144 -0.0267,0.36491 0.24196,0.73871 0.4685,0.65178 0.10284,-0.0395 0.12965,0.0113 0.0887,0.16777 -0.0327,0.12516 0.0337,0.36118 0.15024,0.53387 0.27033,0.40054 0.44332,0.7852 0.52808,1.17419 0.0747,0.34265 0.31304,0.3494 0.37486,0.0106 0.0213,-0.11657 0.12675,-0.31144 0.23439,-0.43305 0.10765,-0.12161 0.19956,-0.29574 0.20425,-0.38694 0.005,-0.0912 0.12988,-0.76283 0.27822,-1.49249 0.29203,-1.43655 0.53492,-2.89895 0.56922,-3.42719 0.0206,-0.31739 0.0536,-0.33799 0.76588,-0.47865 0.40938,-0.0808 0.82784,-0.11354 0.92989,-0.0727 0.19345,0.0775 0.6537,0.12253 2.23082,0.21844 0.51684,0.0314 1.18316,0.0999 1.4807,0.15225 0.40823,0.0718 0.64798,0.0531 0.97701,-0.0762 0.35427,-0.13917 0.47728,-0.1455 0.65613,-0.0338 0.15667,0.0978 0.26086,0.10365 0.36146,0.0202 0.15181,-0.12599 0.80334,-0.044 1.024,0.1289 0.0828,0.0649 0.20467,0.0633 0.32526,-0.004 0.13613,-0.0762 0.26647,-0.0597 0.44314,0.0561 0.13767,0.0902 0.29168,0.13842 0.34226,0.10716 0.18919,-0.11692 0.62114,1.42305 0.47327,1.68728 -0.0549,0.0981 -0.026,0.26043 0.0734,0.41212 0.0902,0.13767 0.13056,0.30441 0.0897,0.37056 -0.0409,0.0661 -0.0147,0.19207 0.0581,0.27984 0.0728,0.0878 0.10179,0.23944 0.0643,0.33705 -0.045,0.11719 0.003,0.19609 0.14161,0.23231 0.21558,0.0564 0.34398,0.44876 0.34398,1.0512 0,0.29014 0.28841,1.14345 0.56224,1.6635 0.0556,0.10558 0.10108,0.28385 0.10108,0.39615 0,0.38325 0.20721,0.45306 0.46936,0.15812 z m 0.6362,-13.51529 c -0.0912,-0.059 -0.30762,-0.10793 -0.48091,-0.10886 -0.36308,-0.002 -1.06473,-0.62994 -1.07037,-0.95799 -0.002,-0.11249 -0.0766,-0.3011 -0.16583,-0.41913 -0.0893,-0.11803 -0.16232,-0.36286 -0.16232,-0.54407 0,-0.1812 -0.0718,-0.40886 -0.15967,-0.5059 -0.16751,-0.18509 -0.2167,-0.82669 -0.12766,-1.66512 0.0291,-0.27363 0.1075,-1.19399 0.17431,-2.04526 0.0668,-0.85127 0.16932,-1.692 0.2278,-1.86829 0.0585,-0.17628 0.10708,-0.47478 0.108,-0.66332 0.002,-0.35387 0.19369,-0.99146 0.38617,-1.28252 0.0603,-0.0912 0.15941,-0.31508 0.22021,-0.4975 0.0737,-0.22111 0.18426,-0.33166 0.33167,-0.33166 0.20849,0 0.22005,0.0676 0.20271,1.18406 -0.0101,0.65123 -0.0468,1.23007 -0.0816,1.28632 -0.0348,0.0562 -0.012,0.24916 0.0506,0.42872 0.0789,0.2264 0.0773,0.47597 -0.005,0.81422 -0.12466,0.51037 -0.24902,1.6565 -0.22087,2.03551 0.009,0.12161 0.0295,0.64398 0.0454,1.16082 0.0159,0.51685 0.0369,0.97956 0.0466,1.02826 0.01,0.0487 0.18406,-0.0384 0.38742,-0.19347 0.47817,-0.36472 0.67482,-0.35555 0.97119,0.0453 0.28116,0.38029 0.42794,0.34386 0.42794,-0.10621 0,-0.17524 0.0497,-0.34937 0.11055,-0.38694 0.0608,-0.0376 0.11056,-0.20357 0.11056,-0.36887 0,-0.1653 0.0675,-0.39867 0.14994,-0.51861 0.14145,-0.20572 0.24743,-0.79306 0.51814,-2.87138 0.24532,-1.88338 0.40519,-2.77425 0.54448,-3.03409 l 0.14487,-0.27023 0.25593,0.32097 c 0.33608,0.42148 0.43103,1.23051 0.31699,2.70091 -0.0498,0.64178 -0.0866,1.46417 -0.0817,1.82752 0.007,0.53051 -0.0327,0.68968 -0.20171,0.80806 -0.16928,0.11857 -0.18722,0.19086 -0.0917,0.3694 0.091,0.16996 0.0771,0.28559 -0.059,0.49338 -0.1247,0.19033 -0.14636,0.32761 -0.0725,0.45959 0.0669,0.11948 0.0665,0.2607 -9.7e-4,0.3868 -0.0585,0.10924 -0.0797,0.2417 -0.0471,0.29436 0.0325,0.0526 -0.012,0.15476 -0.0989,0.2269 -0.0869,0.0721 -0.13056,0.20279 -0.097,0.29032 0.0336,0.0875 0.0109,0.22071 -0.0504,0.29594 -0.0613,0.0752 -0.17174,0.33979 -0.24536,0.58791 -0.0961,0.32386 -0.23532,0.50575 -0.49354,0.64481 -0.19782,0.10654 -0.55316,0.38696 -0.78963,0.62315 -0.44271,0.44221 -0.64034,0.51172 -0.92744,0.32618 z m -1.2161,-21.3923 c -0.15201,-0.0869 -0.45051,-0.15982 -0.66333,-0.16205 -0.90048,-0.009 -2.89431,-0.56531 -3.07805,-0.85819 -0.04,-0.0638 -0.25964,-0.16734 -0.48806,-0.23012 -0.22843,-0.0628 -0.60155,-0.26068 -0.82916,-0.43976 -0.22762,-0.17909 -0.52568,-0.36045 -0.66236,-0.40303 -0.27081,-0.0844 -0.91231,-0.93766 -0.91231,-1.21352 0,-0.0942 -0.199,-0.27282 -0.44222,-0.39691 -0.24322,-0.12408 -0.44222,-0.28021 -0.44222,-0.34695 0,-0.0667 -0.14925,-0.29134 -0.33166,-0.4991 -0.18241,-0.20776 -0.33166,-0.44325 -0.33166,-0.52333 0,-0.0801 -0.14289,-0.29511 -0.31754,-0.47785 -0.17464,-0.18275 -0.40057,-0.58228 -0.50206,-0.88783 -0.10149,-0.30557 -0.28037,-0.64231 -0.39751,-0.74832 -0.2657,-0.24045 -0.14194,-0.52583 0.30081,-0.69365 0.27754,-0.1052 1.64344,-0.26157 2.52969,-0.2896 0.1881,-0.006 0.41197,-0.0685 0.49749,-0.13902 0.0968,-0.0798 0.65585,-0.13259 1.48214,-0.13984 0.72966,-0.006 1.42615,-0.0225 1.54776,-0.0358 0.59945,-0.0655 3.05923,0.29863 4.00696,0.59318 0.19726,0.0613 0.40767,0.0812 0.46757,0.0442 0.0599,-0.037 0.21651,-0.01 0.34801,0.0606 0.13151,0.0704 0.55704,0.21888 0.94564,0.33001 0.3886,0.11113 0.85798,0.32947 1.04305,0.4852 0.18508,0.15574 0.40558,0.28315 0.49001,0.28315 0.0844,0 0.32348,0.14925 0.53124,0.33167 0.20776,0.18241 0.43793,0.33166 0.5115,0.33166 0.0736,0 0.26599,0.10142 0.42762,0.22538 0.83207,0.63815 1.51766,1.10127 1.63028,1.10127 0.0694,0 0.25275,0.0995 0.40735,0.22111 0.15461,0.12161 0.35428,0.22111 0.44372,0.22111 0.0894,0 0.22446,0.1493 0.30004,0.33177 0.16209,0.39131 -0.0166,0.71359 -0.34767,0.62701 -0.10849,-0.0284 -0.32886,0.0615 -0.48972,0.19974 -0.16086,0.13822 -0.49088,0.31679 -0.73337,0.39682 -0.27166,0.0897 -0.47699,0.24042 -0.53491,0.39275 -0.10663,0.28046 -0.8373,0.81577 -1.11348,0.81577 -0.20587,0 -0.55159,0.16787 -1.0388,0.50441 -0.35795,0.24726 -1.57173,0.54621 -2.69167,0.66295 -0.46713,0.0487 -0.77336,0.14342 -0.91207,0.28213 -0.24682,0.24682 -0.28956,0.24964 -0.65105,0.043 z m -1.47578,-4.85143 c 0.009,-0.007 0.0341,-0.21197 0.0553,-0.45519 l 0.0386,-0.44222 -0.47803,-0.0344 c -0.53078,-0.0382 -0.79335,0.112 -0.79335,0.4538 0,0.4072 0.3202,0.64269 0.76477,0.56245 0.21783,-0.0393 0.40357,-0.0773 0.41276,-0.0845 z m -11.70759,2.43424 c -0.57972,-0.48901 -0.64753,-0.92509 -0.21853,-1.40522 0.30836,-0.34511 0.37712,-0.36938 1.10274,-0.38919 0.42564,-0.0116 0.93263,-0.056 1.12665,-0.0986 0.73139,-0.16064 1.22644,0.30112 1.21893,1.13696 -0.007,0.78219 -0.42225,1.00005 -2.03791,1.06926 -0.73668,0.0316 -0.80418,0.0138 -1.19188,-0.31321 z m 16.56545,-9.30159 c -0.0996,-0.15201 -0.25665,-0.27639 -0.349,-0.27639 -0.0924,0 -0.27768,-0.10227 -0.41185,-0.22727 -0.30349,-0.28274 -0.30598,-1.03639 -0.005,-1.5044 0.4836,-0.75188 1.33155,-1.36518 1.88334,-1.36216 0.6334,0.004 0.72424,0.24254 0.5766,1.51742 -0.15682,1.35409 -0.30173,1.78117 -0.66874,1.97096 -0.46193,0.23888 -0.81836,0.1978 -1.02538,-0.11816 z m -10.34701,45.703 c 1.73294,-0.01 3.38922,0.005 3.68061,0.0331 0.32848,0.0316 0.60156,-0.002 0.7186,-0.0881 0.17703,-0.13047 0.17728,-0.16202 0.004,-0.50626 -0.10169,-0.20192 -0.21675,-0.56612 -0.2557,-0.80934 -0.11316,-0.70671 -0.47765,-1.84955 -0.71061,-2.22812 l -0.21457,-0.34868 -1.14126,-0.0434 c -0.64856,-0.0247 -1.20458,0.004 -1.28794,0.0652 -0.10011,0.0742 -0.25804,0.0524 -0.49749,-0.0685 -0.19295,-0.0974 -0.69907,-0.20647 -1.12471,-0.24228 -0.42563,-0.0358 -0.87338,-0.0921 -0.99499,-0.12509 -0.40291,-0.10929 -0.64125,0.19198 -0.66977,0.84663 -0.0291,0.66783 -0.26047,1.6874 -0.46614,2.05405 -0.0745,0.13281 -0.13546,0.36505 -0.13546,0.51609 0,0.38419 -0.10836,0.62436 -0.28169,0.62436 -0.0811,0 -0.17823,0.0498 -0.21581,0.11055 -0.106,0.17152 0.0533,0.34697 0.25805,0.2842 0.10129,-0.031 1.60203,-0.0645 3.33497,-0.0744 z m 16.14549,-9.64055 c 0.36655,-0.32322 0.40251,-0.90631 0.12196,-1.97742 -0.22491,-0.85871 -0.76752,-1.97993 -0.99483,-2.0557 -0.09,-0.03 -0.13056,0.0784 -0.12166,0.3249 0.007,0.20345 -0.0214,0.48184 -0.064,0.61866 -0.0431,0.13872 -0.0305,0.24874 0.0286,0.24874 0.17407,0 0.4043,0.90056 0.25399,0.99346 -0.0822,0.0508 -0.0264,0.14344 0.16027,0.26574 0.15758,0.10325 0.25774,0.23427 0.22259,0.29115 -0.0352,0.0569 -0.004,0.30331 0.0692,0.54761 0.11436,0.38169 0.1073,0.47268 -0.0502,0.64667 -0.37492,0.41429 -0.0743,0.49159 0.37407,0.0962 z m 3.24694,-1.23778 c -0.0525,-0.209 -0.026,-0.27638 0.10845,-0.27638 0.0978,0 0.17782,0.0717 0.17782,0.1593 0,0.2458 0.23812,0.33558 0.35171,0.13261 0.0558,-0.0998 0.16168,-0.18136 0.23524,-0.18136 0.0736,0 0.19588,-0.0995 0.27183,-0.22111 0.18299,-0.29301 0.31998,-0.27889 0.49272,0.0508 0.10325,0.19707 0.18649,0.24469 0.30245,0.17302 0.12607,-0.0779 0.13405,-0.15313 0.0376,-0.35481 -0.1601,-0.33491 -0.12217,-0.92807 0.0569,-0.8906 0.36219,0.0758 0.27824,-0.71193 -0.11491,-1.07821 -0.21343,-0.19883 -0.22775,-0.26725 -0.11728,-0.55993 0.1093,-0.28956 0.0978,-0.35092 -0.0872,-0.46647 -0.11718,-0.0732 -0.21305,-0.21128 -0.21305,-0.30688 0,-0.30273 -0.53939,-1.30581 -0.76795,-1.42813 -0.12074,-0.0646 -0.27289,-0.31564 -0.3381,-0.55783 -0.0876,-0.3255 -0.17574,-0.44034 -0.33779,-0.44034 -0.1261,0 -0.2723,-0.1165 -0.34418,-0.27426 -0.0687,-0.15084 -0.21691,-0.30344 -0.3293,-0.33911 -0.11238,-0.0357 -0.20433,-0.16632 -0.20433,-0.29034 0,-0.15485 -0.0519,-0.20559 -0.16556,-0.16196 -0.0911,0.035 -0.33554,-0.0367 -0.54329,-0.15932 l -0.37772,-0.22286 -0.35965,0.44754 c -0.19781,0.24615 -0.42446,0.44754 -0.50367,0.44754 -0.0792,0 -0.25437,0.14925 -0.38923,0.33167 -0.14947,0.20216 -0.345,0.33166 -0.50081,0.33166 -0.26181,0 -0.34273,0.1542 -0.14504,0.27638 0.0608,0.0376 0.11056,0.20428 0.11056,0.37043 0,0.31238 0.54667,0.99268 0.98709,1.22839 0.12595,0.0674 0.22901,0.17347 0.22901,0.23571 0,0.0622 0.14382,0.29679 0.3196,0.52124 0.17577,0.22445 0.38119,0.60709 0.45647,0.85031 0.11878,0.38375 0.2904,0.77508 0.53865,1.22823 0.037,0.0675 0.16148,0.25631 0.27669,0.41962 0.11522,0.16331 0.21472,0.47902 0.22111,0.70156 0.01,0.33268 0.0608,0.4183 0.28801,0.48144 0.4361,0.12119 0.45036,0.11448 0.37706,-0.17754 z m -31.27704,-3.09105 c 1.27929,-0.15025 2.19049,-0.44017 2.28624,-0.72742 0.0521,-0.15632 -0.0915,-2.10961 -0.18714,-2.54492 -0.0685,-0.31211 -0.10125,-0.33256 -0.42337,-0.26477 -0.19199,0.0404 -0.39634,0.11797 -0.45411,0.17237 -0.0578,0.0544 -0.24139,0.0989 -0.40805,0.0989 -0.16667,0 -0.33667,0.0544 -0.37779,0.12096 -0.0411,0.0665 -0.20521,0.096 -0.36465,0.0656 -0.15944,-0.0305 -0.36749,-0.0139 -0.46233,0.0369 -0.26718,0.14299 -2.13756,0.32166 -2.2648,0.21635 -0.1562,-0.12928 -1.0551,0.004 -1.11712,0.16563 -0.0277,0.0723 -0.002,0.32637 0.0575,0.56457 0.0594,0.23821 0.18814,0.75627 0.28616,1.15124 0.098,0.39497 0.22782,0.76809 0.28847,0.82916 0.14391,0.1449 1.30844,0.37697 1.59322,0.3175 0.12161,-0.0254 0.81811,-0.11629 1.54777,-0.202 z m 35.74359,-0.82915 c 0.13304,-0.17996 0.24209,-0.41627 0.24231,-0.52514 2.4e-4,-0.10887 0.10357,-0.36715 0.22964,-0.57394 0.12607,-0.2068 0.20639,-0.4633 0.17849,-0.57 -0.0279,-0.10671 0.0401,-0.33248 0.15112,-0.50171 0.31249,-0.47637 0.38583,-1.12073 0.15642,-1.37422 -0.10457,-0.11555 -0.16078,-0.28657 -0.12491,-0.38004 0.0359,-0.0935 0.0146,-0.16995 -0.0473,-0.16995 -0.0619,0 -0.10962,-0.23631 -0.10603,-0.52513 0.004,-0.28883 -0.01,-0.64259 -0.0302,-0.78616 -0.0411,-0.29189 -0.33948,-0.50738 -0.57662,-0.41639 -0.21563,0.0828 -0.32034,-0.12758 -0.1598,-0.32101 0.17503,-0.2109 0.0451,-0.58625 -0.13914,-0.402 -0.2903,0.2903 -1.26699,0.0721 -1.62885,-0.36395 -0.12537,-0.15106 -0.17108,-0.15419 -0.32361,-0.0221 -0.0977,0.0846 -0.31503,0.18642 -0.48296,0.22633 -0.16794,0.0399 -0.44157,0.22743 -0.60806,0.4167 -0.16648,0.18927 -0.45402,0.40838 -0.63896,0.48691 -0.18495,0.0785 -0.40764,0.27615 -0.49487,0.43915 -0.14914,0.27866 -0.14024,0.31216 0.14896,0.56091 0.16916,0.14551 0.3815,0.26456 0.47187,0.26456 0.0904,0 0.54778,0.33252 1.01646,0.73894 0.64025,0.55519 0.88613,0.84854 0.98879,1.17968 0.0752,0.2424 0.22763,0.54418 0.33885,0.67062 0.11121,0.12645 0.29529,0.45377 0.40905,0.72739 0.11377,0.27362 0.30421,0.5777 0.42321,0.67573 0.15517,0.12782 0.19683,0.25607 0.14729,0.45344 -0.0656,0.26153 -0.011,0.4186 0.14564,0.4186 0.0392,0 0.1802,-0.14724 0.31324,-0.32719 z m -37.1808,-6.07655 c 0.40193,-0.18602 0.87072,-0.24524 2.09888,-0.26514 l 1.21445,-0.0197 0.157,-0.32722 c 0.23571,-0.49129 0.19325,-3.37998 -0.0524,-3.56133 -0.23152,-0.17095 -0.91184,-0.0596 -1.2537,0.20524 -0.16549,0.1282 -0.41907,0.19968 -0.66332,0.18697 -0.21748,-0.0113 -0.61929,0.019 -0.89291,0.0673 -0.455,0.0803 -1.09378,0.12897 -2.59804,0.19771 -0.30402,0.0139 -0.62052,0.069 -0.70332,0.12234 -0.0828,0.0534 -0.46425,0.10314 -0.84766,0.11055 -0.38341,0.007 -0.73021,0.0466 -0.77067,0.0871 -0.11417,0.11428 0.63793,2.99648 0.83277,3.19132 0.14394,0.14394 0.43263,0.16752 1.71541,0.14011 0.84829,-0.0181 1.64185,-0.079 1.76346,-0.13528 z m -3.56328,-4.78783 c 0.7437,-0.005 1.40194,-0.039 1.46274,-0.0746 0.0608,-0.0356 0.70755,-0.14699 1.43721,-0.24761 1.64688,-0.22711 3.13557,-0.50602 3.42719,-0.64211 0.12161,-0.0567 0.43254,-0.13524 0.69097,-0.17444 0.2973,-0.0451 0.46985,-0.12859 0.46985,-0.22737 0,-0.0859 -0.0751,-0.15612 -0.16688,-0.15612 -0.0918,0 -0.30322,-0.19989 -0.46986,-0.44421 -0.29596,-0.43393 -0.31448,-0.44255 -0.80047,-0.37289 -1.42974,0.20494 -2.02772,0.27149 -2.98497,0.33216 -0.57765,0.0366 -1.10769,0.11309 -1.17788,0.16996 -0.0702,0.0569 -0.2574,0.0708 -0.41602,0.031 -0.15862,-0.0398 -0.34994,-0.0215 -0.42516,0.0408 -0.0752,0.0622 -0.26112,0.11389 -0.41314,0.11481 -0.29266,0.002 -1.55782,0.0877 -1.66821,0.11329 -0.0951,0.0221 -0.32177,0.54978 -0.32177,0.74912 0,0.094 -0.10098,0.2992 -0.22439,0.4561 -0.16812,0.21372 -0.19024,0.30638 -0.0882,0.36944 0.0749,0.0463 0.17684,0.0591 0.22651,0.0284 0.0497,-0.0307 0.69878,-0.0603 1.44248,-0.0657 z m 6.06969,-13.53451 c 0.25441,-0.23024 0.25565,-0.39769 0.005,-0.62487 -0.2214,-0.20036 -0.62367,-0.14793 -0.93563,0.12196 -0.19537,0.16902 -0.25551,0.47643 -0.11977,0.61218 0.14428,0.14427 0.85193,0.0707 1.05078,-0.10927 z m 4.29269,-8.59606 c 0.0436,-0.42622 0.11995,-0.5889 0.36051,-0.76777 0.30375,-0.22587 0.30822,-0.22595 0.92599,-0.016 0.61885,0.21035 0.622,0.21029 1.02142,-0.0205 0.46502,-0.26874 0.58499,-0.64241 0.24128,-0.7515 -0.12516,-0.0397 -0.22756,-0.11833 -0.22756,-0.17469 0,-0.22208 -0.96738,-1.06474 -1.4372,-1.25191 -0.27363,-0.10901 -0.56604,-0.25487 -0.64981,-0.32414 -0.11992,-0.0992 -0.21709,-0.0483 -0.45702,0.23905 -0.37532,0.44958 -0.46101,0.9458 -0.3795,2.19782 0.0857,1.31608 0.12854,1.48973 0.35709,1.44638 0.13852,-0.0263 0.2044,-0.18148 0.2448,-0.57674 z m 37.8043,50.5779 c -0.38032,-0.15295 -0.76854,-0.4916 -0.76854,-0.6704 0,-0.33697 0.41828,-0.74658 0.85486,-0.83713 0.56151,-0.11646 1.64026,-0.0589 2.03924,0.1089 0.17858,0.0751 0.39145,0.2652 0.47304,0.42247 0.13418,0.25862 0.12379,0.30901 -0.10872,0.52744 -0.1414,0.13283 -0.31301,0.20694 -0.38137,0.16469 -0.0684,-0.0422 -0.28349,-0.003 -0.47805,0.0862 -0.38942,0.17948 -1.37785,0.2994 -1.63046,0.1978 z"
       id="path1-8" /></g></svg>
