<?xml version="1.0" encoding="UTF-8" standalone="no"?>
<!-- Created with Inkscape (http://www.inkscape.org/) -->

<svg
   version="1.1"
   id="svg1"
   width="1297"
   height="809"
   viewBox="0 0 1297 809"
   sodipodi:docname="UCR.png"
   xml:space="preserve"
   xmlns:inkscape="http://www.inkscape.org/namespaces/inkscape"
   xmlns:sodipodi="http://sodipodi.sourceforge.net/DTD/sodipodi-0.dtd"
   xmlns="http://www.w3.org/2000/svg"
   xmlns:svg="http://www.w3.org/2000/svg"><defs
     id="defs1" /><sodipodi:namedview
     id="namedview1"
     pagecolor="#505050"
     bordercolor="#eeeeee"
     borderopacity="1"
     inkscape:showpageshadow="0"
     inkscape:pageopacity="0"
     inkscape:pagecheckerboard="0"
     inkscape:deskcolor="#505050"><inkscape:page
       x="0"
       y="0"
       width="1297"
       height="809"
       id="page2"
       margin="0"
       bleed="0" /></sodipodi:namedview><g
     inkscape:groupmode="layer"
     inkscape:label="Image"
     id="g1"><path
       style="fill:#000000;fill-opacity:1"
       d="m 209.60285,585.84682 c 0,-4.30066 0.36464,-5.54561 1.75,-5.97493 3.51324,-1.08872 45.26268,-7.6855 76.10437,-12.02516 90.84007,-12.78188 175.29059,-20.36209 263.64563,-23.66459 34.55527,-1.2916 138.90492,-0.6607 172,1.03992 108.14393,5.55705 194.75249,14.84094 271.5,29.1031 32.13145,5.97104 28.44745,4.51493 28.80425,11.38489 l 0.3042,5.85667 -6.5415,-0.67019 c -68.40896,-7.0087 -160.57945,-12.45564 -267.06695,-15.78267 -50.03375,-1.56323 -205.10809,-1.57219 -251,-0.0145 -96.79422,3.28544 -203.62201,9.18025 -266.5,14.7056 -9.075,0.79746 -17.9625,1.45545 -19.75,1.4622 l -3.25,0.0123 z m 156.5,-76.11683 c -36.07097,-6.70202 -59.95706,-24.06004 -69.03689,-50.16908 -5.40491,-15.54182 -5.67623,-19.98657 -5.84683,-95.78148 -0.13764,-61.14703 -0.36111,-70.67691 -1.76696,-75.35226 -2.46696,-8.2042 -4.29984,-9.50168 -14.30027,-10.12304 l -8.44481,-0.5247 4.60313,-10.22053 4.60312,-10.22052 28.59475,-0.27948 c 15.72712,-0.15371 28.71046,-0.23877 28.85188,-0.18902 0.14141,0.0497 -0.40749,6.12474 -1.21979,13.5 -1.13494,10.30478 -1.54177,30.31155 -1.75711,86.40955 -0.3138,81.74865 -0.38637,80.73042 6.79262,95.31502 8.4146,17.09481 26.27252,27.64129 51.14995,30.20797 9.22825,0.9521 23.08261,-0.1513 32.65065,-2.6004 16.61117,-4.25191 30.81793,-14.88949 37.11532,-27.7908 7.89984,-16.18421 8.81507,-27.98144 8.23366,-106.13179 -0.46454,-62.44264 -0.6787,-65.5534 -5.66246,-82.25 l -1.86556,-6.25 h 22.9028 c 12.59654,0 22.89434,0.1125 22.884,0.25 -0.0103,0.1375 -0.94671,7 -2.08082,15.25 -1.82702,13.29045 -2.1569,22.80696 -2.89442,83.5 -0.86194,70.93214 -1.35912,79.26745 -5.60688,94 -8.49133,29.45063 -32.20088,49.9447 -67.29238,58.1662 -11.69262,2.73943 -48.56935,3.52092 -60.6067,1.28436 z m 260,-2.03381 c -10.7934,-1.66644 -24.77576,-5.55297 -33,-9.17268 -35.35123,-15.55904 -60.65268,-49.52747 -69.10762,-92.78035 -2.61691,-13.38729 -2.39721,-37.76167 0.46145,-51.19739 5.64106,-26.51293 16.14779,-45.63071 35.59423,-64.76633 24.37813,-23.98849 51.02927,-34.66067 93.75041,-37.54139 27.63916,-1.86374 52.10165,1.24045 79.93623,10.14359 l 3.63469,1.16259 -2.97471,8.8696 c -1.63609,4.87828 -4.42155,13.9312 -6.18992,20.11761 l -3.2152,11.248 -4.11089,0.3034 c -3.86659,0.28537 -4.50115,-0.0811 -10.67791,-6.16735 -14.50117,-14.28859 -31.44966,-20.63605 -55.10076,-20.63605 -22.19332,0 -42.32477,6.57767 -56.88249,18.58556 -8.95623,7.38751 -14.77465,14.9681 -20.67601,26.93792 -15.4203,31.27724 -15.07098,77.09284 0.83088,108.97652 4.78919,9.60246 8.48161,14.82478 16.16627,22.86453 11.08237,11.59445 24.33338,19.26506 41.12818,23.80784 12.25576,3.31504 35.03662,3.30837 49.93317,-0.0146 13.93594,-3.1087 23.90406,-7.07194 32.923,-13.0899 7.7785,-5.19027 7.94617,-5.20731 12.87161,-1.30836 l 2.29462,1.81641 -5.72217,17.21406 -5.72217,17.21407 -3.57245,0.99441 c -8.35915,2.32681 -28.33484,5.99141 -37.92839,6.95807 -14.22672,1.4335 -43.75224,1.14185 -54.64405,-0.53977 z m 283.18929,-7.04286 c -2.43686,-3.78064 -5.64222,-9.27743 -7.12303,-12.21508 -7.24471,-14.37222 -30.07685,-49.94746 -47.59503,-74.15881 -17.3201,-23.93759 -20.95397,-27 -32.03838,-27 -4.56239,0 -6.02105,-0.32778 -5.65886,-1.27163 0.4056,-1.05698 2.17654,-9.08273 4.27737,-19.38471 0.40271,-1.97482 1.26087,-2.21063 10.19419,-2.80118 18.43225,-1.21851 28.66784,-5.00069 36.66201,-13.54711 14.37308,-15.36599 15.39551,-42.98793 2.13703,-57.73455 -9.13006,-10.15482 -20.76474,-13.81575 -40.98536,-12.89629 -8.44244,0.38389 -13.38161,1.03112 -14.20899,1.86195 -1.00147,1.00564 -1.32944,20.52009 -1.55924,92.77352 -0.26258,82.56364 -0.12146,92.67198 1.44492,103.5 0.95475,6.6 2.64225,15.2568 3.75,19.23734 1.10774,3.98054 2.01408,7.35554 2.01408,7.5 0,0.14446 -11.475,0.26266 -25.5,0.26266 -22.00797,0 -25.49754,-0.20541 -25.48206,-1.5 0.01,-0.825 0.68139,-5.775 1.49228,-11 2.86494,-18.46033 3.63113,-48.11522 3.21671,-124.5 -0.43378,-79.95106 -0.56766,-82.12285 -5.339,-86.60529 -2.08184,-1.95578 -3.89354,-2.4387 -10.77758,-2.87284 l -8.27508,-0.52187 4.51889,-10.11779 4.51889,-10.11779 33.06348,-0.37686 c 56.72763,-0.64658 77.21058,-0.28854 85.56347,1.49565 25.90057,5.53239 41.96527,26.24881 41.96527,54.11679 0,17.36088 -5.26545,30.0659 -17.40642,42 -6.78414,6.66855 -22.73195,17.98626 -27.90294,19.80193 -0.78878,0.27696 -0.63298,1.00809 0.49054,2.30197 0.90555,1.04286 13.00193,18.5461 26.88085,38.8961 36.13236,52.97916 47.04166,66.91187 60.29093,77 6.49825,4.94783 8.05257,7.86848 5.91646,11.11745 -0.47169,0.71744 -7.53613,1.35398 -19.73469,1.77819 -10.45,0.3634 -22.46051,0.9288 -26.69003,1.25644 l -7.69002,0.59571 z"
       id="path1" /><path
       style="fill:#000000;fill-opacity:1;stroke-width:0.348297"
       d="m 823.04421,279.02309 c -0.49783,-0.0934 -1.04596,-0.39343 -1.21806,-0.66673 l -0.3129,-0.49692 -0.65743,0.54561 c -0.6192,0.5139 -8.39616,0.49683 -10.76591,-0.0236 -0.90362,-0.19846 -1.60702,-1.24991 -0.87656,-1.3103 0.21284,-0.0176 1.01393,-0.12206 1.78018,-0.23215 0.76626,-0.11008 4.68894,-0.27417 8.71708,-0.36464 4.02814,-0.0905 7.43471,-0.27531 7.57015,-0.41075 0.33608,-0.33608 -2.59945,-1.32989 -3.06972,-1.03925 -0.20653,0.12764 -1.1638,-0.72993 -2.12727,-1.90572 l -1.75177,-2.1378 0.0423,-1.49095 0.0423,-1.49094 -1.22853,-0.54308 c -0.67662,-0.29911 -3.98155,-0.59916 -7.35681,-0.66793 l -6.12829,-0.12486 -0.21369,-0.81712 c -0.11752,-0.44942 -0.0243,-0.81712 0.20724,-0.81712 0.2315,0 0.42092,-0.28697 0.42092,-0.6377 v -0.6377 l -2.10727,-0.0423 c -1.15901,-0.0233 -2.30839,-0.16659 -2.55418,-0.3185 -0.2458,-0.15191 -0.70813,-0.11377 -1.02741,0.0848 -0.68293,0.42466 -9.58468,0.24738 -10.30436,-0.20522 -0.63332,-0.39828 -2.18194,-0.14849 -2.94157,0.47446 l -0.59113,0.48478 0.26706,-0.69594 0.26705,-0.69593 -1.667,0.0497 c -0.91685,0.0274 -1.81591,0.28016 -1.99791,0.56178 -0.182,0.28162 -2.31621,0.62974 -4.74268,0.77361 -2.57744,0.15282 -4.97795,0.55797 -5.77351,0.97445 l -1.36173,0.71287 -0.49585,-0.97332 c -0.32806,-0.64396 -1.04586,-1.02841 -2.12124,-1.13611 -1.06485,-0.10664 -1.40468,-0.0212 -0.98539,0.24762 0.35199,0.22572 0.49639,0.64274 0.32089,0.92671 -0.47419,0.76726 -1.09567,0.62603 -1.39498,-0.31699 l -0.26448,-0.83332 -3.08237,-0.11381 c -1.6953,-0.0626 -3.47907,-0.32611 -3.96392,-0.5856 -0.48485,-0.25948 -1.28093,-0.34503 -1.76905,-0.19011 -0.92034,0.2921 -2.98274,-1.27847 -2.41905,-1.84217 0.16289,-0.16288 0.0932,-0.44152 -0.1548,-0.61919 -0.52252,-0.37433 -2.2849,-3.45446 -3.04128,-5.31531 -0.28551,-0.7024 -0.69305,-1.27709 -0.90565,-1.27709 -0.21261,0 -0.22436,-0.57469 -0.0261,-1.27709 0.33736,-1.19537 0.2531,-3.36707 -0.17877,-4.60762 l -0.18944,-0.54415 -6.56785,0.13536 -6.56786,0.13536 -0.25434,-0.66279 c -0.13989,-0.36454 -0.54875,-0.54982 -0.90859,-0.41174 -0.83607,0.32083 -1.3741,-1.02161 -0.68545,-1.71026 0.63131,-0.63131 1.62917,-0.89688 3.78153,-1.00641 0.89397,-0.0455 3.02743,-0.25218 4.74104,-0.45931 2.04078,-0.24668 3.62473,-0.19913 4.59128,0.13781 l 1.47562,0.5144 0.91305,-1.04284 c 0.50218,-0.57356 1.15283,-1.35657 1.44588,-1.74001 1.11312,-1.45645 6.33779,-2.2301 6.33779,-0.93847 0,0.19022 0.50398,0.24951 1.11996,0.13177 l 1.11995,-0.2141 0.79104,1.20729 c 0.43507,0.664 1.13272,1.21032 1.55033,1.21404 0.41761,0.004 1.64532,0.31542 2.72826,0.69268 l 1.96897,0.68593 1.9784,-0.64174 c 2.76007,-0.8953 4.69799,-1.37558 5.14232,-1.27446 0.20765,0.0473 1.35707,-0.40606 2.55427,-1.00738 1.19721,-0.60132 2.43791,-1.00625 2.75714,-0.89984 0.31922,0.10641 0.5804,1.5e-4 0.5804,-0.23612 0,-0.23627 0.88816,-0.69469 1.97369,-1.0187 1.08552,-0.32401 2.84518,-1.0986 3.91034,-1.72132 l 1.93665,-1.13222 0.30674,-1.81557 c 0.33133,-1.9611 -0.0534,-3.87791 -0.69842,-3.4793 -0.21938,0.13558 -0.53894,0.0199 -0.71013,-0.25712 -0.1712,-0.27699 -0.62293,-0.38403 -1.00386,-0.23785 -0.43949,0.16864 -0.78154,-0.0744 -0.93598,-0.66494 -0.13386,-0.51189 -0.60459,-0.93071 -1.04604,-0.93071 -0.44146,0 -1.1809,-0.41795 -1.6432,-0.92879 -0.46231,-0.51084 -1.02892,-0.92879 -1.25915,-0.92879 -0.60352,0 -3.15262,-2.88669 -3.15262,-3.57013 0,-0.31722 -0.41796,-0.80045 -0.9288,-1.07384 -0.51083,-0.27339 -0.92879,-0.80319 -0.92879,-1.17733 0,-0.37414 -0.20898,-0.68025 -0.4644,-0.68025 -0.25541,0 -0.46439,-0.28789 -0.46439,-0.63974 0,-0.35185 -0.31117,-0.89797 -0.69148,-1.21361 -0.38032,-0.31563 -0.57963,-0.75486 -0.44292,-0.97606 0.1367,-0.2212 0.0493,-0.77443 -0.19416,-1.22941 -0.2435,-0.45498 -0.32962,-1.41892 -0.19138,-2.14208 l 0.25135,-1.31486 0.4459,0.6232 0.44591,0.6232 -0.28441,-0.87258 c -0.31,-0.95107 0.61933,-4.00358 1.21888,-4.00358 0.2041,0 0.3711,-0.29082 0.3711,-0.64626 0,-0.82959 2.37138,-1.54617 5.57276,-1.68397 0.38313,-0.0165 1.637,0.17381 2.78638,0.42289 l 2.08979,0.45287 0.80236,-1.01425 c 0.44131,-0.55785 0.80702,-1.40063 0.8127,-1.87287 0.006,-0.47223 0.34753,-1.56922 0.75968,-2.43775 0.41214,-0.86853 0.65806,-2.20113 0.54649,-2.96133 -0.11158,-0.7602 0.0214,-1.46316 0.29554,-1.56214 0.27412,-0.099 0.33583,-0.35372 0.13712,-0.5661 -0.1987,-0.21239 -1.50944,0.17696 -2.91276,0.86521 -1.40333,0.68825 -2.95444,1.25137 -3.44692,1.25137 -0.49249,0 -1.06255,0.26122 -1.26681,0.58049 -0.20425,0.31928 -1.93871,1.08083 -3.85435,1.69235 -4.57509,1.46048 -4.95729,1.6025 -7.54181,2.80266 -1.21069,0.5622 -2.42549,0.88361 -2.69955,0.71423 -0.27405,-0.16938 -0.90435,0.0595 -1.40066,0.50868 -0.49631,0.44915 -1.0386,0.68042 -1.2051,0.51392 -0.1665,-0.1665 -0.5991,-0.0568 -0.96134,0.24388 l -0.65862,0.54661 -0.35546,-0.57515 c -0.1955,-0.31633 -0.54529,-0.54152 -0.7773,-0.50041 -0.69961,0.12397 -2.51163,-0.57237 -2.51163,-0.96517 0,-0.20172 -0.3796,-0.26749 -0.84355,-0.14617 l -0.84355,0.2206 -1.30939,-1.88946 c -0.72017,-1.0392 -1.51231,-1.88946 -1.76032,-1.88946 -0.24801,0 -0.32047,-0.33995 -0.16103,-0.75546 0.15945,-0.41549 0.0503,-1.0442 -0.24264,-1.39711 -0.29901,-0.3603 -0.42105,-1.32865 -0.2783,-2.20834 0.14326,-0.88279 0.0276,-1.79329 -0.26495,-2.08585 -0.34119,-0.34119 -0.35236,-0.51919 -0.0326,-0.51919 0.26763,0 0.50498,-0.64632 0.52744,-1.43627 0.0447,-1.57314 1.29378,-2.83487 2.46068,-2.48567 0.40413,0.12095 1.10737,-0.19182 1.56276,-0.69502 0.4554,-0.50321 1.74433,-1.05234 2.8643,-1.22029 1.11997,-0.16795 2.03631,-0.44432 2.03631,-0.61417 0,-0.31876 5.71196,-1.90283 7.6144,-2.11166 2.12912,-0.23372 5.39377,-1.40499 5.21902,-1.87245 -0.0982,-0.26278 -0.41761,-0.42425 -0.70971,-0.35881 -0.2921,0.0654 -0.77654,-0.41972 -1.07653,-1.07815 l -0.54545,-1.19713 0.60173,-0.37188 c 0.33095,-0.20454 1.93308,-0.5083 3.56029,-0.67501 l 2.95856,-0.30311 1.05727,0.59216 c 0.5815,0.32569 1.40982,0.87385 1.8407,1.21815 0.45084,0.36023 1.03961,0.46766 1.38687,0.25304 0.33189,-0.20512 1.44219,-0.39157 2.46735,-0.41435 1.02514,-0.0228 2.38635,-0.34466 3.0249,-0.71529 0.63854,-0.37064 1.36996,-0.69451 1.62538,-0.71972 0.25542,-0.0252 1.05663,-0.28889 1.78046,-0.58597 0.72384,-0.29707 1.50319,-0.42448 1.73189,-0.28313 0.2287,0.14135 0.89035,-0.006 1.47032,-0.32631 0.57997,-0.32082 1.31571,-0.5303 1.63498,-0.46552 0.31928,0.0648 0.5805,-0.1153 0.5805,-0.40019 0,-0.2849 0.4702,-0.45874 1.04489,-0.38632 0.57469,0.0724 1.9853,-0.10103 3.13468,-0.38542 7.97223,-1.97262 9.89004,-1.79681 13.62466,1.24901 2.00425,1.63459 3.79294,6.66962 2.95886,8.32901 -0.59272,1.17924 -1.19329,1.34776 -5.54459,1.55575 -1.46343,0.07 -2.91583,0.38224 -3.22756,0.69397 -0.31173,0.31174 -1.13959,0.56679 -1.83969,0.56679 -0.70009,0 -1.39212,0.1929 -1.53783,0.42866 -0.14571,0.23577 -0.94172,0.57499 -1.7689,0.75382 -0.82718,0.17883 -2.52456,0.87409 -3.77196,1.54502 -1.2474,0.67093 -2.65801,1.42616 -3.13468,1.67829 -0.47667,0.25213 -0.86709,0.77457 -0.8676,1.16099 -6.9e-4,0.45583 -0.51252,0.73855 -1.45765,0.80503 -0.80121,0.0564 -1.80989,0.42207 -2.24153,0.8127 -0.43164,0.39063 -1.02956,0.71023 -1.32873,0.71023 -0.35813,0 -0.54393,1.00026 -0.54393,2.92835 v 2.92836 l -1.14556,1.55272 c -0.63005,0.854 -1.03002,1.73967 -0.88881,1.96815 0.14121,0.22849 0.0668,0.6675 -0.16547,0.97559 -1.01146,1.3419 -0.29949,4.50752 1.01377,4.50752 0.6069,0 2.57926,-3.4478 2.57926,-4.5087 0,-0.27516 0.32672,-0.62566 0.72603,-0.77889 0.39932,-0.15324 0.60245,-0.47858 0.45139,-0.72299 -0.15105,-0.2444 0.14436,-0.66861 0.65647,-0.94268 l 0.9311,-0.49832 0.92516,0.57778 c 1.17467,0.73359 1.56988,2.5268 1.1597,5.26204 l -0.32228,2.1491 -1.05402,0.48025 c -1.41341,0.64399 -1.154,1.83209 0.53219,2.43748 l 1.37121,0.4923 0.0357,1.5245 c 0.0196,0.83848 -0.0775,1.41127 -0.21592,1.27286 -0.39443,-0.39443 -1.59685,3.09642 -1.55584,4.51689 0.0203,0.7024 -0.16369,1.27709 -0.40882,1.27709 -0.24514,0 -0.44571,0.20898 -0.44571,0.46439 0,0.25542 0.31347,0.4644 0.6966,0.4644 0.43344,0 0.69659,0.4386 0.69659,1.16099 0,1.33711 -1.19636,1.60401 -1.56122,0.3483 -0.13645,-0.46963 -0.19983,-0.32261 -0.15015,0.3483 0.0575,0.77601 -0.12781,1.11539 -0.55875,1.02348 l -0.64473,-0.13752 0.25819,1.59107 0.2582,1.59107 -1.22356,0.98453 c -0.67295,0.54149 -1.51994,0.98452 -1.88219,0.98452 -0.36225,0 -1.15936,0.5403 -1.77136,1.20066 l -1.11273,1.20065 0.94337,0.2467 c 0.51886,0.13568 0.94338,0.4313 0.94338,0.65693 0,0.22563 0.30114,0.41024 0.66919,0.41024 0.95762,0 1.26263,0.70351 0.91153,2.10242 -0.20251,0.80689 -0.46085,1.06079 -0.76739,0.75425 -0.61632,-0.61632 -1.74212,-0.14737 -1.74212,0.72567 0,0.45885 -0.26368,0.59541 -0.77259,0.40012 -0.95645,-0.36702 -5.82244,1.19225 -10.12529,3.24457 l -3.23534,1.54315 -0.55845,-0.46347 -0.55845,-0.46348 -0.38578,0.6598 c -0.21218,0.36289 -1.01272,0.76886 -1.77897,0.90214 -0.76626,0.13329 -2.52119,0.67715 -3.89985,1.20857 -1.37866,0.53142 -2.67034,0.86506 -2.87039,0.74142 -0.20005,-0.12364 -0.5038,0.002 -0.675,0.27883 -0.17119,0.277 -0.57029,0.40423 -0.88689,0.28275 -0.3166,-0.1215 -0.85145,-0.0504 -1.18856,0.15791 -0.33711,0.20835 -0.9451,0.20427 -1.35108,-0.009 -0.40598,-0.21333 -1.12554,-0.50938 -1.59902,-0.65789 -0.52639,-0.1651 -0.7576,-0.53916 -0.59508,-0.9627 0.17307,-0.45099 -0.0171,-0.69268 -0.54508,-0.69268 -0.44598,0 -1.27571,-0.32557 -1.84382,-0.7235 -0.56812,-0.39792 -1.21787,-0.6092 -1.44391,-0.4695 -0.22602,0.13969 -0.67134,-0.0598 -0.98959,-0.44322 l -0.57863,-0.69721 -0.67907,0.56358 -0.67907,0.56358 0.31153,3.04122 c 0.20583,2.00935 0.68729,3.61934 1.419,4.74513 0.60911,0.93715 1.23472,2.2109 1.39024,2.83056 l 0.28278,1.12665 3.60275,-0.0833 c 1.98151,-0.0458 3.87504,-0.25164 4.20784,-0.45732 0.3328,-0.20568 4.07823,-0.43609 8.32317,-0.51201 4.24494,-0.0759 8.59462,-0.33003 9.66595,-0.56468 1.22232,-0.26772 2.11389,-0.26063 2.39355,0.019 0.25199,0.25199 1.28571,0.30374 2.37872,0.11907 l 1.93306,-0.32658 0.48467,-1.06374 c 0.26657,-0.58505 0.9769,-1.28801 1.5785,-1.56212 l 1.09384,-0.49838 0.71254,0.71254 c 0.3919,0.3919 0.71254,0.88394 0.71254,1.09342 0,0.20949 0.50852,0.50852 1.13004,0.66451 0.62153,0.15599 1.26351,0.70413 1.42663,1.21808 0.16312,0.51395 0.4862,0.81727 0.71795,0.67404 0.23175,-0.14323 0.89588,2.6e-4 1.47585,0.31886 0.57997,0.3186 1.78592,0.6369 2.67988,0.70732 0.89396,0.0704 2.4613,0.23235 3.48298,0.35983 1.02167,0.12747 2.50053,0.30656 3.28636,0.39797 0.78582,0.0914 1.66808,0.3141 1.96056,0.49487 0.29249,0.18076 1.00992,0.0154 1.5943,-0.36752 1.13514,-0.74376 2.43523,-0.34233 2.44264,0.75423 0.005,0.72275 0.28145,0.83214 2.10381,0.83214 h 1.40314 l 0.52235,-1.14642 c 0.28729,-0.63054 0.72413,-1.02172 0.97076,-0.8693 0.24662,0.15242 0.63082,-0.0109 0.85377,-0.36286 0.53129,-0.8388 0.53046,-1.45993 -10e-4,-1.13116 -0.2316,0.14314 -0.30998,-0.16461 -0.17419,-0.68389 0.1358,-0.51928 0.65527,-1.16269 1.15438,-1.42981 0.49912,-0.26712 1.12039,-1.09642 1.38061,-1.84288 0.26022,-0.74647 0.76615,-1.35721 1.12429,-1.35721 0.35814,0 0.65117,-0.22306 0.65117,-0.49569 0,-0.28831 0.3981,-0.36934 0.95153,-0.19369 0.56225,0.17845 1.42256,-0.007 2.1029,-0.4524 0.63326,-0.41493 1.35445,-0.6289 1.60265,-0.4755 0.24821,0.1534 0.45128,-0.15139 0.45128,-0.6773 0,-0.5871 0.3137,-0.97035 0.81269,-0.99286 0.54572,-0.0246 0.60943,-0.1178 0.19395,-0.28365 -0.41703,-0.16647 -0.18705,-0.50953 0.70544,-1.05228 0.90023,-0.54746 1.35887,-1.23724 1.4325,-2.15443 0.0596,-0.74203 0.42129,-1.58116 0.80384,-1.86474 0.38255,-0.28357 0.69555,-0.74721 0.69555,-1.03031 0,-0.2831 0.31346,-0.39444 0.69659,-0.24742 0.38313,0.14702 0.6966,0.0236 0.6966,-0.27418 0,-0.29782 0.20898,-0.41233 0.46439,-0.25447 0.25542,0.15785 0.4644,0.0657 0.4644,-0.2048 0,-0.27049 0.20898,-0.4918 0.4644,-0.4918 0.25542,0 0.46439,0.31347 0.46439,0.6966 0,0.38312 0.22131,0.69659 0.4918,0.69659 0.2705,0 0.36265,-0.20898 0.2048,-0.46439 -0.15786,-0.25543 0.0164,-0.4644 0.3873,-0.4644 0.37087,0 0.76578,0.26122 0.87756,0.58049 0.37658,1.07557 0.0168,3.36789 -0.51019,3.25078 -0.28736,-0.0639 -0.52247,0.0486 -0.52247,0.24984 0,0.20127 -1.0449,1.4789 -2.32199,2.83917 -1.27709,1.36027 -2.32198,2.76294 -2.32198,3.11703 0,0.3541 -0.24541,0.64381 -0.54535,0.64381 -0.29994,0 -0.0418,0.53603 0.5737,1.19117 2.43447,2.59138 1.13699,6.28964 -2.13406,6.0828 l -1.84166,-0.11645 -0.60584,-1.25678 c -0.60751,-1.26025 -2.54347,-1.81505 -2.35985,-0.67628 0.0515,0.31927 -0.0672,0.94887 -0.2638,1.3991 -0.20997,0.48093 -0.12094,1.10353 0.21582,1.50929 l 0.57321,0.69068 h -0.52126 c -0.28669,0 -0.52126,0.29082 -0.52126,0.64626 0,0.72244 -1.89217,1.34712 -2.90417,0.95877 l -0.65599,-0.25172 0.2074,1.41313 c 0.11407,0.77722 0.36829,1.41313 0.56493,1.41313 0.19664,0 0.46682,0.41796 0.60041,0.9288 0.13359,0.51083 0.0535,0.92879 -0.17804,0.92879 -1.64891,0 0.14612,2.15401 2.08857,2.50624 0.7258,0.13162 1.36767,0.30073 1.42638,0.37582 0.0587,0.0751 0.34017,0.55447 0.62549,1.06531 l 0.51876,0.9288 0.0141,-0.71387 c 0.008,-0.40096 0.46912,-0.74815 1.05214,-0.79206 0.57091,-0.043 1.11077,-0.29646 1.19969,-0.56323 0.0889,-0.26676 0.44172,-0.48503 0.784,-0.48503 0.34228,0 1.58055,-0.73142 2.7517,-1.62538 1.17116,-0.89397 2.42997,-1.62539 2.79738,-1.62539 1.17569,0 4.6021,-2.11274 6.65775,-4.1052 1.09629,-1.06258 2.27556,-1.93196 2.6206,-1.93196 0.34504,0 0.74764,-0.31347 0.89466,-0.69659 0.14702,-0.38313 0.69183,-0.6966 1.21068,-0.6966 0.51885,0 0.945,-0.15673 0.94699,-0.34829 0.002,-0.19157 0.52444,-0.58986 1.16099,-0.88511 l 1.15737,-0.5368 v 0.9164 0.91639 l 1.04489,-0.32118 c 1.40266,-0.43116 1.49064,-0.54986 0.91866,-1.23947 l -0.49078,-0.59172 1.15135,-0.0688 c 0.63325,-0.0379 1.05046,0.032 0.92716,0.15534 -0.12331,0.12332 0.11289,0.61789 0.52488,1.09907 0.412,0.48118 0.82102,1.41195 0.90892,2.06838 0.0879,0.65642 0.3572,1.71262 0.59844,2.3471 l 0.43859,1.1536 1.28461,-0.2835 c 0.70654,-0.15592 1.63482,-0.27927 2.06285,-0.2741 0.45757,0.006 0.98546,-0.58506 1.28118,-1.43336 0.27662,-0.79351 0.86582,-1.78727 1.30935,-2.20836 l 0.80641,-0.7656 0.81489,1.03598 c 0.44819,0.56978 0.81489,1.26423 0.81489,1.54322 0,0.27898 0.17415,0.50724 0.387,0.50724 0.77109,0 0.96325,-0.60571 0.47913,-1.51029 -0.32415,-0.60568 -0.33004,-0.8222 -0.0171,-0.62879 0.26252,0.16224 0.61698,-0.14511 0.7877,-0.68301 0.20397,-0.64265 0.59091,-0.90464 1.12847,-0.76407 0.44993,0.11767 1.17632,0.0134 1.61419,-0.2316 l 0.79613,-0.44554 -0.71749,1.38749 -0.7175,1.38748 1.96101,0.20744 c 2.52688,0.26731 2.6988,0.14445 2.12024,-1.5152 -0.26505,-0.76031 -0.672,-1.26489 -0.90434,-1.12129 -0.23234,0.14359 -0.54071,-0.11788 -0.68526,-0.58105 -0.14455,-0.46317 -0.45535,-1.20309 -0.69066,-1.64427 l -0.42784,-0.80214 1.38567,-0.71656 c 1.73724,-0.89836 1.90496,-0.91167 2.35298,-0.18677 l 0.36482,0.5903 0.73199,-0.6075 0.73199,-0.60749 v 0.78086 c 0,0.44404 0.21777,0.64628 0.50485,0.46885 0.27767,-0.17161 0.3987,-0.71796 0.26896,-1.2141 -0.15082,-0.57671 0.25897,-1.46571 1.13612,-2.46473 0.77793,-0.88602 1.17187,-1.68634 0.90978,-1.84832 -0.29712,-0.18364 -0.3068,-0.69453 -0.0271,-1.43023 0.28387,-0.74664 0.27264,-1.14456 -0.0323,-1.14456 -0.25709,0 -0.45803,-0.78366 -0.44652,-1.74148 0.0115,-0.95782 0.009,-2.15945 -0.007,-2.67028 -0.0151,-0.51084 0.37304,-1.25393 0.86249,-1.65131 1.83949,-1.49345 1.19175,-4.52146 -0.86783,-4.05693 -0.73026,0.16471 -1.85144,-1.84224 -1.51661,-2.71477 0.13241,-0.34507 0.42783,-0.51177 0.65648,-0.37045 0.22866,0.14131 0.41574,-0.0559 0.41574,-0.43821 0,-0.40056 0.37998,-0.66651 0.89666,-0.62759 0.49316,0.0371 0.85887,0.27297 0.81269,0.52405 -0.0462,0.25108 0.26413,0.5331 0.68958,0.6267 0.9479,0.20855 1.36093,-1.22815 0.63385,-2.20481 -0.28523,-0.38313 -0.79185,-1.50103 -1.12583,-2.48422 l -0.60724,-1.78763 0.51113,-0.51113 c 0.73974,-0.73974 0.62733,-1.39814 -0.18545,-1.08624 -0.78468,0.30111 -0.95908,-0.4153 -0.21331,-0.87621 0.55244,-0.34143 0.10718,-2.1494 -0.64853,-2.63335 -0.27745,-0.17768 -0.36112,-0.46638 -0.18594,-0.64156 0.17518,-0.17518 0.11855,-0.69213 -0.12584,-1.14878 -0.28799,-0.53811 -0.28114,-0.88467 0.0195,-0.98487 0.26168,-0.0872 0.0577,-0.91239 -0.46811,-1.89337 -0.51255,-0.95632 -0.93324,-2.00074 -0.93485,-2.32094 -0.002,-0.3202 -0.65135,-0.95125 -1.44385,-1.40235 l -1.44092,-0.82017 0.53761,-0.64777 0.5376,-0.64778 -0.54566,-0.33724 c -0.34688,-0.21438 -0.0167,-0.55963 0.90625,-0.94772 1.3704,-0.57621 1.99871,-1.58411 0.9875,-1.58411 -0.25541,0 -0.46439,-0.31169 -0.46439,-0.69265 0,-0.38097 -0.41796,-0.95368 -0.9288,-1.27271 -0.5563,-0.34741 -0.92879,-1.08298 -0.92879,-1.83411 0,-0.68974 -0.22718,-1.39448 -0.50485,-1.56609 -0.27767,-0.17161 -0.38953,-0.75303 -0.24858,-1.29204 0.14096,-0.53901 0.056,-2.39229 -0.18882,-4.1184 -0.59716,-4.21055 -0.59428,-4.19961 -1.30578,-4.96164 l -0.62264,-0.66687 -0.37148,0.60107 -0.37148,0.60108 -0.31426,-0.99016 -0.31427,-0.99015 h -1.59409 c -0.87675,0 -1.5941,-0.18461 -1.5941,-0.41023 0,-0.57912 -1.8024,-0.98355 -2.11672,-0.47497 -0.38805,0.62788 -1.15151,0.5081 -1.01795,-0.15969 0.0688,-0.34422 -0.2724,-0.52759 -0.83839,-0.45052 -1.136,0.15469 -5.31486,-1.60771 -5.31486,-2.24149 0,-0.24347 0.1846,-0.44267 0.41023,-0.44267 0.22563,0 0.51953,-0.41795 0.65312,-0.92879 0.2687,-1.02753 1.9893,-1.28748 2.3054,-0.3483 l 0.19538,0.5805 0.71325,-0.58851 c 0.39229,-0.32368 1.02624,-0.4684 1.40878,-0.32161 0.3992,0.15319 0.81773,-0.0515 0.98234,-0.48051 0.19612,-0.51108 0.10494,-0.64111 -0.28837,-0.41125 -0.31635,0.18488 -0.17708,-0.11774 0.30949,-0.67248 0.48657,-0.55474 1.06972,-1.00862 1.2959,-1.00862 0.22617,0 1.00983,-0.44257 1.74146,-0.98348 0.73163,-0.54092 1.54464,-0.85098 1.80669,-0.68902 0.26205,0.16195 0.60772,0.0821 0.76815,-0.17751 0.16044,-0.25958 0.69732,-0.47197 1.19308,-0.47197 0.55158,0 0.89863,-0.3154 0.89428,-0.81269 -0.0139,-1.59255 -0.6528,-1.88552 -4.17272,-1.91357 -1.91549,-0.0153 -4.40256,-0.0382 -5.52682,-0.0509 -2.55924,-0.029 -2.8924,0.28759 -1.44862,1.37663 l 1.13736,0.85792 -0.61742,1.15365 -0.61741,1.15366 -2.15228,-0.73326 c -1.18374,-0.40328 -2.40169,-0.98259 -2.70655,-1.28734 -0.30485,-0.30476 -1.08852,-0.45197 -1.74148,-0.32715 l -1.18721,0.22695 v -0.75074 c 0,-1.30517 -1.84981,-0.38267 -2.45229,1.22296 -0.39905,1.06348 -1.67305,1.01608 -3.12047,-0.1161 -0.63855,-0.49948 -1.41407,-0.91279 -1.7234,-0.91847 -0.30932,-0.006 -0.97249,-0.45051 -1.47372,-0.98851 -0.50122,-0.538 -1.1363,-0.83913 -1.41128,-0.66919 -0.27498,0.16995 -0.49996,0.0917 -0.49996,-0.17396 0,-0.26562 -0.57469,-0.63568 -1.27709,-0.82235 -0.7024,-0.18667 -1.38158,-0.37549 -1.50929,-0.41962 -0.12771,-0.0441 -0.7024,-0.23321 -1.27709,-0.4202 -0.57469,-0.187 -1.04974,-0.47235 -1.05567,-0.63413 -0.006,-0.16177 -0.73735,-1.10088 -1.62539,-2.0869 -0.88804,-0.98602 -1.61461,-2.17356 -1.61461,-2.63898 0,-0.46542 -0.36758,-0.96289 -0.81685,-1.10548 -0.44927,-0.14259 -1.02396,-0.64931 -1.27709,-1.12604 -1.18653,-2.2346 -3.77048,-5.62741 -4.29151,-5.6349 -0.31928,-0.005 -0.5805,-0.49725 -0.5805,-1.09479 0,-0.71461 -0.40631,-1.27158 -1.18718,-1.62737 -1.25908,-0.57367 -1.16267,-1.6255 0.10443,-1.13927 0.51017,0.19577 0.67274,0.0796 0.51564,-0.36858 -0.1262,-0.35997 -0.57267,-0.62547 -0.99216,-0.59 -0.41949,0.0355 -0.76271,-0.12126 -0.76271,-0.34829 0,-0.22704 0.22131,-0.4128 0.4918,-0.4128 0.27049,0 0.36054,-0.21239 0.20011,-0.47197 -0.16043,-0.25959 -0.53848,-0.33342 -0.8401,-0.16407 -0.36982,0.20763 -0.35936,0.10423 0.0321,-0.3175 0.87869,-0.94667 0.72989,-2.75153 -0.2322,-2.81657 -0.44698,-0.0302 -0.18576,-0.18915 0.58049,-0.35316 l 1.39319,-0.29822 -0.0372,-2.62355 -0.0372,-2.62356 0.96353,0.18556 c 1.45313,0.27984 2.46447,-0.18891 2.74817,-1.27377 0.16939,-0.64774 0.49713,-0.88068 0.97894,-0.69579 0.39836,0.15286 0.72429,0.066 0.72429,-0.19293 0,-0.28661 0.63602,-0.35155 1.62539,-0.16594 0.99217,0.18613 1.62539,0.12089 1.62539,-0.16746 0,-0.30328 0.42062,-0.28022 1.17494,0.0644 l 1.17495,0.53681 -0.255,1.04489 c -0.14025,0.57469 -0.046,1.04489 0.2094,1.04489 0.25542,0 0.59058,-0.50278 0.74482,-1.11728 l 0.28041,-1.11728 1.36241,0.39073 c 0.74932,0.2149 1.46203,0.40924 1.58378,0.43185 2.38653,0.44326 3.13202,0.71941 3.32917,1.23318 0.13042,0.33986 0.94093,0.74997 1.80113,0.91134 0.8602,0.16138 1.80602,0.58502 2.10181,0.94143 0.29579,0.35641 0.80797,0.64802 1.13817,0.64802 0.3302,0 1.19277,0.63397 1.91682,1.40882 1.48963,1.59416 3.1715,2.54339 5.35691,3.02339 1.76521,0.3877 4.08649,1.99651 4.08649,2.83222 0,0.32352 0.76602,0.73192 1.70228,0.90756 l 1.70227,0.31935 -0.77348,0.56559 c -0.42542,0.31107 -0.77349,1.00876 -0.77349,1.55043 v 0.98485 l 1.2771,0.31566 c 1.05412,0.26056 3.29506,1.68813 5.92105,3.77197 0.25542,0.20269 0.79072,0.30254 1.18956,0.22188 0.39884,-0.0806 1.1104,0.27906 1.58126,0.79935 0.47086,0.5203 1.1348,0.94599 1.47542,0.94599 0.34062,0 1.01553,0.33926 1.4998,0.7539 l 0.88049,0.7539 -0.68296,0.79764 -0.68296,0.79763 -1.70151,-0.19632 c -5.0747,-0.58552 -7.04207,-0.43023 -7.04207,0.55585 0,0.70997 2.22258,1.76202 2.8731,1.35997 0.26484,-0.16368 0.61489,-0.10376 0.77789,0.13315 0.46871,0.6812 5.10932,2.01153 6.96736,1.99733 l 1.68816,-0.0129 1.35449,-1.38029 c 0.74497,-0.75916 1.61077,-1.38029 1.924,-1.38029 0.31323,0 0.6898,-0.31347 0.83682,-0.69659 0.14702,-0.38313 0.66972,-0.6966 1.16156,-0.6966 0.81435,0 2.57444,-1.4571 4.16771,-3.45026 0.7763,-0.97114 0.37741,-2.1225 -0.73534,-2.1225 -0.46202,0 -1.318,-0.33478 -1.90219,-0.74396 -0.58419,-0.40918 -1.17963,-0.6265 -1.3232,-0.48292 -0.41979,0.41979 -2.78881,-0.98698 -3.12132,-1.85349 -0.33261,-0.86677 0.54479,-1.67955 1.45387,-1.3468 0.31109,0.11387 0.69005,0.006 0.84213,-0.24036 0.15208,-0.24606 -0.0502,-0.57276 -0.44953,-0.72599 -0.39931,-0.15324 -0.73267,-0.72645 -0.7408,-1.27382 -0.0199,-1.34168 -0.85368,-2.31252 -2.59526,-3.02192 -0.79698,-0.32463 -1.69668,-1.13373 -1.99934,-1.79799 l -0.5503,-1.20776 0.63032,0.52312 c 0.9298,0.77166 2.67177,0.16202 2.67177,-0.93506 v -0.92431 l -0.77557,0.29761 c -0.98803,0.37914 -1.46896,-0.39407 -1.18125,-1.89914 l 0.22489,-1.17645 1.33036,0.26607 1.33036,0.26607 v -0.64628 c 0,-0.35546 -0.26122,-0.76626 -0.5805,-0.9129 -0.31927,-0.14663 -0.0678,-0.13648 0.55884,0.0226 1.66896,0.42361 4.80789,4.82314 4.01025,5.62078 -0.36865,0.36865 1.66059,3.83243 2.25018,3.8409 0.29062,0.004 0.26083,0.15589 -0.0722,0.36745 l -0.56714,0.36034 1.06721,1.15093 c 0.58696,0.63301 0.98149,1.40807 0.87673,1.72234 -0.10475,0.31427 0.1492,0.5714 0.56435,0.5714 0.93345,0 4.85241,2.83148 4.87723,3.52383 0.01,0.27789 0.7738,0.53366 1.69742,0.56838 4.24701,0.15966 4.09878,4.0783 -0.17033,4.50301 -2.35667,0.23445 -5.79804,2.04418 -6.37312,3.35146 -0.2568,0.58376 -1.0463,1.1588 -1.82617,1.33008 -1.45539,0.31966 -4.22109,1.73389 -5.384,2.7531 -0.38313,0.33578 -1.58475,0.9642 -2.67028,1.39648 -2.21229,0.881 -2.27051,0.9806 -1.2393,2.12007 l 0.73437,0.81148 -0.96657,0.96657 c -0.53162,0.53162 -1.36065,0.96658 -1.84229,0.96658 -0.48164,0 -1.43695,0.29118 -2.12291,0.64706 l -1.24721,0.64705 0.84973,0.63004 c 0.46736,0.34651 0.87913,1.22105 0.91506,1.9434 0.0359,0.72235 0.50628,1.78275 1.04523,2.35643 0.53895,0.57369 0.83996,1.18302 0.66891,1.35407 -0.17105,0.17105 0.0684,0.73024 0.53213,1.24264 0.46371,0.5124 0.70929,0.93164 0.54572,0.93164 -0.16357,0 0.0882,0.99264 0.55941,2.20588 0.47124,1.21324 0.7619,2.47413 0.64591,2.80199 -0.11599,0.32786 0.0358,0.8934 0.33739,1.25675 0.30156,0.36335 0.39903,0.90214 0.21661,1.1973 -0.18242,0.29516 -0.13714,0.67003 0.10063,0.83304 1.11263,0.76278 2.38246,3.61589 2.1478,4.82576 l -0.24799,1.27861 1.91202,1.85555 c 2.02871,1.9688 2.17838,2.34872 1.45661,3.69736 l -0.4554,0.85092 -1.93174,-0.43403 c -3.07392,-0.69067 -3.07802,-0.29141 -0.028,2.73031 1.57803,1.56339 3.07324,3.37934 3.32269,4.03544 0.45807,1.20483 0.15142,4.12049 -0.39768,3.78113 -0.16328,-0.10091 -0.68577,0.10089 -1.16109,0.44846 l -0.86423,0.63193 0.75325,0.75325 c 0.41428,0.41428 0.75324,0.9473 0.75324,1.18447 0,0.23717 0.29111,0.43122 0.64691,0.43122 0.3558,0 0.76754,0.31436 0.91498,0.69857 l 0.26806,0.69857 2.79211,-0.1706 c 1.53566,-0.0938 3.06709,-0.39881 3.40319,-0.67774 0.37602,-0.31207 1.49563,-0.39367 2.91057,-0.21213 3.23753,0.41537 5.85787,0.39496 6.94345,-0.0541 1.53317,-0.63419 3.89196,-0.64228 5.09626,-0.0175 0.62274,0.32308 1.59208,0.46717 2.15409,0.3202 l 1.02183,-0.26722 -0.34373,0.55617 -0.34373,0.55616 1.1999,-0.30116 c 1.27406,-0.31976 1.56475,0.17774 0.64263,1.09985 l -0.55727,0.55727 h 0.78947 c 0.4342,0 0.78946,-0.20898 0.78946,-0.46439 0,-1.07858 1.53516,-0.311 3.71518,1.85758 1.28383,1.27709 2.65051,2.32199 3.03709,2.32199 0.93013,0 3.82685,2.66209 4.20987,3.86889 0.16631,0.52402 0.90157,1.59196 1.63393,2.3732 0.73233,0.78125 1.33252,1.65932 1.3337,1.95126 0,0.29195 0.3156,0.6511 0.69872,0.79812 0.38313,0.14702 0.6966,0.59469 0.6966,0.99482 0,0.40013 0.3375,1.2426 0.75002,1.87216 l 0.74999,1.14465 -0.86608,0.0326 -0.86611,0.0326 0.92877,0.39912 c 1.39981,0.60151 1.6254,0.54422 1.6254,-0.41272 v -0.87711 l 1.64571,-0.30873 c 0.90512,-0.1698 2.0545,-0.17898 2.55417,-0.0204 l 0.9085,0.28835 v 1.39506 c 0,2.07626 -2.34084,3.82635 -2.89488,2.16429 l -0.18585,-0.55762 -0.34464,0.55762 c -0.18954,0.3067 -0.12988,0.55763 0.1326,0.55763 0.26247,0 0.343,0.34975 0.17899,0.77721 l -0.29825,0.77722 0.76235,-0.29254 c 0.41928,-0.16089 0.88795,-0.0893 1.04148,0.15916 0.15357,0.24842 0.45805,0.34113 0.67668,0.20601 0.48901,-0.30221 2.78909,0.70185 2.78909,1.21752 0,0.60524 -1.73194,1.35405 -2.47357,1.06946 -0.37578,-0.1442 -0.81227,-0.0534 -0.96998,0.20172 -0.15934,0.25787 -1.15993,0.35383 -2.25285,0.21607 -1.96182,-0.2473 -2.38194,-0.2449 -5.44912,0.0311 -2.68426,0.24154 -2.78638,0.26612 -2.78638,0.67073 0,0.45948 1.93723,0.58947 7.71476,0.51768 l 4.23178,-0.0526 0.26397,0.68788 0.26398,0.68789 -1.94159,0.19571 c -1.08616,0.10949 -2.09187,-0.0238 -2.28274,-0.30258 l -0.34119,-0.4983 -0.007,0.53586 c -0.004,0.30404 -0.76047,0.54614 -1.74859,0.55963 -7.72869,0.10553 -15.541,0.92707 -15.31325,1.61033 0.28042,0.84121 2.40047,1.14414 6.20597,0.88676 5.22401,-0.35331 9.5057,-0.24498 10.84877,0.2745 l 1.16098,0.44904 -1.23305,0.48398 c -0.67817,0.26619 -1.87979,0.40213 -2.67025,0.30208 -0.7905,-0.10004 -1.43739,-0.0351 -1.43757,0.14435 0,0.54243 -2.52756,0.51228 -2.8653,-0.0342 l -0.31437,-0.50864 -0.68204,0.56606 -0.68207,0.56605 -12.70475,0.2077 c -6.9876,0.11423 -13.27943,0.28753 -13.98182,0.38511 l -1.2771,0.17742 -0.0148,-0.74883 -0.0148,-0.74884 -0.58539,0.76957 c -0.32197,0.42327 -1.09899,0.75528 -1.72672,0.7378 -4.25501,-0.11846 -8.26592,0.96751 -7.59325,2.05592 0.35256,0.57045 -2.01646,0.98313 -4.21872,0.73491 l -2.02404,-0.22814 0.27301,0.71143 0.273,0.71144 -0.65941,-0.42448 c -1.01271,-0.6519 -8.4444,-0.52827 -9.16427,0.15245 -1.07007,1.0119 -0.11392,1.51285 2.88753,1.51285 h 2.91919 l 0.7705,0.8514 0.7705,0.85139 -0.81462,0.0721 c -3.945,0.34922 -13.73042,0.0762 -14.30308,-0.39909 l -0.67564,-0.56074 v 0.52624 0.52625 l -8.01085,0.006 c -6.77018,0.005 -9.56591,0.0854 -14.16409,0.40789 -0.31927,0.0224 -0.5805,0.33758 -0.5805,0.70041 0,0.86455 1.52549,1.11254 7.43035,1.20795 11.87079,0.19181 18.95985,0.32837 20.89785,0.40257 l 2.08978,0.08 -0.92879,0.55725 -0.9288,0.55725 -13.4675,0.0756 c -7.40712,0.0416 -13.4675,0.10625 -13.4675,0.14366 0,0.0374 -1.04489,0.15724 -2.32198,0.26629 -3.64173,0.31096 -7.00623,1.42363 -5.08514,1.68171 0.24264,0.0326 0.96362,0.1446 1.60216,0.24889 0.63855,0.1043 5.65403,0.19065 11.14552,0.19189 5.49149,0.001 10.68506,0.1117 11.54127,0.24545 1.56729,0.24483 1.6665,0.75416 0.17528,0.89993 -0.44177,0.0432 -1.63914,0.22581 -2.66081,0.40583 -3.5284,0.62173 -12.34969,1.25732 -17.41488,1.25478 -4.7413,-0.002 -6.48866,0.0124 -10.93695,0.0927 -2.56717,0.0463 -5.07491,0.008 -5.57275,-0.0856 z m 74.13287,-22.35342 c 0.23453,0 0.42642,-0.65065 0.42642,-1.44589 v -1.4459 l 1.37537,0.20186 c 0.86044,0.12629 1.46239,-0.0249 1.60781,-0.40386 0.12784,-0.33315 0.50778,-0.50006 0.84431,-0.37092 l 0.61188,0.2348 -0.10442,-1.86802 c -0.0574,-1.02741 0.0907,-1.86801 0.32924,-1.86801 0.64844,0 0.006,-4.75607 -0.75727,-5.60933 -0.36088,-0.40324 -0.65615,-0.88803 -0.65615,-1.07732 0,-0.18928 -0.62693,-1.25537 -1.39319,-2.36909 -0.76625,-1.11371 -1.40261,-2.50972 -1.41413,-3.10225 -0.0242,-1.24502 -1.27677,-4.21248 -1.33684,-3.1671 -0.026,0.45318 -0.42036,0.22126 -1.12845,-0.6637 -1.07514,-1.34367 -3.55092,-2.16805 -3.55092,-1.18237 0,0.27923 -0.21046,0.37762 -0.46768,0.21865 -0.25722,-0.15897 -0.58594,0.0899 -0.73049,0.55309 -0.14456,0.46317 -0.45655,1.20501 -0.69332,1.64852 -0.62037,1.16206 -0.5312,1.74779 0.2661,1.74779 0.38313,0 0.6966,0.32741 0.6966,0.72758 0,0.40017 0.52244,1.41255 1.16099,2.24972 0.63854,0.83718 1.16099,1.82163 1.16099,2.18767 0,0.36604 0.32531,1.12998 0.72293,1.69765 0.39761,0.56767 0.60177,1.03212 0.45369,1.03212 -0.14808,0 0.0259,0.47021 0.38672,1.0449 0.65988,1.05112 0.66415,2.08323 0.0146,3.51924 -0.45718,1.01066 -0.58996,1.66981 -0.92816,4.6077 l -0.28066,2.43808 h 0.74426 c 0.40934,0 0.74425,0.23133 0.74425,0.51408 0,0.28275 0.33056,0.38724 0.73458,0.2322 0.40401,-0.15504 0.92646,-0.28189 1.16099,-0.28189 z m 19.20061,-5.69369 c 0.0185,-0.0612 0.39957,-0.80738 0.84657,-1.65819 0.44697,-0.8508 0.81269,-1.89767 0.81269,-2.32637 0,-0.4287 0.38922,-1.02252 0.86496,-1.31961 l 0.86492,-0.54017 -0.10515,-1.86349 c -0.0578,-1.02492 -0.44672,-2.20509 -0.86423,-2.6226 -0.4175,-0.4175 -0.89324,-1.31918 -1.05718,-2.00372 -0.55899,-2.33415 -1.58511,-3.80166 -3.54754,-5.07352 -1.07841,-0.69892 -2.0704,-1.41787 -2.20444,-1.59767 -0.13403,-0.17979 -0.65648,-0.24998 -1.16099,-0.15597 -0.50451,0.094 -1.3875,0.18691 -1.96219,0.20645 -1.37862,0.0469 -1.3207,0.85782 0.17259,2.41648 l 1.21748,1.27078 -0.52241,1.4986 -0.52242,1.49861 1.68684,1.5007 1.68684,1.50071 -0.0415,2.06937 c -0.0229,1.13816 -0.24356,2.9685 -0.49047,4.06743 l -0.44893,1.99806 1.01105,0.86529 c 0.83383,0.71363 3.56871,0.90898 3.76355,0.26883 z M 795.58102,225.43901 c -0.0576,-0.84176 0.14026,-1.2771 0.5805,-1.2771 0.36736,0 0.66792,-0.23133 0.66792,-0.51408 0,-0.28274 -0.31347,-0.39379 -0.6966,-0.24677 -0.38312,0.14702 -0.69659,0.0649 -0.69659,-0.18251 0,-0.24741 0.30113,-0.44983 0.66919,-0.44983 0.99225,0 1.2091,-0.63052 0.75792,-2.20372 -0.27129,-0.94591 -0.2252,-1.61454 0.14061,-2.0398 0.2993,-0.34795 0.45394,-0.58221 0.34365,-0.52057 -0.11029,0.0616 -0.46237,-0.10524 -0.78241,-0.37085 l -0.58188,-0.48292 -0.30094,0.48695 c -0.45468,0.73568 -2.56023,0.58349 -2.86356,-0.20698 -0.14645,-0.38166 -0.45336,-0.5783 -0.68202,-0.43699 -0.22865,0.14132 -0.41573,-0.0224 -0.41573,-0.36386 0,-1.21138 -3.79011,-3.83592 -6.16502,-4.26909 l -1.75324,-0.31979 -1.38143,0.98367 c -1.39643,0.99435 -1.81268,2.45667 -0.86585,3.04184 0.30299,0.18725 0.40997,0.96939 0.25946,1.89687 l -0.25611,1.57824 1.36592,1.39731 c 0.75126,0.76853 1.36592,1.59909 1.36592,1.8457 0,0.24662 0.30162,0.44839 0.67026,0.44839 0.36865,0 0.99078,0.4576 1.38251,1.01687 0.39174,0.55929 0.85456,0.87457 1.0285,0.70063 0.17393,-0.17394 0.59472,-0.0851 0.93507,0.19733 1.10646,0.91828 4.07215,1.78428 5.73599,1.67495 l 1.62539,-0.1068 z m -21.50701,-25.78873 c 0,-0.19966 0.99264,-0.64347 2.20588,-0.98625 1.21323,-0.34278 2.89701,-1.01533 3.74172,-1.49457 0.84471,-0.47924 2.13849,-0.87134 2.87507,-0.87134 0.73658,0 1.47636,-0.22187 1.64395,-0.49304 0.16759,-0.27118 0.75462,-0.68864 1.3045,-0.92769 0.54988,-0.23905 1.31325,-0.62904 1.69638,-0.86664 0.76956,-0.47725 2.29786,-1.07 3.01858,-1.17076 0.25541,-0.0357 2.11006,-0.83957 4.12144,-1.78637 2.01138,-0.9468 3.89219,-1.7281 4.17957,-1.73622 0.28739,-0.008 0.91902,-0.3149 1.40363,-0.68172 0.48461,-0.36682 1.04486,-0.56575 1.245,-0.44205 0.20014,0.12369 0.49516,0.0125 0.65559,-0.24707 0.16043,-0.25959 0.66521,-0.47198 1.12173,-0.47198 0.45652,0 1.50051,-0.33447 2.31998,-0.74327 0.81946,-0.40881 2.20993,-0.7637 3.08992,-0.78864 0.98113,-0.0278 1.59999,-0.27919 1.59999,-0.64991 0,-0.33251 0.51011,-0.60456 1.13359,-0.60456 0.62347,0 1.26274,-0.20898 1.42059,-0.46439 0.15786,-0.25542 0.69264,-0.4644 1.1884,-0.4644 1.28071,0 1.11588,-1.01393 -0.40111,-2.46729 -1.34007,-1.28387 -3.12792,-1.65633 -3.44106,-0.71689 l -0.177,0.53099 -0.98523,-0.52728 -0.98523,-0.52728 -0.17186,0.51556 c -0.0945,0.28356 -1.14012,0.55637 -2.32355,0.60624 -1.18343,0.0499 -2.47866,0.36201 -2.87827,0.69367 -0.39962,0.33165 -1.07293,0.47009 -1.49625,0.30765 -0.42885,-0.16457 -1.13079,0.0315 -1.5852,0.44269 -0.48078,0.4351 -0.93019,0.55252 -1.09488,0.28605 -0.16717,-0.2705 -1.05073,-0.0793 -2.20033,0.47612 -1.05654,0.51046 -2.54118,1.0066 -3.2992,1.10254 -0.75803,0.0959 -1.61719,0.35808 -1.90925,0.58255 -0.29206,0.22447 -2.30733,0.76098 -4.47839,1.19224 -4.68254,0.93015 -7.4561,1.69447 -8.21535,2.26394 -0.30404,0.22804 -0.93097,0.35656 -1.39319,0.28559 -0.46221,-0.071 -1.31848,0.13434 -1.90281,0.45625 -0.58434,0.3219 -1.42026,0.47808 -1.85759,0.34707 -0.43734,-0.13102 -1.26832,0.15453 -1.84664,0.63454 l -1.05148,0.87275 0.54553,1.19732 c 0.30004,0.65852 0.79853,1.19731 1.10775,1.19731 0.6051,0 1.37532,4.36206 0.90469,5.12356 -0.15269,0.24706 -0.14846,0.65818 0.009,0.9136 0.33978,0.54977 1.16099,0.62148 1.16099,0.10138 z m 67.5373,-41.32289 c 2.18298,-0.14639 2.10979,-0.0856 2.57256,-2.13744 l 0.36917,-1.63683 -0.63578,-0.9077 c -1.41173,-2.01552 -4.89595,-1.03621 -4.86048,1.36614 0.0516,3.49941 0.13545,4.2588 0.42574,3.85772 0.16698,-0.23071 1.12493,-0.47456 2.12879,-0.54189 z m -29.84677,112.33032 c -0.3422,-0.21707 -2.06628,-0.30584 -3.83127,-0.19726 l -3.20909,0.19742 v -0.67931 c 0,-0.37363 0.65812,-0.90874 1.46249,-1.18914 1.84182,-0.64207 1.78829,-0.6486 1.78829,0.21806 0,0.47601 0.28122,0.64398 0.81269,0.4854 0.44698,-0.13337 1.83651,-0.49358 3.08784,-0.80047 l 2.27515,-0.55796 0.56832,0.77723 c 0.33403,0.4568 0.87985,0.6577 1.32393,0.48728 1.01417,-0.38917 2.43555,0.17282 1.86929,0.73908 -0.59976,0.59975 -5.38388,1.00417 -6.14764,0.51967 z m -61.37476,-1.76653 c -0.38313,-0.12143 -1.01007,-0.337 -1.39319,-0.47905 -0.38313,-0.14206 -1.21904,-0.28223 -1.85759,-0.31151 -0.69873,-0.032 -1.16099,-0.33058 -1.16099,-0.74982 v -0.6966 l 3.94737,0.009 c 4.02309,0.01 10.16559,0.45422 11.84211,0.85727 0.51084,0.1228 1.08553,0.23927 1.2771,0.25881 1.16736,0.11909 0.0716,0.83854 -1.16099,0.76231 -0.83011,-0.0513 -2.08116,0.0622 -2.78012,0.25233 -0.69895,0.19011 -1.37767,0.17278 -1.50825,-0.0385 -0.2197,-0.35547 -3.41511,-0.25691 -5.58006,0.17211 -0.51084,0.10124 -1.24227,0.0847 -1.62539,-0.0367 z m 167.80696,-2.25824 c -0.4213,-1.09781 0.0711,-1.29771 3.14422,-1.27652 1.8619,0.0129 2.97119,0.23493 3.22503,0.64566 l 0.38692,0.62609 0.30341,-0.79065 c 0.1669,-0.43486 0.75281,-0.79189 1.30207,-0.7934 0.5493,-0.001 1.78234,-0.13293 2.74016,-0.29203 l 1.74149,-0.28929 v 1.11302 1.11302 l -1.50928,0.15677 c -0.8301,0.0862 -1.87499,0.13565 -2.32199,0.10983 -0.44697,-0.0258 -1.07391,-0.0599 -1.39319,-0.0758 -0.31925,-0.0159 -2.10236,0.0831 -3.96241,0.2199 l -3.38193,0.24874 z m -68.89833,-25.49729 c -0.37882,-0.3793 -1.10671,-1.08298 -1.61755,-1.56374 -1.47019,-1.38364 -2.55418,-2.83531 -2.55418,-3.42053 0,-0.29624 -0.341,-0.91542 -0.75779,-1.37596 l -0.75778,-0.83734 0.0872,-2.6822 c 0.048,-1.47521 0.17752,-3.93607 0.28792,-5.46858 0.48854,-6.7812 0.55289,-8.85352 0.28838,-9.28793 -0.46664,-0.76636 -0.4898,-1.64851 -0.0359,-1.36799 0.23299,0.144 0.42363,-0.0747 0.42363,-0.48589 0,-0.42304 0.74492,-1.05894 1.7156,-1.46452 l 1.71559,-0.71682 0.60639,0.82928 c 0.55596,0.76033 0.85546,2.53174 0.62056,3.67034 -0.16444,0.79706 -0.5975,7.80204 -0.6029,9.75233 -0.0152,5.49883 2.67584,11.77867 4.07638,9.51255 0.16043,-0.25959 0.46255,-0.36637 0.67138,-0.23731 0.20883,0.12906 0.63793,-0.0765 0.95357,-0.45682 0.31563,-0.38032 1.07074,-0.69148 1.67801,-0.69148 0.60727,0 1.10412,-0.18688 1.10412,-0.41529 0,-0.60278 2.60612,-3.29989 3.18857,-3.29989 0.73588,0 1.31954,-1.40888 1.37462,-3.31819 0.0783,-2.7133 6.11794,-14.31395 6.11794,-11.751 0,0.17722 0.31346,0.0621 0.69659,-0.2559 l 0.6966,-0.57812 v 0.84222 0.84222 l 0.58049,-0.76201 0.5805,-0.76201 1.08827,0.5967 1.08826,0.5967 -0.76958,0.76959 c -0.42326,0.42326 -0.65899,0.94851 -0.52383,1.1672 0.13517,0.2187 -0.1524,0.82499 -0.63902,1.34732 -0.48662,0.52233 -0.75803,1.07642 -0.60314,1.23132 0.1549,0.1549 0.0141,0.28163 -0.31287,0.28163 -0.3964,0 -0.52637,0.46425 -0.39002,1.39319 0.11246,0.76626 0.0827,1.39319 -0.0661,1.39319 -0.37473,0 -1.22777,2.07577 -2.09929,5.10837 -0.85363,2.97038 -1.12797,3.44422 -2.22931,3.85057 -0.44699,0.16491 -0.8127,0.72436 -0.8127,1.24321 0,0.55687 -0.30575,0.94337 -0.74628,0.94337 -0.47232,0 -0.64822,0.25553 -0.47917,0.69608 0.14691,0.38284 0.078,1.16651 -0.15307,1.74149 -0.23111,0.57497 -0.43344,0.78418 -0.44963,0.46491 -0.042,-0.82745 -0.63443,-0.719 -1.75002,0.32034 -0.53181,0.49545 -1.10933,0.75841 -1.28339,0.58436 -0.17405,-0.17406 -0.52528,0.0567 -0.78049,0.51271 -0.30587,0.54656 -0.76935,0.73228 -1.35979,0.54489 -0.52702,-0.16728 -1.19556,0.0155 -1.62409,0.44404 -0.40907,0.40907 -1.51142,0.72834 -2.51477,0.72834 -0.98254,0 -2.06828,0.10815 -2.41276,0.24034 -0.34447,0.13219 -0.93626,-0.07 -1.31507,-0.44928 z m -33.20986,-38.00534 c -0.55237,-0.65076 -0.35592,-2.18822 0.2796,-2.18822 0.23669,0 0.43034,-0.30057 0.43034,-0.66794 0,-0.98065 2.6118,-3.67434 3.20636,-3.30689 0.27985,0.17296 0.50881,0.11752 0.50881,-0.1232 0,-0.6797 2.3028,-0.95725 2.68199,-0.32326 0.4828,0.80723 3.11543,1.22448 3.74618,0.59374 l 0.52646,-0.52646 0.86409,0.89991 0.86409,0.89992 -0.42112,1.22445 -0.42111,1.22446 -1.45143,0.29028 c -0.94292,0.18859 -1.57927,0.085 -1.81634,-0.29566 l -0.3649,-0.58595 -0.93666,0.58049 c -0.51516,0.31928 -1.2238,0.5805 -1.57475,0.5805 -0.35095,0 -1.40796,0.52245 -2.34891,1.16099 -1.8631,1.26433 -3.02954,1.43835 -3.7727,0.56284 z m 35.77188,-8.42476 c -0.76625,-0.26662 -1.56098,-0.74999 -1.76606,-1.07417 -0.21163,-0.33451 -0.81541,-0.47833 -1.39619,-0.33256 l -1.02332,0.25684 -0.80477,-1.36237 -0.80477,-1.36237 0.72706,-0.60341 0.72707,-0.60342 0.429,0.66674 0.42901,0.66673 0.40021,-0.62016 c 0.22012,-0.34109 0.53359,-0.60231 0.6966,-0.5805 0.163,0.0218 0.45311,0.0155 0.64467,-0.0141 0.19157,-0.0296 1.13197,-0.0377 2.08979,-0.0181 0.95782,0.0196 1.74148,-0.13739 1.74148,-0.34896 0,-0.64619 3.71226,-0.11278 4.46689,0.64186 0.38931,0.3893 0.90187,0.70781 1.13905,0.70781 0.23717,0 0.43122,0.61286 0.43122,1.3619 v 1.3619 l -0.92879,0.29478 c -0.51084,0.16213 -0.9288,0.50377 -0.9288,0.75918 0,0.25542 -0.36571,0.35228 -0.81269,0.21525 -0.44698,-0.13704 -1.54412,-0.0869 -2.43808,0.11139 -0.94146,0.20885 -2.21161,0.15658 -3.01858,-0.12421 z m -111.2774,-1.69899 -1.21541,-1.26323 -0.0509,-2.25875 c -0.028,-1.24232 0.22678,-2.79396 0.56615,-3.4481 0.33937,-0.65414 0.5234,-1.82729 0.40897,-2.60701 -0.11444,-0.77971 0.021,-1.55923 0.30096,-1.73226 0.27997,-0.17303 0.50904,-0.67171 0.50904,-1.10818 0,-0.43647 0.49441,-1.52127 1.09869,-2.41067 0.60429,-0.88941 1.24727,-2.29373 1.42885,-3.12072 l 0.33015,-1.50363 -0.84835,-1.28474 c -0.46659,-0.70661 -1.05733,-1.63879 -1.31275,-2.07152 -0.25542,-0.43272 -1.04375,-1.59916 -1.75184,-2.59209 l -1.28745,-1.80533 -0.289,-3.09477 -0.28899,-3.09477 h 0.60895 c 0.33492,0 0.48079,-0.12816 0.32416,-0.2848 -0.53935,-0.53934 1.25064,-4.11759 2.86972,-5.73666 l 1.62217,-1.62217 -0.08,-2.56364 c -0.12361,-3.9616 -0.1202,-3.95202 -2.50172,-7.02913 -1.23452,-1.59509 -2.24459,-3.17878 -2.24459,-3.51931 0,-0.34052 -0.18459,-0.98201 -0.41021,-1.42553 -2.59346,-5.09816 -3.21212,-10.66073 -1.64273,-14.77013 l 0.78855,-2.06478 0.64342,0.53399 c 0.35388,0.2937 0.79477,0.38264 0.97976,0.19765 0.18499,-0.18499 -0.007,-0.58708 -0.42565,-0.89353 l -0.76199,-0.55718 0.66146,-1.26244 c 0.3638,-0.69433 0.8572,-1.26243 1.09644,-1.26243 0.23925,0 0.31676,-0.3081 0.17227,-0.68466 -0.14451,-0.37656 0.10648,-1.05388 0.55775,-1.50514 l 0.82048,-0.82048 0.19212,0.57635 c 0.30952,0.92858 1.174,0.6611 0.92618,-0.28657 l -0.22566,-0.86292 1.33248,0.66473 c 1.3445,0.67073 1.73443,1.68667 0.85578,2.22971 -0.26219,0.16204 -0.43713,0.54009 -0.38875,0.8401 0.1445,0.89605 -0.59662,3.09966 -1.04247,3.09966 -0.22773,0 -0.41405,0.43029 -0.41405,0.9562 0,0.52591 -0.20898,0.82704 -0.4644,0.66918 -0.25542,-0.15785 -0.47104,0.091 -0.47916,0.55309 -0.008,0.46206 -0.2887,1.20077 -0.6235,1.64158 l -0.60872,0.80148 0.43236,2.85658 c 0.23779,1.57112 0.83183,3.56782 1.32008,4.43711 0.48825,0.86929 0.88773,1.88764 0.88773,2.263 0,0.37536 0.1949,0.68247 0.4331,0.68247 0.23821,0 0.56576,0.41796 0.7279,0.92879 0.16213,0.51084 0.57756,0.9288 0.92318,0.9288 0.34563,0 0.7681,0.63604 0.93885,1.41342 0.17074,0.77738 0.81428,1.91727 1.43008,2.53307 0.61581,0.61581 1.13663,1.70384 1.15738,2.41785 0.0208,0.71401 0.1084,1.92514 0.19477,2.69139 0.0864,0.76626 -0.0595,2.83636 -0.32409,4.60024 l -0.48114,3.20705 -1.10682,1.02577 c -0.60876,0.56417 -1.10683,1.27536 -1.10683,1.58042 0,0.30506 -0.19164,0.43621 -0.42587,0.29144 -0.23424,-0.14476 -0.76324,0.75247 -1.17556,1.99385 l -0.74967,2.25706 0.50895,1.33864 c 0.98812,2.59896 2.05405,4.61399 2.92644,5.53217 1.302,1.37032 2.30055,3.95658 2.24128,5.80495 -0.0496,1.54529 -1.77204,5.6305 -2.51287,5.95976 -0.19156,0.0851 -0.3483,0.54301 -0.3483,1.01748 0,0.47448 -0.18095,0.97452 -0.40212,1.11121 -0.22116,0.13669 -0.29989,0.78328 -0.17495,1.43687 0.1311,0.68579 -0.0653,1.52516 -0.4643,1.98477 -1.1229,1.29333 -1.35646,3.1989 -0.61083,4.98346 0.86241,2.06402 0.59831,2.75276 -1.27271,3.3191 l -1.48686,0.45006 z m 39.23167,-14.58771 c -0.14702,-0.38313 -0.71515,-0.69977 -1.26251,-0.70365 -0.85725,-0.006 -2.43467,-0.44804 -5.98747,-1.6776 -0.44698,-0.15469 -0.8127,-0.46621 -0.8127,-0.69226 0,-0.22606 -1.04489,-1.16169 -2.32198,-2.07919 l -2.32198,-1.66818 v -1.14483 c 0,-0.71141 -0.19259,-1.02582 -0.50868,-0.83046 -1.04764,0.64748 -5.06408,-2.30967 -5.06408,-3.72848 0,-1.14492 0.55182,-2.10384 1.21067,-2.10384 0.3558,0 0.64691,-0.21603 0.64691,-0.48006 0,-0.57222 3.29954,-2.59776 3.90482,-2.39713 0.23201,0.0769 0.5901,-0.13242 0.79575,-0.46517 0.20566,-0.33276 0.53827,-0.62306 0.73915,-0.64512 1.05886,-0.11628 2.01539,-0.85093 1.80882,-1.38924 -0.13405,-0.34932 0.19465,-0.74932 0.76434,-0.93013 0.54975,-0.17449 1.28544,-0.60314 1.63487,-0.95257 0.34943,-0.34943 0.89188,-0.63532 1.20545,-0.63532 0.31358,0 0.82417,-0.70253 1.13466,-1.56117 0.31049,-0.85864 1.18839,-2.03928 1.95088,-2.62364 0.76249,-0.58436 1.38635,-1.34468 1.38635,-1.68961 0,-0.34492 0.15674,-0.62876 0.3483,-0.63076 0.19156,-0.002 0.59492,-0.53516 0.89635,-1.18482 l 0.54805,-1.1812 -1.12855,-0.42907 c -0.6207,-0.23599 -1.12855,-0.73062 -1.12855,-1.09918 0,-0.36856 -0.12684,-1.00066 -0.28188,-1.40468 -0.18497,-0.48204 -0.0253,-0.73458 0.4644,-0.73458 0.41045,0 0.74628,-0.1705 0.74628,-0.37888 0,-0.20839 0.78367,-0.83093 1.74148,-1.38344 2.56732,-1.48092 5.00146,-3.83753 5.73458,-5.55192 0.35497,-0.83011 0.81082,-1.50929 1.01299,-1.50929 0.37729,0 0.0887,-7.06522 -0.3652,-8.93946 -0.13919,-0.57479 -0.35276,-1.98547 -0.47461,-3.13486 -0.12184,-1.14938 -0.32441,-2.71672 -0.45015,-3.48297 -0.12574,-0.76626 -0.3353,-2.8038 -0.46569,-4.52787 l -0.23707,-3.13468 h 1.14903 1.14902 l -0.26731,-0.69659 c -0.14701,-0.38313 -0.0236,-0.6966 0.27418,-0.6966 0.29782,0 0.41798,-0.19984 0.26702,-0.44411 -0.15097,-0.24426 -0.56601,-0.33224 -0.92232,-0.19552 l -0.64784,0.2486 0.25111,-0.96025 c 0.13811,-0.52814 0.41684,-0.85782 0.6194,-0.73263 0.20256,0.12518 0.26891,-0.15244 0.14744,-0.61694 l -0.22086,-0.84456 1.77346,-0.52632 c 0.9754,-0.28948 2.33485,-0.64178 3.021,-0.78291 1.37577,-0.28295 5.92737,0.5341 6.62397,1.18906 0.24265,0.22815 0.73493,0.41481 1.09396,0.41481 0.35902,0 1.28681,0.5335 2.06174,1.18557 0.77493,0.65206 2.02469,1.30871 2.77723,1.45922 0.75255,0.15051 1.47715,0.55741 1.61024,0.90422 0.13308,0.3468 0.50904,0.63056 0.83547,0.63056 0.32642,0 0.93582,0.52245 1.35421,1.16099 0.48656,0.74258 1.19316,1.16099 1.96068,1.16099 h 1.19997 l -0.26731,0.6966 -0.26731,0.69659 2.42351,0.0688 c 1.33293,0.0378 2.84146,0.0927 3.3523,0.122 0.51084,0.0293 1.16453,-0.1106 1.45266,-0.31083 0.28813,-0.20023 1.64649,-0.41186 3.01858,-0.47029 l 2.4947,-0.10623 -0.13645,0.81269 c -0.0751,0.44698 -0.009,0.81269 0.14663,0.81269 0.59953,0 2.07961,-0.98165 2.07961,-1.37929 0,-0.22981 0.24371,-1.00612 0.54158,-1.72515 0.59896,-1.44583 0.70824,-1.78572 0.79356,-2.46832 0.0319,-0.25541 0.68498,-0.46439 1.45124,-0.46439 h 1.39319 l 0.07,0.81269 c 0.0385,0.44699 0.0284,1.36341 -0.0226,2.03649 l -0.0926,1.22379 1.41576,0.49354 c 0.77867,0.27145 1.41576,0.31901 1.41576,0.10569 0,-0.56986 5.41667,-0.2715 6.15214,0.33888 0.34523,0.28652 1.50154,0.66068 2.56957,0.83146 1.06803,0.17078 2.18253,0.60049 2.47666,0.95489 l 0.53478,0.64437 0.60529,-0.50235 0.60529,-0.50235 0.99711,0.53364 0.99712,0.53363 0.77406,-0.68217 0.77406,-0.68217 1.04489,0.39799 c 0.57469,0.2189 1.0449,0.63808 1.0449,0.93152 0,0.30156 0.39639,0.42987 0.91171,0.29511 0.50145,-0.13113 1.15789,0.0582 1.45876,0.42072 0.88279,1.0637 4.04634,-0.6814 4.11563,-2.2703 0.0271,-0.62035 5.72582,-5.91507 6.36646,-5.91507 0.33821,0 0.61493,-0.44031 0.61493,-0.97848 0,-0.6489 0.21946,-0.89426 0.65156,-0.72845 0.37577,0.1442 1.09435,-0.32776 1.69772,-1.11506 0.57539,-0.75079 1.27483,-1.31564 1.55433,-1.25522 0.27949,0.0604 0.96857,-0.2894 1.53127,-0.7774 1.17371,-1.01787 2.99325,-1.29737 3.50476,-0.53837 l 0.3483,0.51682 0.36491,-0.56304 c 0.91998,-1.41946 3.72162,1.23981 3.8473,3.6518 0.0179,0.34452 0.2045,0.20845 0.41455,-0.30239 l 0.38191,-0.92879 0.36897,0.90974 c 0.20293,0.50036 0.84366,1.33627 1.42384,1.85759 1.0739,0.96494 3.35848,8.43307 3.62846,11.86116 0.0704,0.89397 0.40583,3.08824 0.74539,4.87617 0.76263,4.01559 0.8807,11.97851 0.21001,14.1641 -0.27433,0.89396 -0.50442,1.83436 -0.5113,2.08978 -0.007,0.25542 -0.18025,1.03909 -0.38526,1.74149 l -0.37275,1.27709 -1.45894,0.0707 c -1.59835,0.0774 -3.15137,0.0708 -3.61066,-0.0155 -0.65476,-0.12295 -0.72607,-1.91594 -0.097,-2.43804 0.81389,-0.67548 1.65883,-2.19075 1.76788,-3.17046 0.0438,-0.39385 0.32644,-1.30372 0.628,-2.02195 l 0.54828,-1.30585 -0.46016,-1.94492 c -0.25309,-1.06971 -0.41751,-2.25839 -0.36536,-2.64151 0.14275,-1.04888 -0.61654,-6.77023 -0.9617,-7.24655 -0.39786,-0.54906 -2.39123,-1.65719 -2.39123,-1.32931 0,0.14056 0.41796,0.70418 0.92879,1.2525 0.96128,1.03181 1.19458,1.7506 0.5682,1.7506 -0.19832,0 -0.40062,0.88816 -0.44954,1.97368 -0.15288,3.39237 -0.41725,5.17962 -0.96133,6.49901 l -0.52559,1.27454 -1.52175,-0.16183 -1.52175,-0.16183 -0.52489,-1.57711 -0.52488,-1.57711 -1.3327,-0.1271 c -0.73299,-0.0699 -1.68653,-0.13604 -2.11899,-0.14696 -0.47638,-0.012 -0.68867,-0.27419 -0.53864,-0.66517 l 0.24763,-0.64533 -1.44363,0.41403 c -0.79399,0.22772 -1.57313,0.44536 -1.73141,0.48365 -0.15828,0.0383 -0.46469,-0.20946 -0.6809,-0.55055 l -0.3931,-0.62016 -0.007,0.59684 -0.007,0.59683 -0.9288,-0.49707 -0.92879,-0.49707 v -1.60905 c 0,-0.88498 0.20898,-1.60905 0.4644,-1.60905 0.25542,0 0.46439,-0.29111 0.46439,-0.64691 0,-0.3558 0.28658,-0.75688 0.63684,-0.89129 0.35026,-0.13441 0.78048,-0.83594 0.95604,-1.55897 0.17556,-0.72303 0.74714,-2.21019 1.27017,-3.3048 0.52303,-1.09461 0.98097,-2.66195 1.01765,-3.48297 0.0846,-1.89339 0.70163,-2.53091 3.30989,-3.41963 1.15354,-0.39305 2.09734,-0.91133 2.09734,-1.15172 0,-0.25318 0.39079,-0.22794 0.9288,0.06 0.51084,0.27339 0.92879,0.72791 0.92879,1.01004 0,0.52753 1.35316,1.73526 1.97369,1.76157 0.58616,0.0249 0.38667,-1.30864 -0.25487,-1.70364 -0.33174,-0.20426 -1.18536,-1.57778 -1.89693,-3.05227 l -1.29378,-2.6809 -1.10071,0.14741 c -0.6054,0.0811 -1.69443,0.66054 -2.42009,1.2877 -0.72565,0.62717 -1.95129,1.4956 -2.72364,1.92984 -2.5291,1.42194 -4.86508,3.89249 -5.01485,5.30376 -0.0839,0.79013 -0.45344,1.39847 -0.90351,1.4872 -0.41888,0.0826 -0.76161,0.43422 -0.76161,0.7814 0,0.34719 -0.40049,0.75836 -0.88997,0.91372 -0.48949,0.15536 -1.10482,0.89876 -1.3674,1.652 -0.31712,0.9097 -0.7038,1.28267 -1.15162,1.11082 -0.38264,-0.14682 -0.97713,0.17378 -1.37466,0.74134 l -0.70046,1.00004 -0.94258,-0.50445 c -0.51843,-0.27745 -1.35192,-0.50446 -1.85223,-0.50446 -0.5003,0 -1.02992,-0.31346 -1.17694,-0.69659 -0.14702,-0.38313 -0.0231,-0.6966 0.27539,-0.6966 0.33995,0 0.37788,-0.15857 0.10153,-0.42445 -0.58165,-0.5596 -2.62368,-0.79478 -3.29104,-0.37902 -0.29033,0.18087 -0.79434,0.008 -1.12,-0.38462 -0.36739,-0.44267 -0.70305,-0.53397 -0.88441,-0.24053 -0.16706,0.27032 -1.03301,0.35272 -2.02135,0.19233 l -1.72907,-0.28059 -0.28282,-1.12684 c -0.16943,-0.67507 -0.5271,-1.03311 -0.89211,-0.89304 -0.33511,0.1286 -0.71138,-0.0157 -0.83614,-0.3206 l -0.22685,-0.55441 -0.4417,0.63008 c -0.28011,0.39957 -0.54898,0.4565 -0.73495,0.15561 -0.16128,-0.26096 -1.16778,-0.41879 -2.23667,-0.35073 -1.06888,0.0681 -2.66167,-0.0382 -3.53952,-0.23622 l -1.5961,-0.35998 -1.49327,1.47381 c -0.82129,0.8106 -1.72854,1.89177 -2.01611,2.40261 -0.28757,0.51084 -0.52921,0.69631 -0.53698,0.41216 -0.008,-0.28415 -0.53657,-0.45929 -1.17511,-0.3892 -1.19183,0.13084 -1.61985,-0.4872 -0.5805,-0.83819 0.32298,-0.10908 -0.0491,-0.5229 -0.83872,-0.93285 l -1.41922,-0.7368 -0.5584,0.89414 c -0.69504,1.11293 -1.41426,1.14523 -1.81342,0.0815 -0.46904,-1.25004 -1.53638,-1.85035 -2.98913,-1.6812 l -1.32074,0.15377 v -0.68752 c 0,-0.37814 -0.20898,-0.68753 -0.46439,-0.68753 -0.75292,0 -0.53033,1.73292 0.26163,2.03682 0.85617,0.32854 0.45601,1.21396 -0.54865,1.21396 -0.38312,0 -0.58837,-0.17511 -0.4561,-0.38912 0.13227,-0.21402 -0.48233,-0.16289 -1.36578,0.11363 -0.88345,0.27651 -1.60628,0.76509 -1.60628,1.08571 0,0.32063 -0.20898,0.58297 -0.46439,0.58297 -0.25542,0 -0.4644,0.31347 -0.4644,0.69659 0,1.08191 -2.22325,0.84577 -3.27926,-0.3483 -3.08363,-3.48676 -3.68669,-4.24501 -3.68669,-4.63545 0,-0.69158 -3.19748,-3.60759 -3.95582,-3.60759 -0.37848,0 -0.68814,-0.20601 -0.68814,-0.4578 0,-0.2518 -0.88816,-1.03351 -1.97369,-1.73714 -1.08553,-0.70364 -2.07818,-1.40485 -2.20588,-1.55825 -0.12771,-0.1534 -1.33224,-0.30031 -2.67673,-0.32646 l -2.44453,-0.0476 -0.74301,1.13397 -0.743,1.13397 0.31351,2.09063 0.31351,2.09063 h 1.02241 c 0.61486,0 1.20515,-0.41652 1.48084,-1.04489 0.57507,-1.31079 2.01042,-1.34396 3.30562,-0.0764 0.54428,0.53267 1.95489,1.75947 3.13467,2.72622 1.17979,0.96674 2.14507,2.06837 2.14507,2.44806 0,0.42284 0.26992,0.58676 0.69659,0.42302 1.02009,-0.39144 0.87069,0.95676 -0.20841,1.88072 -0.49775,0.42619 -0.79834,0.94746 -0.66797,1.1584 0.40598,0.65689 -1.81344,4.14332 -2.46771,3.87645 -0.3318,-0.13534 -0.89096,-0.36303 -1.24258,-0.50597 -0.40125,-0.16312 -0.74067,0.13948 -0.91154,0.81269 -0.14974,0.58993 -0.69688,1.33491 -1.21587,1.65551 l -0.94362,0.58292 -0.93121,-0.93121 c -1.34148,-1.34148 -1.44856,-1.20398 -1.17354,1.50686 0.13605,1.34095 0.11801,3.32624 -0.0401,4.41177 l -0.28744,1.97369 h -0.82638 c -0.45451,0 -0.94532,0.30994 -1.09068,0.68876 -0.1504,0.39192 -0.5721,0.57066 -0.97848,0.41471 -1.05204,-0.4037 -0.87864,0.75138 0.30134,2.00742 1.16249,1.2374 0.78331,1.93587 -1.1372,2.09481 l -1.24166,0.10276 -0.28402,1.29314 c -0.15621,0.71123 -0.58088,1.29314 -0.94372,1.29314 -0.36283,0 -0.65969,0.18553 -0.65969,0.41228 0,0.22676 -0.73143,1.47559 -1.62539,2.77519 -0.89397,1.29959 -1.62539,2.57691 -1.62539,2.83849 0,0.26157 -0.31347,0.47559 -0.69659,0.47559 -0.38313,0 -0.6966,0.28149 -0.6966,0.62554 0,0.34404 -0.41796,1.10744 -0.92879,1.69644 -0.51084,0.589 -0.9288,1.23558 -0.9288,1.43684 0,0.61598 0.84653,0.92955 1.15631,0.42832 0.16043,-0.25958 0.87147,-0.47197 1.58008,-0.47197 0.70861,0 1.42705,-0.13867 1.59655,-0.30816 0.16949,-0.16949 1.40594,-0.69289 2.74768,-1.16311 1.34173,-0.47021 2.64849,-1.12371 2.90391,-1.45222 1.01789,-1.30915 3.95151,-3.18057 4.73801,-3.02248 0.45911,0.0923 1.24113,-0.20513 1.73781,-0.66091 0.49712,-0.45617 1.26725,-0.7131 1.71321,-0.57156 0.51718,0.16415 0.99086,-0.0805 1.3099,-0.67669 0.27487,-0.5136 0.78307,-0.8251 1.12935,-0.69222 0.34627,0.13287 0.75448,-0.0839 0.90713,-0.48169 0.15265,-0.39781 0.4998,-0.72328 0.77144,-0.72328 0.27164,0 1.27084,-0.34159 2.22046,-0.75908 0.94961,-0.41749 2.04004,-0.80054 2.42316,-0.85123 0.38313,-0.0507 1.14921,-0.24005 1.70241,-0.42081 0.56896,-0.18591 1.13757,-0.11546 1.30918,0.16221 0.16685,0.26998 0.51147,0.36225 0.76581,0.20506 0.94831,-0.58609 3.59765,0.34166 5.11449,1.791 l 1.56802,1.49823 -0.43569,1.74149 c -0.23963,0.95782 -0.57162,1.74149 -0.73776,1.74149 -0.16613,0 -0.21004,0.62693 -0.0976,1.39319 0.12594,0.85809 -3.5e-4,1.39319 -0.32897,1.39319 h -0.53345 l 0.49708,0.92879 0.49707,0.92879 h -0.51203 c -0.30069,0 -0.39036,0.38335 -0.21724,0.92879 l 0.29479,0.9288 h -0.7553 c -0.41541,0 -0.63139,0.20047 -0.47996,0.4455 0.24953,0.40374 -0.0911,1.30569 -1.23498,3.26967 -0.22313,0.38312 -0.52849,1.0623 -0.67857,1.50929 -0.15009,0.44698 -0.44691,0.81269 -0.65961,0.81269 -0.62109,0 -4.61331,3.93783 -4.61331,4.55046 0,0.30685 -0.18632,0.5579 -0.41405,0.5579 -0.22773,0 -0.53484,0.48126 -0.68248,1.06947 -0.14762,0.58821 -0.8959,1.68535 -1.66283,2.43808 -0.76692,0.75274 -1.40022,1.52535 -1.40731,1.71692 -0.0519,1.40063 -4.51278,3.26981 -7.99697,3.35085 -0.9431,0.0219 -1.85169,0.17685 -2.01909,0.34425 -0.1674,0.16741 -0.60007,0.1909 -0.96147,0.0522 -0.36141,-0.13868 -0.91567,-0.05 -1.23169,0.19713 -1.22328,0.95651 -2.7237,0.98849 -3.6347,0.0775 l -0.9014,-0.9014 0.29667,-1.18203 0.29667,-1.18202 -0.8701,-0.80258 c -0.51108,-0.47143 -2.45875,-1.05875 -4.7204,-1.42344 -5.27121,-0.84998 -5.89599,-0.0953 -1.3287,1.60502 1.23823,0.46095 2.35772,1.11537 2.48777,1.45425 0.13004,0.33888 0.52754,0.61615 0.88334,0.61615 0.38213,0 0.64691,0.4799 0.64691,1.17248 v 1.17249 l -1.19122,0.4529 c -1.61951,0.61574 -2.04303,0.57193 -2.35601,-0.24369 z m -5.29126,-10.91332 c 0.26365,0 0.47936,0.25077 0.47936,0.55728 v 0.55727 l 0.55727,-0.55727 c 0.30651,-0.30651 0.96923,-0.55728 1.47273,-0.55728 1.12541,0 2.61396,-1.28393 2.61396,-2.25464 v -0.7175 l -0.53554,0.53554 -0.53553,0.53554 -0.92005,-0.49239 -0.92005,-0.4924 2.73268,-1.37285 c 2.78545,-1.39936 4.54339,-2.96047 4.11476,-3.65402 -0.32221,-0.52135 -4.38447,-0.10918 -5.14504,0.52203 -0.33447,0.27759 -0.83887,0.36209 -1.12089,0.18779 -0.6005,-0.37112 -3.2431,0.62468 -3.2431,1.22209 0,0.50428 -1.85186,2.40064 -1.87235,1.91734 -0.008,-0.19156 -0.33059,0.0697 -0.71659,0.5805 -0.38599,0.51083 -0.75999,0.8243 -0.83109,0.69659 -0.0711,-0.12771 -0.47328,0.1118 -0.89373,0.53225 l -0.76444,0.76444 1.21774,1.21774 c 0.79534,0.79534 1.51499,1.12339 2.0747,0.94575 l 0.85697,-0.27199 0.0294,0.84399 0.0294,0.84398 0.41999,-1.04489 c 0.231,-0.57469 0.63571,-1.04489 0.89936,-1.04489 z m 32.35753,-11.31288 c 0.94941,-2.86516 0.0229,-4.26022 -2.70127,-4.06722 -0.45519,0.0323 -1.00356,0.74247 -1.32479,1.7158 l -0.54811,1.66078 0.99383,1.05789 c 1.20975,1.28771 3.09606,1.09423 3.58034,-0.36725 z m 6.08625,14.80066 c -2.75168,-2.58122 -2.81886,-3.62058 -0.31654,-4.89717 3.76623,-1.92139 9.25617,-1.60292 9.25617,0.53694 0,0.47985 0.31347,0.87245 0.6966,0.87245 h 0.69659 v 1.62539 1.62539 h -0.69659 c -0.38313,0 -0.6966,0.31864 -0.6966,0.70809 0,0.9473 -1.89684,1.61564 -4.5581,1.60602 l -2.17565,-0.008 z m 8.65324,-23.62873 -1.33899,-1.16264 0.58306,-0.95592 c 0.64244,-1.05328 1.00211,-3.10131 1.23334,-7.02277 0.0836,-1.41871 0.36398,-2.98605 0.62295,-3.48297 0.25898,-0.49692 0.74166,-1.48218 1.07265,-2.18945 l 0.60179,-1.28595 0.3812,0.58936 0.38119,0.58935 0.28635,-1.04489 c 0.15749,-0.57469 0.4486,-1.04489 0.6469,-1.04489 0.45737,0 1.11643,1.4753 0.93357,2.08978 -0.076,0.25542 -0.19793,2.40134 -0.27093,4.76871 -0.073,2.36738 -0.27265,4.9414 -0.44367,5.72005 -0.20886,0.95094 -0.0894,1.67231 0.36391,2.19724 0.37116,0.42983 0.78515,1.23607 0.91998,1.79165 l 0.24512,1.01015 -0.64403,-0.24714 c -0.35421,-0.13593 -0.64403,-0.62308 -0.64403,-1.08255 v -0.83542 l -1.15737,0.5368 c -1.40705,0.65261 -1.50519,1.2334 -0.20841,1.2334 0.52591,0 0.82669,0.20954 0.66841,0.46565 -0.18628,0.30141 -0.58036,0.30908 -1.11726,0.0217 -0.53845,-0.28817 -0.99563,-0.27775 -1.3031,0.0297 -0.32191,0.32191 -0.90255,0.1012 -1.81263,-0.68901 z"
       id="path2" /></g></svg>
